<?xml version="1.0" encoding="UTF-8"?>
<svg id="Layer_1" data-name="Layer 1" xmlns="http://www.w3.org/2000/svg" viewBox="0 0 400 400">
  <path d="M360.17,81c.04-11.24-5.13-22.46-14.53-28.87-7.38-5.62-16.93-6.89-25.95-6.51-81.99.1-163.99-.02-245.98.08-2.53.1-5.03.48-7.5.98-10.29,2.32-19.21,9.77-23.31,19.5-3.82,8.03-2.96,17.12-3.05,25.74.07,76.03.02,152.05.02,228.07.06,7.49,2.68,14.85,6.96,20.96,6.13,8.5,16.6,13.06,26.89,13.48,80.31-.02,160.62-.05,240.93,0,7.6-.19,15.44.71,22.73-1.98,13.64-4.3,23.1-18.24,22.77-32.43.03-79.68,0-159.35.02-239.03ZM325.72,346.39c-83.32.15-166.64.01-249.96.06-14.58.93-28.21-11.78-27.97-26.45-.03-79.69-.04-159.37-.01-239.06.1-8,3.55-16.05,9.86-21.09,4.92-4.37,11.58-6.23,18.06-6.14,82.99-.05,165.98-.02,248.97-.02,6.48,0,13.06,2.16,18.01,6.41,5.42,4.55,8.48,11.43,9.51,18.33-.03,81.39.18,162.8-.08,244.2-1.43,13.01-13.09,24.14-26.39,23.76Z"/>
  <path d="M285.78,128.48c.16.71.5,2.13.67,2.84,2.45.74,5.48,1.9,7.77.11,1.09-2.87.95-6.32.26-9.26-1.87-3.63-6.52-2.15-9.78-2.52-28.59-1.86-56.24-12.12-80.31-27.46-1.92-1.53-4.31-1.87-6.7-1.79-26.48,17.86-57.87,28.97-89.94,29.52-3.97,1.22-2.66,5.91-2.93,9.06.05,20,.02,40.01.06,60.02-.11,7.04.91,14.03,2.06,20.97,5.83,32.45,25.05,61.72,50.99,81.78,11.72,9.05,24.38,17.18,38.03,22.97,1.25.56,2.5,1.13,3.77,1.7,7.37-2.65,14.17-6.64,20.99-10.45,27.46-15.96,51.23-39.63,63.83-69.1,7.27-16.61,10.58-34.81,10.36-52.91-.09-14.37.1-28.75-.05-43.12.16-1.84-1.58-3.01-3.19-3.2-2.17-.32-4.76-.95-6.37,1-10.97,9.98-20.98,20.96-31.63,31.27-14.72,14.96-29.7,29.66-44.52,44.52-4.5,4.6-9.34,8.9-13.43,13.87-3.07-1.97-5.36-4.85-8.02-7.3-6.96-7.03-13.99-14-20.96-21.03-1.13-1.05-2.29-2.48-4-2.28-3.16-.03-6.17,4.37-3.44,6.82,9.34,9.6,19.03,18.87,28.34,28.52,1.95,1.79,3.58,4.05,5.96,5.34,3.46,1.08,5.8-1.85,7.91-4.03,28.18-28.21,56.27-56.52,84.61-84.57.13,7.73.04,15.47-.03,23.22-.11,8.37.4,16.78-.67,25.12-1.81,20.34-9.42,39.9-20.86,56.75-16.19,22.64-38.9,40.13-64.03,51.86-.61-.09-1.82-.26-2.43-.35-4.49-2.49-9.15-4.66-13.58-7.24-27.35-15.72-51.36-39.19-62.73-69.08-7.28-17.7-8.84-37.12-8.35-56.07-.02-15.17.03-30.34-.11-45.51,30.83-1.3,60.64-12.47,86.44-29.02,25.61,16.64,55.4,27.38,86.01,29.03Z"/>
</svg>