<?xml version="1.0" encoding="UTF-8"?>
<svg id="Layer_1" data-name="Layer 1" xmlns="http://www.w3.org/2000/svg" viewBox="0 0 400 400">
  <path d="M359.3,79.51c-.03-1.9-.29-3.8-.6-5.67-2.06-14.99-16.03-28.6-31.51-28.5-1.91-.21-3.8-.3-5.7-.3-80.98-.01-161.97.03-242.95-.02-2.24-.03-4.48.05-6.7.37-6.82.26-13.33,3.6-18.69,7.72-7.67,6.47-12.32,16.34-12.46,26.38.06,80.69-.04,161.39.06,242.09.14,16.07,12.96,31.09,29.07,32.98,5.86.72,11.78.31,17.67.39,77.01.08,154.01.02,231.01.01,3.88-.02,7.8.23,11.66-.41,5.11-.27,9.89-2.74,14.28-5.26,3.46-2.39,6.55-5.3,8.93-8.79l.13.04c.96-1.76,2.08-3.45,2.89-5.28,2.08-4.28,3.04-9,2.9-13.75,0-80.66-.02-161.33.01-242ZM338.28,343.63c-4.12,2.43-8.93,3.41-13.68,3.38-80.68.03-161.35.01-242.03.01-5.38-.07-10.96.46-16.12-1.44-8.25-2.98-15.03-10.18-17.02-18.79-1.19-5.01-.98-10.19-.97-15.29.05-76.66-.12-153.32.16-229.97-.25-9.04,4.15-18.07,11.59-23.24,5.52-4.15,12.64-4.97,19.33-4.97,79.35-.02,158.71.07,238.06-.03,6.96-.22,14.29.12,20.5,3.61,7.83,4.48,12.84,12.95,13.71,21.86.23,79.57.03,159.14.13,238.71.08,4.59-.8,9.16-2.31,13.49-1.02,1.85-2.1,3.67-3.26,5.43-2.21,2.9-5.02,5.29-8.09,7.24Z"/>
  <path d="M292.25,117.96c-1.2-1.32-2.93-2.18-4.71-1.59-7.49,1.25-14.95,2.72-22.3,4.58-5.24.92-10.49,2.07-15.48,3.92-2.44.04-4.73,1.12-7.06,1.73-17.5,5.21-34.77,12.38-49.08,23.95-13.21,10.82-23.65,25.55-27.88,42.21-1.53,4.37-2.37,8.98-2.61,13.59-.56,7.42-.61,15.01,1.19,22.27.49,3.91,1.44,8.14,4.2,11.11,3.04,1.28,5.33-1.63,6.59-3.99-2.68-6.42-3.22-13.44-3.91-20.29-.15-8.52,1.61-16.96,4.08-25.07,1.41-2.7,2.36-5.61,3.81-8.29,8.54-16.81,23.59-29.81,40.76-37.28,11.53-5.6,23.82-9.44,36.25-12.48v-.08c4.21-.95,8.42-1.86,12.63-2.8,4.94-1.14,9.91-2.14,14.91-3.02-.18,15.61-.16,31.22-.25,46.84-.86,9.27-1.98,18.56-4.46,27.57-1.4,4.96-3.17,9.82-5.42,14.46-6.03,11.96-14.6,22.94-25.94,30.26-14.86,9.82-33.7,13.94-51.18,10.03-1.61-.3-3.2-.87-4.84-.7-2.87,1.3-5.14,6.11-1.48,7.9,20.74,6.14,44.05,2.26,62.1-9.56,11.77-7.98,21.58-18.82,28.21-31.41,2.24-4.48,4.6-8.96,5.96-13.8,3.32-9.68,5.5-19.86,5.87-30.1l.6-.02-.24-.84c.79-14.81.21-29.66.46-44.48-.32-4.86.61-9.89-.78-14.62Z"/>
  <path d="M191.69,239.17c3.16-4.71,6.66-9.17,9.95-13.78,11.92-14.89,25.46-28.47,40.15-40.64,3.26-2.04,1.2-7.27-2.28-7.64-2.75-.34-4.53,2.24-6.5,3.71-15.06,12.62-28.76,26.86-40.55,42.58-1.8,2.34-3.58,4.7-5.35,7.06-2.18,3.16-4.19,6.44-6.26,9.68-.95,1.4-1.9,2.81-2.84,4.22-1.74,3.06-3.77,5.99-5.15,9.23-2.86,4.52-5.18,9.37-7.16,14.33l-.26.04c-.62,1.41-1.24,2.83-1.86,4.25-.75,1.63-1.48,3.25-2.23,4.88-1.97-3.16-2.83-6.83-4.49-10.14-1.56-2.73-.43-5.86-.16-8.75.69-6.85.15-13.95-2.12-20.47-.96-3.62-1.98-7.48-4.23-10.48-2.12-4.7-5.56-8.65-9.29-12.14-11.66-10.5-27.33-14.73-42.48-17.06-2.11-.23-3.28,1.93-4.49,3.26.06,10.42.56,20.95,3.08,31.1,2.74,9.84,7.65,19.44,15.65,26.02v.12c3.38,2.56,6.75,5.56,10.94,6.64,7.61,4.24,16.56,4.58,25.05,3.93.59,1.29,1.18,2.57,1.79,3.86.61,1.68,1.22,3.36,1.81,5.05l.3.1c1.01,3.71,2.47,7.28,3.8,10.89,0,.46-.01,1.4-.02,1.86-.7,2.16-1.48,4.32-1.83,6.58-1.22,3.96-2.56,7.94-2.94,12.09.1,3.06,4.27,4.4,6.59,2.8,2.26-1.05,2.14-4.12,2.28-6.22,3.28-9.84,5.93-19.91,10.14-29.43,4.73-11.48,11.27-22.08,17.59-32.73,1.31-1.46,2.27-3.19,3.37-4.8ZM117.32,250.65c-11.62-10.96-13.78-27.8-14.41-42.93,7.45,1.33,14.74,3.6,21.59,6.83,6.39,2.99,11.74,7.83,16.09,13.32,3.41,4.98,5.84,10.66,6.86,16.63.91,5.36.59,10.82.5,16.23-4.88.31-9.81.12-14.55-1.16-5.98-1.63-11.55-4.69-16.08-8.92Z"/>
</svg>