<?xml version="1.0" encoding="UTF-8"?>
<svg id="Layer_1" data-name="Layer 1" xmlns="http://www.w3.org/2000/svg" viewBox="0 0 400 400">
  <path d="M357.54,79.88c.26-8.45-2.57-17.01-8.06-23.47-5.78-6.91-14.39-11.29-23.38-11.84-69.69-.01-139.37.01-209.06-.02-15.36.23-30.75-.39-46.09.32-3.23.55-6.37,1.55-9.27,3.07-2.05.82-3.85,2.11-5.72,3.24-3.36,2.82-6.49,5.95-8.73,9.76l-.11-.04c-1.22,2.59-2.4,5.2-3.48,7.85-.56,2.67-1.21,5.34-1.2,8.09.02,81.71,0,163.42.02,245.12-.49,14.02,9.28,27.62,22.65,31.81,6.71,2.47,13.95,1.52,20.94,1.61,76.68.07,153.37-.06,230.05.05,6-.04,12.18.51,17.97-1.46,8.13-2.41,14.83-8.33,19.16-15.52,1.72-3.24,2.99-6.7,3.68-10.31.45-3.09.69-6.21.63-9.33.06-79.64-.01-159.28,0-238.93ZM324.1,347.43c-78.01.02-156.02.02-234.03,0-5.43-.08-10.86.3-16.27-.14-10.18-.89-19.46-8.46-22.21-18.32-1.49-4.54-1.13-9.37-1.14-14.07.05-76.67.01-153.34.03-230,.05-4.02-.25-8.09.6-12.04.55-1.75,1.18-3.48,1.8-5.2,2.34-4.33,5.66-8.13,9.77-10.85,1.1-.69,2.25-1.33,3.43-1.89,3.82-1.44,7.89-2.25,11.98-2.26,76.69.07,153.37.02,230.06.02,7.66.1,15.41-.43,22.98,1.08,3.06,1.56,6.32,2.88,8.93,5.19,4.96,4.16,7.93,10.23,9.22,16.5.41,81.13,0,162.28.27,243.42.1,4.93-.98,9.86-3.01,14.35-4.17,8.33-13.05,14.13-22.41,14.22Z"/>
  <path d="M199.1,169.33c6.74.27,13.36-2.79,17.81-7.81,9.77-10.3,9.44-28.66-1.07-38.33-5.77-5.68-14.59-7.91-22.38-5.75-6.82,1.79-12.68,6.73-15.64,13.13-3.35,6.68-3.57,14.62-1.43,21.7,3.06,9.61,12.39,17.34,22.71,17.06ZM195.41,125.46c5.08-1.26,10.82-.01,14.69,3.58,8.82,8.32,7.16,25.33-4.08,30.74-7.7,4.04-17.57-.4-20.99-8.03-4.69-9.48-.47-23.46,10.38-26.29Z"/>
  <path d="M123.07,180.21c7.38.19,14.73-3.12,19.36-8.89,7.75-9.76,7.6-24.84-.29-34.47-5.35-6.45-14.3-9.89-22.57-8.22-3.44.66-6.75,2.03-9.6,4.07-8.52,6.2-11.94,17.91-9.58,27.97,2.01,10.62,11.79,19.31,22.68,19.54ZM118.43,137.49c6.96-3.02,15.47.77,18.85,7.33,4.55,7.82,2.74,19.12-4.76,24.47-5.21,3.72-12.6,3.57-17.74-.21-10.41-7.72-8.91-26.87,3.65-31.59Z"/>
  <path d="M257.02,171.67c1.89,1.91,3.98,3.61,6.21,5.13,8.67,5.4,20.54,4.09,28.07-2.68,11.64-10.13,11.33-30.96-.92-40.47-5.09-4.44-12.21-6-18.8-5.06-6.22,1.26-11.86,4.75-15.61,9.89-4.64,6.53-5.43,14.81-4.2,22.53,1.15,3.82,2.83,7.47,5.25,10.66ZM269.64,137.64c7.1-2.99,15.98.41,19.47,7.22,4.65,7.99,2.35,19.48-5.39,24.69-3.87,2.67-8.93,3.11-13.36,1.73-1.91-.91-3.72-2-5.41-3.26-7.51-7.48-7.04-20.73.65-27.9,1.33-.84,2.66-1.7,4.04-2.48Z"/>
  <path d="M317.29,214.6c-4.63-11.83-15.19-20.7-27.1-24.63-10.76-3.71-22.83-3.1-33.23,1.47-4.17,1.91-8.59,3.81-11.47,7.54-1.17.84-2.46,1.49-3.8,1.99-8.49-14.87-25.47-24.57-42.64-23.9-11.62-.13-23.11,4.43-31.92,11.92-4.3,3.6-7.13,8.49-10.73,12.7-12.72-14.35-35.16-18.15-52.27-9.9-11.64,5.2-20.89,15.78-23.88,28.24-2.39,9.21-.89,18.77-1.49,28.15,1.27,3.1,6.51,3.74,8,.58.84-10.66-1.6-21.95,2.96-32.04,6.52-15.62,25.32-23.76,41.45-20.24,9.71,1.84,19.31,8.07,22.67,17.71,3.33,8.88,1.28,18.47,2.12,27.67,1.57,3.07,6.39,2.93,7.74-.21.4-6.22.18-12.47.2-18.7.02-5.19-2.05-10.03-2.78-15.09,1.57-2.89,4.47-4.78,6.4-7.43,7.81-10.15,20.81-16.08,33.59-15.33,10.34.21,20.46,4.78,27.7,12.12,6.47,6.39,10.14,15.54,9.8,24.64-.08,6.74-.05,13.47-.07,20.21,1.05.71,2.08,1.5,3.26,2.02,1.59.15,2.94-.91,4.35-1.5.72-9.03.58-18.19.15-27.24.31-2.77-1.22-5.49-.37-8.27,1.15-.8,2.31-1.62,3.48-2.43,5.33-3,10.45-6.71,16.64-7.78,16.81-4.57,36.36,4.11,43.57,20.12,4.58,10.18,1.93,21.6,3.08,32.3,2.06,2.74,8.07,1.75,7.55-2.34-.4-10.78,1.56-22.17-2.96-32.35Z"/>
  <path d="M301.16,282.26h.66c-7.38-4.32-15.07-8.13-23.02-11.28l-.04-.18c-4.52-1.58-8.88-3.72-13.59-4.67l.47-.27c-16.41-5.02-33.4-8.21-50.5-9.5-7.37.2-14.72-1.28-22.06-.3-37.6,1.27-75.4,11.99-106.56,33.42-2.79,2.33.24,7.47,3.58,6.64,3.12-1.55,5.92-3.65,8.95-5.37,49.99-29.39,112.71-34.03,167.41-15.86v.23c2.02.66,4.04,1.36,6.06,2.09,8.46,3.39,16.8,7.1,24.77,11.56v.16c4.53,2.13,8.52,5.19,12.88,7.61,2.54-1.11,4.74-3.41,3.66-6.39-3.71-3.3-8.17-5.88-12.67-7.89Z"/>
</svg>