<?xml version="1.0" encoding="UTF-8"?>
<svg id="Layer_1" data-name="Layer 1" xmlns="http://www.w3.org/2000/svg" viewBox="0 0 400 400">
  <path d="M357.76,316.99c-.06-78.35.01-156.69-.03-235.04.08-4.1-.6-8.17-1.58-12.14-3.24-9.76-10.52-18.25-20.3-21.85-4.13-1.59-8.55-2.18-12.94-2.32-78,0-156,.04-234,0-9.47.05-19.48-.86-28.19,3.66-8.38,4.49-15.19,12.31-17.38,21.68-1.02,3.87-1.18,7.9-1.12,11.89,0,79.01-.01,158.02.02,237.02-.29,12.95,7.34,26.01,19.38,31.21,8.43,4.39,18.14,3.06,27.28,3.26,78.33-.02,156.67.01,235-.01,11.46.14,22.61-6.1,28.54-15.9,3.92-6.39,5.56-14.01,5.32-21.46ZM345.67,333.78c-4.62,7.94-13.65,12.64-22.75,12.6-80,.09-160.01-.04-240.02.05-5.84.19-11.87.07-17.27-2.42-9.46-3.86-15.43-14.06-15.44-24.09.06-78.67,0-157.34.01-236.01.02-2.93-.07-5.89.42-8.78,1.66-7.92,6.79-15.23,14.17-18.77,3.78-1.68,7.86-2.84,12.04-2.8,82.94.2,165.89-.13,248.84.18,11.47,1.07,21.5,10.39,23.37,21.77,1.2,8.06.39,16.26.63,24.38,0,71.68-.01,143.36.02,215.04.33,6.48-.5,13.25-4.02,18.85Z"/>
  <path d="M217.44,200.39c3.72-.4,4.22-6.72.46-7.51-9.16-.34-18.33-.02-27.49-.09-.12-13.14.09-26.28-.11-39.41,9.47-.04,18.95-.03,28.42-.11,3.44-.02,6.88-.09,10.32-.42,1.58,4.97,2.97,10.02,3.82,15.19l.34-.53c.14,5.14,1.39,10.21,1.69,15.36,1.17,4.51,8.77,2.6,7.45-1.97-.82-7.99-1.83-16.14-4.66-23.71.04-1.85-.73-3.59-1.21-5.33,1.88-.31,3.77-.63,5.65-1l-.53-.38c8.25-.77,16.25-4.81,22.65-10.09,7.31,9.56,11.37,21.03,14.55,32.5,1.4,3.63,6.79,2.27,7.76-.91-4.92-26.83-22.6-50.25-45.47-64.65-2.56-1.45-5.07-3-7.75-4.2-3.83-2-7.76-3.83-11.92-5.01l-.02-.29c-2.3-.7-4.59-1.42-6.86-2.16-3.8-1.09-7.66-2.03-11.6-2.45-1.13-.2-2.25-.41-3.35-.58-13.88-1.06-28.2-1.1-41.56,3.27-2.29.59-4.53,1.33-6.79,1.96l-.05.34c-5.07,1.61-9.86,3.94-14.54,6.45-6.05,3.42-11.77,7.38-17.09,11.86-1.81,1.54-3.54,3.16-5.21,4.84-5.82,5.93-11.16,12.39-15.32,19.6l-.13-.12c-2.01,3.8-4.27,7.49-5.82,11.52l-.47.11c-.13.6-.23,1.23-.3,1.87-2.47,4.71-4.05,9.86-5.23,15.04l-.3.07c-1.1,6.25-3.02,12.48-2.99,18.85-.54,5.37-.57,10.81,0,16.19-.18,7.83,2.18,15.48,4.02,23.04l.27.07c1.08,4.24,2.75,8.3,4.41,12.34,7.02,15.54,17.63,29.45,31.14,39.89,4.51,3.54,9.44,6.48,14.48,9.2,1.9.83,3.67,2.22,5.76,2.51,3.37,1.91,7,3.44,10.78,4.31,4.3,1.52,8.81,2.31,13.23,3.4l.45-.17c8.99,1.81,18.29,1.83,27.39.96,1.13-2.03,2.95-4.82.78-6.84-1.45-2.14-4.12-1.93-6.35-1.58.67-14.57-.08-29.18.32-43.77,2.74.12,4.98-2.26,4.25-5.02-.11-2.23-2.55-2.67-4.29-2.81,0-13.19-.13-26.39-.03-39.59,9.01.1,18.03.06,27.04-.04ZM149.14,240.52c-1.69-.02-3.37,0-5.04.11-1.54-5.22-3-10.48-3.95-15.85-.63-3.38-1.23-6.77-1.62-10.18-.17-2.44-.34-4.88-.57-7.3-.17-2.28-.29-4.56-.27-6.82,14.97.03,29.95-.07,44.93-.09.02,1.54.03,3.09.04,4.66-.03,1.31-.04,2.63-.04,3.97.06,10.31-.12,20.63.09,30.95-11.17.74-22.39-.17-33.57.55ZM143.66,154.23c.11-.31.32-.94.43-1.25,2.43.09,4.86.2,7.3.27,8,.19,16.02.11,24.03.05,2.41.01,4.82.03,7.24.06-.2,10.12.01,20.25,0,30.38,0,3,0,6,.02,9.01-3.07.01-6.12.08-9.17.08-3.42-.07-6.84-.1-10.24.03-7.32-.19-14.63-.08-21.94-.1h-3.64c.04-2.39.08-4.78.24-7.14.29-2.76.49-5.51.78-8.25.34-3.02.83-6.02,1.45-8.99,1.03-4.75,2.07-9.51,3.5-14.15ZM216.19,104.86c4.86,1.63,9.61,3.58,14.18,5.89,2.09,1.08,4.13,2.26,6.14,3.5,8.8,5.42,16.69,12.3,23.25,20.3-5.21,5.14-12.25,7.66-19.22,9.33-2.11.46-4.26.83-6.41.85-.55-.89-.99-1.82-1.45-2.71-2.03-6.98-5.91-13.2-9.53-19.42-4.6-7.57-10.15-14.74-17.28-20.07.27-.1.8-.31,1.06-.41,1.52.5,3.06.98,4.62,1.38,1.55.44,3.09.88,4.64,1.36ZM197.2,104.73c1.45.95,2.85,1.99,4.21,3.1,10.93,9.46,18.77,22.05,24.21,35.34.26.63.76,1.88,1.01,2.51-2.59.05-5.17.09-7.75.1-9.51-.07-19.03.13-28.54-.02,0-12.92-.1-25.83-.07-38.75.06-1.71-.07-3.52.88-5.02l.41-.33c1.9.97,3.78,1.98,5.64,3.07ZM182.48,101.02c.06,1.61.11,3.23.16,4.86-.06,9.59.01,19.18.01,28.78-.03,3.76-.04,7.53-.07,11.3l-.4.02c-11.34.41-22.67-.36-34,.01-.35-.22-1.05-.67-1.4-.89,1.46-3.47,2.98-6.9,4.65-10.27,1.29-2.63,2.67-5.2,4.22-7.69,2.37-3.78,4.9-7.48,7.79-10.89,2.76-3.16,5.66-6.2,8.91-8.87,3.14-2.47,6.64-4.43,10.13-6.36ZM120.07,127.17c2.65-2.55,5.41-4.99,8.28-7.3,3.96-3.17,8.29-5.82,12.69-8.33,4.8-2.63,9.85-4.81,15.05-6.52,2.99-.94,6.03-1.75,9.07-2.57.32-.06.97-.18,1.3-.24.06.12.19.36.25.48-3.27,3.22-6.74,6.25-9.59,9.87-2.36,2.89-4.48,5.96-6.5,9.1-2.08,3.22-4,6.53-5.7,9.96-1.67,3.35-3.22,6.76-4.65,10.23-.44,1.03-.86,2.08-1.27,3.14-9.2-1.13-18.81-3.82-25.63-10.41,2.19-2.51,4.33-5.07,6.7-7.41ZM108.82,140.49c7.88,6.57,17.91,9.81,27.88,11.5-.95,3.69-1.96,7.37-2.79,11.1-.4,1.75-.79,3.5-1.09,5.29-1.57,8-2.35,16.14-2.38,24.3-.67.01-2,.05-2.67.06-12.08.03-24.16-.17-36.23.19.26-4.35.73-8.69,1.43-12.98,1.22-6.17,2.77-12.27,4.94-18.17.35-1.03.71-2.05,1.12-3.04,2.29-5.02,4.73-10,7.58-14.73.72-1.19,1.46-2.36,2.21-3.52ZM100.52,237.93c-4.5-9.3-6.91-19.43-8.47-29.6-.02-.16-.06-.48-.08-.63-.18-2.42-.31-4.84-.45-7.24,12.97,0,25.94-.02,38.92-.02.04,3.03.04,6.08.33,9.12.38,5.83,1.23,11.63,2.33,17.38,1.04,5.03,2.51,9.94,3.66,14.95-7.36,1.06-14.68,3.15-21.11,6.93-2.24,1.39-4.39,2.91-6.58,4.36-3.33-4.8-6.14-9.94-8.55-15.25ZM166.39,290.63c-6.1-1.57-12.16-3.38-18-5.76-1.98-.89-3.93-1.81-5.9-2.69-4.76-2.58-9.37-5.46-13.66-8.77-5.6-4.38-10.83-9.28-15.18-14.92,2.02-1.34,4.03-2.69,6.15-3.85,6.23-2.99,12.91-5.78,19.95-5.52,1.02,3.82,2.7,7.41,4.45,10.95,1.74,3.5,3.63,6.94,5.72,10.26,2.12,3.3,4.32,6.57,6.79,9.63,2.42,2.98,4.98,5.88,8.01,8.28.76.61,1.54,1.24,2.34,1.87-.17.13-.5.39-.67.52ZM178.18,289.35c-2.39-1.42-4.68-3.02-6.81-4.79-3.21-2.75-6.14-5.78-8.88-8.98-2.55-3.09-4.88-6.35-6.99-9.75-2.6-4.31-4.79-8.85-6.9-13.41-.67-1.54-1.25-3.12-1.7-4.72,11.68-.04,23.36-.24,35.03.06l.68.39c.01,14.57-.07,29.14.13,43.71-1.54-.82-3.07-1.65-4.56-2.51Z"/>
  <path d="M310.89,185.48c-5.89.67-11.78,1.35-17.63,2.31-7.17,1.13-14.3,2.46-21.36,4.13-7,1.72-13.86,4.04-20.44,6.97-14.11,6.33-26.85,16.34-34.81,29.75-6.16,9.96-9.28,21.64-9.45,33.32.24,2.78.55,5.56,1.04,8.33.01,3.21,1.19,6.26,2.28,9.25,3.6.61,8.24-2.57,6.84-6.52-.54-2.86-1.08-5.73-1.55-8.59.25-1.42.24-2.85.28-4.25-.03-9.66,3-19.09,7.8-27.4,8.59-13.11,21.71-22.93,36.46-28.13l.08-.2c14.95-5.1,30.58-8.02,46.28-9.55.06,18.16-2.14,36.47-8.59,53.53l-.24.04c-7.2,18.61-22.51,34.93-42.42,39.45l.21.3c-3.84.21-7.6,1.14-11.41,1.59-.95-.4-1.89-.41-2.83-.05-4.95-.39-9.87-1.13-14.65-2.49.91-2.31,2.23-4.43,3.68-6.44,13.01-18.76,30.02-34.24,47.11-49.2,1.66-1.22,2.26-3.69.88-5.35-1.43-2.59-5.08-2.62-6.99-.57-10.35,9.22-20.59,18.61-30.21,28.6-6.27,6.41-11.64,13.63-17.07,20.74v.27c-3.21,4.52-6.5,9.02-8.95,14.01l-.13.03c-.42.75-.82,1.51-1.22,2.29-3.52,6.19-6.3,12.76-8.85,19.41-.54,1.54-1.15,3.13-1.06,4.81.58,3.92,7.47,4.11,8.09.07,1.93-5.85,4.39-11.51,7.26-16.96.83-1.45,1.66-2.89,2.51-4.32.59-.01,1.78-.03,2.37-.04,6.56,3.26,14.13,3.8,21.35,3.67,1.15-.14,2.31-.29,3.49-.43,4.2-.39,8.36-1.14,12.34-2.59,21.9-6.75,38.6-25.57,45.87-46.92,3.38-8.39,5.34-17.29,6.71-26.2,1.28-11.27,2.34-22.63,1.51-33.96-.65-1.86-2.63-3.13-4.58-2.71Z"/>
</svg>