<?xml version="1.0" encoding="UTF-8"?>
<svg id="_图层_1" data-name="图层 1" xmlns="http://www.w3.org/2000/svg" viewBox="0 0 200 200">
  <defs>
    <style>
      .cls-1 {
        fill: #0a494e;
      }

      .cls-2 {
        fill: #616161;
      }
    </style>
  </defs>
  <path class="cls-1" d="M141.37,44c.2,5.09-3.07,11.21-6.32,14.99-.44,.51-1.2,.57-1.72,.14-5.25-4.37-7.97-9.2-8.18-14.49-.21-5.29,2.13-10.32,7.01-15.09,.48-.47,1.25-.47,1.73,0,3.54,3.52,7.28,9.36,7.48,14.45Zm-12.9,.47c.05,3.42,1.63,6.92,4.73,10.5,.13,.15,.36,.17,.51,.04,.01-.01,.03-.02,.04-.04,2.31-2.78,4.35-6.99,4.3-10.64-.06-3.65-2.22-7.8-4.61-10.51-.14-.15-.37-.16-.52-.03-.01,.01-.02,.02-.03,.04-2.99,3.67-4.47,7.21-4.42,10.64Z"/>
  <path class="cls-1" d="M159.46,64.81c-6.98,3.55-14.3,2.72-21.56,.37-.8-.26-1.23-1.12-.97-1.92,.01-.03,.02-.06,.03-.09,2.77-6.91,6.66-13,13.32-16.4,6.66-3.39,13.88-2.95,21.09-1.12,.81,.21,1.31,1.03,1.1,1.85,0,.03-.02,.07-.03,.1-2.37,7.24-6.01,13.65-12.98,17.21Zm-7.56-15.07c-4.7,2.47-8.16,6.56-10.38,12.26-.09,.24,.03,.5,.27,.59,0,0,.01,0,.02,0,6.18,1.95,11.65,1.68,16.42-.83,4.76-2.51,8.09-6.86,9.98-13.06,.07-.24-.06-.5-.31-.57,0,0-.02,0-.02,0-5.95-1.4-11.28-.86-15.98,1.61Z"/>
  <path class="cls-1" d="M120.54,161.37c-3.49-.86-10.58-3.57-13.18,.92-1.08,1.85-1.63,4.2-3.78,5.63-1.44,.95-3.08,1.61-4.93,1.96-19.8,3.77-41.32-4.23-54.56-19.18-11.57-13.06-17.09-28.77-16.58-47.14,.09-3.39,1.66-6.19,4.7-8.4,4.94-3.58,5.01-11.4,4.31-17.27-.22-1.86,1.08-4.84,2.25-6.59,5.95-8.95,13.81-15.7,23.57-20.24,24.07-11.19,47.85-5.88,67.53,11.03,12.05,10.36,18.95,23.97,20.72,40.82,2.2,20.93-7.54,41.53-23.04,54.75-2.06,1.76-3.99,2.97-5.79,3.64-.39,.14-.82,.17-1.22,.07Zm.69-4.65c15.42-10.29,24.08-26.81,25.11-45.09,.93-16.68-4.34-31.13-15.8-43.35-8.12-8.66-19.34-14.59-30.75-17.47-10.07-2.55-19.89-1.2-29.75,1.93-11.87,3.78-21.26,11.2-28.19,22.27-.76,1.21-1.11,2.64-1,4.06,.6,7.9,.54,15.08-6.16,20.23-1.71,1.32-2.27,1.99-2.5,4.08-.79,7.03-.12,13.98,2.01,20.85,6.15,19.88,19.11,33.16,38.88,39.84,6.95,2.35,14.22,3,21.82,1.95,2.93-.41,4.77-.83,5.51-1.26,.39-.23,.74-.53,1.02-.87,.05-.07,.54-1.02,1.47-2.86,3.17-6.32,11.36-7.22,17.16-4.24,.37,.19,.82,.17,1.17-.07Z"/>
  <path class="cls-2" d="M74.76,65.83c-8.58,2.7-15.84,7.96-21.78,15.78-.54,.71-1.14,.9-1.79,.57-.59-.3-.83-1.02-.53-1.62,.03-.06,.07-.12,.11-.18,6.19-8.41,13.93-14.08,23.21-17,9.29-2.93,18.88-2.72,28.78,.61,.63,.21,.98,.9,.77,1.52-.02,.07-.05,.13-.09,.2-.35,.64-.94,.83-1.79,.56-9.35-3-18.32-3.15-26.89-.44Z"/>
  <path class="cls-2" d="M134.38,107.07c.17,17.51-8.62,31.87-23.45,41.56-.67,.44-1.55,.33-2.1-.24h-.01c-.41-.44-.4-1.11,.02-1.52,.06-.05,.12-.1,.19-.14,14.09-8.64,22.9-23.2,22.74-39.63-.16-16.43-9.26-30.81-23.52-39.18-.5-.3-.67-.95-.36-1.46,.04-.06,.08-.12,.13-.18v-.02c.55-.58,1.43-.69,2.1-.27,15.01,9.39,24.09,23.58,24.26,41.08Z"/>
  <path class="cls-2" d="M98.61,78.26v.42c0,.36-.29,.65-.65,.65-.06,0-.12,0-.17-.02-14.96-3.99-26.48-.22-34.55,11.29-2.1,2.99-3.71,6.78-4.84,11.35-.95,3.87-.85,7.96,.29,12.29,3.27,12.44,11.51,19.84,24.71,22.19,7.46,1.32,13.85-1.01,20.56-4.87,.53-.31,1.22-.13,1.53,.41,.01,.02,.03,.05,.04,.07l.05,.08c.3,.61,.11,1.34-.45,1.73-10.85,7.5-27.34,7.16-37.74-1.59-9.92-8.34-13.69-18.92-11.31-31.75,1.51-8.08,6.48-14.31,12.86-19.16,8.17-6.21,17.66-7.76,28.49-4.65,.7,.19,1.18,.83,1.18,1.56Z"/>
  <path class="cls-2" d="M119.73,101.86c1.26,7.27-.32,14.67-4.73,22.21-.38,.65-1.18,.93-1.88,.65l-.08-.03c-.54-.21-.81-.82-.6-1.36,.03-.08,.07-.15,.12-.22,4.36-6.21,5.58-13.2,4.27-20.75-1.31-7.56-4.81-13.73-10.99-18.11-.48-.33-.59-.99-.26-1.46,.05-.07,.1-.13,.17-.19l.07-.06c.57-.49,1.41-.5,1.98-.02,6.7,5.62,10.68,12.07,11.93,19.34Z"/>
  <path class="cls-2" d="M72.85,118.5c-.04,.55-.53,.96-1.09,.91-.22-.02-.44-.11-.61-.26-.71-.62-1.33-1.58-1.87-2.89-2.45-5.9-2.41-11.53,.1-16.9,4.34-9.27,14.71-14.18,24.49-10.29,23.63,9.38,11.91,45.21-13.09,37.78-1.28-.39-2.39-.96-3.34-1.72-.52-.43-.6-1.21-.17-1.73,.36-.43,.97-.57,1.48-.33,21.8,10.46,35.3-20.25,16.63-30.84-6.46-3.67-15.02-2.19-20.05,3.35-5.85,6.45-6.71,13.86-2.57,22.25,.08,.16,.11,.38,.09,.67Z"/>
  <path class="cls-2" d="M91.78,100.8c3.79,2.49,4.8,7.63,2.27,11.48h0c-2.53,3.85-7.65,4.96-11.44,2.48-3.79-2.49-4.8-7.63-2.27-11.48h0c2.53-3.85,7.65-4.96,11.44-2.48Zm-2.07,1.63c-2.8-1.3-6.16,.01-7.51,2.92-1.35,2.91-.18,6.32,2.61,7.62,2.8,1.3,6.16,0,7.51-2.92h0c1.35-2.91,.18-6.32-2.62-7.62Z"/>
  <path class="cls-2" d="M101.31,147.32c.45-.21,.99,0,1.19,.45,.02,.03,.03,.07,.04,.1l.1,.33c.15,.47-.05,.98-.48,1.22-10.79,6.08-26.9,3.82-37.16-2.35-16.34-9.82-23.58-26.41-21.65-45.26,.07-.71,.7-1.23,1.41-1.15,.01,0,.02,0,.04,0l.21,.02c.7,.09,1.19,.72,1.1,1.42,0,0,0,.02,0,.02-2.23,15.17,3.94,31.65,16.95,40.4,11.79,7.94,25.37,10.69,38.25,4.8Z"/>
</svg>