<?xml version="1.0" encoding="UTF-8"?>
<svg id="_图层_1" data-name="图层 1" xmlns="http://www.w3.org/2000/svg" viewBox="0 0 200 200">
  <defs>
    <style>
      .cls-1 {
        fill: #db6a3a;
      }

      .cls-2 {
        fill: #0a494e;
      }

      .cls-3 {
        fill: #616161;
      }
    </style>
  </defs>
  <rect class="cls-3" x="67.97" y="41.3" width="2.44" height="15.26" rx="1.18" ry="1.18" transform="translate(-.09 .12) rotate(-.1)"/>
  <g>
    <path class="cls-2" d="M131.7,50.89c-.21-.03-.5,.08-.86,.33-7.49,5.15-5.78,17.04-10.61,27.01-1.67,3.45-4.94,6.59-7.43,9.44-.58,.66-.82,1.54-.67,2.4,.66,3.83,1.48,7.64-2.36,10.28-5.02,3.46-7.57,5.22-7.66,5.29-4.96,3.49-1.49,10.54-1,14.76,.64,5.4-2.08,8.59-6.88,11.78-4.7,3.12-9.54,6.21-12.2,10.66-.85,1.43-.82,3.01,.11,4.75,3.41,6.35,6.49,11.97,4.1,19-.49,1.43-1.84,2.4-3.35,2.39-12.76-.02-25.61-.01-38.56,.02-1.31,0-2.02-.69-2.13-2.1-.03-.35,.08-.7,.29-.98,3.93-5.2,6.98-11.42,9.17-18.65,2.46-8.14,4.4-15.97,5.08-23.96,.42-4.96,1.28-11.06,1.47-16.89,.38-11.23,.53-22.66,.45-34.28-.14-20.77-.18-31.94-.13-33.49,.09-2.49,.14-4.84,.17-7.04,.01-.94,.75-1.7,1.69-1.73h.08c.92-.03,1.69,.69,1.72,1.61h0c.63,19.03-.08,38.07,.17,54.99,.14,9.93-.61,22.24-1,29.73-.84,16.4-5.06,33.64-13.25,48.27-.12,.2-.05,.47,.16,.59,.07,.04,.14,.06,.22,.06h33.04c.49,0,.93-.31,1.1-.77,1.99-5.37-.81-8.69-3.66-14.31-3.69-7.28,2.03-12.67,7.35-16.87,.68-.53,3.48-2.56,8.39-6.07,5.98-4.28,.37-11.78,1.01-17.67,.65-5.84,6.58-8.68,11.82-12,1.24-.79,1.86-2.26,1.55-3.7-.49-2.26-.7-3.84-.64-4.75,.21-3.25,2.86-5.52,5.97-8.96,8.48-9.4,3.39-27.23,16.97-33.27,.39-.17,.66-.55,.68-.98l.77-14.17c.04-.9,.82-1.6,1.73-1.56,.09,0,.18,.02,.27,.04l.1,.02c1.04,.21,1.76,1.16,1.7,2.22-1.11,19.13-1.61,38.04-1.5,56.72,0,1.07-.83,1.96-1.9,2.01l-.18,.02c-.95,.08-1.79-.63-1.86-1.58,0-.06,0-.11,0-.17l.71-38.2c0-.12-.08-.22-.2-.24Z"/>
    <path class="cls-3" d="M82.61,37.78h.04c.46-.08,.9,.23,.97,.7,0,.03,0,.05,0,.08,.39,7.65,.33,14.18-.18,19.57-.36,3.86-1.58,7.26-3.54,12.03-3.54,8.65-3.48,19.92-1.68,29.06,2.01,10.21,3.87,22.24-2.14,30.79-.4,.57-1.15,.75-1.68,.41-.11-.07-.21-.17-.29-.28-.19-.29-.19-.68,0-1.19,2.49-6.51,4.34-13.74,2.97-21.35-2.24-12.41-3.68-22.59-1.4-33.79,.5-2.42,1.64-5.61,3.43-9.56,1.01-2.25,1.65-5.03,1.92-8.35,.18-2.28,.39-7.96,.64-17.04,.02-.54,.41-.99,.93-1.08Z"/>
    <path class="cls-3" d="M104.26,40.72c.17,3.66,.04,10.64-.4,20.93-.27,6.15-2.26,11.17-5.99,15.08-2.49,2.61-2.54,9.78-2.35,13.3,.04,.72-.51,1.34-1.24,1.38-.04,0-.09,0-.13,0h-.07c-.8-.04-1.44-.69-1.45-1.5-.06-5.26,.67-9.7,2.2-13.32,.03-.05,.06-.1,.09-.15l3.11-4.28c.48-.66,.84-1.39,1.09-2.16,.97-3.09,1.56-5.86,1.77-8.33,.54-6.23,.68-13.07,.41-20.52-.03-.83,.57-1.55,1.39-1.66h.08c.72-.11,1.38,.39,1.48,1.12,0,.04,0,.08,.01,.11Z"/>
    <path class="cls-1" d="M134.72,102.35c.79,0,1.5,.49,2.13,1.49,5.09,8.02,10.64,17.22,16.64,27.6,7.16,12.39,5.68,26.51-6.46,34.96-3.51,2.45-7.46,3.69-11.85,3.72-4.39,.03-8.36-1.16-11.91-3.56-12.25-8.29-13.92-22.38-6.93-34.87,5.86-10.46,11.28-19.74,16.27-27.83,.62-1.01,1.32-1.51,2.11-1.51Zm.38,64.23c4.73-.02,8.87-1.74,12.43-5.16,7.7-7.39,8.98-16.05,3.84-25.98-2.41-4.66-7.86-13.96-16.33-27.91-.02-.04-.08-.07-.14-.07h-.15c-.06,0-.11,.03-.13,.07-8.35,14.03-13.71,23.38-16.08,28.06-5.05,9.97-3.69,18.62,4.07,25.94,3.59,3.39,7.76,5.07,12.49,5.05Z"/>
  </g>
  <path class="cls-1" d="M145.9,155.34c-1.47,1.91-5.44,5.39-8.06,4.73-.75-.2-1.2-.97-1.01-1.72,.11-.42,.41-.77,.81-.94,2.37-.99,4.24-2.37,5.59-4.13,1.35-1.75,2.21-3.9,2.56-6.45,.11-.77,.82-1.31,1.59-1.2,.44,.06,.82,.33,1.04,.71,1.3,2.36-1.05,7.1-2.52,9Z"/>
</svg>