<?xml version="1.0" encoding="UTF-8"?>
<svg id="_图层_1" data-name="图层 1" xmlns="http://www.w3.org/2000/svg" viewBox="0 0 200 200">
  <defs>
    <style>
      .cls-1 {
        fill: #db6a3a;
      }

      .cls-2 {
        fill: #0a494e;
      }
    </style>
  </defs>
  <path class="cls-2" d="M79.34,39.66c-.18,.21-.29,.48-.31,.77-.49,7.67-.25,14.78,.74,21.33,.75,4.92,3.94,7.57,8.04,12.14,4.75,5.29,7.16,11.77,7.23,19.42,.12,12.05,.11,23.27-.03,33.68-.15,10.09,.18,22.79,.12,33.38-.04,6.56-1.11,10.2-6.61,12.57-.98,.43-3.08,.63-6.29,.62-16.41-.05-25.59-.09-27.53-.11-5.55-.06-9.1-2.84-10.65-8.34-.07-.25-.11-.5-.11-.75-.17-32.31-.2-55.32-.09-69.03,.1-11.46,4.35-17.56,11.81-25.98,2.86-3.23,4.44-7.41,4.73-12.53,.26-4.52,.34-9.85,.24-15.98,0-.38-.12-.74-.34-1.05-.48-.67-.98-1.36-1.5-2.08-1.23-1.71-1.11-4.45-.98-6.26,.26-3.5,2.77-4.77,6.23-4.96,1.91-.1,5.72-.1,11.41,0,3.16,.06,5.05,1.33,5.67,3.8,.95,3.75,.35,6.88-1.78,9.37Zm-1.56-7.71c0-.94-.75-1.72-1.7-1.72l-13-.09c-.94,0-1.72,.75-1.72,1.7l-.02,2.76c0,.94,.75,1.72,1.7,1.72l13,.09c.94,0,1.72-.75,1.72-1.7l.02-2.76Zm12.39,120.76c-10.2-.21-19.95-.2-29.25,.04-3.23,.09-4.77-1.54-4.64-4.87,.27-6.73,.31-20.43,.13-41.08-.04-3.65-.39-7.18,4.01-7.25,4.23-.07,14.27-.05,30.14,.04,.31,0,.56-.24,.58-.54,.28-3.47,.24-6.82-.13-10.07-.7-6.15-4.96-11.31-9.22-15.87-4.42-4.72-6.39-9.83-6.65-16.03-.18-4.26-.16-9.76,.05-16.5,.01-.33-.25-.61-.58-.62,0,0,0,0-.01,0l-9.12-.17c-.54-.01-.99,.42-1,.97,0,.03,0,.06,0,.08,.6,9.07,.51,19.86-3.21,27.64-.73,1.53-2.24,3.52-4.55,5.96-3.94,4.17-7.15,9.02-8.41,14.61-.38,1.67-.56,4.5-.55,8.49,.07,33.74,.1,55.26,.08,64.56,0,6.55,4.32,7.74,10.29,7.67,13.77-.19,22.12-.22,25.06-.11,3.69,.14,7.18-.76,7.79-4.28,.31-1.77,.32-5.72,.04-11.83-.02-.46-.39-.83-.85-.84Zm.98-48.61c0-.47-.39-.86-.86-.86l-29.22,.05c-.47,0-.86,.39-.86,.86h0s.08,44.08,.08,44.08c0,.47,.39,.86,.86,.86h0l29.22-.05c.47,0,.86-.39,.86-.86l-.08-44.08Z"/>
  <path class="cls-2" d="M131.01,77.07c5.55,0,11.33,.02,17.33,.04,.79,0,1.47,.53,1.67,1.3,1.92,7.53,3.7,14.67,5.34,21.42,2.21,9.13,.23,17.21-5.95,24.24-4.18,4.75-9.46,7.71-15.83,8.88-.42,.08-.72,.45-.72,.87v26.39c0,.43,.32,.78,.74,.84,3.62,.52,11.8,2.41,13.73,5.79,2.34,4.08-2.05,6.42-5.51,6.51-3.82,.09-7.44,.14-10.85,.13-3.42,0-7.04-.05-10.86-.15-3.46-.09-7.85-2.43-5.5-6.51,1.93-3.38,10.11-5.26,13.73-5.77,.43-.05,.75-.41,.75-.84l.02-26.39c0-.42-.3-.78-.71-.87-6.37-1.18-11.65-4.15-15.82-8.9-6.17-7.03-8.15-15.12-5.93-24.25,1.65-6.75,3.44-13.88,5.37-21.41,.2-.77,.88-1.3,1.67-1.3,6-.01,11.78-.02,17.33-.02Zm-.15,52.2c11.61,.06,20.42-10.49,21.5-21.49,.03-.31,.02-.62-.02-.93-1.15-8.38-3.01-16.85-5.57-25.4-.09-.3-.36-.51-.68-.52-2.5-.07-7.49-.13-14.98-.17-7.48-.04-12.47-.04-14.98,.01-.31,0-.59,.21-.68,.51-2.65,8.53-4.59,16.97-5.84,25.34-.04,.31-.05,.62-.02,.93,.95,11.02,9.66,21.65,21.27,21.72Zm.15,40.28c3.96-.01,8.02,.03,12.18,.12,.43,0,.74-.08,.91-.25,.29-.3,.29-.78,0-1.06-.05-.05-.1-.08-.15-.12-4.27-2.39-8.59-3.57-12.95-3.56-4.36,.02-8.67,1.24-12.93,3.65-.35,.2-.47,.66-.26,1.03,.03,.06,.07,.11,.12,.16,.17,.17,.48,.25,.91,.24,4.16-.12,8.22-.19,12.17-.2Z"/>
  <path class="cls-1" d="M146.33,106.81c.16,0,.29,.13,.29,.29h0v.12c0,9-6.92,16.29-15.46,16.29h-.08c-8.54,0-15.46-7.29-15.46-16.29h0v-.12c0-.16,.13-.29,.29-.29h30.42Z"/>
</svg>