<?xml version="1.0" encoding="UTF-8"?>
<svg id="_图层_1" data-name="图层 1" xmlns="http://www.w3.org/2000/svg" viewBox="0 0 200 200">
  <defs>
    <style>
      .cls-1 {
        fill: #db6a3a;
      }

      .cls-2 {
        fill: #0a494e;
      }
    </style>
  </defs>
  <path class="cls-2" d="M81.94,183.77c-.18,.16-.3,.64-.37,1.44-.08,.96-.79,1.74-1.71,1.87-2.31,.31-4.89,.37-7.73,.16-.92-.06-1.65-.83-1.66-1.76-.09-7.38-.53-14.96-1.32-22.73-1.71-16.82-2.72-26.64-3.04-29.45-.04-.38-.24-.74-.55-.98-5.85-4.57-9.75-9.41-11.7-14.5-4.73-12.33-3.44-24.36-2.04-36.89,.03-.33-.2-.62-.53-.66-.04,0-.08,0-.11,0-3.63,.31-7.04,.44-10.21,.4-4.96-.06-9.85-2.98-10.08-8.17-.06-1.26,.54-2.43,1.81-3.52,4.41-3.79,7.1-5.75,9.79-9.86,.21-.32,.13-.76-.19-.97-4.33-3.02-6.64-7.53-6.93-13.53-.04-.86,.56-1.61,1.41-1.76,5.4-.93,11.85,2.86,15.29,6.77,.33,.36,.88,.39,1.24,.06,.26-.23,.35-.59,.25-.92-1.17-3.46-3.35-6.14-6.55-8.03-1.96-1.16-5.37-1.73-7.17-2.29-8.92-2.79-13.4-9.08-13.44-18.89,0-.94,.76-1.7,1.7-1.7h.17c.92,0,1.66,.75,1.65,1.67,0,0,0,.01,0,.02-.16,8.43,3.75,13.7,11.73,15.81,.2,.06,.4-.05,.46-.25,.03-.09,.02-.19-.03-.28-3.38-6.53-5.02-13.5-4.92-20.93,.01-.83,.7-1.5,1.53-1.49,.04,0,.09,0,.13,0h.06c.91,.09,1.61,.85,1.62,1.77,.05,6.59,2.56,20.45,9.1,23.46,.26,.12,.57,0,.69-.25,.01-.03,.02-.05,.03-.08,1.18-4.4,.79-8.08,.36-12.2-.09-.83,.48-1.58,1.3-1.73h.06c.82-.16,1.6,.37,1.77,1.18,1.15,5.56,.85,10.69-.91,15.38-.17,.43-.09,.92,.2,1.29,1.81,2.28,3.07,4.54,3.78,6.77,.08,.28,.34,.48,.63,.5l6.13,.46c.33,.02,.63-.18,.74-.49,1.29-3.72,3.25-6.65,5.89-8.8,6.3-5.13,8.87-17.93,8.64-25.67-.03-.84,.64-1.55,1.49-1.58,.03,0,.05,0,.08,0h.19c.86,.02,1.55,.72,1.56,1.58,.07,8.11-1.59,15.2-4.98,21.26-.12,.21-.04,.47,.16,.59,.11,.06,.23,.07,.35,.03,8.97-2.78,12.99-8.97,12.07-18.58-.08-.85,.54-1.6,1.39-1.68,.05,0,.1,0,.15,0h.4c.71,0,1.3,.53,1.39,1.24,1.43,11.66-4.11,18.68-14.39,22.35-5.83,2.08-9.75,5.12-11.38,10.95-.11,.39,.12,.79,.51,.9,.27,.08,.56-.01,.74-.22,4.61-5.19,10.44-7.76,17.49-7.69,1.75,.02,2.53,.96,2.33,2.82-.99,9.14-5.74,14.43-14.25,15.88-.33,.06-.56,.35-.55,.68,.08,2.69,.73,6.65,1.95,11.87,1.95,8.33,7.06,13.37,15.33,15.12,7.95,1.67,16.12,1.75,24.51,.23,16.15-2.93,30.21-6.3,43.82,5.54,.47,.4,1.02,.7,1.61,.86,11.47,3.15,15.29,16.27,11,26.62-.35,.84-1.31,1.24-2.15,.9-.07-.03-.13-.06-.2-.1-1.31-.75-2.85-2.22-4.63-4.4-.14-.17-.39-.2-.56-.06-.06,.05-.1,.11-.13,.19-1.47,4.49-2.63,7.75-3.48,9.8-2.47,5.92-1.18,11.55,2.68,16.46,2.23,2.83,2.38,5.37,1.67,8.27-2.29,9.33-4.48,17.41-6.58,24.23-.93,3.04-1.92,5.67-2.96,7.89-.4,.85-1.25,1.39-2.19,1.39h-7.84c-.99,0-1.8-.8-1.8-1.8,0-.18,.03-.37,.08-.54,2.15-6.86,3.78-14.11,4.89-21.74,.21-1.42,.26-3.17,.15-5.26-.01-.22-.19-.38-.41-.37-.15,0-.28,.1-.34,.24-3.47,8.76-7.31,17.68-11.51,26.75-1.8,3.89-6.36,2.98-9.97,2.58-.82-.09-1.48-.7-1.65-1.5-.13-.59-.02-1.29,.32-2.12,4.56-11.27,7.29-19.96,8.2-26.09,.22-1.53-.16-3.1-1.07-4.36-3.52-4.88-6.37-10-8.55-15.35-.13-.32-.47-.51-.81-.46-8.08,1.31-15.4,2.71-23.63,2.01-.35-.03-.65,.22-.7,.57-1.87,15.25-3.38,30.28-4.54,45.09-.27,3.44-7.87,2.49-10.05,2.31-.38-.03-.74-.22-.99-.51-.65-.74-.89-1.66-.74-2.77,.02-.15-.1-.29-.25-.31-.07,0-.14,.01-.2,.06ZM45.33,55.91l3.51-3.7c.27-.28,.26-.72-.02-.99,0,0,0,0,0,0l-.09-.08c-4.09-3.88-8.38-5.99-9.6-4.71,0,0,0,0,0,0l-.08,.09c-1.22,1.27,1.1,5.45,5.19,9.33,0,0,0,0,.01,.01l.09,.08c.28,.27,.72,.25,.99-.03,0,0,0,0,0,0Zm106.48,128.07c.58,0,1.1-.37,1.28-.91,3.59-10.4,6.49-20.57,8.7-30.51,.35-1.55,.21-2.8-.4-3.75-4.64-7.16-7.14-12.93-3.74-21.15,2.98-7.21,4.91-12.67,3.41-20.53-.13-.69,.32-1.36,1.02-1.5,.03,0,.06-.01,.09-.01l.93-.11c.8-.09,1.52,.49,1.61,1.29,0,.02,0,.04,0,.05l.5,7.08c.01,.12,.06,.24,.14,.34l3.27,4.17c.18,.22,.5,.25,.72,.08,.08-.07,.15-.16,.17-.27,1.61-6.56-.09-13.53-5.84-17.33-1.78-1.18-3.9-1.45-5.76-2.17-.42-.16-.8-.41-1.12-.73-7.77-7.59-18.68-8.65-28.87-6.82-16.04,2.88-44.83,9.04-53.67-10.57-2.83-6.29-4.11-13.12-3.82-20.49,.03-.59,.49-1.08,1.08-1.12,7.43-.56,11.94-4.45,13.54-11.67,.06-.3-.13-.6-.43-.66-.04,0-.07-.01-.11-.01-6.39-.07-11.56,3.31-15.12,8.47-.25,.36-.75,.46-1.11,.21-.04-.03-.07-.06-.11-.09-6.44-6.39-16.1-2.71-20.97,3.54-3.66,4.68-7.59,8.79-11.8,12.34-.97,.83-1.13,2.27-.37,3.29,1.6,2.14,4.01,3.09,7.23,2.86,5.49-.4,9.62-.58,12.37-.54,.71,.01,1.27,.59,1.26,1.3,0,.06,0,.12-.02,.17-1.25,7.86-1.81,15.62-1.67,23.28,.3,15.7,7.41,26.38,21.33,32.03,1.06,.43,2.05,.58,2.96,.47,1.51-.19,2.42,.72,2.74,2.75,1.96,12.54,3.38,24.96,4.27,37.25,.21,2.87,.23,5.92,.08,9.16-.02,.42,.3,.78,.72,.8,.01,0,.03,0,.04,0h3.72c.45,0,.83-.35,.86-.8,1.2-15.69,2.76-31.29,4.67-46.78,.19-1.51,.96-2.24,2.31-2.19,.99,.03,1.08,.96,1.55,1.3,.28,.2,.61,.31,.95,.32,5.83,.17,10.43-.01,13.8-.55,8.09-1.3,12.63-1.91,13.62-1.84,1.41,.1,2.81-.97,4.28-1.02,.39-.01,.76,.17,.99,.49,2.64,3.7,5.32,7.53,8.63,10.7,2.94,2.82,10.26,9.3,10.36,12.3,.29,8.98-1.45,19.16-4.29,27.23-.12,.33,.06,.7,.39,.81,.07,.02,.14,.03,.21,.04h3.41Zm-81.72-49.04c-.1-.05-.22,0-.26,.11-.01,.03-.02,.07-.02,.11,2.29,21.87,3.88,33.64,4.02,48.04,0,.47,.38,.84,.85,.84h3.09c.49,0,.9-.38,.93-.87,.56-8.02,1.04-15.08,1.43-21.18,.52-8.09-.87-14.57-2.14-23.66-.02-.17-.14-.32-.31-.39l-7.59-3Zm58.8,1.63c-.79,.17-1.29,.95-1.12,1.74,.03,.13,.07,.26,.14,.38,3.17,5.98,5.6,10.29,7.31,12.93,1.58,2.45,2.07,4.82,1.51,7.4-1.59,7.39-4.07,15.31-7.44,23.76-.19,.49,.05,1.04,.54,1.23,.14,.06,.3,.08,.45,.06l1.68-.2c.91-.11,1.69-.69,2.05-1.52l12.03-28.07c.35-.81,.14-1.75-.51-2.34-5.57-5.09-10.02-9.83-13.37-14.22-.74-.98-1.99-1.43-3.19-1.17l-.08,.02Z"/>
  <ellipse class="cls-2" cx="55.1" cy="63.24" rx="2.77" ry="1.91" transform="translate(-15.38 17.76) rotate(-16.1)"/>
  <ellipse class="cls-1" cx="140.97" cy="103.54" rx="3.24" ry="4.45" transform="translate(34.26 242.13) rotate(-88.7)"/>
  <ellipse class="cls-1" cx="122.33" cy="104.64" rx="4.43" ry="2.79" transform="translate(-3.23 3.89) rotate(-1.8)"/>
  <ellipse class="cls-1" cx="131.54" cy="114.45" rx="3.42" ry="2.91" transform="translate(-13.98 18.4) rotate(-7.6)"/>
  <ellipse class="cls-1" cx="146.04" cy="115.95" rx="3.5" ry="3" transform="translate(-21.63 197.56) rotate(-64.4)"/>
</svg>