<?xml version="1.0" encoding="UTF-8"?>
<svg id="_图层_1" data-name="图层 1" xmlns="http://www.w3.org/2000/svg" viewBox="0 0 200 200">
  <defs>
    <style>
      .cls-1 {
        fill: #0a494e;
      }
    </style>
  </defs>
  <path class="cls-1" d="M71.74,142.68c.03,.08,.12,.12,.19,.09,.06-.02,.09-.08,.1-.14,1.9-32.27-4.76-65.1-21.89-92.3-.21-.32-.3-.71-.27-1.09,.11-1.41,.91-2.18,2.38-2.33,.34-.03,.68,.05,.97,.23,1.51,.95,4.56,3.46,6.12,5.07,14.95,15.39,24.67,33.75,29.15,55.1,.04,.17,.21,.26,.38,.22,.1-.03,.18-.1,.21-.19,3.01-9.59,6.44-18.52,10.28-26.77,2.75-5.92,7.35-13.33,13.79-22.24,7.39-10.24,16.96-18.34,28.72-24.29,4.68-2.37,9.36-3.65,14.63-5.21,2.68-.78,4.45,2.42,2.44,4.28-13.93,12.96-23.78,27.8-32.26,44-8.21,15.67-13.9,32.07-17.08,49.19-1.09,5.82-1.29,11.86-1.95,18.25-.01,.08,.04,.15,.11,.16,.07,.01,.13-.03,.16-.09,2.61-5.97,5.19-10.99,7.74-15.07,6.49-10.38,15-18.87,25.53-25.47,7.33-4.59,14.88-7.07,23.28-8.09,.99-.12,1.91,.62,2.09,1.69,.25,1.43-.8,1.86-1.73,2.68-6.61,5.85-10.99,10.2-13.12,13.07-11.71,15.75-18.29,33.49-19.73,53.23-.03,.38,.26,.71,.64,.74,.02,0,.03,0,.05,0l10.95,.12c.97,0,1.75,.81,1.74,1.79,0,.06,0,.13-.01,.19v.05c-.12,1-.96,1.75-1.96,1.75l-98.98-.08c-.97,0-1.77-.76-1.82-1.73v-.03c-.08-.99,.67-1.85,1.66-1.92,.04,0,.08,0,.11,0l10.79-.09c.24,0,.44-.2,.44-.44,0,0,0,0,0-.01-.05-7.33-1.64-14.37-3.68-21.9-3.16-11.67-8.77-21.1-17.87-29-.77-.67-.86-1.83-.2-2.6,.02-.03,.04-.05,.07-.07,.65-.68,1.45-.92,2.38-.73,16.99,3.42,28.61,14.87,35.45,29.98ZM151.07,34.65c-6.82,2.11-12.99,5.31-18.5,9.59-10.79,8.37-20.02,19.78-26.82,33.07-7.85,15.33-14.49,32.03-17.48,48.95-2.53,14.33-3.7,27.9-3.51,40.73,0,.33,.28,.6,.61,.6h16.74c.43,0,.78-.35,.78-.78,0,0,0-.01,0-.02-.43-19,1.79-38.19,6.67-57.58,2.44-9.69,7.23-20.7,10.55-27.92,.42-.91,2.57-4.97,6.46-12.19,6.73-12.48,15.14-24.05,24.72-34.08,.08-.1,.07-.24-.02-.32-.05-.05-.13-.07-.2-.05ZM59.4,58.97c3.97,7.45,7.19,15.39,9.66,23.84,4.45,15.24,6.88,31,7.29,47.28,.15,5.97-.37,12.11-1.56,18.42-.08,.44-.07,.88,.02,1.31l3.64,17.1c.08,.39,.42,.67,.82,.67h.39c.55,0,1-.45,1-1,0-10.68,.72-21.63,2.15-32.86,.67-5.23,1.76-9.87,3.01-15.47,.18-.78,.22-1.59,.12-2.38-1.5-12.43-4.46-22.24-9.78-32.8-2.65-5.24-4.37-8.54-5.16-9.9-3-5.11-6.75-9.93-11.26-14.46-.07-.09-.2-.11-.29-.04-.09,.07-.11,.2-.05,.29Zm97.57,42.66c-7.86,1.83-14.9,5.4-21.12,10.72-16.62,14.23-26.3,32.47-29.05,54.72-.03,.23,.14,.44,.37,.47,.02,0,.04,0,.05,0h19.7c.39,0,.72-.3,.76-.69,1.82-17.5,6.75-32.98,14.8-46.45,4.39-7.33,9.26-13.52,14.61-18.55,.05-.05,.05-.13,0-.18-.03-.03-.08-.05-.12-.04Zm-114.38,17.41c6.03,7.43,10.39,15.57,13.1,24.42,2.38,7.76,3.1,14.86,3.9,23.47,.03,.31,.29,.54,.6,.54h13.16c.33,0,.6-.26,.6-.59,0-.02,0-.03,0-.05-.91-11.81-4.69-22.67-11.36-32.56-4.91-7.29-12.01-12.71-19.64-15.71-.16-.07-.34,.01-.4,.17-.04,.1-.03,.22,.04,.31Z"/>
</svg>