<?xml version="1.0" encoding="UTF-8"?>
<svg id="_图层_1" data-name="图层 1" xmlns="http://www.w3.org/2000/svg" viewBox="0 0 200 200">
  <defs>
    <style>
      .cls-1 {
        fill: #0a494e;
      }
    </style>
  </defs>
  <path class="cls-1" d="M99.43,34.86c35.15-.31,63.89,28.61,64.21,64.58,.31,35.97-27.92,65.39-63.07,65.69h0c-35.15,.31-63.89-28.61-64.21-64.58-.31-35.97,27.92-65.39,63.07-65.69h0Zm.67,4.06c-32.85-.06-59.53,27.26-59.59,61.02-.06,33.76,26.52,61.17,59.37,61.22,32.85,.06,59.53-27.26,59.59-61.02h0c.06-33.76-26.52-61.17-59.37-61.22h0Z"/>
  <circle class="cls-1" cx="69.45" cy="101.54" r="5.51"/>
  <circle class="cls-1" cx="100.03" cy="101.53" r="5.38"/>
  <circle class="cls-1" cx="130.61" cy="101.53" r="5.45"/>
</svg>