<?xml version="1.0" encoding="UTF-8"?>
<svg id="_图层_1" data-name="图层 1" xmlns="http://www.w3.org/2000/svg" viewBox="0 0 200 200">
  <defs>
    <style>
      .cls-1 {
        fill: #db6a3a;
      }

      .cls-2 {
        fill: #0a494e;
      }
    </style>
  </defs>
  <path class="cls-2" d="M113.72,67.97c-.03,.17,.09,.34,.27,.36,.08,.01,.16,0,.23-.05,5.92-3.96,12.2-5.47,18.84-4.53,10.33,1.46,17.57,11.49,19.01,21.41,1.31,8.99-.77,16.57-6.24,22.76-4.24,4.8-10.67,7.77-17.04,7.99-.18,0-.32,.15-.31,.33,0,.09,.05,.18,.12,.24,3.26,2.73,5.83,5.84,7.72,9.35,.14,.27,.48,.37,.75,.22,.05-.02,.09-.06,.12-.09,9.37-9.3,22.78-12.27,35.83-11.44,1.56,.1,2.32,.75,2.29,1.94-.78,24-16.14,44.71-41.13,47.17-2.07,.21-3.8,.11-5.21-.29-.67-.19-1.06-.89-.86-1.56,.04-.15,.12-.3,.21-.42,.79-1.02,2.58-1.66,3.99-1.59,6.4,.3,12.89-1.7,19.48-6.01,11.64-7.61,18.65-21.2,19.93-35.05,.02-.23-.14-.43-.37-.45,0,0,0,0-.01,0-12.11-.87-22.78,2.61-32.01,10.42-.71,.6-1.03,1.55-.82,2.45,5.27,23.15-20.94,42.42-40.74,27.3-4.05-3.09-7.28-8.6-8.92-13.28-.07-.19-.27-.28-.46-.22-.09,.03-.17,.1-.2,.19-3.2,7.21-6.61,12.69-13.82,16.17-7.06,3.42-14.08,3.42-21.16-.12-17.49-8.73-21.56-32.45-4.38-44.92,.13-.09,.17-.27,.08-.4-.05-.08-.14-.13-.24-.13-4.85-.16-9.31-1.69-13.39-4.58-8.01-5.69-11.48-13.73-10.41-24.1,.73-7.07,4.04-14,9.47-18.5,7.2-5.96,17.37-7.15,26.03-2.07,1.66,.97,2.56,1.49,2.7,1.55,.17,.07,.36-.02,.43-.19,.02-.06,.03-.12,.02-.18-1.6-9.8,.79-19.15,8.74-25.65,9.34-7.64,22.04-7.64,31.8-.81,8.15,5.69,11.37,14.62,9.66,26.78Zm-23.28,63.33c-.1,11.59,4.34,23.41,15.86,27.67,7.04,2.61,15.44,.09,21.1-4.88,7.71-6.76,10.51-17.98,5.26-27.34-3.73-6.67-9.82-10.98-18.27-12.95-.76-.18-1.3-.86-1.3-1.64v-.42c0-.88,.71-1.59,1.59-1.59,.07,0,.14,0,.2,.01,2.25,.29,4.5,.7,6.74,1.25,17.18,4.21,30.13-10.73,26.47-27.28-1.34-6.04-4.22-10.59-8.63-13.64-9.47-6.56-22.19-2.33-28.91,6.48-1.18,1.55-2.41,3.35-3.69,5.4-.48,.76-1.48,1-2.25,.52-.03-.02-.06-.04-.09-.06l-.21-.16c-.82-.59-1.04-1.72-.5-2.58,2.33-3.69,3.74-6.12,4.23-7.31,4.03-9.69,3.02-22.74-6.48-28.91-11.1-7.22-27.74-3.72-32.98,9.13-2.49,6.11-1.85,14.17,.81,20.12,.59,1.32,2,3.77,4.24,7.34,.54,.87,.27,2.01-.6,2.55,0,0,0,0,0,0l-.08,.05c-.85,.52-1.97,.26-2.49-.6,0-.01-.01-.02-.02-.03-2.39-4.12-4.52-7.06-6.37-8.82-11.14-10.58-28.11-7.9-33.6,7.04-6.22,16.9,4.48,33.08,22.97,31.14,2.02-.21,4.84-.71,8.46-1.52,.94-.21,1.9,.31,2.23,1.22l.03,.07c.31,.84-.13,1.77-.98,2.08-.03,.01-.06,.02-.09,.03-3.45,1-6.3,2.1-8.55,3.3-10.91,5.79-15.81,17.69-10.92,29.27,2.15,5.09,8.32,10.97,13.36,12.56,13.49,4.24,24.58-3.89,27.9-16.96,1.1-4.32,1.64-7.81,1.63-10.46,0-1,.77-1.83,1.77-1.88h.27c.99-.06,1.84,.7,1.89,1.69,0,.04,0,.07,0,.11Z"/>
  <ellipse class="cls-1" cx="99.59" cy="90.34" rx="2.78" ry="4.3" transform="translate(-.78 .87) rotate(-.5)"/>
  <ellipse class="cls-1" cx="87.39" cy="95.72" rx="3.1" ry="4.08" transform="translate(-38.9 124.87) rotate(-60.6)"/>
  <ellipse class="cls-1" cx="100" cy="100" rx="4.19" ry="2.81" transform="translate(-38.53 71.56) rotate(-33.4)"/>
  <path class="cls-1" d="M103.71,101.86c-1.68,3.03-4.26,1.07-6.13-.51-1.64-1.38-2.15-2.63-1.52-3.75,.62-1.12,1.95-1.35,3.99-.68,2.32,.76,5.34,1.92,3.66,4.94Z"/>
  <ellipse class="cls-1" cx="86.76" cy="110.94" rx="4.21" ry="2.96" transform="translate(-42.62 55.29) rotate(-28.7)"/>
  <ellipse class="cls-1" cx="99.77" cy="117.44" rx="4.36" ry="2.9" transform="translate(-21.41 212.63) rotate(-87.8)"/>
</svg>