<?xml version="1.0" encoding="UTF-8"?>
<svg id="_图层_1" data-name="图层 1" xmlns="http://www.w3.org/2000/svg" viewBox="0 0 200 200">
  <defs>
    <style>
      .cls-1 {
        fill: #0a494e;
      }

      .cls-2 {
        fill: #5eabaf;
      }
    </style>
  </defs>
  <path class="cls-1" d="M100.18,28.85c.73,0,1.26,.2,1.59,.61,10.43,12.89,20.73,27.27,30.89,43.15,6.49,10.15,11.48,19.8,14.95,28.96,12.59,33.24-11.63,69.66-47.71,69.59-36.09-.07-60.16-36.59-47.44-69.78,3.51-9.15,8.54-18.78,15.07-28.9,10.23-15.84,20.58-30.18,31.06-43.02,.33-.41,.86-.62,1.59-.61Zm-.32,138.33c17.27,.06,32.17-9.04,40.67-23.49,9.12-15.48,7.46-32.8,.18-48.4-3.88-8.31-9.73-18.28-17.55-29.9-7.15-10.63-14.6-20.86-22.35-30.69-.16-.2-.34-.3-.55-.31-.2,0-.38,.1-.54,.3-7.81,9.79-15.32,19.97-22.54,30.56-7.89,11.57-13.8,21.51-17.73,29.8-7.37,15.55-9.13,32.86-.11,48.4,8.42,14.5,23.26,23.68,40.52,23.73Z"/>
  <path class="cls-1" d="M99.9,153.91c-5,0-10.03,.01-15.08,.05-3.7,.03-6.04-.28-7.03-.91-3.03-1.95-3.77-4.54-3.68-8.38,.11-5,.13-11.62,.04-19.87-.05-4.07,.15-6.88,.6-8.43,1.73-6.07,3.94-9.44,8.03-16.98,1.05-1.94,1.66-4.02,1.83-6.24,.03-.34-.11-.68-.38-.9-1.34-1.1-2.12-1.81-2.34-2.12-2-2.86-1.22-7.12,1.49-9.1,.86-.63,2.69-.98,5.48-1.04,1.85-.04,5.58-.06,11.17-.05,5.59,0,9.31,.03,11.16,.08,2.79,.07,4.62,.43,5.48,1.07,2.7,1.98,3.47,6.25,1.46,9.1-.22,.31-1,1.02-2.35,2.11-.27,.22-.41,.56-.38,.9,.16,2.22,.76,4.3,1.81,6.25,4.06,7.55,6.26,10.93,7.97,17,.44,1.55,.63,4.37,.57,8.44-.11,8.25-.12,14.87-.02,19.87,.07,3.84-.68,6.42-3.71,8.36-.99,.63-3.34,.93-7.03,.89-5.06-.05-10.09-.09-15.09-.1Zm15.89-68.07c0-1.1-.9-2-2-2h-27.28c-1.1,0-2,.9-2,2v1.06c0,1.1,.9,2,2,2h27.28c1.1,0,2-.9,2-2v-1.06Zm-34.81,25.41c-.77,.85-1.21,1.92-1.31,3.19-1.13,1.33-1.71,2.7-1.75,4.12-.11,4.37-.09,13.12,.07,26.25,.04,3.51,.61,5.41,4.43,5.41,14.75,.03,26.42,.01,35.02-.05,2.89-.02,4.55-.82,4.57-3.87,.05-7.77,.01-15.61-.12-23.54,.17-.82,.18-1.75,.01-2.79,0-1.8-.45-3.59-1.33-5.36-2.45-4.92-4.7-9.42-6.74-13.5-1.28-2.56-1.93-5.28-1.95-8.16,0-.28-.23-.51-.51-.51h-22.47c-.35,0-.63,.27-.65,.62-.3,6.25-4.48,12.49-7.27,18.19Z"/>
  <path class="cls-2" d="M121.9,119.97c.17,1.04,.16,1.97-.01,2.79-5.65,1.11-10.79,.7-15.42-1.23-4.38-1.83-10.28-5.67-15.26-6.8-3.73-.85-7.58-.95-11.54-.29,.1-1.27,.54-2.34,1.31-3.19,8.27-1.98,14.59,1.8,21.49,5.47,6.61,3.51,11.77,3.66,19.43,3.25Z"/>
</svg>