<?xml version="1.0" encoding="UTF-8"?>
<svg id="_图层_1" data-name="图层 1" xmlns="http://www.w3.org/2000/svg" viewBox="0 0 200 200">
  <defs>
    <style>
      .cls-1 {
        fill: #db6a3a;
      }

      .cls-2 {
        fill: #0a494e;
      }
    </style>
  </defs>
  <path class="cls-2" d="M88.44,61.73c7.53-6.73,15.91-14.05,25.15-21.94,3.71-3.17,5.99-4.93,6.86-5.29,11.29-4.7,18.85,9.07,10.01,16.57-8.64,7.33-18.52,15.59-29.63,24.8-.58,.49-1.44,.47-2.01-.04l-.57-.51c-.6-.54-.65-1.46-.11-2.06,.04-.05,.08-.09,.13-.13,8.81-7.61,19.27-15.94,28.6-23.6,2.51-2.05,3.85-3.81,4.04-5.27,.55-4.34-3.56-8.54-8.04-6.99-1.27,.44-2.87,1.51-4.8,3.21-15.01,13.21-24.05,21.11-27.12,23.69-.4,.33-.97,.31-1.36-.03l-1.15-1.03c-.38-.34-.41-.93-.07-1.31,.02-.02,.04-.05,.07-.07Z"/>
  <path class="cls-1" d="M63.94,61.43c1.84-7.49,9.36-7.38,14.9-4.01,2.5,1.53,5.72,4.3,9.67,8.32,4.31,4.39,8,8.95,11.07,13.66,2.54,3.9,5.4,8.9,4.59,13.31-.81,4.41-3.33,6.68-7.54,6.81-.3,0-.55,.25-.54,.56,0,.01,0,.03,0,.04,.25,2.99,.09,4.99-.48,6-2.31,4.08-5.66,5.64-10.05,4.69-.34-.07-.68,.15-.75,.49,0,.02,0,.03,0,.05-.37,2.85-1.73,4.92-4.08,6.22-.54,.3-.92,.81-1.07,1.41-2.25,9.15-1.51,17.86,.03,27.31,1.17,7.14-1.33,12.47-7.5,15.98-1.63,.92-3.33,1.39-5.1,1.4-8.13,.04-15.16-6.6-14.27-15.04,1.2-11.35,2.41-19.28,.02-29.2-.34-1.39-.86-2.71-1.56-3.96-.27-.47-.63-.88-1.07-1.2-2.78-2.03-4.54-3.43-5.29-4.19-6.14-6.2-13.25-20.68-2.66-26.47,.3-.16,.45-.51,.36-.84-1.47-5.3,.15-8.97,4.84-11.02,.49-.21,1.58-.36,2.32-.73,.3-.15,.49-.45,.48-.78-.11-6.52,5.58-10.87,11.74-8.57,.57,.21,.95,.32,1.14,.34,.37,.03,.72-.21,.81-.58Zm18.33,17.2c4.35,4.94,8,9.89,10.95,14.84,1.12,1.88,2.21,2.78,4.27,2.06,9.47-3.25-4.39-19.69-7.74-23.49-3.35-3.81-17.91-19.62-22.33-10.64-.97,1.96-.22,3.15,1.51,4.5,4.54,3.55,8.99,7.79,13.34,12.73Zm-10.77,9.04c5.15,6.05,9.11,11.16,12.66,17.91,.57,1.07,1.65,1.77,2.85,1.84,5.42,.35,6.49-4.79,4.62-8.58-3.23-6.58-7.2-12.64-11.91-18.17-4.71-5.53-10.05-10.42-16.03-14.66-3.44-2.45-8.69-2.21-9.21,3.2-.12,1.2,.4,2.37,1.37,3.1,6.09,4.59,10.5,9.31,15.65,15.36Zm-10.66,9.33c4.59,5.41,8.31,10.64,11.17,15.7,.14,.25,.34,.47,.58,.64,2.97,2.11,6.46,2.64,8.05-1.38,.67-1.68,.57-3.37-.28-5.08-2.73-5.48-6.52-11.08-11.37-16.8-4.85-5.71-9.75-10.37-14.71-13.96-1.54-1.12-3.19-1.49-4.96-1.11-4.23,.92-4.28,4.45-2.68,7.72,.13,.26,.32,.49,.54,.67,4.52,3.66,9.07,8.19,13.66,13.6Zm14.9,21.38l-4.35-1.33c-.28-.08-.58-.02-.8,.16-2.42,2.02-5.94,2.91-8.32,.26-.59-.67-.49-1.73,.24-2.36,.04-.03,.08-.07,.12-.1,.02-.01,.11-.03,.28-.04,.13-.01,.27,0,.4,.03,1.41,.35,2.74,.43,3.97,.23,.56-.1,.93-.62,.83-1.18-.02-.11-.05-.21-.1-.3-5.09-9.51-11.61-18.56-19.83-24.92-1.17-.9-2.32-1.48-3.45-1.73-1.07-.23-2.22,.3-2.86,1.34-3.82,6.2,2.29,16.67,7.12,20.56,.81,.65,2.06,1.66,3.74,3.03,1.18,.97,2.06,2.25,2.52,3.7,2.22,6.91,3.14,14.31,2.77,22.19-.07,1.43-.52,5.25-1.33,11.46-.5,3.79,.84,6.68,4.02,8.69,7.97,5.05,16.87-1.52,15.24-10.52-1.13-6.19-1.53-12.33-1.22-18.4,.16-3.16,1.05-7.46,1.46-10.05,.05-.32-.14-.63-.45-.72Z"/>
  <path class="cls-2" d="M135.42,110.37c.41,0,.9,.16,1.45,.49,3.49,2.06,7.43,4.5,11.82,7.31,.74,.48,1.19,1.3,1.19,2.19v12.18c0,.36,.2,.69,.51,.87l11.27,6.5c.94,.54,1.52,1.55,1.52,2.65v13.51c0,.97-.5,1.88-1.33,2.39l-12.38,7.63c-.8,.5-1.81,.49-2.6-.02-4.27-2.75-8.1-5.23-11.49-7.45-.04-.03-.15-.04-.32-.04s-.28,.01-.31,.04c-3.43,2.17-7.29,4.59-11.6,7.27-.8,.5-1.81,.49-2.6-.02l-12.27-7.81c-.82-.52-1.31-1.44-1.29-2.41l.2-13.51c.02-1.09,.61-2.09,1.56-2.62l11.36-6.34c.32-.17,.52-.5,.53-.86l.18-12.18c.01-.88,.47-1.7,1.22-2.17,4.43-2.75,8.41-5.12,11.93-7.13,.55-.32,1.04-.48,1.45-.47Zm-11.38,16.51c0,3.31,.02,5.2,.06,5.69,.03,.33,.21,.62,.48,.79,3.52,2.23,6.98,4.43,10.37,6.59,.03,.01,.12,.02,.29,.02s.26,0,.29-.02c3.39-2.16,6.85-4.36,10.37-6.6,.27-.18,.44-.47,.47-.8,.04-.48,.06-2.37,.06-5.68s-.02-5.2-.06-5.68c-.03-.33-.21-.63-.48-.8-3.52-2.23-6.98-4.43-10.37-6.59-.03-.01-.12-.02-.29-.02-.17,0-.26,0-.29,.02-3.39,2.16-6.85,4.36-10.37,6.6-.27,.18-.44,.47-.47,.8-.04,.49-.06,2.38-.06,5.68Zm-13.89,22.28c0,3.37,.03,5.31,.07,5.8,.03,.34,.21,.63,.49,.81,3.6,2.27,7.13,4.51,10.6,6.7,.03,.02,.13,.03,.3,.03,.17,0,.26,0,.29-.03,3.46-2.21,6.98-4.46,10.57-6.76,.28-.18,.46-.47,.49-.81,.03-.49,.05-2.43,.04-5.8,0-3.37-.03-5.31-.07-5.8-.03-.34-.21-.63-.49-.81-3.6-2.28-7.13-4.52-10.6-6.71-.03-.01-.13-.02-.3-.02-.17,0-.26,0-.29,.02-3.46,2.21-6.98,4.47-10.57,6.77-.28,.18-.46,.47-.49,.81-.03,.49-.05,2.43-.04,5.8Zm26.55,.21c0,3.39,0,5.34,.05,5.84,.03,.34,.21,.64,.49,.81,3.61,2.31,7.15,4.57,10.63,6.79,.03,.02,.12,.03,.29,.03s.27-.01,.3-.03c3.49-2.21,7.05-4.45,10.66-6.74,.28-.18,.46-.48,.49-.82,.04-.49,.06-2.44,.07-5.83,0-3.39,0-5.34-.04-5.83-.03-.34-.21-.64-.49-.82-3.61-2.31-7.15-4.57-10.63-6.79-.03-.02-.13-.03-.3-.03s-.26,.01-.29,.03c-3.49,2.21-7.05,4.46-10.66,6.75-.28,.17-.46,.47-.49,.81-.04,.49-.07,2.44-.08,5.83Z"/>
</svg>