<?xml version="1.0" encoding="UTF-8"?>
<svg id="_图层_1" data-name="图层 1" xmlns="http://www.w3.org/2000/svg" viewBox="0 0 200 200">
  <defs>
    <style>
      .cls-1 {
        fill: #0a494e;
      }
    </style>
  </defs>
  <path class="cls-1" d="M67.71,64.07c.08,.12,.25,.14,.36,.06,.08-.05,.12-.15,.11-.24-.75-10.59,5.41-22.07,12.65-29.37,.73-.73,1.39-1.08,1.98-1.04,1.09,.07,1.61,1.51,2.06,2.1,6.77,8.93,9.77,18.94,9.01,30.03-.01,.19,.13,.35,.32,.36,.08,0,.17-.02,.23-.07,2.43-2.01,4.23-3.43,5.38-4.26,7.83-5.59,16.5-7.98,26.03-7.19,.92,.07,1.61,.86,1.57,1.77-.51,11.78-5.45,21.18-14.83,28.19-1.25,.93-2.43,1.75-3.55,2.45-.12,.07-.15,.23-.07,.35,.05,.07,.13,.12,.21,.11,9.19-.59,17.35,2.01,24.48,7.8,1.93,1.57,4.05,2.95,5.45,5.35,.31,.52,.2,1.19-.26,1.59-9.31,8.2-20.22,11.03-32.73,8.5-.17-.03-.34,.09-.37,.26-.02,.1,.01,.19,.08,.27,5.15,5.35,8.12,11.68,8.91,19.01,.1,.92-.53,1.77-1.44,1.93l-.19,.04c-.82,.15-1.6-.4-1.74-1.22,0-.05-.01-.09-.02-.14-1.08-13.6-11.27-23.88-24.16-28.03-.37-.11-.77,0-1.01,.3l-1.77,2.12c-.21,.26-.28,.61-.19,.93,1.79,6.22,3.21,10.38,4.26,12.49,3.73,7.49,9.42,12.82,17.07,16.01,.68,.28,1,1.06,.72,1.74-.05,.12-.12,.24-.21,.34l-.26,.32c-.5,.6-1.33,.81-2.06,.52-6.51-2.62-11.42-6.6-14.71-11.95-.08-.12-.24-.15-.36-.08-.07,.04-.11,.11-.11,.19-.8,9.16-4.67,16.61-11.62,22.35-.67,.56-1.66,.51-2.28-.11-7.11-7.13-10.11-15.62-9.01-25.47,.02-.15-.09-.28-.24-.3-.09-.01-.19,.03-.24,.1-7.1,8.39-17.38,11.62-28.12,11.47-.51-.01-.95-.38-1.04-.89-.33-1.83,.11-3.6,.39-5.44,1.26-8.35,5.19-15.21,11.79-20.6,.13-.1,.15-.28,.06-.41-.06-.08-.16-.13-.27-.11-12.37,.83-22.94-3.08-31.71-11.72-.66-.65-.66-1.72-.01-2.38,.03-.03,.07-.06,.1-.09,9.83-8.35,20.87-11.66,33.14-9.94,.16,.03,.31-.08,.33-.24,.01-.1-.02-.2-.09-.27-8.98-8.27-13.17-18.55-12.58-30.85,.07-1.51,1.05-2.15,2.94-1.94,11.38,1.28,20.59,6.38,27.62,15.3Zm12,22.36c.51,.03,1.02,.01,1.51-.04,.4-.04,.75-.3,.91-.68,2.16-5.1,3.88-8.77,5.17-11.01,1.69-2.93,2.7-5.69,3.03-8.28,1.23-9.6-1.87-20.4-7.6-27.85-.11-.14-.01-.14-.31-.16-.3-.01-.2,0-.32,.13-6.54,6.75-10.84,17.13-10.7,26.81,.04,2.61,.73,5.46,2.08,8.57,1.03,2.37,2.33,6.21,3.9,11.52,.12,.39,.43,.69,.83,.78,.49,.11,.99,.18,1.5,.21ZM40.74,52.62c-.14,.13-.21,.24-.21,.33,.35,18.28,12.29,31.05,29.11,36.34,1.22,.38,1.87,.1,2.8-.72,.93-.82,1.29-1.43,1.06-2.68-3.14-17.36-14.31-30.8-32.41-33.43-.09-.01-.21,.04-.35,.16Zm82.38,5.39c-11.07,0-20.37,4.01-27.89,12-3.12,3.32-6.18,8.65-9.18,15.99-.99,2.43-.39,3.87,1.46,5.2,.32,.23,.73,.3,1.11,.19,6.6-1.92,11.69-3.73,15.28-5.42,10.15-4.78,18.98-15.59,19.72-27.43,.02-.27-.18-.51-.46-.53-.01,0-.03,0-.04,0ZM20.62,93.24c0,.12,.05,.22,.14,.31,8.91,8.18,19.32,11.14,31.23,8.88,5.35-1.02,10.51-2.66,15.48-4.93,.54-.24,.91-.74,1-1.32,.01-.13,.03-.51,.06-1.14,.03-.63,.03-1.01,.02-1.14-.04-.58-.38-1.11-.89-1.39-4.78-2.64-9.8-4.67-15.06-6.1-11.7-3.16-22.3-1-31.81,6.48-.11,.08-.16,.2-.17,.35Zm64.69,3.22c0-3.72-3.02-6.74-6.74-6.74s-6.74,3.02-6.74,6.74c0,3.72,3.02,6.74,6.74,6.74h0c3.72,0,6.74-3.02,6.74-6.74h0Zm49.56,4.55c0-.11-.03-.21-.12-.3-8.19-8.22-18.05-11.5-29.56-9.84-5.17,.75-10.19,2.1-15.04,4.07-.53,.21-.91,.67-1.02,1.22-.02,.13-.06,.49-.11,1.09-.05,.59-.07,.96-.07,1.09,.02,.56,.32,1.08,.8,1.37,4.47,2.73,9.19,4.9,14.18,6.49,11.07,3.53,21.33,1.91,30.76-4.85,.11-.08,.17-.19,.18-.34Zm-94.45,29.08c11.25-.67,19.82-5.4,25.71-14.21,.51-.77,2.35-4.36,5.51-10.77,.13-.27,.13-.57,0-.83-.89-1.85-2.21-2.63-3.96-2.32-8.05,1.42-18.05,5.78-22.56,12.51-3.15,4.69-4.96,9.66-5.41,14.9-.03,.37,.25,.69,.62,.72,.03,0,.06,0,.09,0Zm35.75,14.06c2.99-2.91,5.35-6.3,7.08-10.19,2.6-5.82,2.46-11.27,.65-17.36-1.57-5.29-2.7-8.51-3.37-9.65-.15-.26-.4-.44-.69-.52-2.13-.58-3.88,.11-5.24,2.06-8.35,12.01-8.13,23.88,.64,35.59,.21,.27,.59,.33,.86,.13,.02-.02,.05-.04,.07-.06Z"/>
  <rect class="cls-1" x="71.22" y="63.47" width="19.32" height="2.74" rx="1.26" ry="1.26" transform="translate(12.44 142.7) rotate(-87.4)"/>
  <rect class="cls-1" x="57.3" y="61.77" width="2.84" height="22.2" rx="1.39" ry="1.39" transform="translate(-33.49 56.88) rotate(-41.3)"/>
  <rect class="cls-1" x="92.2" y="74.44" width="21.12" height="2.86" rx="1.41" ry="1.41" transform="translate(-24.48 87.14) rotate(-41.5)"/>
  <path class="cls-1" d="M178.91,106.44c3.32,7.55,2.6,15.09-2.16,22.62-15.32,24.2-42.88,36.6-70.67,37.41-12.79,.37-24-1.61-33.63-5.95-1.12-.5-2.03-.62-2.36-1.98-.29-1.2,.43-2.4,1.62-2.69,.04-.01,.08-.02,.12-.03,3.73-.69,7.9-1.57,12.52-2.65,15.87-3.7,29.69-11.13,41.47-22.3,6.8-6.44,15.2-19.87,19.33-24.91,6.19-7.55,12.9-11.44,22.98-8.87,.3,.08,.61,.01,.86-.17,5.41-3.92,7.78-9.5,7.11-16.75-.06-.62,.39-1.17,1.02-1.24,.07,0,.13,0,.2,0l3.86,.28c.64,.05,1.18,.47,1.38,1.08,3.07,9.22,1.9,17.49-3.51,24.82-.28,.38-.34,.89-.14,1.33Zm.93-22.41c-.25,.81-.45,1.93-.59,3.37-.41,4.34-3.2,8.45-6.69,11.07-.25,.19-.3,.55-.11,.8,.02,.03,.05,.06,.08,.08l3.31,2.96c.26,.23,.64,.21,.87-.04,.02-.02,.04-.05,.06-.08,3.5-5.49,4.65-11.53,3.45-18.14-.02-.1-.12-.17-.22-.16-.07,.01-.13,.06-.15,.14Zm-101.72,74.96c18.85,5.55,37.57,5.07,56.18-1.44,14.82-5.19,28.16-14.19,36.86-26.82,5.66-8.22,9.71-18.74,1.53-26.67-9.92-9.62-20.69-1.73-27.07,7.12-3.22,4.46-9.33,14.41-14.88,19.89-6.64,6.55-12.62,11.38-17.95,14.49-10.91,6.37-22.46,10.68-34.64,12.91-.15,.03-.24,.17-.21,.32,.02,.09,.09,.17,.18,.2Z"/>
  <rect class="cls-1" x="108.81" y="89.29" width="2.92" height="19.7" rx="1.43" ry="1.43" transform="translate(3.68 202.23) rotate(-86)"/>
  <rect class="cls-1" x="96.83" y="110.15" width="2.64" height="17.48" rx="1.29" ry="1.29" transform="translate(-53.05 88.79) rotate(-39.2)"/>
  <rect class="cls-1" x="68.18" y="121.44" width="17.1" height="2.92" rx="1.42" ry="1.42" transform="translate(-50.38 192.44) rotate(-86.7)"/>
</svg>