<?xml version="1.0" encoding="UTF-8"?>
<svg id="_图层_1" data-name="图层 1" xmlns="http://www.w3.org/2000/svg" viewBox="0 0 200 200">
  <defs>
    <style>
      .cls-1 {
        fill: #db6a3a;
      }

      .cls-2 {
        fill: #0a494e;
      }
    </style>
  </defs>
  <path class="cls-2" d="M97.37,101.34c-1.15-.55-1.94-1.52-2.39-2.9l-3.16-14.37c-.08-.36-.35-.64-.7-.74-20.23-5.9-22.43-29.33-17.3-46.19,.24-.78,1.06-1.21,1.84-.98,.16,.05,.3,.12,.43,.22,5.3,3.89,9.86,8.17,13.67,12.85,7.83,9.63,9.59,20.26,5.26,31.89-.09,.23-.11,.48-.06,.72l1.91,8.97c.05,.22,.27,.35,.48,.3,.13-.03,.23-.12,.28-.24,4.66-12.21,10.66-22.88,17.99-31.99,.42-.53,.64-1.2,.59-1.88-.4-5.38,.34-9.82,3.3-14.35,6.58-10.04,17.55-15.18,28.79-18.16,1.02-.27,1.83-.33,2.42-.17,.92,.24,1.48,1.15,1.25,2.04-.01,.04-.02,.09-.04,.13-5.31,15.06-13.64,32.06-32.01,33.41-.4,.03-.78,.22-1.05,.52-1.83,2.01-2.83,3.16-3.01,3.43-6.22,9.03-11.41,18.8-15.57,29.31-.05,.1,0,.22,.09,.27,.08,.04,.17,.02,.23-.04,3.77-3.04,7.75-5.65,11.94-7.82,.36-.18,.64-.48,.82-.84,.47-.98,1.09-2.25,1.84-3.81,1.48-3.08,3.98-5.83,7.5-8.26,9.72-6.71,21.9-6.41,33.15-4.39,.91,.17,1.51,1.04,1.34,1.94-.05,.25-.15,.49-.3,.7-6.98,9.37-15.63,17.54-27.38,19.61-4.86,.85-9.42,.32-13.67-1.59-.57-.25-1.21-.25-1.78,0-6.45,2.92-12.02,7.05-16.7,12.4Zm25.6-45.12c12.42-2.48,20.63-15.41,23.9-26.74,.05-.19-.05-.39-.24-.44-.06-.02-.11-.02-.17,0-9.08,1.92-16.43,6.09-22.04,12.52-3.08,3.54-4.48,7.81-4.9,12.5-.01,.13,.08,.24,.2,.26,.07,0,.14-.02,.19-.08l11.43-12.76c.51-.56,1.37-.6,1.93-.1l.56,.51c.45,.39,.49,1.08,.09,1.52,0,0,0,0,0,0l-11.16,12.44c-.08,.1-.07,.24,.02,.32,.05,.05,.12,.06,.19,.05Zm-32.61,22.65l-7.88-18.62c-.32-.74,0-1.61,.71-1.98l.49-.26c.49-.26,1.1-.07,1.36,.42,.01,.02,.03,.05,.04,.08l7.51,17.76c.07,.16,.26,.23,.42,.16,.08-.04,.14-.1,.17-.18,2.59-7.11,.04-16.01-4.04-22.16-3.3-4.97-7.4-9.06-12.3-12.27-.2-.13-.47-.07-.59,.13-.03,.05-.06,.11-.07,.17-1.4,9.78-2.37,18.85,2.49,27.44,2.61,4.61,6.3,7.92,11.07,9.94,.24,.11,.51,0,.62-.25,.05-.12,.05-.26,0-.38Zm27.82,3.63c-.08,.15-.02,.33,.13,.4,.08,.04,.18,.04,.26,0l14.28-6.15c.7-.31,1.52,.02,1.83,.72l.13,.28c.24,.54,0,1.17-.53,1.41l-14.99,6.87c-.19,.09-.27,.31-.19,.5,.05,.1,.13,.18,.24,.21,13.03,4.06,24.74-5.14,32.02-14.88,.11-.16,.08-.38-.08-.49-.04-.03-.1-.05-.15-.06-7.89-1.22-15.65-1.15-23.13,1.94-4.39,1.81-7.66,4.89-9.82,9.24Z"/>
  <path class="cls-2" d="M74.99,149.36c6.39-4.84,12.13-8.81,17.23-11.9,1.39-.84,5.21-2.71,11.45-5.6,.36-.17,.64-.46,.79-.83,.62-1.57,1.44-3.62,2.61-5.02,8.99-10.71,21.17-13.24,34.74-10.57,2.52,.5,5.66,1.3,9.43,2.4,.81,.24,1.27,1.09,1.03,1.9-.05,.18-.14,.36-.26,.51-10.23,13.02-28.91,25.96-45.55,15.04-.43-.29-.98-.34-1.45-.13-6.08,2.59-11.9,5.8-17.45,9.65-.13,.09-.17,.27-.08,.4,.05,.08,.14,.12,.23,.13l3.41,.25c.29,.03,.58-.03,.83-.17,9.45-4.94,21.06-2.42,29.31,4.14,3.3,2.63,6.21,5.36,8.74,8.21,.32,.36,.52,.77,.6,1.23,.13,.69-.26,1.37-.91,1.59-9.48,3.14-19.14,4.71-28.29,.29-4.91-2.37-8.57-6.15-11-11.32-.21-.44-.64-.73-1.13-.77l-6.99-.52c-.23-.01-.46,.05-.65,.19-4.29,3.13-7.03,5.18-8.23,6.15-7.75,6.24-17.57,16.65-28.06,20.94-.83,.35-1.51,.27-2.02-.23-.71-.69-.73-1.83-.04-2.54,.14-.15,.31-.27,.49-.36,9.95-4.89,18.04-11.65,24.27-20.3,.58-.82,1-1.74,1.22-2.72,1.39-6.18,1.41-12.68,.04-19.51-.08-.37-.35-.68-.71-.81-8.23-2.99-13.84-8.88-16.83-17.66-3.69-10.85-1.87-22.91,1.54-33.42,.1-.31,.28-.6,.53-.86,.53-.56,1.4-.61,1.97-.12,12.93,10.98,27,27.77,18.93,45.95-.69,1.55-1.32,2.91-1.9,4.08-.26,.53-.34,1.14-.23,1.72,.98,5.02,1.26,9.84,.85,14.46-.03,.33,.2,.62,.53,.67,1.38,.17,2.21,.63,2.48,1.36,.09,.23,.07,.48-.05,.7l-1.78,3.08c-.07,.12-.03,.27,.09,.34,.09,.05,.19,.04,.27-.02Zm-7.36-24.36c.19,.09,.42,.02,.51-.17,.04-.09,.05-.19,.02-.29l-7-22.24c-.24-.75,.18-1.56,.93-1.8l.12-.04c.74-.28,1.58,.09,1.86,.84,0,.02,.02,.04,.02,.06l6.91,21c.04,.14,.19,.22,.34,.18,.08-.02,.14-.08,.17-.16,6.35-16.1-3.43-30.25-15.54-39.93-.09-.08-.23-.06-.31,.04-.02,.03-.04,.06-.05,.09-3.34,15.08-4.76,34.23,12.02,42.42Zm41.74,4.44c-.06,.13,0,.28,.14,.34,.05,.02,.11,.03,.17,.01l19.55-6.16c.65-.2,1.35,.15,1.55,.8l.12,.39c.27,.87-.21,1.79-1.07,2.06l-19.35,6.09c-.25,.08-.39,.35-.31,.6,.04,.12,.13,.23,.24,.28,14.16,6.74,27.16-2.98,36.13-12.96,.15-.17,.14-.43-.03-.58-.05-.04-.11-.07-.17-.09-4.77-1.22-9.67-1.93-14.69-2.12-8.73-.33-15.83,2.84-21.28,9.53-.35,.43-.69,1.04-1,1.81Zm-12.45,18.18l13.13,4.12c.71,.22,1.11,.98,.89,1.7,0,0,0,.01,0,.02l-.02,.06c-.26,.75-1.06,1.16-1.82,.93l-14.2-4.32c-.15-.05-.3,.03-.35,.18-.03,.08-.01,.17,.03,.24,6.33,10.2,19.96,11.73,30.41,7.43,.14-.06,.2-.22,.14-.36-.01-.03-.03-.05-.05-.07-7.01-7.65-17.58-13.9-28.15-10.64-.2,.06-.31,.26-.25,.46,.04,.12,.13,.22,.25,.25Z"/>
  <path class="cls-1" d="M94.98,98.44c.45,1.38,1.24,2.35,2.39,2.9-.3,1.04-.27,1.94,.09,2.7,.14,.31,.43,.52,.76,.57,8.02,1.32,10.95,11.55,4.11,16.42-3.89,2.78-7.93,2.64-12.1-.43-.29-1.49-1.19-2.72-2.72-3.67,.41-1.05,.6-2.27,.57-3.65-.01-.41-.26-.78-.64-.95-2.61-1.15-4.73-2.9-5.96-5.49-2.21-4.71,1.71-11.19,7.05-11.1,.51,.01,1.29,.31,2.35,.9,1.3,.73,2.67,1.33,4.1,1.8Zm-5.55,10.95l3.13-5.44c.45-.78,.4-1.75-.13-2.47-2.06-2.83-4.17-3.14-6.33-.94-1.8,1.83-2.02,3.84-.67,6.01,1.53,2.46,2.81,3.45,3.85,2.97,.07-.03,.12-.08,.15-.13Zm5.38-.36l-2.78,6.51c-.46,1.07,.04,2.31,1.12,2.77,0,0,0,0,0,0l1.18,.51c2.86,1.22,6.15-.05,7.35-2.84h0s.12-.28,.12-.28c1.2-2.79-.16-6.05-3.02-7.28,0,0,0,0-.01,0l-1.19-.5c-1.07-.46-2.31,.04-2.77,1.11t0,0Z"/>
  <path class="cls-2" d="M90.23,120.6l-5.89,12.26c-.34,.69-1.18,.97-1.89,.62-.04-.02-.09-.05-.13-.07l-.05-.03c-.73-.45-1.01-1.38-.67-2.2l5.91-14.25c1.53,.95,2.43,2.18,2.72,3.67Z"/>
</svg>