<?xml version="1.0" encoding="UTF-8"?>
<svg id="_图层_1" data-name="图层 1" xmlns="http://www.w3.org/2000/svg" viewBox="0 0 200 200">
  <defs>
    <style>
      .cls-1 {
        fill: #db6a3a;
      }

      .cls-2 {
        fill: #0a494e;
      }
    </style>
  </defs>
  <path class="cls-2" d="M101.24,29.04c.43,.17,.94,.66,1.54,1.46,11.44,15.29,21.34,29.48,29.69,42.57,5.67,8.88,10.35,17.95,14.03,27.2,6.25,15.69,5.31,30.83-2.82,45.42-9.21,16.52-26.58,26.51-45.84,25.34-26.33-1.59-45.66-22.4-48.26-48.06-1.07-10.58,3.65-23.08,8.78-32.69,4.23-7.95,9.03-15.99,14.39-24.13,8.38-12.73,16.96-24.84,25.73-36.31,.65-.87,1.79-1.19,2.76-.8Zm-.89,5.4c-1.2,1.15-2.51,2.7-3.94,4.66-14.42,19.78-26.27,37.3-36.58,57.43-6.58,12.84-8.41,27.86-2.27,41.42,4.89,10.83,12.36,18.9,22.39,24.2,18.38,9.72,42.58,4.88,55.29-11.46,3.26-4.19,5.41-7.39,6.44-9.58,1.84-3.92,3.21-8.51,4.1-13.77,1.47-8.68,.48-15.73-2.39-23.73-4.95-13.76-12.45-25.92-20.93-38.55-6.62-9.86-13.85-20.06-21.69-30.59-.09-.12-.27-.15-.39-.05,0,0-.02,.02-.03,.02Z"/>
  <path class="cls-1" d="M97.08,87.31s-.16,1.15-.51,3.38c-1.65,10.47,3.68,18.17,12.59,22.7,4.82,2.45,7.67,3.99,10.96,6.63,6.12,4.93,7.89,12.96,5.41,20.23-3.38,9.92-14.92,16.81-25.33,16.17-9.29-.57-16.78-4.25-22.48-11.06-6.76-8.07-7.42-18.71-5.13-28.97,.78-3.51,2.49-7.39,5.13-11.64,4.77-7.67,9.03-13.55,15.92-18.41,1.09-.77,2.06-.75,2.91,.06,.26,.24,.44,.56,.53,.91Zm-4.53,4.63c-7.95,6.77-13.45,15.37-16.49,25.82-3.58,12.26,1.05,26.1,12.39,31.97,12.25,6.33,26.86,3.32,33.16-9.89,2.34-4.89,2.3-10.32-1.22-14.55-3.94-4.74-10.58-6.97-14.43-9.24-8.96-5.29-13.21-13.22-12.76-23.79,0-.22-.17-.4-.39-.41-.09,0-.18,.03-.26,.09Z"/>
</svg>