<?xml version="1.0" encoding="UTF-8"?>
<svg id="_图层_1" data-name="图层 1" xmlns="http://www.w3.org/2000/svg" viewBox="0 0 200 200">
  <defs>
    <style>
      .cls-1 {
        fill: #db6a3a;
      }

      .cls-2 {
        fill: #0a494e;
      }
    </style>
  </defs>
  <path class="cls-2" d="M90.39,71.81c0,.14,.12,.26,.26,.26,.05,0,.1-.02,.15-.05,11.46-8.01,23.9-9.62,35.76-1.54,10.51,7.15,15.43,20.1,14.54,32.52-.08,1.07-.98,1.89-2.05,1.84h-.07c-1.03-.05-1.83-.92-1.79-1.95,.55-14.7-5.99-28.85-20.84-32.97-10.4-2.88-17.67,1.28-26.15,7.35-1.16,.83-2.74,.75-3.8-.2-12.41-10.99-26.93-13.89-39.75-2.06-9.6,8.87-12.69,22.63-11.4,35.45,.54,5.37,1.31,9.71,2.3,13.02,3.79,12.6,9.62,25.67,19.05,34.73,5.79,5.57,12.62,6.8,20.48,3.71,2.02-.79,4.56-1.78,7.63-2.97,.98-.38,2.1-.04,2.7,.83l.06,.1c.5,.73,.32,1.72-.41,2.22-.06,.04-.12,.07-.18,.11-11.05,5.67-21.06,9.09-31.49,.15-12.85-11-20.01-28.29-23.39-45.09-2.97-14.77-1.09-29.65,8.58-41.6,12.08-14.94,30.86-15.92,45.42-3.88,.15,.12,.37,.1,.49-.05,.05-.06,.08-.15,.08-.23-.11-3.85,.43-7.68,1.63-11.48,.06-.19-.04-.4-.24-.47-.05-.02-.11-.02-.16-.01-3.99,.49-8.24,.47-12.74-.05-15.26-1.75-25.29-14.35-25.73-29.28-.02-.68,.46-1.27,1.13-1.4,5.34-1.05,10.51-1.08,15.51-.1,13.01,2.55,22.04,13.88,23.12,26.88,.03,.28,.27,.49,.55,.47,.15-.01,.28-.09,.36-.21,.36-.5,1.3-1.89,2.82-4.16,2.66-3.98,6.57-7.44,11.73-10.37,1-.56,2.27-.29,2.96,.63l.09,.12c.57,.78,.4,1.88-.38,2.45-.06,.05-.13,.09-.2,.13-10.89,5.87-16.43,14.92-16.63,27.15ZM53.5,32.47s-.03,.04-.04,.06c-.02,.04-.03,.08-.02,.13,1.45,8.55,5.01,14.88,10.66,18.99,5.65,4.11,12.77,5.53,21.35,4.28,.05,0,.09-.03,.12-.06,.01-.02,.03-.04,.04-.06,0-.01,.02-.03,.03-.05,.03-.04,.04-.09,.03-.14-1.46-8.55-5.01-14.87-10.66-18.98-5.65-4.11-12.77-5.53-21.35-4.28-.05,0-.09,.03-.12,.06-.01,.02-.03,.04-.04,.05Z"/>
  <path class="cls-1" d="M159.55,102.64c1.72-.83,3.79-.11,4.62,1.61l.5,1.05c11.09,22.94,1.5,50.52-21.42,61.6l-1.03,.5c-22.92,11.08-50.49,1.46-61.58-21.48l-.51-1.04c-.83-1.72-.11-3.79,1.61-4.62l77.81-37.62Zm.85,3.91l-76.36,36.92c-.14,.06-.19,.22-.13,.36,0,0,0,0,0,0l.24,.49c10.11,20.91,35.26,29.67,56.17,19.56l1.12-.54c20.91-10.11,29.67-35.26,19.56-56.17l-.24-.5c-.07-.13-.23-.19-.36-.12Z"/>
  <path class="cls-1" d="M144.92,130.35c-.18,.63-.83,1-1.46,.83l-2.97-.81c-3.07-.85-5.28-2.58-4.92-3.87,0,0,0,0,0,0l.1-.37c.35-1.29,3.13-1.65,6.2-.8,0,0,0,0,0,0l2.97,.82c.63,.18,1,.83,.83,1.46l-.76,2.74Z"/>
  <ellipse class="cls-1" cx="115.62" cy="139.67" rx="5.73" ry="2.53" transform="translate(-57.75 192.74) rotate(-67.4)"/>
  <path class="cls-1" d="M127.16,134.76c.98-.87,2.01-.77,3.08,.29,1.87,1.84,3.31,3.72,4.3,5.65,.79,1.52-.46,3.87-2.22,4.35-4.2,1.13-4.83-5.65-5.47-9.42-.06-.32,.06-.65,.31-.87Z"/>
</svg>