<?xml version="1.0" encoding="UTF-8"?>
<svg id="_图层_1" data-name="图层 1" xmlns="http://www.w3.org/2000/svg" viewBox="0 0 200 200">
  <defs>
    <style>
      .cls-1 {
        fill: #db6a3a;
      }

      .cls-2 {
        fill: #0a494e;
      }
    </style>
  </defs>
  <path class="cls-1" d="M100.54,50.15c1.81,2.21,3.2,4.01,4.08,6.76,1.91,6.01-.59,12.39-4.93,16.81-.69,.71-1.81,.74-2.55,.09l-.11-.09c-.7-.61-.77-1.68-.16-2.39,0,0,.01-.01,.02-.02,3.66-4.04,5.81-9.32,3.91-14.6-.27-.76-1.26-2.17-2.95-4.23-1.82-2.21-3.2-4.01-4.08-6.76-1.91-6.01,.59-12.39,4.93-16.81,.69-.71,1.81-.74,2.55-.09l.11,.09c.7,.61,.77,1.68,.16,2.39l-.02,.02c-3.66,4.04-5.81,9.32-3.91,14.6,.27,.75,1.25,2.16,2.95,4.23Z"/>
  <path class="cls-1" d="M124.49,36.92c.54-.59,1.45-.64,2.04-.11,0,0,.02,.02,.03,.03l.04,.05c.62,.59,.7,1.55,.19,2.25-3.63,4.87-5.15,9.95-1.5,14.72,3.48,4.57,5.8,8.73,4.25,14.72-.9,3.49-2.55,6.45-4.94,8.88-.6,.6-1.58,.6-2.18,0-.01-.01-.02-.02-.03-.03l-.05-.05c-.61-.65-.63-1.67-.03-2.34,4.82-5.46,5.62-10.94,1.17-16.96-2.26-3.05-4.57-6.49-4.13-10.21,.47-3.97,2.18-7.62,5.14-10.95Z"/>
  <path class="cls-1" d="M72.28,80.75c-.81-.42-1.12-1.42-.7-2.23,.04-.07,.08-.14,.13-.21,.97-1.35,2.93-3.23,3.59-5.1,1.5-4.25,.88-7.95-1.87-11.08-5.91-6.74-5.98-13.58-.21-20.51,.65-.79,1.8-.95,2.64-.37l.07,.05c.82,.56,1.03,1.68,.46,2.5,0,0,0,.01-.01,.02-2.38,3.37-3.75,6.22-3.44,10.15,.22,2.82,2.06,4.86,4.33,7.95,4.15,5.67,2.15,13-2.04,18.29-.68,.86-1.87,1.11-2.83,.61l-.12-.07Z"/>
  <path class="cls-2" d="M76.67,98.03c.12-.08,1.01-.71,2.67-1.9,9.68-6.9,20.39-8.8,32.13-5.69,3.73,.99,6.92,2.73,9.58,5.24,.26,.24,.6,.39,.96,.4,.17,0,1.41-.12,3.7-.37,9.12-.97,18.76,4.25,24.13,11.22,.32,.42,.72,.78,1.17,1.06,3.21,1.99,5.17,3.36,5.86,4.12,4.57,5,7.82,10.74,9.76,17.23,2.98,9.96,1.38,21.88-6.99,28.77-5.3,4.36-9.53,4.28-17.2,4.28-22.25-.01-50.57,.01-84.98,.07-5.86,0-9.81-.35-11.84-1.08-9.25-3.29-14.28-12.31-13.99-22.14,.54-18.2,14.04-33.05,30.01-40.59,2.83-1.33,5.9-2.23,9.21-2.68,2.05-.28,3.62,.34,4.7,1.85,.26,.36,.75,.45,1.12,.21Zm68.62,9.71c.2-.04,.33-.24,.29-.44-.02-.07-.05-.14-.11-.19-4.46-4.23-11.12-7.41-17.25-7.6-14.22-.45-26.23,14.03-30.98,26-.37,.92-1.42,1.37-2.33,1,0,0-.02,0-.03-.01l-.08-.04c-.92-.39-1.37-1.44-1.02-2.39,4.47-11.93,12.27-20.69,23.38-26.26,.23-.11,.33-.4,.21-.63-.04-.08-.1-.15-.18-.2-6.14-3.73-12.79-5.03-19.94-3.92-17.37,2.7-29.75,16.64-33.14,33.37-.16,.78-.87,1.33-1.67,1.27l-.5-.04c-.98-.07-1.72-.93-1.64-1.91,0-.08,.02-.16,.03-.23,1.49-7.03,4.39-14.18,9.03-19.69,1.29-1.53,2.61-3.1,3.96-4.71,.23-.27,.2-.68-.08-.92-.07-.06-.14-.1-.22-.12-3.62-1.13-9,1.32-12.02,2.93-14.97,8-32.25,29.34-23,47.28,3.65,7.08,9.61,8.25,17.78,8.24,22.97-.01,49.79,0,80.44,.02,3.46,0,7.46-.07,12-.24,9.22-.33,14.84-7.39,15.64-16.21,.84-9.25-1.78-17.51-7.85-24.79-4.39-5.27-8.64-7.93-14.96-4.24-6.76,3.93-11.91,9.21-15.44,15.82-.48,.91-1.59,1.27-2.52,.84l-.12-.06c-.88-.41-1.26-1.46-.85-2.35,.01-.02,.02-.05,.04-.07,4.58-8.69,13.02-17.68,23.13-19.51Z"/>
  <rect class="cls-2" x="28.18" y="167.88" width="143.64" height="3.76" rx="1.86" ry="1.86"/>
</svg>