<?xml version="1.0" encoding="iso-8859-1"?>
<!-- Generator: Adobe Illustrator 29.0.0, SVG Export Plug-In . SVG Version: 9.03 Build 54978)  -->
<svg version="1.1" id="&#x56FE;&#x5C42;_1" xmlns="http://www.w3.org/2000/svg" xmlns:xlink="http://www.w3.org/1999/xlink" x="0px"
	 y="0px" viewBox="0 0 200 100" style="enable-background:new 0 0 200 100;" xml:space="preserve">
<g>
	<path style="fill-rule:evenodd;clip-rule:evenodd;fill:#595A5A;" d="M120.144,42.259c-0.171,4.496-0.293,21.019-0.18,32.181
		c0.004,0.383,0.013,0.76,0.013,1.128l-0.021,9.398l16.25-0.101l0.03-25.456l12.274-0.036l0.023-16.127l-12.202-0.064
		c-0.004-7.289,5.302-11.418,12.195-12.131l0.078-16.049C132.51,14.859,120.726,26.933,120.144,42.259z"/>
	<path style="fill-rule:evenodd;clip-rule:evenodd;fill:#595A5A;" d="M79.691,42.293c-0.171,4.496-0.293,21.019-0.18,32.181
		c0.004,0.383,0.013,0.76,0.013,1.128L79.503,85l16.249-0.101l0.03-25.456l12.274-0.036l0.023-16.127l-12.202-0.064
		c-0.004-7.289,5.302-11.418,12.195-12.131l0.078-16.049C92.058,14.893,80.274,26.967,79.691,42.293z"/>
	<path style="fill-rule:evenodd;clip-rule:evenodd;fill:#595A5A;" d="M51.396,84.797l16.163,0.171l-0.037-41.717l-12.119-0.006
		c0.052-8.227,6.12-11.419,12.172-12.155l-0.024-13.044L51.44,18.031L51.396,84.797z"/>
</g>
</svg>
