<?xml version="1.0" encoding="UTF-8"?>
<svg id="_图层_1" data-name="图层 1" xmlns="http://www.w3.org/2000/svg" viewBox="0 0 200 100">
  <defs>
    <style>
      .cls-1 {
        fill: #4f4e4e;
      }
    </style>
  </defs>
  <path class="cls-1" d="M111.45,32.51h2.15c4.64.34,9.12,2.53,12.13,6.08,2.58,2.98,4.09,6.85,4.21,10.8.15,3.77-.98,7.58-3.16,10.67-2.3,3.29-5.76,5.75-9.63,6.81-4.07,1.14-8.56.74-12.35-1.13-3.55-1.72-6.48-4.69-8.15-8.26-1.57-3.28-2.03-7.06-1.39-10.63.76-4.24,3.17-8.15,6.59-10.76,2.75-2.12,6.14-3.35,9.6-3.58ZM110.53,39.85c-3.66.67-6.82,3.48-7.91,7.04-.98,3.04-.43,6.52,1.44,9.1,1.78,2.52,4.75,4.17,7.84,4.31,2.9.18,5.85-.97,7.88-3.04,1.99-1.99,3.1-4.81,2.98-7.63-.08-3.16-1.74-6.21-4.31-8.03-2.25-1.64-5.19-2.27-7.92-1.75Z"/>
  <path class="cls-1" d="M38.46,33.29c8.62.01,17.25.01,25.87,0,.03,1.48.03,2.96.02,4.44.05.62-.45,1.05-.77,1.52-5,6.6-9.96,13.23-14.94,19.84-.2.28-.38.57-.56.87,5.42,0,10.84,0,16.26,0,0,2.21.01,4.42,0,6.63-8.79.01-17.59,0-26.39,0v-5.95l.13.27c4.96-6.92,9.98-13.79,14.9-20.73-4.84-.04-9.69-.02-14.53-.01-.04-2.29-.04-4.58,0-6.87Z"/>
  <path class="cls-1" d="M68.49,33.32c8.14.08,16.29-.05,24.43.07-.05,2.22,0,4.43-.03,6.65-5.64,0-11.28.01-16.92,0-.02,2.1-.02,4.21,0,6.31,5.2-.01,10.4-.01,15.6,0-.01,2.07.04,4.14-.03,6.21-5.2-.02-10.39-.02-15.59,0,.02,2.47-.03,4.94.02,7.4,5.64-.03,11.27-.02,16.91,0,.01,2.22-.01,4.44.01,6.66-8.13.1-16.27-.02-24.41.06-.04-.31-.07-.61-.08-.92,0-10.01,0-20.02,0-30.03,0-.8-.04-1.61.07-2.4Z"/>
  <path class="cls-1" d="M133.06,33.31c2.43.04,4.87-.05,7.3.04,2.52,3.12,4.86,6.4,7.31,9.58,2.35,3.04,4.57,6.19,7.01,9.16.04-6.26.01-12.51.01-18.77,2.45-.02,4.91,0,7.36-.01v33.43c-2.05,0-4.1.02-6.16-.01-5.14-6.8-10.24-13.65-15.45-20.4-.05,6.8-.02,13.6-.02,20.4-2.45.02-4.91.02-7.37,0,.02-11.14,0-22.28.01-33.42Z"/>
</svg>