<?xml version="1.0" encoding="UTF-8"?>
<svg id="_图层_1" data-name="图层 1" xmlns="http://www.w3.org/2000/svg" viewBox="0 0 200 100">
  <defs>
    <style>
      .cls-1 {
        fill: #4e4d4e;
      }

      .cls-1, .cls-2 {
        fill-rule: evenodd;
      }

      .cls-2 {
        fill: #191617;
        stroke-width: .22px;
      }

      .cls-2, .cls-3 {
        stroke: #a6a6a6;
        stroke-miterlimit: 22.93;
      }

      .cls-3 {
        fill: none;
        stroke-width: .57px;
      }
    </style>
  </defs>
  <g>
    <path class="cls-3" d="M180.68,68.84c-25.67-22.5-29.59,2.32-55.57,7.14-45.94,12.69-73-25.28-95.71-20.17"/>
    <path class="cls-3" d="M176.82,69.07c-25.14-22.35-29.42,2.62-54.79,7.37-44.63,12.27-70.87-24.01-92.9-19.45"/>
    <path class="cls-3" d="M172.97,69.29c-24.61-22.19-29.24,2.91-54,7.6-43.31,11.84-68.74-22.74-90.09-18.74"/>
    <path class="cls-3" d="M169.11,69.51c-24.08-22.04-29.06,3.21-53.21,7.84-42,11.42-66.61-21.48-87.28-18.02"/>
    <path class="cls-3" d="M165.26,69.73c-23.56-21.89-28.89,3.5-52.42,8.07-38.97,10.54-62.44-17.65-81.92-17.49"/>
    <path class="cls-3" d="M161.4,69.95c-23.03-21.74-28.71,3.8-51.63,8.31-37.18,9.99-59.73-15.77-78.39-16.69"/>
    <path class="cls-3" d="M157.55,70.17c-22.5-21.59-28.54,4.09-50.84,8.54-35.94,9.59-57.7-14.68-75.7-15.9"/>
    <path class="cls-3" d="M153.69,70.39c-21.97-21.44-28.36,4.38-50.06,8.78-34.65,9.18-55.6-13.53-72.93-15.11"/>
    <path class="cls-3" d="M149.84,70.61c-21.45-21.29-28.19,4.68-49.27,9.01-34.27,9.01-54.58-13.55-71.51-14.42"/>
    <path class="cls-3" d="M145.98,70.83c-20.92-21.14-28.01,4.97-48.48,9.25-34.13,8.89-53.81-13.91-70.41-13.77"/>
    <path class="cls-3" d="M142.13,71.05c-20.39-20.99-27.83,5.27-47.69,9.48-31.43,8.12-50.07-10.87-65.58-12.84-.68-.09-6.41-1.15-8.18-1.05"/>
    <path class="cls-3" d="M138.27,71.27c-19.86-20.84-27.66,5.56-46.9,9.71-29.65,7.58-47.38-9.13-62.08-11.93-.92-.18-6.96-1.31-8.68-1.28"/>
    <path class="cls-3" d="M134.41,71.49c-19.34-20.69-27.48,5.85-46.11,9.95-28.18,7.12-45.07-7.81-59.05-11.06-2.19-.51-5.34-1.19-8.72-1.35"/>
    <path class="cls-3" d="M130.56,71.71c-18.81-20.53-27.31,6.15-45.33,10.18-27.5,6.86-43.7-7.31-57.18-10.46-.68-.16-3.03-.63-3.69-.73"/>
    <path class="cls-3" d="M126.7,71.93c-18.28-20.38-27.13,6.44-44.54,10.42-25.5,6.28-40.75-5.48-53.35-9.35-1.03-.31-3.09-.86-4.08-1.06"/>
    <path class="cls-3" d="M122.85,72.16c-17.75-20.23-26.95,6.74-43.75,10.65-24.68,5.98-39.21-4.8-51.28-8.74-.77-.25-2.8-.82-3.56-1.01"/>
    <path class="cls-3" d="M118.99,72.38c-17.22-20.08-26.78,7.03-42.96,10.89-23.43,5.58-37.17-3.71-48.57-7.94-.74-.27-2.63-.8-3.35-1.03"/>
    <path class="cls-2" d="M20.4,76.12v-6.01h2.66c.54,0,.94.05,1.22.16.28.11.5.3.67.57.17.27.25.57.25.9,0,.43-.14.79-.41,1.08-.28.29-.7.48-1.28.56.21.1.37.2.48.3.23.21.45.48.66.8l1.04,1.64h-.99l-.79-1.25c-.23-.36-.42-.64-.57-.83-.15-.19-.29-.32-.4-.4-.12-.08-.24-.13-.36-.16-.09-.02-.24-.03-.44-.03h-.92v2.67h-.8ZM21.2,72.76h1.71c.36,0,.65-.04.85-.11.2-.07.36-.19.46-.36.11-.16.16-.34.16-.54,0-.28-.1-.52-.31-.7-.21-.18-.53-.27-.97-.27h-1.9v1.99Z"/>
    <polygon class="cls-2" points="38.96 76.12 38.96 70.11 43.3 70.11 43.3 70.81 39.76 70.81 39.76 72.66 43.07 72.66 43.07 73.36 39.76 73.36 39.76 75.41 43.44 75.41 43.44 76.12 38.96 76.12"/>
    <path class="cls-2" d="M56.78,74.19l.75-.07c.03.3.12.55.25.74.13.19.33.35.6.47.27.12.58.18.92.18.3,0,.57-.04.8-.14.23-.09.4-.22.52-.37.11-.16.17-.33.17-.51s-.05-.35-.16-.49c-.11-.14-.29-.26-.54-.35-.16-.06-.52-.16-1.07-.29-.55-.13-.94-.26-1.16-.37-.29-.15-.5-.34-.64-.56-.14-.22-.21-.47-.21-.75,0-.3.09-.59.26-.85.17-.26.42-.46.75-.6.33-.14.7-.21,1.1-.21.44,0,.84.07,1.18.22.34.14.6.35.78.63.18.28.28.59.29.95l-.76.06c-.04-.38-.18-.67-.42-.86-.24-.19-.59-.29-1.05-.29s-.83.09-1.05.26c-.22.18-.33.39-.33.64,0,.22.08.39.23.53.15.14.55.28,1.2.43.65.15,1.09.27,1.33.38.35.16.61.36.77.61.17.25.25.53.25.85s-.09.62-.27.9c-.18.28-.44.5-.79.66s-.73.23-1.16.23c-.54,0-1-.08-1.36-.24-.37-.16-.65-.4-.86-.71-.21-.32-.32-.68-.33-1.08Z"/>
    <polygon class="cls-2" points="75.16 76.12 75.16 70.11 79.49 70.11 79.49 70.81 75.95 70.81 75.95 72.66 79.27 72.66 79.27 73.36 75.95 73.36 75.95 75.41 79.64 75.41 79.64 76.12 75.16 76.12"/>
    <path class="cls-2" d="M92.58,76.12l2.3-6.01h.87l2.45,6.01h-.9l-.69-1.82h-2.53l-.65,1.82h-.84ZM94.31,73.65h2.05l-.63-1.67c-.19-.51-.33-.92-.43-1.25-.08.39-.19.78-.33,1.16l-.66,1.76Z"/>
    <path class="cls-2" d="M111.35,76.12v-6.01h2.66c.54,0,.94.05,1.22.16.28.11.5.3.67.57.17.27.25.57.25.9,0,.43-.14.79-.41,1.08-.28.29-.7.48-1.28.56.21.1.37.2.48.3.23.21.45.48.66.8l1.04,1.64h-.99l-.79-1.25c-.23-.36-.42-.64-.57-.83-.15-.19-.29-.32-.4-.4-.12-.08-.24-.13-.36-.16-.09-.02-.24-.03-.44-.03h-.92v2.67h-.8ZM112.15,72.76h1.71c.36,0,.65-.04.85-.11.2-.07.36-.19.46-.36.11-.16.16-.34.16-.54,0-.28-.1-.52-.31-.7-.21-.18-.53-.27-.97-.27h-1.9v1.99Z"/>
    <path class="cls-2" d="M134.18,74.01l.8.2c-.17.65-.47,1.15-.9,1.49s-.96.51-1.59.51-1.17-.13-1.58-.4c-.41-.26-.71-.64-.92-1.14-.21-.5-.32-1.04-.32-1.61,0-.62.12-1.17.36-1.64.24-.47.58-.82,1.02-1.06.44-.24.93-.36,1.45-.36.6,0,1.11.15,1.51.46.41.31.69.74.86,1.29l-.78.18c-.14-.44-.34-.75-.61-.95-.26-.2-.6-.3-1-.3-.46,0-.85.11-1.15.33-.31.22-.53.52-.65.89-.13.37-.19.76-.19,1.15,0,.51.07.96.22,1.34.15.38.38.67.69.85.31.19.65.28,1.02.28.44,0,.82-.13,1.13-.38.31-.26.52-.64.62-1.14Z"/>
    <polygon class="cls-2" points="148.49 76.12 148.49 70.11 149.29 70.11 149.29 72.58 152.39 72.58 152.39 70.11 153.19 70.11 153.19 76.12 152.39 76.12 152.39 73.29 149.29 73.29 149.29 76.12 148.49 76.12"/>
  </g>
  <g>
    <path class="cls-1" d="M74.72,61.17c0,.91-.39,1.33-1.49,1.36v.61h6.27v-.61c-.87,0-1.94-.13-1.94-1.81v-13.87h.06l10.73,16.29h3.43v-18.91c0-.91.39-1.33,1.49-1.36v-.61h-6.27v.61c.87,0,1.94.13,1.94,1.81v11.41h-.06l-8.92-13.84h-6.72v.61c1.1.03,1.49.45,1.49,1.36v16.94Z"/>
    <path class="cls-1" d="M50.73,63.14h6.69v-.61c-1.07-.06-1.52-.45-1.52-1.03,0-.32.1-.68.26-1.13l1.42-3.81h6.3l1.03,3.14c.16.42.32,1.16.32,1.62,0,.74-.42,1-1.62,1.23v.61h8.28v-.61c-.97-.26-1.45-.68-1.94-2.1l-5.95-18.17h-6.08v.61c.87,0,1.23.52,1.23.84s-.23.78-.42,1.26l-6.34,16.07c-.32.84-.74,1.36-1.68,1.49v.61h0ZM58.21,54.09c.84-2.3,1.87-4.85,2.62-7.44h.06c.65,3.26,1.2,5.33,1.87,7.44h-4.56Z"/>
    <path class="cls-1" d="M43.31,61.17c0,.91-.39,1.33-1.49,1.36v.61h7.76v-.61c-1.1-.03-1.49-.45-1.49-1.36v-16.94c0-.91.39-1.33,1.49-1.36v-.61h-7.76v.61c1.1.03,1.49.45,1.49,1.36v16.94Z"/>
    <path class="cls-1" d="M21.36,61.17c0,.91-.39,1.33-1.49,1.36v.61h8.15v-.61c-1.65-.06-1.87-.87-1.87-1.78v-8.05c3.14,3.52,5.01,6.82,7.27,10.44h6.72v-.55l-.55-.13c-.65-.16-1.23-.65-2.26-2.23-2.65-3.98-4.2-6.11-6.37-8.86l5.37-6.79c.97-1.23,1.29-1.49,2.39-1.62v-.71h-7.4v.71c.71.03,1.16.23,1.16.78,0,.39-.13.81-.61,1.42l-5.66,7.24h-.06v-7.76c0-.91.23-1.71,1.87-1.78v-.61h-8.15v.61c1.1.03,1.49.45,1.49,1.36v16.94Z"/>
    <path class="cls-1" d="M106.78,29.48c0,5.53,3.1,7.44,8.92,7.44s8.92-1.91,8.92-7.89v-11.54c0-.91.39-1.33,1.49-1.36v-.61h-8.02v.61c1.39.06,1.75.32,1.75,1.58v11.99c0,3.59-1.52,4.36-4.14,4.36s-4.14-.71-4.14-4.36v-11.99c0-1.26.36-1.52,1.75-1.58v-.61h-8.02v.61c1.1.03,1.49.45,1.49,1.36v11.99Z"/>
    <path class="cls-1" d="M103.4,25.99c0-5.75-3.98-10.99-10.57-10.99-5.95,0-10.51,4.46-10.51,10.6s3.91,11.31,10.34,11.31c5.79,0,10.73-4.11,10.73-10.93h0ZM98.82,27.84c-.31,3.51-2.46,6.27-5.75,5.99-4.61-.4-5.8-6.06-5.47-9.82.23-2.58,1.75-6.27,5.74-5.92,4.83.42,5.8,6.02,5.47,9.76Z"/>
    <path class="cls-1" d="M61.47,34.23c0,.91-.38,1.33-1.47,1.36v.61h9.19c5.94,0,11.27-4.07,11.27-10.51,0-7.14-5.33-9.99-10.76-9.99h-9.7v.61c1.09.03,1.47.45,1.47,1.36v16.55h0ZM66.27,18.56h1.97c5.33,0,7.69,3.52,7.69,8.08,0,3.69-3.07,6.72-7.21,6.72h-2.46v-14.81Z"/>
    <path class="cls-1" d="M42.05,34.23c0,.91-.39,1.33-1.49,1.36v.61h16.94c.03-1.78.1-3.49.39-6.14h-.81c-.55,2.72-1.1,3.3-2.84,3.3h-7.4v-6.37h4.43c1.45,0,1.68.48,1.87,1.65h.61c-.1-.78-.19-2.2-.19-3.07s.1-2.26.19-3.07h-.61c-.19,1.16-.42,1.65-1.87,1.65h-4.43v-5.59h7.05c1.75,0,2.2.61,2.52,2.39h.61c-.16-1.75-.23-3.46-.26-5.24h-16.2v.61c1.1.03,1.49.45,1.49,1.36v16.55Z"/>
    <path class="cls-1" d="M20.81,34.23c0,.91-.39,1.33-1.49,1.36v.61h11.7c2,0,7.24-1.16,7.24-5.92,0-3.33-2.81-4.75-5.82-4.85v-.06c2.36-.58,4.33-2.23,4.33-4.72,0-3.85-3.69-4.95-5.75-4.95h-11.7v.61c1.1.03,1.49.45,1.49,1.36v16.55h0ZM25.59,26.99h3.04c3.69,0,4.85,1.65,4.85,3.17,0,1.65-.81,3.39-5.08,3.39h-2.81v-6.56h0ZM25.59,18.36h2.65c2.59,0,3.94,1,3.94,2.68,0,1.52-.91,3.3-4.33,3.3h-2.26v-5.98Z"/>
  </g>
</svg>