<?xml version="1.0" encoding="iso-8859-1"?>
<!-- Generator: Adobe Illustrator 29.0.0, SVG Export Plug-In . SVG Version: 9.03 Build 54978)  -->
<svg version="1.1" id="&#x56FE;&#x5C42;_1" xmlns="http://www.w3.org/2000/svg" xmlns:xlink="http://www.w3.org/1999/xlink" x="0px"
	 y="0px" viewBox="0 0 200 100" style="enable-background:new 0 0 200 100;" xml:space="preserve">
<g>
	<path style="fill:#595A5A;" d="M26.015,28.817c0,0,1.905,1.364,6.35-0.545s9.651,0.682,11.302,3.273
		c0,0-11.302,23.726-10.413,28.226c0,0,9.016-14.999,12.191-21.272c0,0,0.635-4.5,0-8.045c0,0,11.175-6.272,9.524,1.5
		c0,0-5.207,9.818-6.858,17.999c0,0,6.731-7.363,9.27-1.773c0,0,2.286-0.136-2.159,12.272c0,0-0.476,1.227,2.747-2.045
		c3.222-3.273,3.857-4.227,4.619-3.273c0,0-5.334,8.318-6.223,13.363c-0.889,5.045-11.683,6.818-9.651-4.909
		c2.032-11.727,2.413-7.909,2.667-10.909c0.254-3-0.635-0.818-0.635-0.818s-3.683,3.818-5.334,19.636c0,0-1.27,1.227-4.953,0.136
		c0,0,2.032-13.499,3.429-18.545s3.174-6.434,2.413-8.727c0,0-8.381,9.818-10.413,26.317c0,0-5.969,2.591-6.477-1.909
		c0,0-1.397,0.409,2.794-9c0,0,4.826-14.863,5.461-16.636c0.635-1.773-1.774,1.153-6.219-1.165
		C25.003,39.651,26.269,31.271,26.015,28.817z"/>
	<g>
		<g>
			<path style="fill:#595A5A;" d="M67.337,59.294h8.719c0.441,0,0.661,0.208,0.661,0.623c0,0.416-0.221,0.624-0.661,0.624h-3.691
				v9.22c0,0.195-0.071,0.352-0.212,0.47c-0.142,0.118-0.323,0.177-0.543,0.177c-0.22,0-0.399-0.059-0.535-0.177
				c-0.136-0.118-0.205-0.274-0.205-0.47v-9.22h-3.533c-0.451,0-0.677-0.208-0.677-0.624C66.661,59.501,66.886,59.294,67.337,59.294
				z"/>
			<path style="fill:#595A5A;" d="M71.611,70.783c-0.312,0-0.575-0.09-0.781-0.268c-0.219-0.189-0.335-0.45-0.335-0.754v-8.844
				h-3.157c-0.659,0-1.053-0.374-1.053-1c0-0.626,0.394-0.999,1.053-0.999h8.719c0.65,0,1.037,0.374,1.037,0.999
				c0,0.626-0.388,1-1.037,1h-3.315v8.844c0,0.307-0.12,0.569-0.348,0.759C72.184,70.694,71.92,70.783,71.611,70.783z M67.337,59.67
				c-0.301,0-0.301,0.093-0.301,0.247c0,0.155,0,0.248,0.301,0.248h3.909v9.595c0,0.106,0.036,0.152,0.074,0.185
				c0.135,0.116,0.449,0.115,0.592-0.004c0.046-0.039,0.077-0.084,0.077-0.181v-9.595h4.067c0.273,0,0.285-0.08,0.285-0.248
				c0-0.167-0.012-0.247-0.285-0.247H67.337z"/>
		</g>
		<g>
			<path style="fill:#595A5A;" d="M78.134,69.483c0-0.315,0.123-0.59,0.37-0.823c0.246-0.233,0.535-0.349,0.865-0.349
				s0.618,0.116,0.862,0.349c0.244,0.233,0.366,0.507,0.366,0.823c0,0.316-0.122,0.59-0.366,0.823
				c-0.244,0.233-0.531,0.35-0.862,0.35s-0.619-0.117-0.865-0.35C78.258,70.073,78.134,69.798,78.134,69.483z"/>
			<path style="fill:#595A5A;" d="M79.37,71.031c-0.428,0-0.806-0.152-1.124-0.452c-0.324-0.305-0.488-0.674-0.488-1.096
				c0-0.422,0.164-0.79,0.488-1.096c0.635-0.601,1.615-0.6,2.245,0.001c0.32,0.306,0.482,0.674,0.482,1.095
				c0,0.421-0.162,0.79-0.482,1.095C80.176,70.878,79.799,71.031,79.37,71.031z M79.37,68.686c-0.233,0-0.432,0.081-0.607,0.246
				c-0.172,0.163-0.252,0.337-0.252,0.55c0,0.213,0.08,0.387,0.252,0.549c0.351,0.332,0.863,0.332,1.209,0.001
				c0.17-0.162,0.25-0.337,0.25-0.551c0-0.213-0.079-0.388-0.25-0.551C79.799,68.767,79.602,68.686,79.37,68.686z"/>
		</g>
		<g>
			<path style="fill:#595A5A;" d="M87.822,65.177v4.583c0,0.2-0.067,0.358-0.201,0.474c-0.134,0.115-0.314,0.173-0.539,0.173
				s-0.405-0.057-0.539-0.173c-0.134-0.115-0.2-0.273-0.2-0.474v-9.926c0-0.2,0.067-0.358,0.2-0.473
				c0.134-0.115,0.314-0.173,0.539-0.173s0.405,0.058,0.539,0.173c0.134,0.115,0.201,0.273,0.201,0.473v4.17h6.091v-4.17
				c0-0.2,0.067-0.358,0.2-0.473c0.134-0.115,0.314-0.173,0.539-0.173c0.226,0,0.405,0.058,0.539,0.173
				c0.134,0.115,0.2,0.273,0.2,0.473v9.926c0,0.2-0.067,0.358-0.2,0.474c-0.134,0.115-0.314,0.173-0.539,0.173
				c-0.225,0-0.405-0.057-0.539-0.173c-0.134-0.115-0.2-0.273-0.2-0.474v-4.583H87.822z"/>
			<path style="fill:#595A5A;" d="M94.652,70.783c-0.317,0-0.581-0.088-0.784-0.264c-0.217-0.187-0.331-0.449-0.331-0.759v-4.208
				h-5.339v4.208c0,0.31-0.115,0.572-0.332,0.759c-0.405,0.35-1.163,0.35-1.569,0c-0.216-0.187-0.331-0.449-0.331-0.758v-9.926
				c0-0.309,0.115-0.571,0.331-0.758c0.407-0.351,1.162-0.351,1.569,0c0.217,0.186,0.331,0.448,0.331,0.758v3.794h5.339v-3.794
				c0-0.309,0.115-0.571,0.331-0.758c0.408-0.351,1.162-0.351,1.569,0c0.217,0.187,0.331,0.449,0.331,0.758v9.926
				c0,0.31-0.115,0.572-0.331,0.758C95.234,70.694,94.97,70.783,94.652,70.783z M87.446,64.801h6.843v4.959
				c0,0.113,0.035,0.159,0.07,0.189c0.127,0.109,0.46,0.109,0.587,0c0.035-0.03,0.07-0.076,0.07-0.189v-9.926
				c0-0.113-0.035-0.159-0.07-0.189c-0.127-0.109-0.46-0.11-0.587,0c-0.035,0.03-0.07,0.075-0.07,0.188v4.546h-6.843v-4.546
				c0-0.113-0.035-0.159-0.07-0.188c-0.126-0.109-0.462-0.108-0.587,0c-0.035,0.03-0.07,0.076-0.07,0.189v9.926
				c0,0.113,0.035,0.159,0.07,0.189c0.125,0.108,0.462,0.108,0.587,0c0.035-0.03,0.07-0.076,0.07-0.189V64.801z"/>
		</g>
		<g>
			<path style="fill:#595A5A;" d="M106.859,69.437c0.063,0.155,0.094,0.301,0.094,0.436c0,0.135-0.072,0.258-0.216,0.368
				c-0.144,0.11-0.324,0.165-0.539,0.165c-0.216,0-0.383-0.05-0.504-0.15c-0.121-0.1-0.228-0.271-0.323-0.511l-1.046-2.645h-4.612
				l-1.015,2.63c-0.105,0.281-0.215,0.464-0.33,0.549c-0.115,0.085-0.275,0.128-0.48,0.128c-0.205,0-0.383-0.054-0.535-0.162
				c-0.152-0.108-0.228-0.228-0.228-0.361c0-0.133,0.031-0.277,0.094-0.432l4.076-9.866c0.058-0.13,0.155-0.239,0.291-0.327
				c0.136-0.088,0.291-0.132,0.464-0.132c0.388,0,0.643,0.143,0.763,0.429L106.859,69.437z M102.758,63.051
				c-0.315-0.807-0.551-1.536-0.708-2.187h-0.047c-0.178,0.646-0.425,1.375-0.74,2.187l-1.125,2.893h3.77L102.758,63.051z"/>
			<path style="fill:#595A5A;" d="M106.198,70.783c-0.305,0-0.555-0.08-0.744-0.237c-0.172-0.142-0.313-0.359-0.432-0.663
				l-0.952-2.406h-4.098l-0.922,2.389c-0.133,0.355-0.279,0.584-0.458,0.716c-0.359,0.265-1.022,0.278-1.456-0.03
				c-0.319-0.226-0.386-0.488-0.386-0.667c0-0.181,0.041-0.375,0.122-0.574l4.078-9.868c0.091-0.207,0.237-0.373,0.436-0.5
				c0.196-0.126,0.421-0.191,0.667-0.191c0.724,0,1.006,0.412,1.11,0.658l4.047,9.884c0.081,0.202,0.122,0.395,0.122,0.578
				c0,0.177-0.063,0.437-0.364,0.667C106.754,70.701,106.496,70.783,106.198,70.783z M99.455,66.725h5.125l1.14,2.882
				c0.093,0.236,0.173,0.327,0.213,0.36c0.063,0.053,0.178,0.064,0.264,0.064c0.131,0,0.233-0.029,0.311-0.088
				c0.059-0.045,0.069-0.071,0.069-0.072c0-0.084-0.023-0.183-0.067-0.293l-4.045-9.879c-0.026-0.061-0.082-0.195-0.415-0.195
				c-0.1,0-0.186,0.023-0.261,0.072c-0.075,0.047-0.124,0.101-0.151,0.163l-4.073,9.857c-0.043,0.105-0.065,0.202-0.066,0.285h0
				c0.003,0,0.021,0.023,0.069,0.057c0.088,0.062,0.192,0.093,0.318,0.093c0.159,0,0.229-0.034,0.256-0.054
				c0.004-0.003,0.085-0.065,0.202-0.378L99.455,66.725z M104.462,66.319h-4.874l1.325-3.405c0.308-0.793,0.553-1.517,0.728-2.151
				l0.076-0.276h0.63l0.069,0.288c0.152,0.631,0.386,1.35,0.693,2.138L104.462,66.319z M100.687,65.567h2.666l-0.945-2.378
				c-0.148-0.381-0.28-0.746-0.395-1.095c-0.119,0.348-0.253,0.713-0.4,1.093L100.687,65.567z"/>
		</g>
		<g>
			<path style="fill:#595A5A;" d="M111.053,64.989c-0.987-0.34-1.693-0.751-2.121-1.232c-0.428-0.481-0.641-1.029-0.641-1.645
				c0-0.907,0.332-1.642,0.995-2.206c0.663-0.563,1.512-0.845,2.546-0.845c1.033,0,1.901,0.218,2.601,0.654
				c0.701,0.436,1.05,0.824,1.05,1.165c0,0.18-0.077,0.34-0.232,0.481c-0.155,0.14-0.319,0.21-0.492,0.21
				c-0.173,0-0.299-0.028-0.378-0.083c-0.079-0.055-0.184-0.165-0.315-0.33c-0.53-0.606-1.272-0.909-2.227-0.909
				c-0.572,0-1.053,0.164-1.444,0.492c-0.391,0.328-0.586,0.719-0.586,1.172c0,0.453,0.156,0.819,0.469,1.097
				c0.312,0.278,0.951,0.595,1.916,0.951l0.551,0.195c1.138,0.421,1.941,0.899,2.408,1.435s0.701,1.135,0.701,1.796
				c0,0.927-0.343,1.682-1.027,2.265c-0.685,0.583-1.57,0.875-2.656,0.875s-2.03-0.229-2.833-0.688
				c-0.803-0.458-1.204-0.88-1.204-1.266c0-0.165,0.08-0.324,0.24-0.477c0.16-0.153,0.344-0.229,0.551-0.229
				c0.207,0,0.4,0.108,0.579,0.323c0.294,0.351,0.669,0.623,1.125,0.816c0.456,0.193,0.976,0.289,1.558,0.289
				c0.582,0,1.081-0.167,1.495-0.5c0.415-0.333,0.622-0.748,0.622-1.244c0-0.496-0.194-0.925-0.582-1.289
				c-0.388-0.363-1.117-0.733-2.188-1.108L111.053,64.989z"/>
			<path style="fill:#595A5A;" d="M112.17,70.903c-1.146,0-2.162-0.248-3.02-0.737c-0.951-0.543-1.393-1.049-1.393-1.592
				c0-0.271,0.12-0.523,0.356-0.749c0.478-0.456,1.187-0.466,1.679,0.126c0.253,0.302,0.584,0.541,0.982,0.709
				c0.408,0.172,0.883,0.26,1.412,0.26c0.499,0,0.911-0.136,1.26-0.417c0.323-0.26,0.481-0.571,0.481-0.951
				c0-0.391-0.152-0.723-0.463-1.014c-0.348-0.326-1.039-0.672-2.055-1.028l-0.478-0.165c-1.058-0.365-1.804-0.803-2.279-1.338
				c-0.489-0.549-0.737-1.187-0.737-1.895c0-1.018,0.38-1.857,1.128-2.492c0.731-0.62,1.669-0.934,2.789-0.934
				c1.1,0,2.042,0.239,2.799,0.711c0.838,0.521,1.228,0.992,1.228,1.484c0,0.286-0.123,0.548-0.355,0.759
				c-0.44,0.399-1.041,0.366-1.338,0.158c-0.111-0.077-0.236-0.206-0.394-0.405c-0.448-0.511-1.084-0.767-1.932-0.767
				c-0.485,0-0.878,0.132-1.203,0.404c-0.304,0.256-0.452,0.545-0.452,0.884c0,0.344,0.112,0.611,0.343,0.816
				c0.189,0.169,0.655,0.458,1.796,0.879l0.547,0.194c1.214,0.449,2.052,0.953,2.566,1.543c0.526,0.604,0.793,1.291,0.793,2.043
				c0,1.037-0.39,1.895-1.159,2.552C114.319,70.579,113.343,70.903,112.17,70.903z M108.924,68.243c-0.111,0-0.2,0.039-0.291,0.125
				c-0.056,0.054-0.124,0.133-0.124,0.205c0,0.084,0.073,0.402,1.015,0.94c0.742,0.423,1.632,0.638,2.647,0.638
				c0.989,0,1.801-0.264,2.412-0.785c0.602-0.514,0.895-1.161,0.895-1.979c0-0.572-0.199-1.079-0.608-1.549
				c-0.423-0.486-1.182-0.933-2.255-1.33l-0.546-0.194c-1.024-0.377-1.689-0.712-2.04-1.024c-0.394-0.351-0.594-0.814-0.594-1.378
				c0-0.567,0.242-1.058,0.72-1.46c0.459-0.385,1.026-0.58,1.686-0.58c1.064,0,1.908,0.349,2.51,1.038
				c0.163,0.205,0.232,0.259,0.246,0.269v0c0.003,0,0.05,0.016,0.163,0.016c0.028,0,0.114,0,0.239-0.113
				c0.096-0.087,0.108-0.154,0.108-0.202c0-0.05-0.042-0.328-0.873-0.846c-0.637-0.396-1.445-0.597-2.402-0.597
				c-0.937,0-1.712,0.254-2.303,0.756c-0.581,0.493-0.863,1.121-0.863,1.919c0,0.526,0.179,0.982,0.546,1.395
				c0.382,0.43,1.043,0.81,1.963,1.127l0.48,0.166c1.132,0.397,1.891,0.786,2.322,1.189c0.465,0.435,0.701,0.962,0.701,1.563
				c0,0.613-0.256,1.13-0.762,1.537c-0.481,0.387-1.064,0.583-1.731,0.583c-0.63,0-1.204-0.107-1.704-0.319
				c-0.509-0.215-0.936-0.525-1.267-0.92C109.11,68.306,109.013,68.243,108.924,68.243z"/>
		</g>
		<g>
			<path style="fill:#595A5A;" d="M119.592,59.294h5.257c0.451,0,0.677,0.205,0.677,0.616c0,0.411-0.225,0.616-0.677,0.616h-4.903
				c-0.094,0-0.177,0.034-0.248,0.101c-0.071,0.068-0.106,0.147-0.106,0.237v3.186h4.596c0.462,0,0.692,0.196,0.692,0.586
				s-0.231,0.586-0.692,0.586h-4.596v3.494c0,0.09,0.035,0.169,0.106,0.236c0.071,0.068,0.153,0.102,0.248,0.102h5.107
				c0.462,0,0.693,0.2,0.693,0.601c0,0.431-0.231,0.646-0.693,0.646h-5.461c-0.451,0-0.808-0.116-1.07-0.35
				c-0.263-0.233-0.394-0.555-0.394-0.966v-8.356c0-0.411,0.133-0.736,0.398-0.977C118.79,59.414,119.146,59.294,119.592,59.294z"/>
			<path style="fill:#595A5A;" d="M125.053,70.678h-5.461c-0.544,0-0.988-0.149-1.32-0.445c-0.344-0.305-0.52-0.725-0.52-1.247
				v-8.356c0-0.519,0.175-0.941,0.521-1.255c0.334-0.304,0.778-0.458,1.319-0.458h5.257c0.659,0,1.053,0.371,1.053,0.992
				c0,0.621-0.394,0.992-1.053,0.992h-4.903l0.019,2.772h4.223c0.669,0,1.068,0.36,1.068,0.962s-0.399,0.962-1.068,0.962h-4.22
				v3.118l5.085-0.038c0.669,0,1.068,0.365,1.068,0.977C126.122,70.295,125.722,70.678,125.053,70.678z M119.592,59.67
				c-0.352,0-0.619,0.086-0.813,0.263c-0.185,0.167-0.275,0.396-0.275,0.698v8.356c0,0.301,0.087,0.525,0.267,0.684
				c0.193,0.171,0.462,0.255,0.821,0.255h5.461c0.303,0,0.317-0.093,0.317-0.27c0-0.131,0-0.225-0.317-0.225h-5.107
				c-0.192,0-0.367-0.071-0.508-0.206c-0.145-0.138-0.222-0.314-0.222-0.508v-3.87h4.972c0.317,0,0.317-0.088,0.317-0.21
				c0-0.122,0-0.21-0.317-0.21h-4.972v-3.562c0-0.194,0.077-0.37,0.223-0.509c0.141-0.134,0.317-0.205,0.507-0.205h4.903
				c0.301,0,0.301-0.095,0.301-0.24c0-0.15,0-0.24-0.301-0.24H119.592z"/>
		</g>
		<g>
			<path style="fill:#595A5A;" d="M136,68.791c-0.404,0.581-0.907,1.016-1.507,1.304c-0.601,0.288-1.252,0.432-1.956,0.432
				c-1.61,0-2.91-0.534-3.899-1.601c-0.989-1.067-1.484-2.437-1.484-4.11c0-1.673,0.521-3.051,1.562-4.133
				c1.041-1.082,2.336-1.623,3.884-1.623c1.27,0,2.318,0.313,3.144,0.939c0.827,0.626,1.24,1.145,1.24,1.555
				c0,0.185-0.08,0.347-0.24,0.485c-0.16,0.138-0.335,0.207-0.523,0.207c-0.189,0-0.33-0.033-0.425-0.098
				c-0.095-0.065-0.192-0.18-0.291-0.346c-0.304-0.466-0.714-0.834-1.228-1.105c-0.514-0.27-1.057-0.406-1.629-0.406
				c-1.122,0-2.05,0.415-2.782,1.244c-0.732,0.829-1.098,1.914-1.098,3.254c0,1.34,0.358,2.426,1.074,3.257
				c0.716,0.832,1.625,1.248,2.727,1.248c0.777,0,1.51-0.297,2.2-0.891c0.69-0.593,1.1-1.394,1.232-2.401h-2.463
				c-0.163,0-0.29-0.054-0.382-0.162c-0.092-0.108-0.138-0.236-0.138-0.387c0-0.15,0.046-0.278,0.138-0.383
				c0.092-0.105,0.219-0.158,0.382-0.158h2.865c0.32,0,0.548,0.059,0.685,0.177c0.136,0.118,0.205,0.324,0.205,0.62v4.17
				c0,0.165-0.061,0.294-0.181,0.387c-0.121,0.093-0.258,0.139-0.413,0.139c-0.155,0-0.29-0.045-0.405-0.135
				c-0.116-0.09-0.181-0.22-0.197-0.391L136,68.791z"/>
			<path style="fill:#595A5A;" d="M132.537,70.903c-1.712,0-3.117-0.579-4.175-1.721c-1.051-1.134-1.584-2.603-1.584-4.366
				c0-1.766,0.561-3.244,1.667-4.394c1.11-1.153,2.508-1.738,4.155-1.738c1.348,0,2.482,0.342,3.371,1.016
				c0.947,0.718,1.389,1.308,1.389,1.855c0,0.295-0.128,0.561-0.371,0.77c-0.449,0.386-1.079,0.36-1.407,0.134
				c-0.14-0.096-0.271-0.247-0.4-0.461c-0.26-0.398-0.626-0.727-1.081-0.966c-0.458-0.241-0.947-0.362-1.454-0.362
				c-1.019,0-1.837,0.365-2.5,1.117c-0.666,0.755-1.004,1.765-1.004,3.005c0,1.241,0.331,2.255,0.983,3.012
				c0.647,0.752,1.446,1.117,2.442,1.117c0.69,0,1.329-0.261,1.954-0.8c0.523-0.45,0.862-1.022,1.028-1.74h-2.015
				c-0.346,0-0.554-0.16-0.668-0.294c-0.149-0.174-0.227-0.392-0.227-0.63c0-0.24,0.08-0.458,0.231-0.63
				c0.113-0.13,0.322-0.286,0.665-0.286h2.865c0.417,0,0.722,0.088,0.93,0.268c0.222,0.192,0.335,0.496,0.335,0.904v4.17
				c0,0.283-0.113,0.52-0.328,0.685c-0.378,0.29-0.915,0.287-1.279,0.002c-0.197-0.154-0.315-0.379-0.34-0.652l-0.017-0.202
				c-0.312,0.295-0.663,0.536-1.047,0.72C134.006,70.745,133.294,70.903,132.537,70.903z M132.6,59.437
				c-1.454,0-2.636,0.493-3.613,1.508c-0.981,1.019-1.457,2.285-1.457,3.872c0,1.567,0.466,2.864,1.384,3.855
				c0.923,0.996,2.108,1.48,3.623,1.48c0.643,0,1.247-0.133,1.793-0.395c0.538-0.258,0.996-0.655,1.361-1.18l0.594-0.853
				l0.184,2.126c0.008,0.091,0.039,0.115,0.054,0.127c0.099,0.076,0.249,0.079,0.358-0.006c0.017-0.013,0.034-0.026,0.034-0.088
				v-4.17c0-0.2-0.04-0.305-0.074-0.335c-0.017-0.014-0.115-0.085-0.439-0.085h-2.865c-0.073,0-0.09,0.019-0.098,0.029
				c-0.022,0.026-0.045,0.062-0.045,0.136c0,0.077,0.024,0.115,0.048,0.143c0.01,0.011,0.025,0.03,0.095,0.03h2.892l-0.055,0.425
				c-0.143,1.097-0.6,1.984-1.359,2.637c-0.757,0.651-1.58,0.982-2.445,0.982c-1.211,0-2.224-0.464-3.012-1.378
				c-0.773-0.897-1.165-2.076-1.165-3.503c0-1.428,0.401-2.606,1.192-3.503c0.803-0.91,1.834-1.371,3.064-1.371
				c0.63,0,1.237,0.151,1.804,0.449c0.569,0.3,1.029,0.714,1.367,1.232c0.107,0.177,0.172,0.229,0.189,0.241
				c0.001,0,0.05,0.032,0.212,0.032c0.098,0,0.186-0.037,0.278-0.115c0.097-0.083,0.11-0.148,0.11-0.2
				c0-0.129-0.106-0.51-1.091-1.256C134.761,59.727,133.78,59.437,132.6,59.437z"/>
		</g>
		<g>
			<path style="fill:#595A5A;" d="M148.3,69.437c0.063,0.155,0.094,0.301,0.094,0.436c0,0.135-0.072,0.258-0.216,0.368
				c-0.144,0.11-0.324,0.165-0.539,0.165c-0.216,0-0.383-0.05-0.504-0.15c-0.121-0.1-0.228-0.271-0.323-0.511l-1.046-2.645h-4.612
				l-1.015,2.63c-0.105,0.281-0.215,0.464-0.33,0.549c-0.115,0.085-0.275,0.128-0.48,0.128c-0.205,0-0.383-0.054-0.535-0.162
				c-0.152-0.108-0.228-0.228-0.228-0.361c0-0.133,0.031-0.277,0.094-0.432l4.076-9.866c0.058-0.13,0.155-0.239,0.291-0.327
				c0.136-0.088,0.291-0.132,0.464-0.132c0.388,0,0.643,0.143,0.763,0.429L148.3,69.437z M144.2,63.051
				c-0.315-0.807-0.551-1.536-0.708-2.187h-0.047c-0.178,0.646-0.425,1.375-0.74,2.187l-1.125,2.893h3.77L144.2,63.051z"/>
			<path style="fill:#595A5A;" d="M147.639,70.783c-0.305,0-0.555-0.08-0.744-0.237c-0.172-0.142-0.313-0.359-0.432-0.663
				l-0.952-2.406h-4.098l-0.922,2.389c-0.133,0.355-0.279,0.584-0.458,0.716c-0.359,0.265-1.022,0.278-1.456-0.03
				c-0.319-0.226-0.386-0.488-0.386-0.667c0-0.181,0.041-0.375,0.122-0.574l4.078-9.868c0.091-0.207,0.237-0.373,0.436-0.5
				c0.196-0.126,0.421-0.191,0.667-0.191c0.724,0,1.006,0.412,1.11,0.658l4.047,9.884c0.081,0.202,0.122,0.395,0.122,0.578
				c0,0.177-0.063,0.437-0.364,0.667C148.196,70.701,147.938,70.783,147.639,70.783z M140.896,66.725h5.125l1.14,2.882
				c0.093,0.236,0.173,0.327,0.213,0.36c0.063,0.053,0.178,0.064,0.264,0.064c0.131,0,0.233-0.029,0.311-0.088
				c0.059-0.045,0.069-0.071,0.069-0.072c0-0.084-0.023-0.183-0.067-0.293l-4.045-9.879c-0.026-0.061-0.082-0.195-0.415-0.195
				c-0.1,0-0.186,0.023-0.261,0.072c-0.075,0.047-0.124,0.101-0.151,0.163l-4.073,9.857c-0.043,0.105-0.065,0.202-0.066,0.285h0
				c0.003,0,0.021,0.023,0.069,0.057c0.088,0.062,0.192,0.093,0.318,0.093c0.159,0,0.229-0.034,0.256-0.054
				c0.004-0.003,0.085-0.065,0.202-0.378L140.896,66.725z M145.903,66.319h-4.874l1.325-3.405c0.308-0.793,0.553-1.517,0.728-2.151
				l0.076-0.276h0.63l0.069,0.288c0.152,0.631,0.386,1.35,0.693,2.138L145.903,66.319z M142.129,65.567h2.666l-0.945-2.378
				c-0.148-0.381-0.28-0.746-0.395-1.095c-0.119,0.348-0.253,0.713-0.4,1.093L142.129,65.567z"/>
		</g>
		<g>
			<path style="fill:#595A5A;" d="M156.083,61.555c-0.137,0.666-0.347,1.443-0.63,2.329l-1.944,6.169
				c-0.1,0.296-0.336,0.444-0.708,0.444c-0.373,0-0.606-0.148-0.701-0.444l-3.14-9.911c-0.032-0.125-0.047-0.254-0.047-0.387
				c0-0.133,0.064-0.26,0.192-0.383c0.129-0.123,0.306-0.184,0.532-0.184s0.405,0.044,0.539,0.131
				c0.134,0.088,0.24,0.259,0.319,0.515l1.676,5.643c0.294,0.992,0.535,1.881,0.724,2.667h0.048c0.167-0.751,0.404-1.64,0.708-2.667
				l1.692-5.688c0.095-0.311,0.341-0.466,0.74-0.466c0.398,0,0.645,0.155,0.74,0.466l1.81,5.688c0.294,0.927,0.54,1.821,0.74,2.682
				h0.047c0.215-0.972,0.441-1.866,0.677-2.682l1.629-5.598c0.084-0.29,0.184-0.478,0.299-0.564s0.277-0.128,0.484-0.128
				c0.208,0,0.385,0.064,0.532,0.192c0.147,0.128,0.22,0.26,0.22,0.398c0,0.138-0.029,0.289-0.087,0.455l-3.14,9.821
				c-0.052,0.16-0.132,0.274-0.24,0.342c-0.107,0.068-0.264,0.101-0.468,0.101c-0.373,0-0.604-0.148-0.693-0.444l-1.92-6.169
				c-0.105-0.34-0.299-1.117-0.582-2.329H156.083z"/>
			<path style="fill:#595A5A;" d="M159.326,70.873c-0.73,0-0.973-0.446-1.052-0.712l-1.92-6.165
				c-0.058-0.19-0.142-0.505-0.253-0.952c-0.086,0.304-0.182,0.622-0.289,0.955l-1.943,6.168c-0.091,0.268-0.346,0.706-1.067,0.706
				c-0.725,0-0.974-0.442-1.059-0.705l-3.14-9.912c-0.045-0.175-0.065-0.336-0.065-0.5c0-0.164,0.054-0.411,0.308-0.655
				c0.384-0.368,1.128-0.363,1.536-0.095c0.212,0.139,0.366,0.374,0.473,0.719l1.677,5.646c0.137,0.464,0.265,0.91,0.381,1.335
				c0.112-0.416,0.238-0.861,0.378-1.334l1.692-5.689c0.084-0.276,0.338-0.735,1.101-0.735c0.762,0,1.016,0.459,1.099,0.732
				l1.809,5.684c0.14,0.443,0.271,0.883,0.391,1.316c0.115-0.457,0.233-0.894,0.352-1.307l1.629-5.598
				c0.109-0.38,0.248-0.622,0.437-0.761c0.369-0.272,1.06-0.288,1.486,0.083c0.232,0.202,0.35,0.431,0.35,0.682
				c0,0.18-0.035,0.369-0.107,0.578l-3.137,9.812c-0.081,0.247-0.214,0.43-0.398,0.546
				C159.824,70.821,159.605,70.873,159.326,70.873z M155.777,61.179h0.605l0.115,0.29c0.281,1.202,0.475,1.977,0.575,2.304
				l1.92,6.168c0.023,0.077,0.054,0.179,0.333,0.179c0.189,0,0.256-0.036,0.267-0.043c0.03-0.019,0.059-0.069,0.083-0.14
				l3.139-9.819c0.047-0.135,0.069-0.246,0.069-0.34c0-0.007-0.015-0.049-0.091-0.115c-0.157-0.137-0.453-0.113-0.546-0.045l0,0
				c0,0-0.075,0.066-0.161,0.365l-1.629,5.599c-0.232,0.801-0.458,1.696-0.671,2.658l-0.065,0.295h-0.601l-0.115-0.291
				c-0.198-0.853-0.444-1.746-0.731-2.654l-1.81-5.688c-0.024-0.079-0.062-0.204-0.381-0.204c-0.32,0-0.357,0.12-0.381,0.2
				l-1.691,5.686c-0.302,1.021-0.538,1.91-0.701,2.642l-0.065,0.294h-0.598l-0.117-0.288c-0.189-0.786-0.43-1.677-0.719-2.648
				l-1.676-5.643c-0.073-0.238-0.15-0.298-0.164-0.308c-0.07-0.046-0.185-0.07-0.333-0.07c-0.188,0-0.252,0.06-0.272,0.08
				c-0.056,0.054-0.076,0.094-0.076,0.111c0,0.102,0.012,0.202,0.036,0.295l3.134,9.889c0.023,0.071,0.058,0.181,0.342,0.181
				c0.288,0,0.326-0.113,0.352-0.188l1.941-6.162c0.279-0.872,0.487-1.642,0.621-2.292L155.777,61.179z"/>
		</g>
		<g>
			<path style="fill:#595A5A;" d="M173.514,69.437c0.063,0.155,0.095,0.301,0.095,0.436c0,0.135-0.072,0.258-0.217,0.368
				c-0.144,0.11-0.324,0.165-0.539,0.165s-0.383-0.05-0.504-0.15c-0.12-0.1-0.228-0.271-0.322-0.511l-1.046-2.645h-4.612
				l-1.015,2.63c-0.105,0.281-0.215,0.464-0.33,0.549c-0.116,0.085-0.276,0.128-0.48,0.128c-0.205,0-0.383-0.054-0.535-0.162
				c-0.152-0.108-0.228-0.228-0.228-0.361c0-0.133,0.032-0.277,0.095-0.432l4.076-9.866c0.058-0.13,0.155-0.239,0.292-0.327
				c0.136-0.088,0.291-0.132,0.464-0.132c0.388,0,0.643,0.143,0.763,0.429L173.514,69.437z M169.414,63.051
				c-0.314-0.807-0.551-1.536-0.708-2.187h-0.048c-0.178,0.646-0.424,1.375-0.74,2.187l-1.125,2.893h3.769L169.414,63.051z"/>
			<path style="fill:#595A5A;" d="M172.853,70.783c-0.304,0-0.554-0.08-0.743-0.236c-0.172-0.143-0.314-0.36-0.433-0.663
				l-0.952-2.406h-4.098l-0.922,2.389c-0.133,0.355-0.279,0.584-0.459,0.716c-0.362,0.266-1.024,0.276-1.456-0.03
				c-0.32-0.226-0.387-0.488-0.387-0.667c0-0.181,0.041-0.374,0.123-0.574l4.077-9.868c0.093-0.208,0.238-0.373,0.436-0.5
				c0.196-0.126,0.421-0.191,0.667-0.191c0.724,0,1.006,0.412,1.11,0.658l4.046,9.884c0.082,0.2,0.123,0.395,0.123,0.578
				c0,0.178-0.063,0.438-0.365,0.668C173.411,70.701,173.152,70.783,172.853,70.783z M166.111,66.725h5.125l1.14,2.882
				c0.093,0.237,0.174,0.328,0.214,0.361c0.062,0.052,0.178,0.063,0.263,0.063c0.131,0,0.234-0.029,0.311-0.088
				c0.059-0.046,0.069-0.072,0.07-0.072c-0.001-0.084-0.023-0.182-0.068-0.292l-4.045-9.88c-0.026-0.061-0.082-0.195-0.415-0.195
				c-0.101,0-0.186,0.023-0.26,0.072c-0.075,0.048-0.124,0.101-0.152,0.164l-4.073,9.857c-0.043,0.106-0.065,0.202-0.066,0.285l0,0
				c0.004,0,0.021,0.023,0.07,0.057c0.17,0.122,0.476,0.112,0.576,0.038c0.003-0.003,0.084-0.065,0.2-0.377L166.111,66.725z
				 M171.117,66.319h-4.872l1.324-3.405c0.31-0.798,0.554-1.521,0.727-2.15l0.076-0.276h0.63l0.07,0.288
				c0.151,0.628,0.385,1.348,0.693,2.138L171.117,66.319z M167.343,65.567h2.666l-0.945-2.378c-0.148-0.381-0.281-0.747-0.395-1.095
				c-0.118,0.347-0.252,0.712-0.4,1.093L167.343,65.567z"/>
		</g>
	</g>
</g>
</svg>
