<?xml version="1.0" encoding="iso-8859-1"?>
<!-- Generator: Adobe Illustrator 29.0.0, SVG Export Plug-In . SVG Version: 9.03 Build 54978)  -->
<svg version="1.1" id="&#x56FE;&#x5C42;_1" xmlns="http://www.w3.org/2000/svg" xmlns:xlink="http://www.w3.org/1999/xlink" x="0px"
	 y="0px" viewBox="0 0 200 100" style="enable-background:new 0 0 200 100;" xml:space="preserve">
<g>
	<path id="path20983_00000140711736654378217140000009655261366137775777_" style="fill:#595A5A;" d="M51.27,66.882
		c-0.277-2.314-1.515-3.389-3.867-3.389c-2.155,0-3.631,1.155-3.631,2.829c0,1.556,0.799,2.155,4.389,3.193
		c3.109,0.916,4.267,1.475,5.065,2.392c0.718,0.838,1.077,1.954,1.077,3.271c0,3.63-2.633,5.903-6.86,5.903
		c-4.589,0-7.14-2.273-7.14-6.342h2.711c0.24,2.673,1.676,3.988,4.389,3.988c2.472,0,4.028-1.316,4.028-3.31
		c0-1.037-0.4-1.714-1.277-2.232c-0.639-0.401-0.876-0.481-4.148-1.519c-3.671-1.117-5.066-2.51-5.066-5.143
		c0-3.192,2.633-5.347,6.503-5.347c4.028,0,6.341,2.035,6.54,5.705H51.27"/>
	<path id="path20987_00000063606781513905422700000005007481435933653680_" style="fill:#595A5A;" d="M59.946,61.696l5.148,15.755
		l5.304-15.755h2.912l-6.221,17.589c-1.757,5.027-2.115,5.746-3.311,7.061c-1.398,1.478-3.232,2.235-5.505,2.235
		c-0.161,0-0.478,0-0.879-0.041v-2.472c3.59,0.04,4.627-0.838,6.145-5.266l-6.583-19.105H59.946"/>
	<path id="path20991_00000175324314468080735770000013007076381009941925_" style="fill:#595A5A;" d="M79.312,61.696
		c0.239,0.678,0.358,1.597,0.358,2.593c1.196-2.112,2.912-3.112,5.505-3.112c2.633,0,4.269,1.04,5.226,3.311
		c1.277-2.233,3.15-3.311,5.823-3.311c2.235,0,3.988,0.879,4.866,2.434c0.639,1.117,0.718,1.835,0.718,5.425v11.567h-2.792V69.036
		c0-2.472-0.08-3.111-0.558-3.909c-0.599-0.917-1.637-1.435-3.114-1.435c-1.674,0-3.028,0.757-3.788,2.115
		c-0.519,0.835-0.718,1.912-0.718,3.628v11.167h-2.792V69.475c0-2.912-0.04-3.391-0.438-4.109c-0.559-1.077-1.715-1.715-3.19-1.715
		c-1.676,0-3.151,0.798-3.87,2.156c-0.519,0.956-0.718,2.071-0.718,3.786v11.009h-2.792V67.559c0-3.909-0.038-4.266-0.478-5.863
		H79.312"/>
	<path id="path20995_00000064351722883620927270000014401795583312191935_" style="fill:#595A5A;" d="M108.992,61.696
		c0.237,0.957,0.357,1.954,0.357,2.913c0,0.239,0,0.637-0.041,1.156c1.319-3.152,2.835-4.589,4.869-4.589
		c0.717,0,1.475,0.199,2.273,0.599v2.792c-1.276-0.597-1.795-0.757-2.512-0.757c-1.478,0-2.794,1.077-3.63,2.91
		c-0.599,1.317-0.839,2.912-0.839,5.425v8.456h-2.83V68.196c0-4.305-0.041-4.665-0.32-6.5H108.992"/>
	<path id="path20999_00000178204058896688480870000006442319619185366671_" style="fill:#595A5A;" d="M123.091,55.373
		c0,1.155-0.836,1.994-2.034,1.994c-1.158,0-2.034-0.839-2.034-1.994c0-1.196,0.876-2.075,2.072-2.075
		C122.255,53.298,123.091,54.177,123.091,55.373"/>
	<path id="path21001_00000174590885176614076480000010083873372300054419_" style="fill:#595A5A;" d="M119.582,80.605h2.95V61.696
		h-2.95V80.605z"/>
	<path id="path21005_00000079468274821989154940000008070061397663140229_" style="fill:#595A5A;" d="M137.484,66.882
		c-0.28-2.314-1.518-3.389-3.87-3.389c-2.155,0-3.63,1.155-3.63,2.829c0,1.556,0.796,2.155,4.388,3.193
		c3.112,0.916,4.267,1.475,5.065,2.392c0.718,0.838,1.078,1.954,1.078,3.271c0,3.63-2.634,5.903-6.861,5.903
		c-4.586,0-7.139-2.273-7.139-6.342h2.709c0.242,2.673,1.677,3.988,4.389,3.988c2.473,0,4.028-1.316,4.028-3.31
		c0-1.037-0.398-1.714-1.279-2.232c-0.634-0.401-0.873-0.481-4.146-1.519c-3.668-1.117-5.065-2.51-5.065-5.143
		c0-3.192,2.631-5.347,6.502-5.347c4.028,0,6.339,2.035,6.54,5.705H137.484"/>
	<path id="path21009_00000160192560310377931600000000562469804201302715_" style="fill:#595A5A;" d="M156.786,69.435
		c-0.32-3.83-2.035-5.904-4.866-5.904c-2.752,0-4.506,2.034-5.065,5.904H156.786z M146.774,71.629
		c0.119,4.587,2.035,7.059,5.466,7.059c2.072,0,3.31-0.798,4.388-2.872l2.591,0.317c-1.158,3.273-3.55,4.948-7.022,4.948
		c-5.065,0-8.295-3.792-8.295-9.732c0-6.142,3.19-10.173,8.136-10.173c4.67,0,7.659,3.789,7.659,9.655c0,0.118,0,0.437-0.04,0.796
		H146.774"/>
</g>
<path id="path21013_00000087374974414426132700000000554851901744179337_" style="fill:#595A5A;" d="M95.649,29.207
	c-0.365,0.615-1.293,1.236-2.268,1.509c-0.743,0.212-1.522,0.212-2.084-0.191c0.562-0.24,1.283-0.763,2.306-1.096
	C94.188,29.26,94.837,29.168,95.649,29.207z M95.114,24.019c-0.484-0.038-0.865-0.308-0.889-0.596
	c-0.028-0.339,0.344-0.666,0.863-0.733c-0.18,0.091-0.315,0.35-0.315,0.658C94.773,23.673,94.918,23.941,95.114,24.019z
	 M95.348,22.679c0.48,0.027,0.857,0.307,0.887,0.635c0.027,0.322-0.356,0.663-0.887,0.704c0.197-0.078,0.342-0.348,0.342-0.671
	C95.69,23.025,95.546,22.758,95.348,22.679z M116.903,30.008c-2.989,1.056-4.74,1.713-7.135,3.757
	c-0.264,0.233-0.634,1.192-0.542,2.468c0,0,0.102,0.952,0.12,1.263l-0.018-0.005c0.154,2.214-1.146,4.827-4.742,7.855
	c-0.525,0.639-1.332,4.274-1.853,4.797c-0.032,0.031-0.061,0.059-0.09,0.083c-0.131,0.094-0.216,0.125-0.39,0.071
	c-0.016-0.009-0.032-0.019-0.051-0.031c-0.225-0.158-0.021-1.907-0.11-2.446c0,0-0.434,0.157-0.753,0.085
	c-0.253-0.055-0.175-0.458-0.185-0.695c0,0-3.096,2.652-3.774,2.94c-0.098,0.035-0.154,0.009-0.173-0.024
	c-0.034-0.036-0.079-0.093-0.069-0.224c0.019-0.27,1.368-2.369,1.696-2.918c0.325-0.552,1.442-2.166,2.06-3.627
	c0.289-0.693,0.583-1.182,0.765-1.493c-6.432,5.336-4.544-3.459-7.247-4.81c-2.293-1.147-6.728,2.989-9.105,5.304
	c-1.738-2.71-2.75-5.93-2.75-9.381c0-9.62,7.825-17.444,17.441-17.444c4.619,0,8.82,1.809,11.942,4.749
	c0.335,0.323,1.328,1.28,1.861,2.083c0.566,0.855,0.796,1.989,0.11,2.952c-0.797,1.121-2.216,1.183-3.372,0.991
	c-0.511-0.128-0.944-0.324-1-0.464c-0.194-0.487,0.691-0.318,0.658-0.462c-0.097-0.413-0.658-0.51-1.12-0.413
	c-0.316,0.066-0.703,0.15-1.045,0.169c-0.439,0.024-1.485-0.009-1.559-0.412c-0.117-0.66,0.862-0.294,0.823-0.558
	c-0.042-0.292-0.336-0.518-0.847-0.535c-0.704-0.024-1.024,0.165-1.733,0.19c-0.675,0.022-1.358-0.258-1.288-0.611
	c0.07-0.494,0.873-0.153,0.847-0.388c-0.037-0.281-0.388-0.528-0.917-0.528c-1.133,0-1.505,0.176-2.312-0.195
	c-0.196-0.113-0.351-0.201-0.448-0.256c0,0,1.035-1.796-0.288-3.427c-0.096-0.121-0.23-0.286-0.437-0.457
	c-0.125-0.089-0.226-0.12-0.178,0.062c0.035,0.178,0.035,0.242,0.035,0.374l0.003-0.001c-0.023,1.718-1.545,3.216-3.771,2.739
	c-2.034-0.415-3.279,0.509-3.631,1.92c-1.388,0.002-2.556-1.106-4.356-0.98c-0.41,0.604-0.365,1.522-0.312,1.627
	c-1.76,0.534-2.569,3.269,0.587,3.509c-0.022,0.589,0.306,1.439,1.013,1.62c0.406,0.131,0.322-0.056,0.192-0.215
	c-0.464-0.489-0.167-1.805,1.086-1.613c1.024,0.156,1.05,0.72,2.15,0.888c0.366,0.056,0.701,0.038,0.951-0.053v0.001
	c0,0,0.002-0.001,0.002-0.002c0.008-0.003,0.021-0.002,0.032-0.007v-0.004c0.558-0.193,0.954-0.509,1.511-0.425
	c0.646,0.098,0.719,0.598,0.639,1.075c-0.873-0.133-1.613-0.141-2.247-0.065c-1.905,0.197-2.984,1.079-4.694,0.816
	c-0.949-0.144-1.407-0.666-1.52-0.929c-0.075-0.255-0.253-0.109-0.266-0.042c-0.197,0.35-0.342,1.185,0.053,1.745
	c0.352,0.505,1.039,0.714,1.473,0.791c0.544,0.097,1.893-0.192,2.029-0.2c-0.004,0.034-0.156,0.717,0.72,1.143
	c-0.83,0.78-0.216,1.616,1.038,1.799c0.687,0.1,1.516-0.526,2.106-1.017c1.657-1.385,2.65-1.855,3.606-1.513
	c0.972,0.351,2.238,1.216,4.893,4.451c0,0,0.614,0.829,0.877,0.881c0.204,0.041,0.36-0.032,0.459-0.141
	c0.004-0.003,0.007-0.007,0.011-0.011c0.058-0.069,0.096-0.148,0.112-0.225l0.003,0.001c0.001-0.003,0.002-0.006,0.003-0.009
	c0.311-1.505,1.158-2.388,1.994-2.754c0.27-0.136,0.539-0.223,0.787-0.266c1.062-0.187,1.929,0.139,2.241,0.012
	c0.25-0.103,3.609-2.498,7.334-3.169c0.035-0.005,0.094-0.011,0.137,0.013c0.021,0.021,0.08,0.098,0.008,0.177
	C116.966,29.977,116.94,29.995,116.903,30.008z M99.999,15c-9.912,0-17.978,8.066-17.978,17.979c0,9.914,8.066,17.977,17.978,17.977
	c9.914,0,17.98-8.063,17.98-17.977C117.979,23.066,109.913,15,99.999,15z M107.327,33.913c-0.346,0.2-0.485,0.611-0.307,0.915
	c0.176,0.299,0.601,0.383,0.946,0.179c0.347-0.202,0.484-0.615,0.306-0.915C108.097,33.789,107.671,33.708,107.327,33.913"/>
</svg>
