<?xml version="1.0" encoding="iso-8859-1"?>
<!-- Generator: Adobe Illustrator 29.0.0, SVG Export Plug-In . SVG Version: 9.03 Build 54978)  -->
<svg version="1.1" id="&#x56FE;&#x5C42;_1" xmlns="http://www.w3.org/2000/svg" xmlns:xlink="http://www.w3.org/1999/xlink" x="0px"
	 y="0px" viewBox="0 0 200 100" style="enable-background:new 0 0 200 100;" xml:space="preserve">
<g>
	<path style="fill:#595A5A;" d="M128.053,28.947c1.555-2.883,4.526-4.992,7.792-5.383c1.231-0.18,2.495-0.121,3.706,0.169
		c1.382,0.306,2.679,0.939,3.838,1.744c0.36,0.301,0.726,0.598,1.059,0.933c0.15,0.182,0.344,0.306,0.586,0.341
		c0.063-0.092,0.189-0.272,0.252-0.362c0.854-0.818,1.843-1.476,2.904-1.996c0.47-0.189,0.948-0.36,1.427-0.531
		c3.394-0.969,7.266-0.124,9.862,2.292c0.93,0.84,1.699,1.85,2.285,2.958c0.274,0.582,0.515,1.18,0.719,1.791
		c0.016,0.465,0.472,1.011,0.123,1.411c0.243-0.009,0.22-0.294,0.276-0.467c0.587-3.265,2.921-6.14,5.949-7.468
		c3.081-1.436,6.861-1.148,9.731,0.658c1.11,0.668,2.03,1.605,2.856,2.596c0.458,0.703,0.919,1.405,1.256,2.178
		c1.049,2.582,1.09,5.574-0.011,8.147c-0.942,2.254-2.704,4.158-4.886,5.263c-0.144,0.067-0.283,0.133-0.416,0.204
		c-0.632,0.267-1.276,0.512-1.946,0.649c-1.721,0.418-3.528,0.319-5.232-0.119c-0.54-0.182-1.076-0.377-1.591-0.616
		c-1.865-0.894-3.436-2.369-4.499-4.137c-0.128-0.24-0.25-0.481-0.368-0.724c-0.458-0.953-0.793-1.967-0.926-3.018
		c-0.177,1.362-0.749,2.618-1.333,3.845c-0.04,0.016-0.119,0.049-0.159,0.065c-0.559,1.166-1.553,2.076-2.544,2.879
		c-0.204,0.15-0.407,0.295-0.607,0.443c-0.386,0.22-0.773,0.436-1.162,0.643c-2.497,1.18-5.464,1.342-8.055,0.369
		c-0.252-0.095-0.497-0.195-0.744-0.285c-1.193-0.596-2.339-1.344-3.218-2.358c-0.647,0.234-0.998,0.922-1.591,1.265
		c-0.564,0.423-1.189,0.748-1.809,1.074c-0.259,0.097-0.513,0.196-0.766,0.29c-0.178,0.063-0.355,0.126-0.526,0.189
		c-1.694,0.531-3.519,0.587-5.255,0.247c-0.42-0.121-0.838-0.232-1.254-0.353c-0.958-0.38-1.874-0.854-2.72-1.441
		c-1.317-1.038-2.49-2.317-3.178-3.863c-1.204-2.371-1.351-5.198-0.596-7.729c0.124-0.308,0.238-0.62,0.351-0.933
		C127.768,29.518,127.909,29.231,128.053,28.947z"/>
	<g>
		<path style="fill:#595A5A;" d="M22.552,56.725c1.915-1.218,4.257-0.949,6.414-1.014c0.16,1.445,0.054,2.91,0.014,4.36
			c-1.171,0.049-2.576-0.267-3.493,0.661c-1.022,1.05-0.557,2.647-0.65,3.956c1.376-0.002,2.753,0.022,4.129-0.011
			c0.166,1.411,0.031,2.832,0.016,4.247c-0.411,0.049-0.823,0.072-1.234,0.036c-0.971-0.094-1.944,0.065-2.915,0.014
			c-0.004,5.182-0.013,10.363,0.004,15.547c-1.704-0.004-3.407-0.005-5.11,0.002c-0.027-5.176-0.023-10.354-0.002-15.53
			c-1.027-0.029-2.054-0.027-3.079,0c-0.214-1.416-0.018-2.859-0.119-4.288c1.063-0.02,2.126-0.018,3.191-0.002
			c0-1.299-0.047-2.602,0.081-3.897C20.163,59.164,21.046,57.571,22.552,56.725z"/>
		<path style="fill:#595A5A;" d="M31.562,56.89c1.274-1.522,3.931-1.555,5.203-0.013c0.717,0.834,0.818,2.077,0.346,3.054
			c-0.955,1.982-3.973,2.29-5.407,0.677c-0.041-0.09-0.126-0.268-0.168-0.359c-0.047-0.009-0.141-0.029-0.187-0.038
			C30.926,59.146,30.84,57.851,31.562,56.89z"/>
		<path style="fill:#595A5A;" d="M134.161,56.98c0.922-1.198,2.648-1.521,4.025-0.996c0.701,0.263,1.268,0.786,1.62,1.445
			c0.398,0.906,0.317,1.987-0.218,2.821c-0.436,0.757-1.272,1.124-2.072,1.358c-0.504,0.038-1.007,0.027-1.506-0.011
			c-0.607-0.252-1.249-0.51-1.677-1.029c-0.386-0.425-0.53-0.991-0.688-1.524C133.619,58.319,133.794,57.606,134.161,56.98z"/>
		<path style="fill:#595A5A;" d="M164.84,57.964c0.005-0.749-0.049-1.501,0.081-2.243c1.692,0.032,3.384,0.011,5.077,0.011
			c0.031,3.937-0.002,7.875,0.018,11.812c0.713-0.823,1.42-1.668,2.36-2.25c1.501-0.908,3.306-1.315,5.046-1.016
			c1.685,0.169,3.313,0.996,4.342,2.358c0.285,0.441,0.548,0.897,0.787,1.367c0.697,1.728,0.919,3.6,0.915,5.45
			c0.007,3.688,0.007,7.376,0,11.064c-1.713-0.004-3.427,0.016-5.138-0.011c0-3.926,0.032-7.852-0.02-11.776
			c-0.034-1.454-0.47-3.149-1.888-3.843c-0.98-0.371-2.047-0.297-3.068-0.202c-0.313,0.137-0.627,0.272-0.942,0.395
			c-1.211,0.769-2.029,2.065-2.239,3.479c-0.24,1.119-0.15,2.266-0.16,3.402c-0.005,2.854,0.011,5.708-0.009,8.561
			c-1.697,0.002-3.394-0.023-5.091,0.013c-0.162-1.164-0.029-2.346-0.07-3.519C164.84,73.332,164.838,65.648,164.84,57.964z"/>
		<path style="fill:#595A5A;" d="M60.158,66.929c1.841-2.241,5.021-3.211,7.823-2.517c0.67,0.25,1.326,0.533,1.955,0.877
			c0.315,0.24,0.623,0.488,0.94,0.724c0.463,0.456,0.93,0.93,1.207,1.528c0.067,0.022,0.2,0.065,0.267,0.088
			c2.218-3.447,7.311-4.446,10.772-2.34c0.371,0.285,0.733,0.586,1.09,0.892c0.661,0.703,1.207,1.506,1.598,2.389
			c1.142,2.614,0.865,5.522,0.897,8.297c0.009,2.549-0.022,5.099,0.016,7.648c-1.726,0.011-3.454-0.004-5.18,0.005
			c-0.011-2.726-0.002-5.452-0.004-8.178c-0.022-1.324,0.054-2.654-0.067-3.974c-0.247-1.151-0.627-2.36-1.567-3.137
			c-0.474-0.423-1.11-0.548-1.704-0.703c-0.818,0.034-1.627,0.189-2.369,0.542c-0.25,0.18-0.495,0.366-0.735,0.557
			c-0.288,0.315-0.568,0.638-0.827,0.975c-0.35,0.677-0.636,1.396-0.717,2.158l-0.077,0.133c-0.144,3.87-0.032,7.745-0.063,11.617
			c-1.726,0.007-3.45,0.016-5.174-0.002c0.036-3.266,0.005-6.535,0.016-9.801c0.043-1.845-0.043-3.971-1.477-5.328
			c-1.031-1.009-2.634-0.964-3.901-0.477c-0.98,0.499-1.793,1.328-2.198,2.358c-0.359,0.867-0.512,1.8-0.555,2.733
			c-0.011,3.51,0.011,7.021-0.011,10.531c-1.701-0.011-3.402-0.014-5.1,0.002c-0.054-6.61-0.011-13.222-0.023-19.833
			c1.632,0.004,3.265-0.036,4.897,0.023c-0.043,0.881,0.002,1.764-0.074,2.643c0.029-0.063,0.086-0.191,0.115-0.256
			C59.985,67.063,60.1,66.974,60.158,66.929z"/>
		<g>
			<path style="fill:#595A5A;" d="M94.764,65.3c2.951-1.431,6.565-1.517,9.542-0.108c2.711,1.24,4.684,3.897,5.173,6.828
				c0.247,1.267,0.195,2.571-0.045,3.834c-4.974-0.002-9.951-0.043-14.925,0.022c0.141,0.768,0.241,1.56,0.638,2.25
				c0.479,0.986,1.321,1.757,2.308,2.22c2.03,0.883,4.726,0.477,6.025-1.436c0.126-0.231,0.245-0.47,0.425-0.667
				c1.697-0.065,3.403-0.009,5.104-0.025c-0.692,2.928-3.063,5.324-5.9,6.259c-0.186,0.054-0.368,0.11-0.546,0.171
				c-2.014,0.49-4.149,0.47-6.147-0.088c-2.566-0.722-4.843-2.551-5.938-5c-1.175-2.513-1.31-5.437-0.595-8.1
				C90.559,68.852,92.33,66.508,94.764,65.3z M95.164,70.956c-0.225,0.531-0.45,1.074-0.512,1.654
				c3.261,0.002,6.524-0.018,9.785,0.009c-0.036-0.654-0.232-1.279-0.47-1.885c-0.211-0.324-0.443-0.631-0.686-0.93
				C101.058,67.45,96.654,68.082,95.164,70.956z"/>
		</g>
		<path style="fill:#595A5A;" d="M119.809,65.162c1.576-0.885,3.456-1.176,5.23-0.849c1.654,0.202,3.241,1.067,4.207,2.441
			c1.24,1.722,1.585,3.901,1.658,5.974c0.027,3.931,0.014,7.862,0.007,11.792c-1.721-0.007-3.441,0.007-5.162-0.011
			c-0.009-2.966-0.002-5.933-0.004-8.898c-0.02-1.56,0.141-3.182-0.463-4.664c-0.396-0.892-1.036-1.728-1.96-2.112
			c-1.796-0.739-3.978,0.041-4.989,1.685c-0.047,0.085-0.141,0.258-0.187,0.344c-0.722,1.474-0.777,3.144-0.731,4.753
			c-0.004,2.969,0.005,5.936-0.004,8.906c-1.699-0.005-3.398-0.009-5.095,0.002c-0.023-6.608-0.011-13.217-0.005-19.825
			c1.607-0.022,3.216,0.002,4.825-0.013c0.047,1.029-0.014,2.057,0.036,3.086C117.876,66.742,118.71,65.787,119.809,65.162z"/>
		<path style="fill:#595A5A;" d="M151.34,64.229c3.182-0.276,6.663,0.632,8.807,3.122c0.531,0.638,0.973,1.346,1.346,2.09
			c0.29,0.697,0.551,1.413,0.652,2.166c-1.809-0.004-3.62,0.049-5.425-0.031c-0.074-0.328-0.204-0.638-0.353-0.935
			c-1.618-2.702-5.994-2.668-7.774-0.151c-0.274,0.42-0.508,0.863-0.719,1.315c-0.6,1.62-0.611,3.429-0.166,5.09
			c0.299,0.84,0.733,1.627,1.324,2.299c1.173,1.27,2.993,1.649,4.65,1.322c0.231-0.085,0.467-0.16,0.706-0.238
			c0.793-0.283,1.391-0.904,1.886-1.56c0.119-0.263,0.247-0.521,0.386-0.775c0.013-0.103,0.038-0.306,0.049-0.409
			c1.807-0.036,3.614,0.013,5.421-0.027c-0.422,2.901-2.486,5.455-5.156,6.623c-0.764,0.321-1.564,0.531-2.369,0.712
			c-2.621,0.395-5.443,0.09-7.727-1.328c-2.187-1.276-3.701-3.508-4.34-5.931c-0.088-0.362-0.164-0.726-0.256-1.085
			c-0.247-2.31-0.086-4.72,0.982-6.821c0.814-1.609,2.021-3.034,3.585-3.956C148.2,64.864,149.758,64.407,151.34,64.229z"/>
		<path style="fill:#595A5A;" d="M31.647,64.711c1.694-0.05,3.391,0.002,5.086-0.032c0.11,0.755,0.05,1.517,0.063,2.277
			c-0.009,5.407,0.004,10.814,0.002,16.222c-0.014,0.441,0.047,0.897-0.068,1.33c-1.694,0.025-3.387,0.007-5.079,0.005
			C31.66,77.912,31.667,71.311,31.647,64.711z"/>
		<path style="fill:#595A5A;" d="M40.495,64.708c1.618-0.036,3.236-0.016,4.854-0.011c0.023,1.13,0.018,2.261,0.007,3.391
			c0.368-0.205,0.546-0.604,0.795-0.926c0.441-0.573,0.987-1.056,1.544-1.515c1.528-1.023,3.411-0.955,5.169-0.944
			c-0.023,1.571-0.014,3.144-0.005,4.715c-1.16,0.038-2.328-0.067-3.47,0.177c-0.373,0.13-0.739,0.277-1.094,0.447
			c-1.027,0.587-1.782,1.571-2.211,2.663c-0.245,0.778-0.443,1.578-0.434,2.4c-0.013,3.137-0.004,6.273-0.005,9.41
			c-1.713,0.013-3.425,0.002-5.137,0.005C40.491,77.916,40.515,71.311,40.495,64.708z"/>
		<path style="fill:#595A5A;" d="M134.296,64.692c1.697-0.005,3.396-0.002,5.095,0.002c-0.013,6.612,0.009,13.222-0.011,19.833
			c-1.695-0.011-3.391-0.013-5.084,0C134.287,77.914,134.287,71.304,134.296,64.692z"/>
	</g>
	<g>
		<g>
			<path style="fill:#595A5A;" d="M32.062,15.007c1.695,0.013,3.389,0.031,5.084-0.007c0.04,0.263,0.081,0.524,0.086,0.791
				c0,8.709,0.002,17.42,0,26.129c-0.007,0.632,0.047,1.272-0.072,1.899c-1.706-0.034-3.412-0.018-5.119-0.009
				c-0.016-0.935,0.049-1.87-0.011-2.805c-0.177,0.261-0.36,0.517-0.546,0.771c-0.157,0.151-0.308,0.308-0.461,0.465
				c-0.858,0.908-1.982,1.54-3.194,1.834c-1.863,0.416-3.83,0.198-5.601-0.488c-1.45-0.596-2.652-1.638-3.636-2.839
				c-0.216-0.33-0.431-0.659-0.64-0.993c-0.126-0.24-0.249-0.479-0.368-0.721c-0.139-0.351-0.277-0.701-0.423-1.047
				c-0.874-2.821-0.877-5.947,0.187-8.718c0.614-1.436,1.467-2.82,2.708-3.794c1.052-0.87,2.312-1.456,3.634-1.784
				c1.694-0.313,3.492-0.353,5.115,0.294c1.331,0.49,2.416,1.481,3.238,2.614C32.076,22.735,32.039,18.872,32.062,15.007z
				 M24.32,28.642c-1.319,0.782-2.193,2.18-2.463,3.675c-0.286,1.839-0.119,3.845,0.969,5.412c0.468,0.625,1.056,1.153,1.735,1.54
				c1.62,0.737,3.574,0.699,5.138-0.168c0.775-0.611,1.501-1.326,1.877-2.259c0.744-1.818,0.731-3.922,0.09-5.769
				c-0.445-0.984-1.085-1.928-2.07-2.436C27.996,27.736,25.92,27.736,24.32,28.642z"/>
		</g>
		<path style="fill:#595A5A;" d="M44.358,24.053c2.638-0.836,5.636-0.85,8.142,0.418c1.906,1,3.297,2.975,3.454,5.137
			c-1.621-0.02-3.248,0.054-4.868-0.045c-0.058-0.258-0.121-0.515-0.186-0.769c-0.432-0.524-0.958-0.987-1.636-1.151
			c-1.182-0.216-2.504-0.225-3.506,0.531c-0.31,0.425-0.591,0.958-0.434,1.497c0.036,0.521,0.468,0.847,0.84,1.148
			c1.477,0.715,3.146,0.805,4.697,1.301c1.494,0.485,3.119,0.82,4.32,1.903c1.321,1.176,1.769,3.108,1.47,4.805
			c-0.106,0.627-0.254,1.252-0.551,1.82c-0.868,1.749-2.656,2.863-4.51,3.306c-2.549,0.589-5.3,0.427-7.711-0.623
			c-0.834-0.369-1.558-0.922-2.238-1.521c-1.153-1.162-1.847-2.711-2.048-4.329c1.731-0.014,3.466-0.045,5.196,0.016
			c0.195,1.488,1.576,2.58,3.023,2.719c1.097,0.117,2.364,0.088,3.216-0.715c0.692-0.623,0.704-1.71,0.324-2.504
			c-1.569-1.358-3.751-1.429-5.646-2.047c-1.569-0.557-3.259-1.099-4.389-2.393c-0.481-0.486-0.719-1.137-0.924-1.773
			c-0.106-0.8-0.092-1.611,0.009-2.411c0.395-1.681,1.528-3.16,3.09-3.915C43.778,24.318,44.068,24.187,44.358,24.053z"/>
		<path style="fill:#595A5A;" d="M68.162,23.853c1.357-0.434,2.818-0.512,4.205-0.178c0.35,0.13,0.703,0.254,1.056,0.375
			c0.332,0.173,0.661,0.344,0.995,0.517c0.881,0.614,1.704,1.358,2.22,2.315c0.058,0,0.171,0.002,0.229,0.002
			c0.209-0.344,0.461-0.661,0.737-0.955c0.589-0.56,1.209-1.099,1.942-1.465c0.281-0.144,0.568-0.277,0.856-0.407
			c0.186-0.063,0.373-0.128,0.56-0.196c0.481-0.133,0.969-0.243,1.465-0.312c1.074-0.173,2.176-0.077,3.227,0.186
			c1.991,0.485,3.621,1.958,4.501,3.783c0.645,1.342,0.939,2.832,1.022,4.31c0.014,3.994,0.018,7.987-0.002,11.979
			c-1.721-0.014-3.439,0.004-5.16-0.013c0.083-2.726,0.014-5.455,0.038-8.181c-0.034-1.74,0.157-3.531-0.398-5.214
			c-0.357-1.041-1.081-1.971-2.119-2.398c-0.254-0.05-0.506-0.108-0.755-0.175c-0.686,0.002-1.367,0.121-2.018,0.337
			c-0.685,0.295-1.283,0.758-1.728,1.358c-0.704,0.995-1.065,2.211-1.077,3.425c-0.022,1.49,0.002,2.98-0.013,4.468
			c0.002,0.422,0.002,0.843-0.002,1.265c-0.034,1.712,0.099,3.432-0.076,5.138c-1.695-0.032-3.389-0.014-5.082-0.011
			c-0.034-3.632-0.002-7.262-0.018-10.893c-0.023-1.38-0.299-2.83-1.176-3.938c-0.344-0.488-0.908-0.733-1.414-1.013
			c-1.31-0.205-2.717-0.038-3.767,0.831c-0.117,0.117-0.234,0.236-0.351,0.355c-1.011,1.182-1.432,2.766-1.413,4.299
			c-0.013,3.452-0.018,6.904,0.004,10.356c-1.721-0.004-3.439-0.004-5.158,0c-0.018-6.605,0.014-13.21-0.016-19.815
			c1.63-0.031,3.263-0.016,4.893-0.005c-0.036,0.82-0.036,1.641-0.013,2.463c0.76-0.708,1.459-1.504,2.409-1.978
			c0.241-0.123,0.486-0.24,0.733-0.357C67.717,24.025,67.938,23.942,68.162,23.853z"/>
		<path style="fill:#595A5A;" d="M94.398,35.564c0.02-1.443-0.016-2.886,0.013-4.329c3.014,0.02,6.027,0.02,9.041-0.002
			c0.041,1.447,0.022,2.895,0.011,4.344C100.44,35.579,97.419,35.6,94.398,35.564z"/>
	</g>
</g>
</svg>
