<?xml version="1.0" encoding="iso-8859-1"?>
<!-- Generator: Adobe Illustrator 29.0.0, SVG Export Plug-In . SVG Version: 9.03 Build 54978)  -->
<svg version="1.1" id="&#x56FE;&#x5C42;_1" xmlns="http://www.w3.org/2000/svg" xmlns:xlink="http://www.w3.org/1999/xlink" x="0px"
	 y="0px" viewBox="0 0 200 100" style="enable-background:new 0 0 200 100;" xml:space="preserve">
<g>
	<path style="fill:#595A5A;" d="M40.884,44.694c-0.062-1.127,0.103-2.265,0.486-3.34c0.383-1.076,0.972-2.058,1.727-2.906
		c0.765-0.848,1.686-1.531,2.709-2.027c1.034-0.486,2.141-0.765,3.278-0.827c4.24,0,8.159,3.495,8.159,9.028
		c0.052,1.138-0.114,2.265-0.496,3.34c-0.372,1.065-0.962,2.058-1.717,2.896c-0.765,0.848-1.675,1.541-2.699,2.027
		c-1.024,0.496-2.141,0.776-3.268,0.838C44.803,53.722,40.884,50.206,40.884,44.694L40.884,44.694z M54.783,44.674
		c0-6.763-2.544-8.738-5.801-8.738c-3.226,0-5.646,1.965-5.646,8.707s2.554,8.738,5.801,8.738
		C52.363,53.381,54.783,51.395,54.783,44.674z"/>
	<path style="fill:#595A5A;" d="M62.849,53.081c2.534-0.072,2.41-1.272,2.41-1.706V37.931c0-0.383,0.124-1.644-2.41-1.717v-0.196
		h6.898c4.612,0,6.556,1.882,6.556,4.085c0,1.986-1.613,3.599-4.788,4.002v0.072c3.516,0.321,5.522,1.737,5.522,4.24
		c0,2.482-2.006,4.881-7.136,4.881h-7.053V53.081z M69.995,43.95c2.802,0,3.992-1.169,3.992-3.764c0-2.441-0.972-3.806-4.168-3.806
		h-2.461v7.57H69.995z M70.139,52.926c3.299,0,4.54-1.313,4.54-4.457c0-2.482-1.272-4.147-4.509-4.147h-2.813v8.604L70.139,52.926z"
		/>
	<path style="fill:#595A5A;" d="M83.5,53.081c2.534-0.072,2.41-1.138,2.41-1.717V37.931c0-0.61,0.114-1.644-2.41-1.717v-0.196
		h13.454l0.01,3.444l-0.228,0.021c-0.134-0.476-0.352-0.931-0.641-1.334c-0.3-0.403-0.652-0.755-1.065-1.034
		c-0.414-0.279-0.869-0.486-1.344-0.61c-0.486-0.124-0.982-0.165-1.479-0.124H88.02v7.746h2.347
		c0.362,0.052,0.724,0.031,1.076-0.062c0.352-0.083,0.683-0.248,0.972-0.465c0.29-0.228,0.527-0.496,0.714-0.817
		c0.176-0.31,0.29-0.662,0.341-1.013h0.217v5.119h-0.217c-0.041-0.362-0.155-0.714-0.341-1.024c-0.176-0.321-0.414-0.6-0.703-0.827
		c-0.29-0.217-0.62-0.383-0.972-0.476c-0.352-0.093-0.724-0.114-1.086-0.062H88.02v8.428h3.837c0.517,0.041,1.034,0,1.541-0.124
		c0.496-0.114,0.972-0.321,1.406-0.6c0.445-0.269,0.827-0.61,1.158-1.013c0.331-0.393,0.589-0.848,0.776-1.324l0.228,0.021
		l-0.01,3.423H83.5L83.5,53.081z"/>
	<path style="fill:#595A5A;" d="M144.876,53.081c2.534-0.072,2.42-1.138,2.42-1.717V37.931c0-0.61,0.114-1.644-2.42-1.717v-0.196
		h13.464v3.444l-0.228,0.021c-0.134-0.476-0.352-0.931-0.652-1.334c-0.29-0.403-0.641-0.755-1.055-1.034
		c-0.414-0.279-0.869-0.486-1.344-0.61c-0.486-0.124-0.982-0.165-1.479-0.124h-4.188v7.746h2.358
		c0.362,0.052,0.724,0.031,1.076-0.052c0.352-0.093,0.683-0.259,0.972-0.476c0.29-0.217,0.527-0.496,0.714-0.817
		c0.176-0.31,0.29-0.662,0.341-1.013h0.217v5.119h-0.217c-0.041-0.362-0.155-0.714-0.341-1.024c-0.176-0.321-0.414-0.6-0.703-0.827
		c-0.29-0.217-0.62-0.383-0.972-0.476c-0.352-0.093-0.724-0.114-1.086-0.062h-2.358v8.428h3.847c0.517,0.041,1.034,0,1.531-0.124
		c0.507-0.114,0.982-0.321,1.417-0.6c0.434-0.269,0.827-0.61,1.158-1.013c0.321-0.393,0.589-0.848,0.776-1.324l0.227,0.021v3.423
		h-13.475L144.876,53.081z"/>
	<path style="fill:#595A5A;" d="M108.764,51.395c0,0.662-0.196,1.613,2.275,1.686v0.228h-6.794v-0.228
		c2.534-0.072,2.41-1.086,2.41-1.706V37.921c0-0.662,0.114-1.634-2.41-1.706v-0.207h6.701c4.561,0,7.125,1.644,7.125,4.219
		c0,2.234-1.541,3.826-5.222,4.405v0.062c3.599,0.372,4.364,1.737,4.736,4.416l0.155,1.065c0.393,2.337,0.817,2.823,3.175,2.823
		v0.196c-0.214,0.034-0.427,0.065-0.641,0.093c-0.207,0.028-0.417,0.052-0.631,0.072c-0.214,0.021-0.427,0.034-0.641,0.041
		c-0.214,0.014-0.427,0.021-0.641,0.021c-2.182,0-2.627-1.065-2.906-3.299l-0.269-2.244c-0.3-2.472-1.034-3.051-3.992-3.051h-2.43
		L108.764,51.395z M111.122,44.477c3.723,0,4.54-1.437,4.54-4.209c0-2.616-1.2-3.878-4.84-3.878h-2.058v8.087H111.122z"/>
	<path style="fill:#595A5A;" d="M24.906,51.395c0,0.662-0.196,1.613,2.285,1.686v0.228h-6.805v-0.228
		c2.534-0.072,2.41-1.086,2.41-1.706V37.921c0-0.662,0.124-1.634-2.41-1.706v-0.207h6.701c4.561,0,7.115,1.644,7.115,4.219
		c0,2.234-1.531,3.826-5.212,4.405v0.062c3.599,0.372,4.364,1.737,4.736,4.416l0.155,1.065c0.393,2.337,0.817,2.823,3.175,2.823
		v0.196c-0.214,0.034-0.427,0.065-0.641,0.093c-0.207,0.034-0.417,0.059-0.631,0.072c-0.214,0.021-0.427,0.034-0.641,0.041
		c-0.214,0.014-0.427,0.021-0.641,0.021c-2.182,0-2.637-1.065-2.906-3.299l-0.279-2.244c-0.3-2.472-1.044-3.051-3.992-3.051h-2.42
		L24.906,51.395z M27.264,44.477c3.713,0,4.54-1.437,4.54-4.209c0-2.616-1.189-3.878-4.84-3.878h-2.058v8.087H27.264z"/>
	<path style="fill:#595A5A;" d="M128.816,53.081c2.575-0.072,2.606-1.231,2.606-1.717V36.38h-1.986
		c-1.779,0-2.823-0.517-4.354,3.102l-0.228-0.021L125,36.018h14.954l0.145,3.444l-0.217,0.021c-1.52-3.526-2.554-3.102-4.364-3.102
		h-1.986v14.985c0,0.486,0.021,1.644,2.606,1.717v0.228h-7.322L128.816,53.081z"/>
	<path style="fill:#595A5A;" d="M168.33,53.081c2.585-0.072,2.606-1.231,2.606-1.717V36.38h-1.986c-1.779,0-2.823-0.517-4.354,3.102
		l-0.228-0.021l0.145-3.444h14.954l0.145,3.444l-0.217,0.021c-1.52-3.526-2.554-3.102-4.364-3.102h-1.986v14.985
		c0,0.486,0.031,1.644,2.606,1.717v0.228h-7.322L168.33,53.081z"/>
	<path style="fill:#595A5A;" d="M20.656,62.171l1.458,0.858l55.285-0.558l0.558-0.331l-0.558-0.279l-55.285-0.548L20.656,62.171z"/>
	<path style="fill:#595A5A;" d="M179.354,62.171l-1.468,0.858l-55.274-0.558l-0.558-0.331l0.558-0.279l55.274-0.548L179.354,62.171z
		"/>
	<path style="fill:#595A5A;" d="M83.945,62.275c-0.01-0.279,0.052-0.558,0.155-0.817c0.103-0.259,0.259-0.496,0.455-0.703
		c0.196-0.196,0.434-0.352,0.693-0.465c0.259-0.103,0.538-0.155,0.817-0.155c0.097-0.007,0.19-0.003,0.279,0.01
		c0.09,0.007,0.179,0.021,0.269,0.041c0.09,0.021,0.179,0.045,0.269,0.072c0.083,0.034,0.165,0.072,0.248,0.114l0.259-0.279h0.062
		v1.355h-0.072c-0.321-0.776-0.776-1.21-1.365-1.21c-0.652,0-1.293,0.548-1.293,2.027c0,1.479,0.672,2.027,1.344,2.027
		c0.069,0,0.138-0.003,0.207-0.01c0.069-0.007,0.138-0.021,0.207-0.041c0.069-0.021,0.134-0.048,0.196-0.083
		c0.062-0.028,0.121-0.062,0.176-0.103v-1.117c0-0.238-0.134-0.393-0.641-0.414V62.44h1.779v0.083
		c-0.372,0.021-0.455,0.114-0.455,0.414v1.076c-0.117,0.062-0.234,0.121-0.352,0.176c-0.117,0.048-0.238,0.086-0.362,0.114
		c-0.124,0.034-0.248,0.062-0.372,0.083c-0.131,0.014-0.259,0.021-0.383,0.021c-0.29,0.01-0.569-0.041-0.827-0.145
		c-0.259-0.103-0.496-0.259-0.703-0.455c-0.196-0.207-0.352-0.445-0.455-0.703C83.986,62.843,83.935,62.554,83.945,62.275
		L83.945,62.275z"/>
	<path style="fill:#595A5A;" d="M91.019,63.857c0,0.238,0.124,0.352,0.61,0.372v0.072h-1.923v-0.072
		c0.496-0.021,0.62-0.145,0.62-0.372v-3.175c0-0.238-0.124-0.362-0.62-0.383v-0.062h1.83c1.2,0,1.655,0.434,1.655,0.982
		c0,0.507-0.331,0.889-1.241,1.024v0.021c0.869,0.031,1.076,0.424,1.158,1.003l0.041,0.341c0.083,0.517,0.165,0.589,0.672,0.6v0.062
		c-0.048,0.014-0.097,0.024-0.145,0.031c-0.048,0.007-0.1,0.014-0.155,0.021c-0.048,0.007-0.097,0.01-0.145,0.01
		c-0.048,0.007-0.1,0.007-0.155,0c-0.631,0-0.745-0.207-0.807-0.734l-0.062-0.538c-0.062-0.6-0.217-0.745-0.889-0.745h-0.455
		L91.019,63.857z M91.515,62.202c0.776,0,0.941-0.331,0.941-0.951c0-0.558-0.228-0.9-1.013-0.9h-0.424v1.851H91.515z"/>
	<path style="fill:#595A5A;" d="M95.455,62.275c-0.021-0.269,0.021-0.538,0.114-0.796s0.238-0.496,0.414-0.693
		c0.186-0.207,0.414-0.362,0.662-0.476c0.248-0.114,0.517-0.176,0.786-0.176c0.269,0,0.538,0.052,0.786,0.165
		c0.248,0.103,0.476,0.269,0.662,0.465c0.186,0.196,0.331,0.434,0.414,0.693c0.093,0.259,0.134,0.527,0.114,0.796
		c0.01,0.269-0.031,0.548-0.114,0.796c-0.093,0.259-0.238,0.496-0.424,0.693c-0.186,0.207-0.403,0.362-0.652,0.476
		s-0.517,0.176-0.786,0.186c-0.269,0-0.538-0.062-0.786-0.165c-0.248-0.114-0.476-0.269-0.662-0.476
		c-0.186-0.196-0.331-0.434-0.414-0.683C95.476,62.823,95.434,62.543,95.455,62.275L95.455,62.275z M98.64,62.275
		c0-1.531-0.507-2.027-1.241-2.027c-0.724,0-1.169,0.507-1.169,2.027c0,1.51,0.496,2.027,1.22,2.027
		C98.185,64.301,98.64,63.795,98.64,62.275z"/>
	<path style="fill:#595A5A;" d="M101.825,63.122v-2.441c0-0.228-0.134-0.362-0.641-0.372v-0.072h1.913v0.072
		c-0.496,0.01-0.579,0.134-0.579,0.372v2.368c-0.021,0.165-0.01,0.321,0.041,0.476s0.145,0.29,0.259,0.403
		c0.114,0.114,0.259,0.196,0.403,0.248c0.155,0.041,0.321,0.052,0.476,0.031c0.069,0.007,0.138,0.003,0.207-0.01
		c0.069-0.007,0.134-0.024,0.196-0.052c0.062-0.021,0.121-0.048,0.176-0.083c0.062-0.034,0.117-0.076,0.165-0.124
		c0.062-0.062,0.114-0.131,0.155-0.207c0.048-0.069,0.086-0.145,0.114-0.228c0.028-0.083,0.048-0.165,0.062-0.248
		c0.007-0.09,0.007-0.176,0-0.259v-1.799c0-0.579-0.186-0.817-0.786-0.9v-0.072h1.613v0.083c-0.548,0.083-0.683,0.321-0.683,0.889
		v1.83c0,0.817-0.465,1.375-1.499,1.375C102.404,64.405,101.825,63.96,101.825,63.122L101.825,63.122z"/>
	<path style="fill:#595A5A;" d="M107.296,64.229c0.507-0.01,0.651-0.145,0.651-0.383v-3.164c0-0.238-0.145-0.372-0.651-0.383v-0.072
		h1.737c1.293,0,1.696,0.486,1.696,1.127c0,0.589-0.424,1.158-1.727,1.158h-0.383v1.334c0,0.248,0.134,0.372,0.683,0.383v0.072
		h-2.006L107.296,64.229z M109.012,62.399c0.796,0,0.972-0.383,0.972-1.055c0-0.579-0.196-0.993-0.951-0.993h-0.414v2.048H109.012z"
		/>
	<path style="fill:#595A5A;" d="M112.549,64.229c0.507-0.021,0.652-0.155,0.652-0.383v-3.164c0-0.238-0.145-0.372-0.652-0.383
		v-0.072h3.402l0.01,1.313l-0.072,0.021c-0.352-0.838-0.62-1.22-1.313-1.22h-0.703v1.799h0.31c0.486,0,0.734-0.186,0.91-0.807h0.062
		v1.717h-0.062c-0.176-0.62-0.424-0.807-0.91-0.807h-0.31v1.944h0.683c0.827,0,1.138-0.383,1.489-1.282l0.072,0.01l-0.021,1.386
		h-3.547V64.229z"/>
</g>
</svg>
