<?xml version="1.0" encoding="iso-8859-1"?>
<!-- Generator: Adobe Illustrator 29.0.0, SVG Export Plug-In . SVG Version: 9.03 Build 54978)  -->
<svg version="1.1" id="&#x56FE;&#x5C42;_1" xmlns="http://www.w3.org/2000/svg" xmlns:xlink="http://www.w3.org/1999/xlink" x="0px"
	 y="0px" viewBox="0 0 200 100" style="enable-background:new 0 0 200 100;" xml:space="preserve">
<g>
	<g>
		<path style="fill:#595A5A;" d="M76.824,48.694c-16.563,0-33.101,0-49.667,0c0-7.922,0-15.834,0-23.751
			c0.684-0.123,46.452-0.177,49.667-0.053C76.824,32.801,76.824,40.713,76.824,48.694z"/>
		<path style="fill:#595A5A;" d="M76.838,50.301c0,8.045,0,16.061,0,24.103c-8.029,0-16.046,0-24.066,0
			c-0.113-0.654-0.159-21.574-0.048-24.103C60.739,50.301,68.755,50.301,76.838,50.301z"/>
		<path style="fill:#595A5A;" d="M51.259,74.221c-0.083,0.083-0.138,0.138-0.194,0.194c-7.963,0-15.926,0-23.913,0
			c0-8.032,0-16.047,0-24.101c8.013,0,16.047,0,24.107,0C51.259,58.266,51.259,66.229,51.259,74.221z"/>
	</g>
	<g>
		<path style="fill:#595A5A;" d="M144.426,56.157c-0.371,0-0.731,0-1.121,0c-0.469-0.773-1.135-1.414-1.809-2.039
			c-0.496-0.46-1.064-0.834-1.647-1.183c-0.39-0.234-0.798-0.431-1.206-0.627c-0.451-0.216-0.925-0.367-1.407-0.507
			c-0.337-0.098-0.686-0.146-1.016-0.266c-0.022-0.008-0.043-0.021-0.065-0.023c-0.29-0.026-0.586-0.024-0.869-0.081
			c-0.665-0.134-1.333-0.034-1.999-0.072c-0.174-0.01-0.331,0.051-0.496,0.073c-0.16,0.021-0.367-0.057-0.478,0.019
			c-0.157,0.107-0.331-0.001-0.484,0.122c-0.089,0.072-0.276,0.063-0.41,0.075c-0.359,0.033-0.688,0.161-1.024,0.261
			c-0.724,0.215-1.412,0.528-2.073,0.887c-0.402,0.218-0.796,0.458-1.158,0.75c-0.302,0.244-0.603,0.487-0.897,0.741
			c-0.175,0.151-0.363,0.29-0.518,0.461c-0.527,0.58-1.028,1.184-1.456,1.84c-0.19,0.291-0.381,0.597-0.516,0.912
			c-0.132,0.307-0.29,0.605-0.398,0.925c-0.159,0.474-0.341,0.938-0.454,1.429c-0.085,0.369-0.166,0.735-0.233,1.108
			c-0.042,0.232-0.014,0.464-0.065,0.684c-0.138,0.602-0.043,1.208-0.065,1.811c-0.007,0.189,0.043,0.38,0.071,0.57
			c0.026,0.177-0.018,0.351,0.058,0.539c0.061,0.151,0.063,0.35,0.084,0.527c0.033,0.285,0.13,0.551,0.187,0.828
			c0.06,0.294,0.188,0.573,0.27,0.863c0.082,0.292,0.201,0.574,0.321,0.844c0.242,0.541,0.529,1.065,0.862,1.56
			c0.365,0.542,0.745,1.069,1.217,1.528c0.136,0.132,0.227,0.316,0.379,0.44c0.567,0.464,1.11,0.961,1.732,1.353
			c0.285,0.18,0.581,0.349,0.887,0.489c0.294,0.135,0.587,0.277,0.883,0.407c0.341,0.149,0.707,0.223,1.039,0.398
			c0.211,0.111,0.472,0.138,0.715,0.171c0.154,0.021,0.29,0.118,0.457,0.084c0.143-0.029,0.28,0.058,0.416,0.087
			c0.218,0.048,0.442,0.014,0.646,0.069c0.367,0.099,0.733,0.054,1.099,0.064c0.363,0.01,0.733,0.046,1.088-0.009
			c0.408-0.063,0.832-0.037,1.227-0.205c0.124-0.053,0.279-0.047,0.418-0.072c0.441-0.079,0.858-0.227,1.282-0.358
			c0.468-0.145,0.9-0.369,1.334-0.588c0.589-0.298,1.133-0.667,1.671-1.053c0.669-0.48,1.202-1.096,1.792-1.655
			c0.307-0.492,0.72-0.906,0.995-1.427c0.184-0.349,0.415-0.676,0.587-1.035c0.236-0.492,0.419-1.004,0.602-1.517
			c0.149-0.418,0.205-0.862,0.365-1.276c0.008-0.022,0.006-0.048,0.008-0.072c0.025-0.29,0.046-0.581,0.077-0.87
			c0.013-0.116,0.058-0.229,0.07-0.345c0.013-0.124,0.003-0.25,0.003-0.374c-0.037-0.037-0.072-0.072-0.121-0.121
			c-4.68,0-9.373,0-14.074,0c0-0.272,0-0.531,0-0.805c5.045,0,10.088,0,15.163,0c0.003,0.129,0.006,0.274,0.008,0.418
			c0.001,0.138,0.003,0.276,0,0.413c-0.004,0.143,0.027,0.289-0.07,0.423c-0.03,0.041,0.001,0.123-0.006,0.184
			c-0.019,0.169,0.023,0.337-0.035,0.51c-0.049,0.146,0.028,0.358-0.052,0.463c-0.119,0.155,0.034,0.359-0.137,0.474
			c-0.045,0.689-0.313,1.32-0.535,1.958c-0.163,0.468-0.388,0.918-0.617,1.359c-0.255,0.489-0.542,0.96-0.871,1.405
			c-0.201,0.272-0.411,0.536-0.63,0.794c-0.24,0.283-0.485,0.557-0.754,0.81c-0.474,0.448-0.988,0.846-1.51,1.238
			c-0.429,0.322-0.886,0.596-1.348,0.845c-0.411,0.222-0.839,0.445-1.304,0.566c-0.224,0.058-0.431,0.167-0.654,0.237
			c-0.187,0.059-0.384,0.086-0.57,0.161c-0.182,0.073-0.398,0.082-0.583,0.138c-0.355,0.108-0.722,0.149-1.078,0.192
			c-0.322,0.039-0.65,0.104-0.981,0.097c-0.413-0.009-0.827,0.008-1.24-0.005c-0.353-0.011-0.701-0.114-1.059-0.072
			c-0.178-0.157-0.415-0.034-0.62-0.138c-0.171-0.087-0.406-0.037-0.6-0.093c-0.447-0.13-0.899-0.241-1.339-0.393
			c-0.581-0.202-1.153-0.434-1.685-0.737c-0.531-0.302-1.068-0.599-1.549-0.986c-0.302-0.243-0.596-0.498-0.898-0.739
			c-0.263-0.209-0.505-0.434-0.727-0.678c-0.51-0.559-0.978-1.153-1.393-1.788c-0.313-0.479-0.563-0.992-0.827-1.499
			c-0.086-0.165-0.158-0.345-0.207-0.513c-0.052-0.179-0.144-0.344-0.196-0.524c-0.049-0.171-0.06-0.374-0.198-0.517
			c0.032-0.225-0.1-0.41-0.154-0.613c-0.054-0.204-0.073-0.414-0.136-0.618c-0.07-0.226-0.071-0.477-0.082-0.717
			c-0.008-0.182-0.111-0.341-0.085-0.533c0.023-0.164,0.039-0.342-0.069-0.494c0-0.451,0-0.902,0-1.353
			c0.126-0.163,0.049-0.355,0.077-0.532c0.052-0.317,0.103-0.64,0.129-0.954c0.028-0.339,0.142-0.654,0.186-0.986
			c0.035-0.267,0.134-0.541,0.226-0.804c0.272-0.777,0.589-1.538,0.987-2.258c0.216-0.391,0.463-0.765,0.73-1.129
			c0.458-0.625,0.96-1.206,1.525-1.731c0.334-0.311,0.705-0.582,1.063-0.865c0.403-0.319,0.834-0.596,1.27-0.851
			c0.374-0.219,0.78-0.402,1.189-0.571c0.409-0.169,0.817-0.327,1.24-0.452c0.359-0.106,0.71-0.232,1.084-0.288
			c0.342-0.052,0.677-0.155,1.028-0.146c0.19-0.122,0.411-0.032,0.606-0.081c0.502-0.127,1.008-0.034,1.511-0.071
			c0.395-0.029,0.776,0.135,1.171,0.077c0.269,0.113,0.565,0.07,0.84,0.149c0.269,0.077,0.54,0.146,0.81,0.22
			c1.352,0.37,1.589,0.468,2.657,1.023c0.426,0.221,0.827,0.494,1.222,0.768c0.478,0.332,0.943,0.684,1.345,1.111
			c0.138,0.147,0.301,0.27,0.444,0.412c0.148,0.148,0.29,0.302,0.425,0.462C143.737,55.142,144.114,55.615,144.426,56.157z"/>
		<path style="fill:#595A5A;" d="M160.459,50.459c0.257,0,0.461,0.022,0.657-0.006c0.204-0.029,0.377,0.076,0.571,0.085
			c0.178,0.007,0.352-0.014,0.538,0.058c0.18,0.069,0.399,0.029,0.604,0.081c0.386,0.098,0.776,0.164,1.159,0.286
			c1.322,0.423,1.416,0.457,2.532,1.05c0.466,0.248,0.915,0.534,1.335,0.864c0.346,0.271,0.69,0.539,0.999,0.853
			c0.135,0.137,0.312,0.235,0.442,0.377c0.346,0.378,0.705,0.749,1.004,1.163c0.31,0.428,0.636,0.849,0.879,1.324
			c0.143,0.28,0.315,0.545,0.446,0.83c0.232,0.505,0.428,1.025,0.608,1.551c0.148,0.431,0.221,0.881,0.364,1.313
			c0.07,0.213,0.068,0.452,0.079,0.68c0.008,0.157,0.106,0.29,0.084,0.458c-0.02,0.152-0.011,0.305,0.06,0.461
			c0.052,0.114,0.01,0.271,0.01,0.409c0,0.288,0.009,0.576-0.002,0.864c-0.016,0.416-0.022,0.835-0.082,1.245
			c-0.041,0.28-0.093,0.561-0.145,0.84c-0.051,0.275-0.149,0.542-0.208,0.812c-0.058,0.264-0.113,0.529-0.202,0.783
			c-0.207,0.59-0.446,1.169-0.742,1.721c-0.214,0.4-0.402,0.824-0.673,1.183c-0.297,0.393-0.573,0.804-0.908,1.173
			c-0.299,0.329-0.597,0.658-0.918,0.965c-0.409,0.391-0.866,0.722-1.321,1.06c-0.646,0.479-1.354,0.837-2.069,1.183
			c-0.467,0.226-0.962,0.406-1.469,0.531c-0.456,0.112-0.902,0.259-1.376,0.317c-0.392,0.048-0.789,0.089-1.176,0.154
			c-0.608,0.102-1.21,0.02-1.812,0.059c-0.182,0.012-0.341-0.106-0.533-0.081c-0.163,0.021-0.328-0.002-0.498-0.055
			c-0.175-0.054-0.376-0.049-0.567-0.08c-0.651-0.106-1.283-0.273-1.901-0.495c-0.655-0.235-1.295-0.507-1.902-0.849
			c-0.463-0.261-0.905-0.55-1.333-0.869c-0.508-0.379-1.008-0.767-1.44-1.231c-0.461-0.495-0.891-1.013-1.29-1.564
			c-0.485-0.671-0.869-1.39-1.2-2.137c-0.249-0.56-0.476-1.135-0.589-1.749c-0.061-0.333-0.18-0.653-0.229-0.996
			c-0.064-0.442-0.091-0.889-0.157-1.327c-0.067-0.446-0.015-0.885-0.062-1.323c-0.025-0.227,0.077-0.427,0.085-0.645
			c0.008-0.215-0.042-0.43,0.06-0.65c0.071-0.153-0.04-0.364,0.086-0.527c-0.042-0.308,0.1-0.585,0.157-0.876
			c0.062-0.318,0.169-0.629,0.269-0.939c0.193-0.597,0.46-1.162,0.738-1.723c0.234-0.473,0.487-0.935,0.799-1.357
			c0.206-0.279,0.407-0.565,0.63-0.836c0.357-0.433,0.756-0.82,1.158-1.203c0.312-0.296,0.66-0.557,1.006-0.819
			c0.333-0.252,0.679-0.479,1.032-0.695c0.355-0.217,0.739-0.389,1.115-0.571c0.523-0.252,1.075-0.431,1.629-0.6
			c0.325-0.099,0.655-0.182,0.994-0.237c0.292-0.047,0.585-0.103,0.876-0.156c0.257-0.047,0.521,0,0.757-0.071
			C159.786,50.411,160.151,50.5,160.459,50.459z M171.854,62.878c0-0.225,0.002-0.451-0.001-0.676
			c-0.002-0.23,0.01-0.457-0.068-0.685c-0.048-0.142-0.002-0.302-0.071-0.46c-0.058-0.133,0.026-0.314-0.086-0.453
			c0.009-0.399-0.145-0.77-0.241-1.142c-0.158-0.614-0.424-1.2-0.691-1.777c-0.152-0.328-0.366-0.628-0.54-0.943
			c-0.308-0.56-0.689-1.064-1.113-1.523c-0.525-0.567-1.055-1.134-1.7-1.587c-0.493-0.347-0.982-0.695-1.518-0.969
			c-0.484-0.247-0.97-0.495-1.489-0.669c-0.299-0.1-0.603-0.178-0.906-0.263c-0.204-0.058-0.4-0.125-0.614-0.154
			c-0.177-0.024-0.375-0.024-0.527-0.084c-0.164-0.064-0.311-0.049-0.464-0.053c-0.17-0.005-0.315-0.099-0.495-0.086
			c-0.702,0.052-1.406-0.046-2.112,0.069c-0.352,0.057-0.709,0.099-1.064,0.155c-0.421,0.066-0.821,0.194-1.227,0.308
			c-0.481,0.136-0.94,0.33-1.397,0.527c-0.289,0.124-0.559,0.285-0.834,0.436c-0.112,0.062-0.229,0.117-0.335,0.187
			c-0.377,0.25-0.764,0.481-1.106,0.787c-0.221,0.199-0.492,0.347-0.7,0.567c-0.287,0.305-0.599,0.583-0.859,0.918
			c-0.293,0.378-0.598,0.741-0.849,1.153c-0.298,0.489-0.604,0.966-0.825,1.5c-0.222,0.538-0.432,1.073-0.588,1.636
			c-0.145,0.523-0.269,1.051-0.338,1.582c-0.066,0.508-0.135,1.025-0.092,1.545c0.017,0.211-0.006,0.426,0.005,0.638
			c0.018,0.353,0.015,0.712,0.082,1.057c0.072,0.37,0.107,0.75,0.223,1.108c0.079,0.245,0.119,0.497,0.202,0.742
			c0.141,0.418,0.286,0.831,0.455,1.24c0.169,0.409,0.367,0.803,0.571,1.19c0.27,0.512,0.6,1.002,0.986,1.427
			c0.375,0.413,0.697,0.879,1.169,1.215c0.322,0.229,0.604,0.521,0.926,0.763c0.369,0.278,0.756,0.527,1.161,0.742
			c0.439,0.233,0.881,0.466,1.352,0.634c0.404,0.144,0.806,0.295,1.216,0.42c0.247,0.075,0.51,0.099,0.762,0.157
			c0.253,0.058,0.512,0.093,0.766,0.138c0.371,0.066,0.754,0.066,1.132,0.084c0.225,0.011,0.452-0.015,0.676,0.005
			c0.458,0.041,0.904-0.084,1.359-0.079c0.164-0.11,0.364-0.028,0.527-0.088c0.266-0.098,0.545-0.144,0.816-0.202
			c0.644-0.136,1.242-0.387,1.838-0.646c0.372-0.162,0.725-0.368,1.079-0.569c0.591-0.336,1.152-0.724,1.646-1.186
			c0.584-0.546,1.162-1.101,1.634-1.758c0.318-0.442,0.626-0.89,0.889-1.363c0.303-0.546,0.57-1.116,0.747-1.718
			c0.115-0.391,0.267-0.771,0.336-1.178c0.048-0.28,0.148-0.551,0.142-0.841c0.171-0.189,0.038-0.437,0.132-0.659
			c0.085-0.202,0.018-0.468,0.018-0.706C171.854,63.154,171.854,63.016,171.854,62.878z"/>
		<path style="fill:#595A5A;" d="M102.606,74.724c-0.324,0-0.659,0-0.997,0c0.173-0.495,0.42-0.949,0.59-1.437
			c0.067-0.194,0.173-0.377,0.251-0.572c0.186-0.461,0.403-0.91,0.605-1.365c0.197-0.444,0.401-0.886,0.581-1.337
			c0.146-0.365,0.312-0.722,0.444-1.094c0.068-0.192,0.173-0.378,0.254-0.57c0.193-0.459,0.429-0.901,0.601-1.366
			c0.222-0.598,0.502-1.17,0.737-1.761c0.174-0.438,0.359-0.879,0.574-1.303c0.11-0.216,0.222-0.443,0.286-0.668
			c0.065-0.227,0.265-0.4,0.243-0.653c0.163-0.193,0.204-0.441,0.302-0.664c0.093-0.212,0.247-0.41,0.286-0.63
			c0.043-0.24,0.212-0.412,0.253-0.653c0.031-0.181,0.163-0.35,0.229-0.541c0.105-0.305,0.295-0.579,0.41-0.881
			c0.173-0.455,0.388-0.891,0.559-1.347c0.108-0.29,0.267-0.564,0.379-0.857c0.091-0.237,0.239-0.456,0.307-0.698
			c0.071-0.249,0.23-0.452,0.293-0.709c0.065-0.264,0.24-0.499,0.351-0.754c0.138-0.318,0.252-0.647,0.39-0.965
			c0.134-0.308,0.253-0.624,0.394-0.926c0.201-0.43,0.363-0.878,0.578-1.302c0.12-0.237,0.209-0.489,0.317-0.748
			c0.406,0,0.816,0,1.237,0c0.195,0.439,0.421,0.884,0.594,1.35c0.222,0.598,0.494,1.174,0.738,1.761
			c0.181,0.436,0.332,0.89,0.569,1.305c0.12,0.209,0.226,0.442,0.288,0.666c0.063,0.228,0.223,0.405,0.257,0.651
			c0.028,0.207,0.187,0.394,0.277,0.595c0.199,0.443,0.388,0.892,0.577,1.339c0.244,0.576,0.504,1.144,0.749,1.718
			c0.227,0.532,0.457,1.063,0.686,1.595c0.224,0.521,0.458,1.038,0.665,1.565c0.233,0.593,0.499,1.171,0.738,1.761
			c0.177,0.438,0.358,0.879,0.575,1.303c0.11,0.216,0.222,0.443,0.286,0.668c0.065,0.227,0.221,0.406,0.257,0.651
			c0.03,0.207,0.184,0.396,0.276,0.596c0.262,0.567,0.477,1.155,0.735,1.724c0.167,0.368,0.318,0.745,0.475,1.118
			c0.184,0.437,0.387,0.866,0.549,1.313c0.11,0.304,0.291,0.58,0.415,0.88c0.15,0.364,0.293,0.73,0.463,1.086
			c0.019,0.039,0.003,0.095,0.003,0.153c-0.325,0-0.635,0-0.961,0c-0.102-0.208-0.251-0.417-0.305-0.648
			c-0.058-0.244-0.2-0.444-0.275-0.678c-0.112-0.35-0.327-0.665-0.461-1.01c-0.175-0.454-0.404-0.884-0.558-1.347
			c-0.073-0.218-0.206-0.415-0.294-0.629c-0.229-0.556-0.47-1.108-0.705-1.661c-0.185-0.436-0.365-0.876-0.571-1.304
			c-0.125-0.261-0.213-0.539-0.371-0.786c-0.028-0.044-0.013-0.116-0.018-0.183c-4.179,0-8.346,0-12.514,0
			c-0.195,0.446-0.395,0.889-0.582,1.338c-0.245,0.588-0.518,1.163-0.766,1.749c-0.243,0.576-0.501,1.145-0.746,1.72
			c-0.172,0.405-0.367,0.801-0.527,1.21c-0.232,0.593-0.535,1.156-0.731,1.764C102.798,74.417,102.691,74.563,102.606,74.724z
			 M112.439,51.784c-0.081,0.208-0.141,0.384-0.216,0.552c-0.232,0.517-0.461,1.035-0.665,1.565
			c-0.125,0.323-0.296,0.629-0.42,0.953c-0.128,0.335-0.259,0.672-0.41,0.994c-0.246,0.525-0.452,1.065-0.681,1.596
			c-0.269,0.627-0.547,1.251-0.822,1.875c-0.089,0.201-0.2,0.395-0.267,0.603c-0.167,0.519-0.424,1.002-0.607,1.514
			c-0.113,0.316-0.249,0.626-0.385,0.929c-0.303,0.676-0.587,1.36-0.882,2.039c-0.161,0.37-0.324,0.742-0.46,1.123
			c0.332,0.053,11.282,0.05,11.574-0.003c0-0.038,0.012-0.08-0.002-0.112c-0.085-0.203-0.17-0.405-0.266-0.603
			c-0.116-0.24-0.23-0.486-0.319-0.731c-0.135-0.371-0.309-0.724-0.451-1.091c-0.158-0.41-0.357-0.805-0.518-1.212
			c-0.235-0.592-0.482-1.178-0.729-1.764c-0.085-0.203-0.193-0.397-0.267-0.603c-0.106-0.295-0.218-0.584-0.362-0.865
			c-0.147-0.287-0.221-0.609-0.377-0.895c-0.061-0.112-0.128-0.225-0.162-0.346c-0.078-0.281-0.198-0.545-0.321-0.806
			c-0.124-0.262-0.191-0.546-0.337-0.8c-0.127-0.22-0.21-0.467-0.305-0.699c-0.109-0.265-0.22-0.535-0.32-0.806
			c-0.1-0.271-0.212-0.538-0.336-0.8C112.882,52.879,112.692,52.344,112.439,51.784z"/>
		<path style="fill:#595A5A;" d="M101.548,56.004c-0.383,0-0.727,0-1.06,0c-0.095-0.552-0.215-1.085-0.456-1.589
			c-0.13-0.272-0.217-0.564-0.395-0.813c-0.131-0.183-0.25-0.373-0.382-0.555c-0.099-0.136-0.187-0.304-0.324-0.384
			c-0.154-0.091-0.251-0.231-0.389-0.328c-0.393-0.275-0.79-0.541-1.26-0.676c-0.34-0.097-0.668-0.236-1.034-0.232
			c-0.082,0.001-0.165-0.072-0.269-0.071c-0.476,0.008-0.955-0.029-1.426,0.016c-0.265,0.025-0.538,0.08-0.802,0.141
			c-0.248,0.058-0.501,0.122-0.732,0.227c-0.359,0.163-0.719,0.334-1.045,0.56c-0.226,0.157-0.44,0.332-0.656,0.504
			c-0.068,0.054-0.132,0.117-0.186,0.186c-0.199,0.255-0.412,0.501-0.583,0.773c-0.166,0.264-0.294,0.553-0.424,0.838
			c-0.072,0.157-0.111,0.329-0.173,0.492c-0.067,0.174-0.035,0.384-0.089,0.565c-0.137,0.463-0.067,0.933-0.062,1.398
			c0.004,0.4,0.081,0.811,0.233,1.177c0.15,0.361,0.315,0.734,0.574,1.038c0.544,0.64,1.196,1.134,1.966,1.491
			c0.549,0.255,1.117,0.454,1.685,0.646c0.306,0.103,0.633,0.176,0.953,0.237c0.359,0.068,0.709,0.175,1.066,0.251
			c0.221,0.047,0.451,0.107,0.673,0.179c0.22,0.071,0.431,0.203,0.677,0.181c0.464,0.239,0.977,0.365,1.414,0.671
			c0.471,0.33,0.964,0.635,1.364,1.049c0.514,0.53,0.944,1.134,1.217,1.822c0.148,0.375,0.259,0.771,0.357,1.17
			c0.189,0.768,0.119,1.539,0.126,2.308c0.001,0.145-0.034,0.313-0.078,0.453c-0.049,0.155-0.037,0.321-0.128,0.473
			c-0.074,0.124-0.053,0.301-0.102,0.445c-0.052,0.152-0.139,0.293-0.208,0.44c-0.064,0.136-0.118,0.277-0.188,0.41
			c-0.226,0.432-0.472,0.851-0.82,1.202c-0.127,0.128-0.221,0.289-0.349,0.417c-0.655,0.652-1.426,1.141-2.267,1.509
			c-0.469,0.205-0.96,0.38-1.484,0.407c-0.209,0.17-0.466,0.038-0.702,0.117c-0.225,0.075-0.492,0.041-0.739,0.029
			c-0.204-0.01-0.411,0.052-0.616-0.051c-0.17-0.085-0.375,0.023-0.567-0.084c-0.122-0.068-0.299-0.041-0.454-0.073
			c-0.533-0.11-1.02-0.321-1.495-0.568c-0.466-0.242-0.915-0.512-1.283-0.898c-0.107-0.112-0.257-0.184-0.363-0.297
			c-0.581-0.618-1.075-1.299-1.407-2.084c-0.181-0.428-0.334-0.867-0.424-1.329c-0.069-0.352-0.181-0.693-0.131-1.066
			c0.318,0,0.627,0,0.935,0c0.085,0.429,0.119,0.876,0.267,1.281c0.23,0.63,0.487,1.256,0.873,1.818
			c0.272,0.396,0.573,0.765,0.937,1.074c0.604,0.512,1.284,0.914,2.044,1.133c0.289,0.083,0.588,0.209,0.907,0.172
			c0.496,0.16,1.007,0.062,1.509,0.066c0.292,0.002,0.593-0.063,0.875-0.147c0.477-0.142,0.954-0.286,1.401-0.517
			c0.336-0.174,0.651-0.379,0.949-0.609c0.222-0.172,0.441-0.353,0.631-0.559c0.316-0.341,0.58-0.726,0.828-1.12
			c0.276-0.438,0.413-0.932,0.579-1.413c0.061-0.177,0.077-0.371,0.1-0.559c0.014-0.111-0.039-0.253,0.013-0.331
			c0.072-0.107-0.008-0.166-0.01-0.245c-0.002-0.113-0.001-0.225-0.001-0.338c0-0.1,0-0.2,0-0.301c0-0.113,0.015-0.228-0.003-0.338
			c-0.038-0.232-0.085-0.462-0.143-0.691c-0.096-0.374-0.231-0.736-0.411-1.069c-0.215-0.396-0.457-0.781-0.785-1.105
			c-0.398-0.394-0.81-0.762-1.285-1.069c-0.379-0.245-0.794-0.388-1.204-0.543c-0.303-0.115-0.629-0.18-0.948-0.258
			c-0.301-0.073-0.614-0.136-0.898-0.277c-0.262,0.044-0.486-0.096-0.725-0.156c-0.236-0.058-0.47-0.136-0.702-0.203
			c-0.258-0.074-0.519-0.135-0.765-0.244c-0.233-0.103-0.478-0.178-0.715-0.268c-0.518-0.198-0.992-0.462-1.446-0.776
			c-0.197-0.136-0.392-0.27-0.576-0.425c-0.221-0.186-0.434-0.374-0.605-0.609c-0.107-0.146-0.255-0.267-0.338-0.425
			c-0.183-0.348-0.397-0.682-0.49-1.075c-0.046-0.194-0.107-0.382-0.143-0.58c-0.032-0.178-0.033-0.363-0.077-0.531
			c-0.05-0.193-0.062-0.38-0.063-0.573c-0.002-0.188-0.016-0.377,0.003-0.563c0.042-0.401,0.104-0.796,0.198-1.192
			c0.125-0.527,0.307-1.026,0.556-1.499c0.148-0.281,0.338-0.542,0.539-0.794c0.184-0.232,0.376-0.454,0.592-0.653
			c0.326-0.298,0.675-0.562,1.058-0.793c0.485-0.292,0.988-0.513,1.526-0.676c0.192-0.058,0.383-0.104,0.578-0.15
			c0.292-0.069,0.588-0.09,0.881-0.131c0.307-0.043,0.626-0.028,0.938-0.005c0.533,0.039,1.053,0.146,1.574,0.274
			c0.673,0.165,1.268,0.484,1.815,0.873c0.338,0.24,0.655,0.526,0.923,0.874c0.335,0.435,0.651,0.874,0.884,1.368
			c0.218,0.462,0.372,0.949,0.497,1.448C101.435,55.53,101.374,55.778,101.548,56.004z"/>
	</g>
	<g>
		<path style="fill:#595A5A;" d="M134.136,24.81c0.345,0,0.674,0,0.992,0c0.032,0.078,0.061,0.147,0.087,0.216
			c0.155,0.408,0.335,0.807,0.508,1.207c0.158,0.366,0.315,0.734,0.478,1.099c0.208,0.467,0.42,0.932,0.617,1.403
			c0.172,0.411,0.344,0.823,0.521,1.232c0.208,0.477,0.409,0.957,0.628,1.43c0.191,0.412,0.352,0.839,0.54,1.254
			c0.096,0.211,0.199,0.423,0.263,0.644c0.065,0.226,0.197,0.42,0.258,0.649c0.054,0.203,0.189,0.383,0.267,0.582
			c0.142,0.363,0.322,0.711,0.449,1.081c0.057,0.166,0.143,0.322,0.215,0.484c0.221,0.502,0.447,1.001,0.659,1.506
			c0.18,0.428,0.367,0.854,0.549,1.281c0.131,0.307,0.266,0.614,0.391,0.924c0.139,0.345,0.306,0.677,0.431,1.028
			c0.087,0.244,0.242,0.463,0.332,0.707c0.135,0.367,0.323,0.711,0.441,1.085c0.064,0.202,0.181,0.387,0.266,0.583
			c0.099,0.229,0.19,0.461,0.293,0.711c-0.273,0-0.521,0-0.802,0c-0.034-0.069-0.079-0.161-0.123-0.253
			c-0.081-0.168-0.199-0.329-0.231-0.505c-0.035-0.192-0.166-0.332-0.206-0.523c-0.032-0.151-0.135-0.302-0.201-0.457
			c-0.17-0.402-0.363-0.795-0.528-1.199c-0.197-0.482-0.423-0.95-0.604-1.439c-0.093-0.252-0.244-0.482-0.338-0.734
			c-0.15-0.401-0.377-0.768-0.494-1.184c-0.032-0.114-0.119-0.212-0.184-0.322c-3.329,0-6.654,0-9.994,0
			c-0.122,0.281-0.245,0.571-0.374,0.86c-0.076,0.17-0.198,0.329-0.23,0.506c-0.035,0.192-0.175,0.328-0.203,0.525
			c-0.023,0.166-0.15,0.317-0.222,0.478c-0.159,0.356-0.311,0.716-0.464,1.075c-0.197,0.462-0.404,0.918-0.6,1.38
			c-0.138,0.325-0.284,0.647-0.424,0.971c-0.117,0.273-0.236,0.545-0.348,0.828c-0.589,0-1.179,0-1.756,0
			c-0.093-0.131-0.182-0.254-0.269-0.378c-0.302-0.429-0.627-0.841-0.926-1.273c-0.19-0.275-0.404-0.539-0.608-0.807
			c-0.202-0.265-0.412-0.525-0.589-0.811c-0.121-0.195-0.274-0.37-0.415-0.553c-0.216-0.279-0.415-0.571-0.621-0.858
			c-0.202-0.282-0.427-0.546-0.636-0.823c-0.19-0.252-0.372-0.509-0.556-0.765c-0.185-0.255-0.37-0.51-0.553-0.766
			c-0.317-0.443-0.679-0.852-0.964-1.319c-0.119-0.196-0.282-0.366-0.422-0.55c-0.033-0.044-0.058-0.094-0.101-0.164
			c-1.062,1.357-2.098,2.722-3.148,4.083c0,1.658,0,3.314,0,4.98c-0.258,0-0.507,0-0.77,0c0-6.36,0-12.728,0-19.106
			c0.245,0,0.494,0,0.763,0c0,4.271,0,8.548,0,12.897c0.447-0.582,0.853-1.109,1.257-1.638c0.409-0.534,0.817-1.069,1.223-1.605
			c0.405-0.535,0.803-1.076,1.21-1.61c0.415-0.543,0.85-1.072,1.254-1.624c0.397-0.542,0.811-1.071,1.217-1.606
			c0.406-0.535,0.808-1.074,1.219-1.606c0.412-0.533,0.82-1.07,1.228-1.606c0.405-0.533,0.815-1.064,1.208-1.602
			c0.303,0,0.612,0,0.915,0c-2.365,3.157-4.769,6.279-7.132,9.43c0.356,0.473,0.71,0.904,1.02,1.364
			c0.326,0.482,0.692,0.933,1.017,1.415c0.186,0.277,0.409,0.536,0.606,0.808c0.252,0.348,0.53,0.677,0.769,1.037
			c0.196,0.296,0.427,0.568,0.642,0.851c0.127,0.168,0.265,0.33,0.377,0.508c0.132,0.211,0.293,0.4,0.436,0.602
			c0.188,0.267,0.408,0.512,0.588,0.784c0.143,0.215,0.306,0.414,0.456,0.624c0.228,0.319,0.463,0.633,0.695,0.949
			c0.152,0.208,0.303,0.418,0.457,0.625c0.021,0.029,0.057,0.047,0.104,0.086c0.136-0.406,0.354-0.752,0.473-1.144
			c0.066-0.22,0.208-0.416,0.29-0.633c0.135-0.356,0.32-0.691,0.435-1.057c0.066-0.211,0.215-0.394,0.288-0.604
			c0.162-0.466,0.405-0.898,0.554-1.37c0.049-0.156,0.137-0.303,0.201-0.459c0.151-0.37,0.328-0.729,0.485-1.096
			c0.183-0.427,0.367-0.853,0.549-1.281c0.193-0.453,0.385-0.906,0.582-1.358c0.074-0.17,0.156-0.339,0.21-0.516
			c0.052-0.171,0.175-0.304,0.209-0.489c0.031-0.168,0.149-0.318,0.221-0.479c0.159-0.356,0.322-0.711,0.467-1.073
			c0.131-0.328,0.292-0.643,0.425-0.97c0.171-0.422,0.374-0.832,0.53-1.258c0.16-0.438,0.389-0.845,0.532-1.292
			c0.069-0.215,0.204-0.416,0.288-0.634c0.193-0.503,0.42-0.992,0.627-1.49c0.146-0.351,0.292-0.704,0.458-1.047
			c0.109-0.226,0.201-0.46,0.301-0.69C134.09,24.906,134.115,24.856,134.136,24.81z M139.281,36.561
			c-0.183-0.438-0.347-0.842-0.521-1.243c-0.114-0.264-0.228-0.53-0.338-0.795c-0.127-0.308-0.263-0.615-0.377-0.93
			c-0.114-0.313-0.295-0.603-0.405-0.917c-0.053-0.153-0.16-0.287-0.183-0.435c-0.03-0.194-0.17-0.33-0.202-0.525
			c-0.029-0.176-0.156-0.335-0.229-0.506c-0.12-0.282-0.202-0.58-0.363-0.845c0.011-0.192-0.155-0.314-0.191-0.496
			c-0.035-0.177-0.156-0.336-0.225-0.508c-0.076-0.19-0.176-0.374-0.239-0.564c-0.157-0.469-0.394-0.903-0.556-1.369
			c-0.073-0.209-0.224-0.393-0.285-0.604c-0.061-0.209-0.174-0.391-0.246-0.593c-0.071-0.201-0.164-0.394-0.25-0.59
			c-0.012-0.028-0.044-0.047-0.074-0.077c-0.061,0.149-0.11,0.279-0.166,0.404c-0.077,0.169-0.184,0.329-0.236,0.505
			c-0.141,0.475-0.368,0.914-0.559,1.367c-0.129,0.306-0.208,0.641-0.411,0.915c-0.024,0.239-0.167,0.435-0.251,0.65
			c-0.084,0.215-0.169,0.432-0.264,0.644c-0.185,0.416-0.356,0.838-0.538,1.255c-0.156,0.358-0.305,0.718-0.464,1.074
			c-0.072,0.161-0.197,0.311-0.223,0.478c-0.032,0.204-0.158,0.359-0.216,0.548c-0.055,0.181-0.131,0.369-0.226,0.537
			c-0.166,0.294-0.275,0.613-0.401,0.92c-0.208,0.507-0.43,1.008-0.637,1.515c-0.023,0.056-0.027,0.119-0.04,0.18
			C133.077,36.561,136.16,36.561,139.281,36.561z"/>
		<path style="fill:#595A5A;" d="M104.391,24.804c0.275,0,0.535,0,0.795,0c0.049,0,0.098,0,0.154,0
			c0.106,0.215,0.242,0.415,0.302,0.636c0.055,0.202,0.158,0.379,0.23,0.57c0.14,0.373,0.335,0.726,0.48,1.098
			c0.162,0.416,0.339,0.825,0.52,1.232c0.212,0.475,0.407,0.957,0.627,1.43c0.191,0.412,0.361,0.835,0.537,1.255
			c0.137,0.326,0.287,0.646,0.425,0.97c0.178,0.419,0.355,0.838,0.537,1.255c0.185,0.426,0.366,0.854,0.55,1.28
			c0.181,0.417,0.355,0.838,0.537,1.255c0.186,0.426,0.373,0.851,0.548,1.281c0.172,0.422,0.359,0.837,0.54,1.254
			c0.092,0.213,0.201,0.422,0.266,0.643c0.066,0.225,0.191,0.423,0.258,0.649c0.046,0.153,0.138,0.302,0.204,0.457
			c0.17,0.402,0.355,0.798,0.53,1.198c0.205,0.468,0.407,0.938,0.611,1.406c0.178,0.406,0.365,0.811,0.519,1.245
			c-0.278,0-0.546,0-0.834,0c-0.1-0.319-0.265-0.631-0.388-0.963c-0.089-0.241-0.214-0.474-0.319-0.712
			c-0.09-0.204-0.21-0.4-0.266-0.612c-0.058-0.221-0.21-0.392-0.261-0.619c-0.035-0.153-0.127-0.308-0.202-0.457
			c-0.195-0.392-0.348-0.801-0.528-1.199c-0.195-0.432-0.378-0.869-0.567-1.303c-0.092-0.211-0.206-0.418-0.263-0.645
			c-0.009-0.035-0.041-0.064-0.068-0.103c-3.324,0-6.649,0-9.987,0c-0.076,0.068-0.109,0.173-0.144,0.285
			c-0.053,0.167-0.134,0.326-0.206,0.487c-0.162,0.365-0.336,0.725-0.487,1.095c-0.134,0.327-0.293,0.643-0.425,0.97
			c-0.184,0.457-0.376,0.91-0.581,1.358c-0.155,0.338-0.309,0.677-0.455,1.018c-0.094,0.219-0.199,0.439-0.274,0.671
			c-0.07,0.22-0.185,0.425-0.284,0.636c-0.016,0.034-0.047,0.062-0.075,0.098c-0.247,0-0.495,0-0.769,0
			c0.028-0.097,0.046-0.195,0.084-0.284c0.088-0.205,0.187-0.405,0.278-0.609c0.087-0.195,0.18-0.389,0.25-0.59
			c0.071-0.202,0.169-0.393,0.249-0.591c0.093-0.23,0.209-0.456,0.308-0.687c0.157-0.367,0.327-0.729,0.464-1.105
			c0.057-0.156,0.133-0.307,0.203-0.458c0.165-0.354,0.306-0.718,0.462-1.075c0.194-0.443,0.364-0.896,0.597-1.321
			c-0.013-0.211,0.153-0.357,0.204-0.551c0.048-0.182,0.144-0.361,0.221-0.54c0.147-0.341,0.287-0.687,0.438-1.025
			c0.151-0.339,0.31-0.678,0.449-1.021c0.203-0.499,0.449-0.979,0.628-1.489c0.085-0.241,0.214-0.473,0.32-0.711
			c0.09-0.204,0.21-0.4,0.266-0.612c0.058-0.221,0.21-0.392,0.261-0.619c0.035-0.153,0.135-0.303,0.2-0.458
			c0.155-0.368,0.342-0.724,0.483-1.097c0.181-0.478,0.399-0.941,0.591-1.414c0.142-0.351,0.287-0.706,0.461-1.046
			c0.089-0.173,0.178-0.356,0.23-0.536c0.052-0.182,0.159-0.336,0.208-0.521C104.108,25.298,104.268,25.057,104.391,24.804z
			 M100.215,36.558c3.11,0,6.2,0,9.287,0c0.007-0.019,0.015-0.031,0.012-0.037c-0.206-0.437-0.372-0.891-0.566-1.334
			c-0.071-0.162-0.162-0.317-0.214-0.484c-0.099-0.321-0.242-0.626-0.376-0.93c-0.136-0.305-0.209-0.641-0.411-0.916
			c-0.03-0.237-0.163-0.435-0.244-0.653c-0.081-0.218-0.174-0.431-0.269-0.642c-0.168-0.373-0.31-0.757-0.474-1.131
			c-0.186-0.426-0.377-0.849-0.549-1.281c-0.151-0.38-0.314-0.755-0.476-1.129c-0.2-0.46-0.392-0.923-0.586-1.386
			c-0.083-0.197-0.194-0.379-0.245-0.593c-0.039-0.163-0.142-0.311-0.226-0.486c-0.036,0.041-0.056,0.058-0.068,0.08
			c-0.159,0.306-0.226,0.652-0.419,0.942c-0.004,0.17-0.15,0.29-0.174,0.438c-0.031,0.194-0.17,0.33-0.202,0.525
			c-0.029,0.176-0.155,0.335-0.229,0.506c-0.078,0.179-0.168,0.357-0.233,0.536c-0.129,0.36-0.291,0.705-0.44,1.055
			c-0.148,0.35-0.316,0.696-0.458,1.046c-0.174,0.43-0.374,0.85-0.529,1.289c-0.129,0.367-0.305,0.718-0.464,1.074
			c-0.072,0.161-0.178,0.312-0.225,0.479c-0.066,0.236-0.175,0.451-0.265,0.675c-0.094,0.233-0.186,0.466-0.285,0.696
			c-0.074,0.17-0.178,0.33-0.236,0.505c-0.113,0.336-0.27,0.652-0.394,0.983C100.237,36.437,100.23,36.492,100.215,36.558z"/>
		<path style="fill:#595A5A;" d="M88.288,24.809c4.18,0,8.35,0,12.529,0c0,0.214,0,0.422,0,0.658c-0.08,0-0.167,0-0.254,0
			c-1.78,0-3.559-0.001-5.339,0.002c-0.102,0-0.227-0.055-0.309,0.113c0,6.084,0,12.204,0,18.336c-0.238,0-0.466,0-0.707,0
			c0.004,0.005-0.004-0.002-0.009-0.01c-0.005-0.008-0.009-0.017-0.009-0.026c0-6.112,0-12.223,0-18.337
			c-0.047-0.028-0.085-0.063-0.129-0.074c-0.047-0.012-0.1-0.003-0.15-0.003c-1.78,0-3.559,0-5.339,0.001
			c-0.092,0-0.183,0.019-0.284,0.03C88.288,25.291,88.288,25.062,88.288,24.809z"/>
	</g>
</g>
</svg>
