<?xml version="1.0" encoding="iso-8859-1"?>
<!-- Generator: Adobe Illustrator 29.0.0, SVG Export Plug-In . SVG Version: 9.03 Build 54978)  -->
<svg version="1.1" id="&#x56FE;&#x5C42;_1" xmlns="http://www.w3.org/2000/svg" xmlns:xlink="http://www.w3.org/1999/xlink" x="0px"
	 y="0px" viewBox="0 0 200 100" style="enable-background:new 0 0 200 100;" xml:space="preserve">
<g>
	<path style="fill:#595A5A;" d="M42.081,52.477h10.303v9.208H31.641V24.952h10.44V52.477z"/>
	<path style="fill:#595A5A;" d="M65.699,32.563v15.864c0,3.606,0.852,6.158,4.847,6.158c3.995,0,4.847-2.552,4.847-6.158V32.563
		h9.694v17.805c0,9.375-6.339,12.259-14.541,12.259c-8.203,0-14.541-2.885-14.541-12.259V32.563H65.699z"/>
	<path style="fill:#595A5A;" d="M112.08,42.492c-1.438-1.109-3.143-1.997-5.007-1.997c-3.729,0-6.658,2.996-6.658,6.934
		c0,4.105,2.823,6.989,6.818,6.989c1.704,0,3.569-0.721,4.847-1.941v8.543c-2.131,1.109-4.474,1.609-6.818,1.609
		c-8.096,0-14.861-6.268-14.861-14.866c0-9.153,6.711-15.477,15.287-15.477c2.237,0,4.474,0.555,6.392,1.664V42.492z"/>
	<path style="fill:#595A5A;" d="M129.14,61.685h-9.694V41.549h-3.143v-8.321h3.143v-8.543h9.694v8.543h5.486v8.321h-5.486V61.685z"
		/>
	<path style="fill:#595A5A;" d="M168.359,61.464h-9.694v-3.162h-0.107c-1.704,2.829-5.06,4.105-8.256,4.105
		c-8.096,0-13.796-7.045-13.796-15.199s5.593-15.144,13.689-15.144c3.143,0,6.445,1.22,8.469,3.716v-2.774h9.694V61.464z
		 M146.521,47.263c0,3.606,2.29,6.379,6.232,6.379c3.942,0,6.232-2.774,6.232-6.379c0-3.495-2.291-6.435-6.232-6.435
		C148.811,40.828,146.521,43.768,146.521,47.263z"/>
	<rect x="31.641" y="66.271" style="fill:#595A5A;" width="136.718" height="9.044"/>
</g>
</svg>
