<?xml version="1.0" encoding="iso-8859-1"?>
<!-- Generator: Adobe Illustrator 29.0.0, SVG Export Plug-In . SVG Version: 9.03 Build 54978)  -->
<svg version="1.1" id="&#x56FE;&#x5C42;_1" xmlns="http://www.w3.org/2000/svg" xmlns:xlink="http://www.w3.org/1999/xlink" x="0px"
	 y="0px" viewBox="0 0 200 100" style="enable-background:new 0 0 200 100;" xml:space="preserve">
<g>
	<path style="fill:#595A5A;" d="M144.309,22.843c5.547-0.491,11.184,0.027,16.542,1.55c0.672,0.191,1.353,0.349,2.009,0.591
		c-0.008,0.715-0.3,1.377-0.511,2.047c-0.546,1.694-1.069,3.397-1.604,5.094c-0.71-0.445-1.321-1.024-2.007-1.501
		c-2.789-1.939-6.05-3.4-9.495-3.462c-2.617-0.118-5.206,0.703-7.445,2.018c-3.232,1.909-5.75,4.799-7.831,7.88
		c-1.969,3.022-3.57,6.282-4.767,9.684c-0.9,2.709-1.72,5.452-2.271,8.256c-0.351,1.64-0.659,3.295-0.78,4.972
		c-0.203,2.087-0.211,4.207,0.191,6.271c0.316,1.526,0.924,3.016,1.904,4.24c1.051,1.301,2.609,2.118,4.232,2.458
		c1.213,0.237,2.463,0.221,3.687,0.084c0.292-0.029,0.576-0.108,0.856-0.202c0.519-1.193,0.769-2.484,1.204-3.71
		c1.585-5.034,3.141-10.078,4.75-15.104c0.311-0.983,0.367-2.11-0.164-3.03c-0.486-0.924-1.436-1.432-2.298-1.947
		c6.995,0.046,13.992-0.006,20.987,0.025c-0.659,0.341-1.343,0.632-1.968,1.035c-1.129,0.719-2.001,1.821-2.476,3.071
		c-0.257,0.672-0.449,1.366-0.661,2.053c-1.577,4.982-3.124,9.971-4.704,14.951c-0.297,0.878-0.495,1.791-0.846,2.65
		c-0.14,0.387-0.543,0.556-0.883,0.729c-4.102,1.858-8.478,3.149-12.961,3.63c-3.078,0.262-6.216,0.238-9.238-0.459
		c-2.425-0.534-4.812-1.347-6.957-2.609c-2.449-1.498-4.326-3.826-5.477-6.436c-1.432-3.263-1.977-6.862-1.901-10.409
		c-0.013-2.531,0.364-5.045,0.862-7.521c1.207-5.261,3.389-10.373,6.819-14.578c3.957-4.759,9.166-8.529,15.039-10.54
		C138.787,23.718,141.527,23.094,144.309,22.843z"/>
	<g>
		<path style="fill:#595A5A;" d="M53.793,23.272c0.956-0.044,1.912-0.016,2.87-0.019c6.67-0.002,13.339,0.002,20.009-0.002
			c1.918,0.006,3.857,0.07,5.731,0.527c2.287,0.532,4.531,1.461,6.312,3.022c1.791,1.526,2.954,3.745,3.235,6.077
			c0.218,1.899,0.048,3.837-0.453,5.682c-1.116,4.523-3.492,8.82-7.114,11.809c-3.276,2.787-7.356,4.454-11.512,5.422
			c-3.651,0.756-7.399,1.067-11.124,0.859c-0.67-0.037-1.347-0.135-2.017-0.035c-0.345,0.824-0.556,1.694-0.831,2.544
			c-1.324,4.227-2.646,8.455-3.992,12.676c-0.162,0.535-0.343,1.075-0.376,1.639c-0.043,0.745,0.213,1.498,0.681,2.077
			c0.38,0.47,0.927,0.753,1.434,1.066c-1.847-0.07-3.695-0.024-5.542-0.037c-4.656,0.017-9.311-0.037-13.965,0.03
			c1.626-0.872,3.101-2.206,3.745-3.973c4.716-15.053,9.414-30.114,14.124-45.17c0.219-0.751,0.359-1.571,0.111-2.333
			C54.884,24.385,54.274,23.858,53.793,23.272z M68.938,27.474c-0.386,0.64-0.527,1.385-0.757,2.087
			c-2.128,6.809-4.278,13.613-6.412,20.42c-0.256,0.791-0.581,1.572-0.64,2.409c2.377,0.376,4.902,0.17,7.089-0.888
			c2.144-0.988,3.941-2.625,5.291-4.547c1.539-2.125,2.533-4.586,3.278-7.087c0.576-1.771,0.959-3.61,1.072-5.469
			c0.052-1.018,0.008-2.053-0.252-3.043c-0.359-1.289-1.188-2.488-2.388-3.122c-1.15-0.63-2.485-0.788-3.778-0.792
			C70.606,27.442,69.769,27.385,68.938,27.474z"/>
	</g>
	<g>
		<path style="fill:#595A5A;" d="M99.582,36.185c2.115-0.854,4.494-1.11,6.725-0.589c1.556,0.378,3.046,1.156,4.123,2.36
			c1.232,1.345,1.78,3.278,1.434,5.071c-0.306,1.82-1.361,3.417-2.627,4.721c-2.496,2.515-5.747,4.057-8.928,5.515
			c-0.405,0.172-0.804,0.362-1.177,0.596c-0.097,0.681,0.114,1.353,0.265,2.01c0.645,2.576,1.756,5.017,3.167,7.262
			c0.416,0.65,0.8,1.324,1.299,1.918c0.337-0.356,0.608-0.769,0.816-1.212c0.472-1.018,0.826-2.109,0.889-3.235
			c0.027-0.508-0.006-1.04-0.243-1.499c-0.233-0.453-0.576-0.835-0.867-1.25c1.323-0.06,2.649-0.005,3.973-0.022
			c0.892,0.005,1.791-0.06,2.679,0.065c-0.178,2.924-1.156,5.825-2.933,8.169c-0.572,0.827-1.318,1.513-1.912,2.323
			c0.567,0.78,1.343,1.372,2.072,1.993c3.238,2.606,6.881,4.71,10.764,6.193c-4.142,0.016-8.285-0.014-12.428,0.016
			c-0.548,0.022-1.091-0.135-1.526-0.468c-1.161-0.838-2.25-1.772-3.284-2.763c-0.272-0.262-0.573-0.488-0.891-0.688
			c-0.451,0.222-0.861,0.51-1.278,0.784c-1.304,0.869-2.712,1.572-4.148,2.196c-2.339,1.034-4.869,1.725-7.441,1.682
			c-2.212,0.024-4.448-0.419-6.425-1.431c-1.837-0.988-3.336-2.585-4.25-4.458c-0.797-1.636-1.04-3.494-0.929-5.296
			c0.095-1.448,0.373-2.906,1.013-4.218c1.034-2.122,2.711-3.884,4.651-5.206c2.031-1.397,4.308-2.393,6.625-3.213
			c0.823-0.314,1.686-0.519,2.477-0.912c0.092-0.505,0.075-1.02,0.067-1.529c-0.059-2.498,0.365-4.999,1.172-7.36
			c0.638-1.788,1.598-3.481,2.914-4.859C96.573,37.65,98.05,36.806,99.582,36.185z M102.326,38.783
			c-1.347,0.84-2.252,2.215-2.877,3.645c-1.026,2.38-1.358,5.05-1.032,7.616c0.418-0.178,0.831-0.372,1.196-0.646
			c1.734-1.315,3.322-2.839,4.591-4.615c0.848-1.197,1.591-2.546,1.734-4.03c0.062-0.762-0.078-1.675-0.764-2.13
			C104.302,38.09,103.162,38.263,102.326,38.783z M90.051,57.943c-1.923,1.251-3.741,2.812-4.794,4.89
			c-0.789,1.466-0.902,3.221-0.545,4.826c0.286,1.208,0.972,2.347,1.995,3.071c1.143,0.805,2.546,1.205,3.94,1.208
			c1.804,0.03,3.559-0.502,5.21-1.185c0.772-0.327,1.571-0.626,2.255-1.124c-0.348-0.68-0.84-1.269-1.243-1.914
			c-1.685-2.644-3.051-5.488-4.081-8.448c-0.265-0.753-0.424-1.536-0.672-2.292C91.339,57.065,90.694,57.543,90.051,57.943z"/>
	</g>
</g>
</svg>
