<?xml version="1.0" encoding="UTF-8"?>
<svg id="_图层_1" data-name="图层 1" xmlns="http://www.w3.org/2000/svg" xmlns:xlink="http://www.w3.org/1999/xlink" viewBox="0 0 200 100">
  <defs>
    <style>
      .cls-1 {
        fill: #595a5a;
      }

      .cls-2 {
        fill: url(#_未命名的渐变_53);
      }

      .cls-3 {
        fill: url(#_未命名的渐变_52);
      }
    </style>
    <linearGradient id="_未命名的渐变_53" data-name="未命名的渐变 53" x1="18.96" y1="43.9" x2="106.55" y2="43.9" gradientTransform="translate(-.07 -.02)" gradientUnits="userSpaceOnUse">
      <stop offset="0" stop-color="#202020"/>
      <stop offset=".35" stop-color="#3b3b3b" stop-opacity=".88"/>
      <stop offset=".71" stop-color="#8e8e8e" stop-opacity=".5"/>
      <stop offset="1" stop-color="#fff" stop-opacity="0"/>
    </linearGradient>
    <linearGradient id="_未命名的渐变_52" data-name="未命名的渐变 52" x1="19.21" y1="63.76" x2="91.18" y2="63.76" gradientUnits="userSpaceOnUse">
      <stop offset="0" stop-color="#000"/>
      <stop offset="1" stop-color="#fdfdfd" stop-opacity="0"/>
      <stop offset="1" stop-color="#fff" stop-opacity="0"/>
    </linearGradient>
  </defs>
  <g>
    <path class="cls-2" d="M33.94,21.63s-3.81,10.15-1.63,20.59c2.19,10.44,8.04,14.75,14.63,15.57,6.59.81,16.06-1.23,20.79-2.42,4.73-1.19,26.08-5.05,38.75-2.31,0,0-.38,4.13-1.38,7.42-.35,4.18-2.58,5.64-2.58,5.64,0,0-19.11-8.32-39.01-5.42-16.51,2.41-32.73,8.88-36.29-16.32,0,0-.5-1.06-6.43,9.32,0,0-9.33-9.49,13.13-32.07Z"/>
    <path class="cls-3" d="M25.4,49.15s2.23,12.8,12.8,16.24c10.57,3.44,31.48-9.04,52.98-1.32,0,0,.12,3.9-.71,7.19-.88,3.5-1.78,7.11-1.78,7.11,0,0-24.25-13.24-46.63-6.28-22.38,6.97-29.12-6.09-16.66-22.94Z"/>
  </g>
  <g>
    <path class="cls-1" d="M77.6,36.36v3.31h-13.3v-18.04h13.12v3.31h-8.62v3.78h8.22v3.31h-8.22v4.34h8.81Z"/>
    <path class="cls-1" d="M84.52,27.48v1.56c1.3-1.21,2.71-1.82,4.24-1.82,2.09,0,3.56.87,4.39,2.6,1.47-1.73,3.08-2.6,4.81-2.6,1.4,0,2.55.43,3.44,1.28s1.33,1.96,1.33,3.33v7.83h-3.83v-7.15c0-.86-.2-1.53-.6-2.01s-.95-.72-1.66-.72c-1.12,0-2.13.69-3.03,2.07v7.81h-3.82v-7.23c0-.85-.21-1.51-.64-1.96-.43-.46-.99-.69-1.7-.69-1.01,0-1.98.56-2.93,1.69v8.18h-3.83v-12.19h3.83Z"/>
    <path class="cls-1" d="M117.83,35.89v2.41c-1.46,1.07-3.27,1.6-5.44,1.6s-3.86-.58-5.14-1.73c-1.28-1.15-1.92-2.67-1.92-4.57s.6-3.39,1.81-4.59,2.74-1.8,4.61-1.8,3.42.63,4.62,1.89,1.76,2.95,1.68,5.07h-8.75c.08,1.11.47,1.96,1.17,2.55.71.6,1.65.89,2.84.89,1.44,0,2.94-.58,4.52-1.74ZM109.37,32.17h5.29c-.21-1.77-1.09-2.66-2.65-2.66s-2.46.89-2.65,2.66Z"/>
    <path class="cls-1" d="M124.47,27.48v3.49h.05c1.11-2.5,2.41-3.74,3.89-3.74.71,0,1.55.37,2.54,1.11l-1.06,3.4c-.95-.6-1.7-.9-2.27-.9-.89,0-1.63.55-2.24,1.65-.61,1.1-.91,1.74-.91,1.92v5.28h-3.83v-12.19h3.83Z"/>
    <path class="cls-1" d="M144.83,36.66v2.13c-1.27.74-2.47,1.11-3.59,1.11-1.21,0-1.92-.46-2.14-1.37-1.33.91-2.67,1.37-4.02,1.37-.95,0-1.75-.3-2.41-.9-.66-.6-.99-1.3-.99-2.09,0-1.06.34-1.92,1.03-2.57.68-.65,2.76-1.49,6.22-2.52.09-1.36-.62-2.04-2.12-2.04-1.63,0-3.12.68-4.49,2.04v-3.12c1.6-.99,3.36-1.48,5.28-1.48,3.44,0,5.16,1.24,5.16,3.71v5.56c0,.57.21.85.63.85.32,0,.8-.23,1.45-.68ZM138.91,36.71v-2.95c-1.28.45-2.16.85-2.64,1.21s-.72.81-.72,1.37c0,.35.12.66.36.91s.53.38.88.38c.72,0,1.43-.31,2.12-.92Z"/>
    <path class="cls-1" d="M150.33,21.63v18.04h-3.83v-18.04h3.83Z"/>
    <path class="cls-1" d="M165.85,21.63v18.04h-3.83v-.98c-.98.81-2.11,1.21-3.38,1.21-1.63,0-2.98-.6-4.07-1.81-1.09-1.21-1.63-2.72-1.63-4.54s.55-3.38,1.66-4.56c1.11-1.18,2.52-1.77,4.25-1.77,1.08,0,2.14.26,3.18.77v-6.37h3.83ZM162.01,36.33v-5.82c-.7-.47-1.41-.71-2.14-.71-.96,0-1.71.34-2.25,1.01-.54.67-.81,1.61-.81,2.83,0,1.12.27,2.02.8,2.69s1.24,1.01,2.13,1.01c.78,0,1.54-.34,2.27-1.01Z"/>
    <path class="cls-1" d="M180.89,35.89v2.41c-1.46,1.07-3.27,1.6-5.44,1.6s-3.86-.58-5.14-1.73-1.92-2.67-1.92-4.57.6-3.39,1.81-4.59c1.2-1.2,2.74-1.8,4.61-1.8s3.42.63,4.62,1.89,1.76,2.95,1.68,5.07h-8.75c.08,1.11.47,1.96,1.17,2.55.71.6,1.65.89,2.84.89,1.44,0,2.94-.58,4.52-1.74ZM172.43,32.17h5.29c-.21-1.77-1.09-2.66-2.65-2.66s-2.46.89-2.65,2.66Z"/>
    <path class="cls-1" d="M142.38,51.43v.9h-1.78v4.01h-1.22v-4.01h-1.78v-.9h4.78Z"/>
    <polygon class="cls-1" points="145.77 53.25 147.34 51.43 148.41 51.43 148.41 56.35 147.19 56.35 147.19 53.28 145.86 54.82 145.67 54.82 144.35 53.28 144.35 56.35 143.12 56.35 143.12 51.43 144.18 51.43 145.77 53.25"/>
    <g>
      <path class="cls-1" d="M73.55,48.49h2.95l-7.16,7.83,8.92,8.67h-3.22l-8.44-8.15v8.15h-2.36v-16.5h2.36v7.55l6.95-7.55Z"/>
      <path class="cls-1" d="M86.62,58.46v4.62c0,.37.13.56.38.56s.67-.19,1.22-.58v1.31c-.49.32-.88.53-1.18.64-.3.11-.6.17-.93.17-.92,0-1.47-.36-1.63-1.09-.91.71-1.89,1.06-2.92,1.06-.76,0-1.39-.25-1.89-.75-.5-.5-.76-1.13-.76-1.88,0-.69.25-1.3.74-1.84.49-.54,1.19-.97,2.1-1.28l2.75-.95v-.58c0-1.31-.65-1.96-1.96-1.96-1.17,0-2.32.61-3.43,1.82v-2.35c.83-.98,2.04-1.48,3.6-1.48,1.17,0,2.11.31,2.82.92.24.2.45.46.64.79.19.33.31.65.36.98.05.33.08.95.08,1.86ZM84.5,62.84v-3.23l-1.44.56c-.73.29-1.25.58-1.55.88-.3.3-.45.66-.45,1.1s.14.82.43,1.1c.29.28.66.43,1.12.43.69,0,1.32-.28,1.9-.84Z"/>
      <path class="cls-1" d="M90.16,48.49h2.15v16.5h-2.15v-16.5Z"/>
      <path class="cls-1" d="M102.25,58.46v4.62c0,.37.13.56.38.56s.67-.19,1.22-.58v1.31c-.49.32-.88.53-1.18.64-.3.11-.6.17-.93.17-.92,0-1.47-.36-1.63-1.09-.91.71-1.89,1.06-2.92,1.06-.76,0-1.39-.25-1.89-.75-.5-.5-.76-1.13-.76-1.88,0-.69.25-1.3.74-1.84.49-.54,1.19-.97,2.1-1.28l2.75-.95v-.58c0-1.31-.65-1.96-1.96-1.96-1.17,0-2.32.61-3.43,1.82v-2.35c.83-.98,2.04-1.48,3.6-1.48,1.17,0,2.11.31,2.82.92.24.2.45.46.64.79.19.33.31.65.36.98.05.33.08.95.08,1.86ZM100.13,62.84v-3.23l-1.44.56c-.73.29-1.25.58-1.55.88-.3.3-.45.66-.45,1.1s.14.82.43,1.1c.29.28.66.43,1.12.43.69,0,1.32-.28,1.9-.84Z"/>
      <path class="cls-1" d="M114.65,57.1v7.89h-2.16v-6.05c0-1.21-.16-2.05-.48-2.52s-.89-.71-1.69-.71c-.45,0-.86.1-1.23.31-.37.2-.8.57-1.28,1.09v7.89h-2.15v-10.87h2.15v1.43c1.09-1.09,2.17-1.64,3.21-1.64,1.38,0,2.45.65,3.2,1.96,1.15-1.32,2.35-1.98,3.6-1.98,1.06,0,1.92.39,2.6,1.16.68.77,1.02,1.95,1.02,3.53v6.41h-2.15v-6.44c0-.91-.19-1.6-.56-2.08-.37-.48-.9-.72-1.6-.72-.89,0-1.72.45-2.49,1.35Z"/>
      <path class="cls-1" d="M131.22,58.46v4.62c0,.37.13.56.38.56s.67-.19,1.22-.58v1.31c-.49.32-.88.53-1.18.64-.3.11-.6.17-.93.17-.92,0-1.46-.36-1.63-1.09-.91.71-1.89,1.06-2.92,1.06-.76,0-1.39-.25-1.89-.75-.5-.5-.76-1.13-.76-1.88,0-.69.25-1.3.74-1.84.49-.54,1.19-.97,2.1-1.28l2.75-.95v-.58c0-1.31-.65-1.96-1.96-1.96-1.17,0-2.32.61-3.43,1.82v-2.35c.83-.98,2.04-1.48,3.6-1.48,1.17,0,2.11.31,2.82.92.24.2.45.46.64.79.19.33.31.65.36.98.05.33.08.95.08,1.86ZM129.11,62.84v-3.23l-1.44.56c-.73.29-1.25.58-1.55.88-.3.3-.45.66-.45,1.1s.14.82.43,1.1c.29.28.66.43,1.12.43.69,0,1.32-.28,1.9-.84Z"/>
    </g>
  </g>
</svg>