<?xml version="1.0" encoding="UTF-8"?>
<svg id="_图层_1" data-name="图层 1" xmlns="http://www.w3.org/2000/svg" viewBox="0 0 200 100">
  <defs>
    <style>
      .cls-1 {
        fill: #595a5a;
      }
    </style>
  </defs>
  <g>
    <g>
      <path class="cls-1" d="M137.05,31.36c1.39,3.55.7,10.39.77,14.37-1.92-2.11-3.81-4.24-5.68-6.39-1.87-2.16-5.09-6.51-7.34-7.87-2.04-.02-4.09-.02-6.13,0-1.29,0-2.7.09-3.96-.11.39.34.74.59.79,1.14.17,2.02-3.66,6.19-4.73,8.02-.95-2.13-3.2-7.99-5.39-8.83-1.35-.51-3.1-.17-4.53-.29,3.45,2.42,6.65,7.17,7.38,11.35.27,1.54.45,4.36-.45,5.68-.07.1-.04.06-.17.13-.14.07-.26.15-.38.25.45.43,2.4.24,3.11.23.71-.01,1.42-.04,2.13-.09-1.17-1.79-1.02-4.26-.59-6.29.1-.48.24-.96.42-1.41.18-.46.4-.9.65-1.32.87-1.48,5.55-7.37,6.78-8.18.17-.11.45-.21.65-.15.41.11.64.39.83.75,1.27,2.39.78,12.78-.08,15.33-.15.45-.35.9-.57,1.32,1.46.06,2.9.04,4.36,0-.32-.54-.65-1.06-.83-1.67-.72-2.67-.59-10.45-.55-13.51,2.96,3.37,5.94,6.72,8.94,10.05,1.54,1.72,3.2,3.38,4.65,5.17.77.01,1.55,0,2.32.05.51-5.59-.75-12.35.96-17.66-1.09.06-2.24.11-3.32-.05Z"/>
      <path class="cls-1" d="M155.67,31.39c-1.44.12-3.15.17-4.59,0,0,.05,0,.09.01.14.02.23.17.42.3.61.07,2.19-4.68,9.89-6.1,11.97-.86,1.26-1.78,2.48-2.82,3.6-.49.53-1.02,1.02-1.59,1.46,1.68-.18,3.44.04,5.09-.24,0-.2-.03-.29-.1-.48-.28-.73.29-2.03.61-2.72.68-1.44,1.52-2.81,2.24-4.23h5.57s2.54-.03,2.54-.03c1.32,2.5,2.38,5.13,3.66,7.65,1.35-.16,2.84-.14,4.2-.08-3.02-2.99-5.52-9.22-7.23-13.15-.63-1.45-1.41-2.98-1.79-4.5ZM152.77,40.42l-3.52.03c1.41-2.2,2.58-4.58,3.84-6.87.14.13,2.96,6.18,3.3,6.86l-3.62-.02Z"/>
      <path class="cls-1" d="M98.79,41.25c-.72-.63-1.59-1.13-2.45-1.55-1.47-.72-6.49-2.41-6.55-4.33-.02-.6.31-1.33.74-1.73,1.12-1.02,3.2-1.16,4.63-1.08.62.04,1.3.1,1.88.32.68.25,1.77,1.25,2.47,1.03l-.05-.13c-.27-.8-.19-1.59-.13-2.41-2.17-.13-4.56-.36-6.71-.12-1.88.15-4.05.67-5.33,2.17-.83.97-.9,1.82-.9,3.05.55,1.03,1.11,1.69,2.06,2.37.81.59,1.72,1.08,2.63,1.5,1.98.91,6.44,2.31,5.5,5.3-.26.81-.99,1.38-1.73,1.74-1.77.87-3.86.83-5.69.18-1.46-.51-2.57-1.36-3.58-2.51.04,1.15.05,2.31.05,3.46,2.1.27,4.15.76,6.28.78,2.69-.07,5.18-.46,7.14-2.53.75-.8,1.2-1.82,1.14-2.93-.06-1.05-.64-1.91-1.42-2.59Z"/>
    </g>
    <g>
      <path class="cls-1" d="M122.98,59.46c-2.58-2.16-6.55-2.43-9.77-2.18-2.92.23-5.92,1.08-7.88,3.4-1.66,1.97-1.99,4.73-1.76,7.22.19,2.08.98,3.87,2.61,5.22,2.46,2.03,6.16,2.41,9.24,2.15,3.1-.23,5.98-1.13,8.09-3.57,1.63-1.88,2.2-4.37,2.01-6.8-.16-2.14-.87-4.04-2.54-5.45ZM120.1,71.92c-1.41,1.49-3.2,2-5.21,2.05-1.73,0-3.51-.5-4.89-1.57-1.66-1.29-2.6-3.22-2.83-5.29-.23-2.13.09-4.31,1.47-6.02,1.47-1.83,3.12-2.22,5.32-2.47.07,0,.13-.01.2-.01,1.92-.07,3.79.35,5.24,1.67,1.66,1.51,2.48,3.77,2.55,5.97.07,2.07-.41,4.13-1.87,5.67Z"/>
      <path class="cls-1" d="M96.57,68.19c-.68-.73-1.38-1.55-2.17-2.16,1.91-.62,3.98-1.56,4.95-3.43.42-.82.71-1.92.4-2.83-.29-.85-1.04-1.42-1.83-1.79-2.26-1.06-5.85-.76-8.3-.57-.89.07-3.28-.17-3.98.13.01.26.06.36.2.58.7,1.19.71,13.89.24,15.68-.08.31-.26.5-.48.72l.05.26c1.08.62,3.5.17,4.79.25-.71-1.53-1.4-6.2-.81-7.83.07-.19.18-.33.32-.47.45-.15.72-.17,1.16.05,1.56.78,4.73,4.61,6.06,6.12,1.05,1.13,1.73,2.06,3.38,2.13.78.03,2.74.15,3.39-.24-3.08-1.57-5.06-4.13-7.35-6.63ZM89.53,65.52c0-2.05-.27-4.83.33-6.77.3-.08.57-.11.88-.12.96-.11,1.94-.11,2.89.12.93.23,1.89.72,2.4,1.57.05.08.09.16.13.25.04.09.08.17.11.26.03.09.06.18.08.27.02.09.04.18.05.28.01.09.02.19.02.28,0,.09,0,.19,0,.28,0,.09-.02.19-.03.28-.02.09-.04.19-.06.28-.3,1.05-1.15,1.81-2.06,2.34-1.53.72-3.1.68-4.74.68Z"/>
      <path class="cls-1" d="M152.37,73.76c-.31-.79-.51-1.69-.68-2.51-.39-1.94-.53-7.85-.37-9.94.1-1.29.28-2.54.77-3.74-.11-.06-.19-.12-.31-.15-1.37.18-2.77.03-4.14.17-.38,1.25-6.86,12.96-7.48,13.48.02-.21,0-.38-.07-.58-.47-1.22-5.74-12.14-6.26-12.75-.09-.1-.18-.17-.29-.24-1.62-.03-3.23-.04-4.85-.04.56.4.94.69,1.06,1.41.4,2.4,0,10.2-.46,12.71-.18.99-.45,2.17-1.06,2.99-.15.2-.31.38-.51.52,1.02-.03,2.04-.09,3.06-.08.44,0,.89.14,1.32.08-.24-.58-.52-1.19-.62-1.81-.47-2.72-.06-7.84-.09-10.83,0-.77.1-1.9-.19-2.63l.4.1c1.99,3.66,3.75,7.5,5.65,11.22.72,1.42,1.39,2.93,2.24,4.27h.08c1.56-2.91,3.14-5.8,4.73-8.68,1.09-1.95,2.35-3.92,3.26-5.96.22-.49.37-.92.38-1.46.13.17.25.35.29.56.31,1.74.14,4.73.17,6.57.03,2.06.3,4.31.07,6.36-.06.58-.74,1.58-.5,2.03.63.47,4.02.18,4.94.16,0-.04-.01-.08-.02-.13-.07-.38-.4-.74-.54-1.11Z"/>
      <path class="cls-1" d="M170.65,71.83c-.52.88-1.87,1.37-2.81,1.61-2.4.62-4.89.36-7.34.43.13-1,0-6.62-.46-7.32,2.57-.01,7.08.39,9.11-1.47.09-.08.13-.16.18-.26-3.07.08-6.07.41-9.15.2.26-.68.51-5.52.22-6.19-.01-.03-.02-.05-.04-.07,0-.02-.02-.04-.03-.07,2.16-.02,4.46-.14,6.6.25.79.14,1.26.31,1.72,1l.08.13.22.03c.19-.71.05-1.88-.16-2.57-2.39-.3-4.91-.08-7.31-.03-.94-.02-4.44-.34-4.97.17-.05,1.04.5,2.2.59,3.28.24,2.95.16,6.08.08,9.04-.03,1.14-.07,2.36-.29,3.47-.1.5-.6,1.15-.51,1.59,4.53-.03,9.12.19,13.64-.12.43-.64.71-2.33.63-3.1Z"/>
    </g>
  </g>
  <g>
    <path class="cls-1" d="M63.04,63.89c.09-3.42-.01-6.89-.06-10.31-.1-7.73-.06-15.63-5.78-21.58-2.43-2.53-6.05-4.09-9.55-4.17l-.04.18c.82.45.8.54,1.16,1.38.42.06.84.14,1.25.24.41.1.82.22,1.22.37.4.14.79.3,1.18.49.38.18.76.38,1.12.6.36.22.72.45,1.06.71.34.25.67.52.98.81.31.29.61.59.9.9.28.32.55.65.8.99,4.07,5.47,4.14,11.84,4.22,18.37.04,3.12.08,6.24.06,9.36l-.15.27c-2.14.9-4.21,2-6.24,3.11.05-.66.23-1.17-.11-1.75-.95-.38-2.72.82-3.7,1.22.3-1.59.37-3.16.03-4.74,1.76.21,3.67.54,5.43.27.53-.08,1.19-.27,1.49-.74.2-.32.18-.39.09-.75-.2-.2-.72-.68-.72-1,0-.48.21-1.12.27-1.61.11-.82.08-1.66.05-2.48.58-.15,1.17-.26,1.68-.61.17-1.69-1.25-3.15-1.67-4.73-.15-.58.16-3.09.05-4.22-2.56.11-5.01.89-7.5,1.44-1.7.37-3.44.62-5.11,1.14-.15.43-.33.73-.24,1.19.44,0,.83-.14,1.25-.27,1.7-.51,3.5-.8,5.22-1.23.55.32.28,1.09.84,1.3.63.24,1.97-.53,2.7-.2,0,.42-.13.66-.33,1.03.08.35.15.68.17,1.04-.77.71-2.32-.13-3.16,1.01-1.2,1.64-2.48,12.04-2.83,12.36-.22.2-.79.16-1.06.16-.21.24-.28.26-.28.59.28.16.56.29.86.41v.3c-.46.25-.95.3-1.05.87-.04.2-.03.42-.02.62-.31.41-.67.54-1.13.72l-.31-.08-.07-.33c.12-.18.41-.52.48-.71.08-.24.02-2.91-.02-3.23-.04-.1-.05-.13-.13-.22-.35-.38-.77-.37-1.24-.43-.47,1.25-1.05,2.15-1.97,3.11.28-3.18.44-4.86-.47-8,.43-.98.92-1.61,1.65-2.37-.43-.21-.66-.03-1.03-.4-.1-.49.09-.81.29-1.24-.21-.74-.73-1.35-.9-2.09-.38-1.71.75-3.58.73-5.28,0-.94-1.3-.76-.73-1.98,1.59-1.03,2.72-3.58,3.32-3.87.57-.27,1.51.05,2.17-.13-.06-.52-.74-.6-.77-1.13.44-.25.82-.2,1.31-.16.99-.55,1.71-1.44,2.65-2.07.5.19,1.32.69,1.8.58l.16-.21c-.07-.48-.25-.67-.63-.96-2.14-1.64-5.16-1.95-7.74-1.53-2.44.4-5.22,2.11-6.67,4.1-1.47,2.01-2.13,4.87-1.72,7.33.39,2.38,1.91,3.96,3.57,5.56-.31,1.12-.52,2.5-1.02,3.54.14-.94.2-1.98.5-2.89-1.56-1.87-2.3-3.06-3.54-5.09-.07,1.63-.24,16.24.05,17.08.03.09.26.29.33.37l.34.04c.31-.28.57-.58.82-.91l.21.05c-.03.42-.09.8-.18,1.21.31.46.62.6,1.17.71.87.17,2.65-.14,3.1.02-.19.3-.32.3-.66.38-2.27.49-4.26-.19-6.13-1.43-.24-.16-.47-.32-.7-.48-.97.58-1.83,1.14-2.65,1.92-.36.48-.67.78-.64,1.4.25,1.7.77,3.33,1.34,4.95,0-1.69-.25-3.1-.78-4.7,1.63-.19,3.3-.16,4.94-.18,1.29,3.03,1.61,5.25,4.17,7.65,2.84,2.66,6.86,4.18,10.75,4.01,3.14-.13,5.9-1.46,7.99-3.81,2.37-2.66,3.52-6.34,3.35-9.85.24-.37.17-.86.18-1.3ZM42.13,68.95c.17-.06.34-.11.51-.13.63-.08,3.11-.04,3.55.33l-.12.74c.17.38.45.53.84.69,2.55,1.02,6.62-1.14,8.97-2.19l.09.11h0s-.42.31-.42.31h.2c-.98.83-2.17,1.59-3.41,1.94-3.62,1.02-7.11.48-10.36-1.35,0-.18.06-.28.14-.45ZM57.05,71.51c-1.23,1.12-2.57,2.07-4.14,2.65-2.75,1-6.49.92-9.15-.35-1.11-.53-3.32-2.03-3.74-3.22,1.26.26,3.54,2.35,6.07,2.83,3.02.58,6.59,0,9.34-1.39.56-.28,1.33-.97,1.93-.98l-.3.46Z"/>
    <path class="cls-1" d="M58.12,43.93c.48,0,.79.04,1.21-.21.61-1.45-.15-3.66-.35-5.2-.65.26-1.73.55-2.16,1.1-.46.04-.95.08-1.38.26-1.57.67-3.05,1.77-4.58,2.57-1.8.95-4.16,1.72-5.77,2.94-.09.3-.16.56-.18.87,3.16-.22,9.04-3.69,11.44-5.63.62.99.72,2.75,1.76,3.31Z"/>
    <path class="cls-1" d="M30.37,47.03c.26-.46.04-1.07.09-1.6.06-.62.26-.86.73-1.23.03-.2.06-.4.09-.6.85-5.03,3.41-9.7,7.58-12.68.99-.61,2.06-.97,3.16-1.31.59-.34,1.17-.63,1.41-1.29l-.26-.21c-1.72.4-3.54.92-5.03,1.9-3.72,2.02-6.5,6.11-7.67,10.11-.29,1.01-.5,2.04-.65,3.09-.14,1.04-.22,2.09-.22,3.15.21-.29.42-.59.63-.88.24.39-.03,1.07.13,1.56Z"/>
    <path class="cls-1" d="M30.8,51.1c.07-2.31.2-4.61.38-6.91-.46.37-.67.61-.73,1.23-.05.53.17,1.14-.09,1.6-.16-.49.11-1.17-.13-1.56-.21.29-.42.58-.63.88-.35,2.83-.43,11.01.18,13.64.15,2.37.76,4.84,1.32,7.14-.03-.62.29-.92.64-1.4-.85-1.32-.92-12.4-.95-14.63Z"/>
    <path class="cls-1" d="M45.1,61.96c.47.06.89.05,1.24.43.08.09.09.12.13.22.25-.53.41-1.02.47-1.61.23-2.43-.13-4.96-.26-7.4-.1-1.88-.06-3.76-.21-5.64-.42.13-.81.27-1.25.27-.09-.46.08-.76.24-1.19l-.32-.09c-.87,4.31.83,10.73-.03,15Z"/>
    <path class="cls-1" d="M42.02,29.61c2.27-.29,4.47-.3,6.76-.23-.36-.84-.34-.93-1.16-1.38l.04-.18c-1.32-.28-3.19-.07-4.48.29l.26.21c-.23.66-.82.95-1.41,1.29Z"/>
  </g>
</svg>