<?xml version="1.0" encoding="iso-8859-1"?>
<!-- Generator: Adobe Illustrator 29.0.0, SVG Export Plug-In . SVG Version: 9.03 Build 54978)  -->
<svg version="1.1" id="&#x56FE;&#x5C42;_1" xmlns="http://www.w3.org/2000/svg" xmlns:xlink="http://www.w3.org/1999/xlink" x="0px"
	 y="0px" viewBox="0 0 200 100" style="enable-background:new 0 0 200 100;" xml:space="preserve">
<g>
	<path style="fill:#595A5A;" d="M118.43,33.894c0,0.431,0,0.863,0,1.294c-0.06,0.127-0.16,0.25-0.175,0.382
		c-0.532,4.807-2.707,8.819-6.255,11.985c-4.097,3.655-9.033,5.041-14.466,4.338C87.142,50.547,80.07,40.918,81.843,30.564
		c1.536-8.976,9.671-16.397,20.407-15.064c7.538,0.936,12.621,5.376,15.178,12.564c0.441,1.239,0.604,2.576,0.892,3.852
		c-0.262,0.077-0.32,0.109-0.378,0.109c-2.68,0.009-5.363-0.051-8.04,0.049c-1.349,0.05-2.417-0.028-2.565-1.678
		c-0.005-0.058-0.047-0.113-0.073-0.169c-1.518-3.304-5.341-5.306-8.827-4.622c-3.935,0.771-6.72,4.032-6.794,7.956
		c-0.095,4.969,4.333,8.932,9.303,8.262c2.438-0.329,4.418-1.465,5.627-3.699c0.853-1.578,0.262-2.978-1.451-3.432
		c-0.56-0.148-1.149-0.222-1.729-0.248c-1.969-0.089-3.939-0.137-5.909-0.214c-0.387-0.015-0.773-0.088-1.159-0.135
		c0.009-0.081,0.019-0.161,0.028-0.242c0.396,0,0.793,0,1.189,0c4.067,0.002,8.134-0.001,12.2,0.006
		C112.639,33.864,115.534,33.882,118.43,33.894z"/>
	<path style="fill:#595A5A;" d="M46.343,69.653v1.08c0,7.307-4.748,13.78-13.402,13.78c-8.575,0-14.358-6.967-14.358-14.869
		c0-8.279,6.043-14.796,14.396-14.796c4.501,0,8.834,1.919,11.726,5.554l-2.502,2.415c-2.077-2.847-5.657-4.721-9.157-4.721
		c-6.407,0-10.688,5.033-10.688,11.434c0,6.143,3.949,11.681,10.808,11.681c5.5,0,8.995-4.055,9.253-8.478h-7.866v-3.08H46.343
		L46.343,69.653z M54.47,57.999c0-1.356-1.087-2.444-2.407-2.444c-1.32,0-2.409,1.088-2.409,2.444c0,1.321,1.089,2.37,2.409,2.37
		C53.383,60.369,54.47,59.321,54.47,57.999L54.47,57.999z M53.81,83.919V65.745h-3.494v18.174H53.81L53.81,83.919z M65.563,77.422
		l-5.204-11.677h-4.064l9.212,18.911l9.194-18.911h-3.895L65.563,77.422L65.563,77.422z M156.496,81.209h-0.14
		c-1.192,1.901-3.475,3.209-6.226,3.209c-5.554,0-8.866-4.317-8.866-9.674c0-4.97,3.579-9.388,8.862-9.388
		c2.596,0,4.814,1.074,6.23,3.224h0.14v-2.835h3.243v18.174h-3.243V81.209L156.496,81.209z M150.561,81.436
		c3.88,0,5.903-3.029,5.903-6.604c0-3.534-2.063-6.524-5.903-6.524c-3.613,0-5.744,3.15-5.744,6.524
		C144.817,78.25,146.871,81.436,150.561,81.436L150.561,81.436z M90.824,81.209h-0.141c-1.193,1.901-3.476,3.209-6.224,3.209
		c-5.555,0-8.87-4.317-8.87-9.674c0-4.97,3.582-9.388,8.866-9.388c2.593,0,4.812,1.074,6.229,3.224h0.141v-2.835h3.244v18.174
		h-3.244V81.209L90.824,81.209z M84.887,81.436c3.883,0,5.905-3.029,5.905-6.604c0-3.534-2.062-6.524-5.905-6.524
		c-3.609,0-5.747,3.15-5.747,6.524C79.14,78.25,81.2,81.436,84.887,81.436L84.887,81.436z M127.775,81.436
		c3.875,0,5.904-3.029,5.904-6.604c0-3.534-2.065-6.524-5.904-6.524c-3.616,0-5.751,3.15-5.751,6.524
		C122.024,78.399,123.859,81.436,127.775,81.436L127.775,81.436z M133.625,81.234h-0.143c-1.131,1.899-3.654,3.184-6.224,3.184
		c-5.556,0-8.787-4.281-8.787-9.561c0-5.118,3.571-9.5,8.786-9.5c2.584,0,4.869,1.137,6.225,3.224h0.143V51.948h3.352v31.971h-3.352
		V81.234L133.625,81.234z M102.672,65.745h-3.551V76.52c0,0.785,0.052,1.638,0.154,2.221c0.646,3.663,3.515,5.803,7.592,5.803
		c4.079,0,6.948-2.14,7.596-5.808c0.098-0.578,0.153-1.433,0.153-2.216V65.745h-3.554v10.999c0,2.805-1.149,4.788-4.194,4.788
		c-3.047,0-4.194-1.983-4.194-4.788V65.745L102.672,65.745z M169.416,68.086v-2.341h-3.494v18.174h3.494V74.5
		c0-0.922,0.045-1.968,0.185-2.742c0.381-2.124,2.196-3.572,4.5-3.572c2.302,0,3.609,1.218,3.789,3.49
		c0.042,0.476,0.036,0.891,0.036,1.295v10.948h3.492V72.192c0-0.76-0.045-1.712-0.199-2.362c-0.654-2.724-2.748-4.543-6.331-4.543
		c-2.215,0-4.408,1.239-5.354,2.799H169.416L169.416,68.086z"/>
</g>
</svg>
