<?xml version="1.0" encoding="iso-8859-1"?>
<!-- Generator: Adobe Illustrator 29.0.0, SVG Export Plug-In . SVG Version: 9.03 Build 54978)  -->
<svg version="1.1" id="&#x56FE;&#x5C42;_1" xmlns="http://www.w3.org/2000/svg" xmlns:xlink="http://www.w3.org/1999/xlink" x="0px"
	 y="0px" viewBox="0 0 200 100" style="enable-background:new 0 0 200 100;" xml:space="preserve">
<g>
	<path style="fill-rule:evenodd;clip-rule:evenodd;fill:#595A5A;" d="M-155.856,42.259c-0.171,4.496-0.293,21.019-0.18,32.181
		c0.004,0.383,0.013,0.76,0.013,1.128l-0.021,9.398l16.25-0.101l0.03-25.456l12.274-0.036l0.023-16.127l-12.202-0.064
		c-0.004-7.289,5.302-11.418,12.195-12.131l0.078-16.049C-143.49,14.859-155.274,26.933-155.856,42.259z"/>
	<path style="fill-rule:evenodd;clip-rule:evenodd;fill:#595A5A;" d="M-196.309,42.293c-0.171,4.496-0.293,21.019-0.18,32.181
		c0.004,0.383,0.013,0.76,0.013,1.128L-196.497,85l16.249-0.101l0.03-25.456l12.274-0.036l0.023-16.127l-12.202-0.064
		c-0.004-7.289,5.302-11.418,12.195-12.131l0.078-16.049C-183.942,14.893-195.726,26.967-196.309,42.293z"/>
	<path style="fill-rule:evenodd;clip-rule:evenodd;fill:#595A5A;" d="M-224.604,84.797l16.163,0.171l-0.037-41.717l-12.119-0.006
		c0.052-8.227,6.12-11.419,12.172-12.155l-0.024-13.044l-16.111-0.016L-224.604,84.797z"/>
</g>
<g>
	<path style="fill:#595A5A;" d="M-147.947,144.947c1.555-2.883,4.526-4.992,7.792-5.383c1.231-0.18,2.495-0.121,3.706,0.169
		c1.382,0.306,2.679,0.939,3.838,1.744c0.36,0.301,0.726,0.598,1.059,0.933c0.15,0.182,0.344,0.306,0.586,0.341
		c0.063-0.092,0.189-0.272,0.252-0.362c0.854-0.818,1.843-1.476,2.904-1.996c0.47-0.189,0.948-0.36,1.427-0.531
		c3.394-0.969,7.266-0.124,9.862,2.292c0.93,0.84,1.699,1.85,2.285,2.958c0.274,0.582,0.515,1.18,0.719,1.791
		c0.016,0.465,0.472,1.011,0.123,1.411c0.243-0.009,0.22-0.294,0.276-0.467c0.587-3.265,2.92-6.14,5.949-7.468
		c3.081-1.436,6.861-1.148,9.731,0.658c1.11,0.668,2.03,1.605,2.856,2.596c0.458,0.703,0.919,1.405,1.256,2.178
		c1.049,2.582,1.09,5.574-0.011,8.147c-0.942,2.254-2.704,4.158-4.886,5.263c-0.144,0.067-0.283,0.133-0.416,0.204
		c-0.632,0.267-1.276,0.512-1.946,0.649c-1.721,0.418-3.528,0.319-5.232-0.119c-0.54-0.182-1.076-0.377-1.591-0.616
		c-1.865-0.894-3.436-2.369-4.499-4.137c-0.128-0.24-0.25-0.481-0.368-0.724c-0.458-0.953-0.793-1.967-0.926-3.018
		c-0.177,1.362-0.749,2.618-1.333,3.845c-0.04,0.016-0.119,0.049-0.159,0.065c-0.559,1.166-1.553,2.076-2.544,2.879
		c-0.204,0.15-0.407,0.295-0.607,0.443c-0.386,0.22-0.773,0.436-1.162,0.643c-2.497,1.18-5.464,1.342-8.055,0.369
		c-0.252-0.095-0.497-0.195-0.744-0.285c-1.193-0.596-2.339-1.344-3.218-2.358c-0.647,0.234-0.998,0.922-1.591,1.265
		c-0.564,0.423-1.189,0.748-1.809,1.074c-0.259,0.097-0.513,0.196-0.766,0.29c-0.178,0.063-0.355,0.126-0.526,0.189
		c-1.694,0.531-3.519,0.587-5.255,0.247c-0.42-0.121-0.838-0.232-1.254-0.353c-0.958-0.38-1.874-0.854-2.72-1.441
		c-1.317-1.038-2.49-2.317-3.178-3.863c-1.204-2.371-1.351-5.198-0.596-7.729c0.124-0.308,0.238-0.62,0.351-0.933
		C-148.232,145.518-148.091,145.231-147.947,144.947z"/>
	<g>
		<path style="fill:#595A5A;" d="M-253.448,172.725c1.915-1.218,4.257-0.949,6.414-1.014c0.16,1.445,0.054,2.91,0.014,4.36
			c-1.171,0.049-2.576-0.267-3.493,0.661c-1.022,1.05-0.557,2.647-0.65,3.956c1.376-0.002,2.753,0.022,4.129-0.011
			c0.166,1.411,0.031,2.832,0.016,4.247c-0.411,0.049-0.823,0.072-1.234,0.036c-0.971-0.094-1.944,0.065-2.915,0.014
			c-0.004,5.182-0.013,10.363,0.004,15.547c-1.704-0.004-3.407-0.005-5.11,0.002c-0.027-5.176-0.023-10.354-0.002-15.53
			c-1.027-0.029-2.054-0.027-3.079,0c-0.214-1.416-0.018-2.859-0.119-4.288c1.063-0.02,2.126-0.018,3.191-0.002
			c0-1.299-0.047-2.602,0.081-3.897C-255.837,175.164-254.954,173.571-253.448,172.725z"/>
		<path style="fill:#595A5A;" d="M-244.438,172.89c1.274-1.522,3.931-1.555,5.203-0.013c0.717,0.834,0.818,2.077,0.346,3.054
			c-0.955,1.982-3.973,2.29-5.407,0.677c-0.041-0.09-0.126-0.268-0.168-0.359c-0.047-0.009-0.141-0.029-0.187-0.038
			C-245.074,175.146-245.16,173.851-244.438,172.89z"/>
		<path style="fill:#595A5A;" d="M-141.839,172.98c0.922-1.198,2.648-1.521,4.025-0.996c0.701,0.263,1.268,0.786,1.62,1.445
			c0.398,0.906,0.317,1.987-0.218,2.821c-0.436,0.757-1.272,1.124-2.072,1.358c-0.504,0.038-1.007,0.027-1.506-0.011
			c-0.607-0.252-1.249-0.51-1.677-1.029c-0.386-0.425-0.53-0.991-0.688-1.524C-142.381,174.319-142.206,173.606-141.839,172.98z"/>
		<path style="fill:#595A5A;" d="M-111.16,173.964c0.005-0.749-0.049-1.501,0.081-2.243c1.692,0.032,3.384,0.011,5.077,0.011
			c0.031,3.937-0.002,7.875,0.018,11.812c0.713-0.823,1.42-1.668,2.36-2.25c1.501-0.908,3.306-1.315,5.046-1.016
			c1.685,0.169,3.313,0.996,4.342,2.358c0.285,0.441,0.548,0.897,0.787,1.367c0.697,1.728,0.919,3.6,0.915,5.45
			c0.007,3.688,0.007,7.376,0,11.064c-1.713-0.004-3.427,0.016-5.138-0.011c0-3.926,0.032-7.852-0.02-11.776
			c-0.034-1.454-0.47-3.149-1.888-3.843c-0.98-0.371-2.047-0.297-3.068-0.202c-0.313,0.137-0.627,0.272-0.942,0.395
			c-1.211,0.769-2.029,2.065-2.239,3.479c-0.24,1.119-0.15,2.266-0.16,3.402c-0.005,2.854,0.011,5.708-0.009,8.561
			c-1.697,0.002-3.394-0.023-5.091,0.013c-0.162-1.164-0.029-2.346-0.07-3.519C-111.16,189.332-111.162,181.648-111.16,173.964z"/>
		<path style="fill:#595A5A;" d="M-215.842,182.929c1.841-2.241,5.021-3.211,7.823-2.517c0.67,0.25,1.326,0.533,1.955,0.877
			c0.315,0.24,0.623,0.488,0.94,0.724c0.463,0.456,0.93,0.93,1.207,1.528c0.067,0.022,0.2,0.065,0.267,0.088
			c2.218-3.447,7.311-4.446,10.772-2.34c0.371,0.285,0.733,0.586,1.09,0.892c0.661,0.703,1.207,1.506,1.598,2.389
			c1.142,2.614,0.865,5.522,0.897,8.297c0.009,2.549-0.022,5.099,0.016,7.648c-1.726,0.011-3.454-0.004-5.18,0.005
			c-0.011-2.726-0.002-5.452-0.004-8.178c-0.022-1.324,0.054-2.654-0.067-3.974c-0.247-1.151-0.627-2.36-1.567-3.137
			c-0.474-0.423-1.11-0.548-1.704-0.703c-0.818,0.034-1.627,0.189-2.369,0.542c-0.25,0.18-0.495,0.366-0.735,0.557
			c-0.288,0.315-0.568,0.638-0.827,0.975c-0.35,0.677-0.636,1.396-0.717,2.158l-0.077,0.133c-0.144,3.87-0.032,7.745-0.063,11.617
			c-1.726,0.007-3.45,0.016-5.174-0.002c0.036-3.266,0.005-6.535,0.016-9.801c0.043-1.845-0.043-3.971-1.477-5.327
			c-1.031-1.009-2.634-0.964-3.901-0.477c-0.98,0.499-1.793,1.328-2.198,2.358c-0.359,0.867-0.512,1.8-0.555,2.733
			c-0.011,3.51,0.011,7.021-0.011,10.531c-1.701-0.011-3.402-0.014-5.1,0.002c-0.054-6.61-0.011-13.222-0.023-19.833
			c1.632,0.004,3.265-0.036,4.897,0.023c-0.043,0.881,0.002,1.764-0.074,2.643c0.029-0.063,0.086-0.191,0.115-0.256
			C-216.015,183.063-215.9,182.974-215.842,182.929z"/>
		<g>
			<path style="fill:#595A5A;" d="M-181.236,181.3c2.951-1.431,6.565-1.517,9.542-0.108c2.711,1.24,4.684,3.897,5.173,6.828
				c0.247,1.267,0.195,2.571-0.045,3.834c-4.974-0.002-9.951-0.043-14.925,0.022c0.141,0.768,0.241,1.56,0.638,2.25
				c0.479,0.986,1.321,1.757,2.308,2.22c2.03,0.883,4.726,0.477,6.025-1.436c0.126-0.231,0.245-0.47,0.425-0.667
				c1.697-0.065,3.403-0.009,5.104-0.025c-0.692,2.928-3.063,5.324-5.9,6.259c-0.186,0.054-0.368,0.11-0.546,0.171
				c-2.014,0.49-4.149,0.47-6.147-0.088c-2.566-0.722-4.843-2.551-5.938-5c-1.175-2.513-1.31-5.437-0.595-8.1
				C-185.441,184.852-183.67,182.508-181.236,181.3z M-180.836,186.956c-0.225,0.531-0.45,1.074-0.512,1.654
				c3.261,0.002,6.524-0.018,9.785,0.009c-0.036-0.654-0.232-1.279-0.47-1.885c-0.211-0.324-0.443-0.631-0.686-0.93
				C-174.942,183.45-179.346,184.082-180.836,186.956z"/>
		</g>
		<path style="fill:#595A5A;" d="M-156.191,181.162c1.576-0.885,3.456-1.176,5.23-0.849c1.654,0.202,3.241,1.067,4.207,2.441
			c1.24,1.722,1.585,3.901,1.658,5.974c0.027,3.931,0.014,7.862,0.007,11.792c-1.721-0.007-3.441,0.007-5.162-0.011
			c-0.009-2.966-0.002-5.933-0.004-8.898c-0.02-1.56,0.141-3.182-0.463-4.664c-0.396-0.892-1.036-1.728-1.96-2.112
			c-1.796-0.739-3.978,0.041-4.989,1.685c-0.047,0.085-0.141,0.258-0.187,0.344c-0.722,1.474-0.777,3.144-0.731,4.753
			c-0.004,2.969,0.005,5.936-0.004,8.906c-1.699-0.005-3.398-0.009-5.095,0.002c-0.023-6.608-0.011-13.217-0.005-19.825
			c1.607-0.022,3.216,0.002,4.825-0.013c0.047,1.029-0.014,2.057,0.036,3.086C-158.124,182.742-157.29,181.787-156.191,181.162z"/>
		<path style="fill:#595A5A;" d="M-124.66,180.229c3.182-0.276,6.663,0.632,8.807,3.122c0.531,0.638,0.973,1.346,1.346,2.09
			c0.29,0.697,0.551,1.413,0.652,2.166c-1.809-0.004-3.62,0.049-5.425-0.031c-0.074-0.328-0.204-0.638-0.353-0.935
			c-1.618-2.702-5.994-2.668-7.774-0.151c-0.274,0.42-0.508,0.863-0.719,1.315c-0.6,1.62-0.611,3.429-0.166,5.09
			c0.299,0.84,0.733,1.627,1.324,2.299c1.173,1.27,2.993,1.649,4.65,1.322c0.231-0.085,0.467-0.16,0.706-0.238
			c0.793-0.283,1.391-0.904,1.886-1.56c0.119-0.263,0.247-0.521,0.386-0.775c0.013-0.103,0.038-0.306,0.049-0.409
			c1.807-0.036,3.614,0.013,5.421-0.027c-0.422,2.901-2.486,5.455-5.156,6.623c-0.764,0.321-1.564,0.531-2.369,0.712
			c-2.621,0.395-5.443,0.09-7.727-1.328c-2.187-1.276-3.701-3.508-4.34-5.931c-0.088-0.362-0.164-0.726-0.256-1.085
			c-0.247-2.31-0.086-4.72,0.982-6.821c0.814-1.609,2.021-3.034,3.585-3.956C-127.8,180.865-126.242,180.407-124.66,180.229z"/>
		<path style="fill:#595A5A;" d="M-244.353,180.711c1.694-0.05,3.391,0.002,5.086-0.032c0.11,0.755,0.05,1.517,0.063,2.277
			c-0.009,5.407,0.004,10.814,0.002,16.222c-0.014,0.441,0.047,0.897-0.068,1.33c-1.694,0.025-3.387,0.007-5.079,0.005
			C-244.34,193.912-244.333,187.311-244.353,180.711z"/>
		<path style="fill:#595A5A;" d="M-235.505,180.708c1.618-0.036,3.236-0.016,4.854-0.011c0.023,1.13,0.018,2.261,0.007,3.391
			c0.368-0.205,0.546-0.604,0.795-0.926c0.441-0.573,0.987-1.056,1.544-1.515c1.528-1.023,3.411-0.955,5.169-0.944
			c-0.023,1.571-0.014,3.144-0.005,4.715c-1.16,0.038-2.328-0.067-3.47,0.177c-0.373,0.13-0.739,0.277-1.094,0.447
			c-1.027,0.587-1.782,1.571-2.211,2.663c-0.245,0.778-0.443,1.578-0.434,2.4c-0.013,3.137-0.004,6.273-0.005,9.41
			c-1.713,0.013-3.425,0.002-5.137,0.005C-235.509,193.916-235.485,187.311-235.505,180.708z"/>
		<path style="fill:#595A5A;" d="M-141.704,180.692c1.697-0.005,3.396-0.002,5.095,0.002c-0.013,6.612,0.009,13.222-0.011,19.833
			c-1.695-0.011-3.391-0.013-5.084,0C-141.713,193.914-141.713,187.304-141.704,180.692z"/>
	</g>
	<g>
		<g>
			<path style="fill:#595A5A;" d="M-243.938,131.007c1.695,0.013,3.389,0.031,5.084-0.007c0.04,0.263,0.081,0.524,0.086,0.791
				c0,8.709,0.002,17.42,0,26.129c-0.007,0.632,0.047,1.272-0.072,1.899c-1.706-0.034-3.412-0.018-5.118-0.009
				c-0.016-0.935,0.049-1.87-0.011-2.805c-0.177,0.261-0.36,0.517-0.546,0.771c-0.157,0.151-0.308,0.308-0.461,0.465
				c-0.858,0.908-1.982,1.54-3.194,1.834c-1.863,0.416-3.83,0.198-5.601-0.488c-1.45-0.596-2.652-1.638-3.636-2.839
				c-0.216-0.33-0.431-0.659-0.64-0.993c-0.126-0.24-0.249-0.479-0.368-0.721c-0.139-0.351-0.277-0.701-0.423-1.047
				c-0.874-2.821-0.877-5.947,0.187-8.718c0.614-1.436,1.467-2.82,2.708-3.794c1.052-0.87,2.312-1.456,3.634-1.784
				c1.694-0.313,3.492-0.353,5.115,0.294c1.331,0.49,2.416,1.481,3.238,2.614C-243.924,138.735-243.961,134.872-243.938,131.007z
				 M-251.68,144.642c-1.319,0.782-2.193,2.18-2.463,3.675c-0.286,1.839-0.119,3.845,0.969,5.412
				c0.468,0.625,1.056,1.153,1.735,1.54c1.62,0.737,3.574,0.699,5.138-0.168c0.775-0.611,1.501-1.326,1.877-2.259
				c0.744-1.818,0.731-3.922,0.09-5.769c-0.445-0.984-1.085-1.928-2.07-2.436C-248.004,143.736-250.08,143.736-251.68,144.642z"/>
		</g>
		<path style="fill:#595A5A;" d="M-231.642,140.053c2.638-0.836,5.636-0.85,8.142,0.418c1.906,1,3.297,2.975,3.454,5.137
			c-1.621-0.02-3.248,0.054-4.868-0.045c-0.058-0.258-0.121-0.515-0.186-0.769c-0.432-0.524-0.958-0.987-1.636-1.151
			c-1.182-0.216-2.504-0.225-3.506,0.531c-0.31,0.425-0.591,0.958-0.434,1.497c0.036,0.521,0.468,0.847,0.84,1.148
			c1.477,0.715,3.146,0.805,4.697,1.301c1.494,0.485,3.119,0.82,4.32,1.903c1.321,1.176,1.769,3.108,1.47,4.805
			c-0.106,0.627-0.254,1.252-0.551,1.82c-0.868,1.749-2.656,2.863-4.51,3.306c-2.549,0.589-5.3,0.427-7.711-0.623
			c-0.834-0.369-1.558-0.922-2.238-1.521c-1.153-1.162-1.847-2.711-2.048-4.329c1.731-0.014,3.466-0.045,5.196,0.016
			c0.195,1.488,1.576,2.58,3.023,2.719c1.097,0.117,2.364,0.088,3.216-0.715c0.692-0.623,0.704-1.71,0.324-2.504
			c-1.569-1.358-3.751-1.429-5.646-2.047c-1.569-0.557-3.259-1.099-4.389-2.393c-0.481-0.486-0.719-1.137-0.924-1.773
			c-0.106-0.8-0.092-1.611,0.009-2.411c0.395-1.681,1.528-3.16,3.09-3.915C-232.222,140.318-231.932,140.187-231.642,140.053z"/>
		<path style="fill:#595A5A;" d="M-207.838,139.853c1.357-0.434,2.818-0.512,4.205-0.178c0.35,0.13,0.703,0.254,1.056,0.375
			c0.332,0.173,0.661,0.344,0.995,0.517c0.881,0.614,1.704,1.358,2.22,2.315c0.058,0,0.171,0.002,0.229,0.002
			c0.209-0.344,0.461-0.661,0.737-0.955c0.589-0.56,1.209-1.099,1.942-1.465c0.281-0.144,0.568-0.277,0.856-0.407
			c0.186-0.063,0.373-0.128,0.56-0.196c0.481-0.133,0.969-0.243,1.465-0.312c1.074-0.173,2.176-0.077,3.227,0.186
			c1.991,0.485,3.621,1.958,4.501,3.783c0.645,1.342,0.939,2.832,1.022,4.31c0.014,3.994,0.018,7.987-0.002,11.979
			c-1.721-0.014-3.439,0.004-5.16-0.013c0.083-2.726,0.014-5.455,0.038-8.181c-0.034-1.74,0.157-3.531-0.398-5.214
			c-0.357-1.041-1.081-1.971-2.119-2.398c-0.254-0.05-0.506-0.108-0.755-0.175c-0.686,0.002-1.367,0.121-2.018,0.337
			c-0.685,0.295-1.283,0.758-1.728,1.358c-0.704,0.995-1.065,2.211-1.077,3.425c-0.022,1.49,0.002,2.98-0.013,4.468
			c0.002,0.422,0.002,0.843-0.002,1.265c-0.034,1.712,0.099,3.432-0.076,5.138c-1.695-0.032-3.389-0.014-5.082-0.011
			c-0.034-3.632-0.002-7.262-0.018-10.893c-0.023-1.38-0.299-2.83-1.176-3.938c-0.344-0.488-0.908-0.733-1.414-1.013
			c-1.31-0.205-2.717-0.038-3.767,0.831c-0.117,0.117-0.234,0.236-0.351,0.355c-1.011,1.182-1.432,2.766-1.413,4.299
			c-0.013,3.452-0.018,6.904,0.004,10.356c-1.721-0.004-3.439-0.004-5.158,0c-0.018-6.605,0.014-13.21-0.016-19.815
			c1.631-0.031,3.263-0.016,4.893-0.005c-0.036,0.82-0.036,1.641-0.013,2.463c0.76-0.708,1.459-1.504,2.409-1.978
			c0.241-0.123,0.486-0.24,0.733-0.357C-208.283,140.025-208.062,139.942-207.838,139.853z"/>
		<path style="fill:#595A5A;" d="M-181.602,151.564c0.02-1.443-0.016-2.886,0.013-4.329c3.014,0.02,6.027,0.02,9.041-0.002
			c0.041,1.447,0.022,2.895,0.011,4.344C-175.56,151.579-178.581,151.6-181.602,151.564z"/>
	</g>
</g>
<g>
	<path style="fill:#595A5A;" d="M-157.57,273.894c0,0.431,0,0.863,0,1.294c-0.06,0.127-0.16,0.25-0.175,0.382
		c-0.532,4.807-2.707,8.819-6.255,11.985c-4.097,3.655-9.033,5.041-14.466,4.338c-10.392-1.345-17.463-10.974-15.691-21.328
		c1.536-8.976,9.671-16.397,20.407-15.064c7.538,0.936,12.621,5.376,15.178,12.564c0.441,1.239,0.604,2.576,0.892,3.852
		c-0.262,0.077-0.32,0.109-0.378,0.109c-2.68,0.009-5.363-0.051-8.04,0.049c-1.349,0.05-2.417-0.028-2.565-1.678
		c-0.005-0.058-0.047-0.113-0.073-0.169c-1.518-3.304-5.341-5.306-8.827-4.622c-3.935,0.771-6.72,4.032-6.794,7.956
		c-0.095,4.969,4.333,8.932,9.303,8.262c2.438-0.329,4.418-1.465,5.627-3.699c0.853-1.578,0.262-2.978-1.451-3.432
		c-0.56-0.148-1.149-0.222-1.729-0.248c-1.969-0.089-3.939-0.137-5.909-0.214c-0.387-0.015-0.773-0.088-1.159-0.135
		c0.009-0.081,0.019-0.161,0.028-0.242c0.396,0,0.793,0,1.189,0c4.067,0.002,8.134-0.001,12.2,0.006
		C-163.361,273.864-160.466,273.882-157.57,273.894z"/>
	<path style="fill:#595A5A;" d="M-229.657,309.653v1.08c0,7.307-4.748,13.78-13.402,13.78c-8.575,0-14.358-6.967-14.358-14.869
		c0-8.279,6.043-14.796,14.396-14.796c4.501,0,8.834,1.919,11.726,5.554l-2.502,2.415c-2.077-2.847-5.657-4.721-9.157-4.721
		c-6.407,0-10.688,5.033-10.688,11.434c0,6.143,3.949,11.681,10.808,11.681c5.5,0,8.995-4.055,9.253-8.478h-7.866v-3.08H-229.657
		L-229.657,309.653z M-221.53,297.999c0-1.356-1.087-2.444-2.407-2.444c-1.32,0-2.409,1.088-2.409,2.444
		c0,1.321,1.089,2.37,2.409,2.37C-222.617,300.369-221.53,299.321-221.53,297.999L-221.53,297.999z M-222.19,323.919v-18.174h-3.494
		v18.174H-222.19L-222.19,323.919z M-210.437,317.422l-5.204-11.677h-4.064l9.212,18.911l9.194-18.911h-3.895L-210.437,317.422
		L-210.437,317.422z M-119.504,321.209h-0.14c-1.192,1.901-3.475,3.209-6.226,3.209c-5.554,0-8.866-4.317-8.866-9.674
		c0-4.97,3.579-9.388,8.862-9.388c2.596,0,4.814,1.074,6.23,3.224h0.14v-2.835h3.243v18.174h-3.243V321.209L-119.504,321.209z
		 M-125.439,321.436c3.88,0,5.903-3.029,5.903-6.604c0-3.534-2.063-6.524-5.903-6.524c-3.613,0-5.744,3.15-5.744,6.524
		C-131.183,318.25-129.129,321.436-125.439,321.436L-125.439,321.436z M-185.176,321.209h-0.141
		c-1.193,1.901-3.476,3.209-6.224,3.209c-5.555,0-8.87-4.317-8.87-9.674c0-4.97,3.582-9.388,8.866-9.388
		c2.593,0,4.812,1.074,6.229,3.224h0.141v-2.835h3.244v18.174h-3.244V321.209L-185.176,321.209z M-191.113,321.436
		c3.883,0,5.905-3.029,5.905-6.604c0-3.534-2.062-6.524-5.905-6.524c-3.609,0-5.747,3.15-5.747,6.524
		C-196.86,318.25-194.8,321.436-191.113,321.436L-191.113,321.436z M-148.225,321.436c3.875,0,5.904-3.029,5.904-6.604
		c0-3.534-2.065-6.524-5.904-6.524c-3.616,0-5.751,3.15-5.751,6.524C-153.976,318.399-152.141,321.436-148.225,321.436
		L-148.225,321.436z M-142.375,321.234h-0.143c-1.131,1.899-3.654,3.184-6.224,3.184c-5.556,0-8.787-4.281-8.787-9.561
		c0-5.118,3.571-9.5,8.786-9.5c2.584,0,4.869,1.137,6.225,3.224h0.143v-16.632h3.352v31.971h-3.352V321.234L-142.375,321.234z
		 M-173.328,305.745h-3.551v10.775c0,0.785,0.052,1.638,0.154,2.221c0.646,3.663,3.515,5.803,7.592,5.803
		c4.079,0,6.948-2.14,7.596-5.808c0.098-0.578,0.153-1.433,0.153-2.216v-10.775h-3.554v10.999c0,2.805-1.149,4.788-4.194,4.788
		c-3.047,0-4.194-1.983-4.194-4.788V305.745L-173.328,305.745z M-106.584,308.086v-2.341h-3.494v18.174h3.494V314.5
		c0-0.922,0.045-1.968,0.185-2.742c0.381-2.124,2.196-3.572,4.5-3.572c2.302,0,3.609,1.218,3.789,3.49
		c0.042,0.476,0.036,0.891,0.036,1.295v10.948h3.492v-11.727c0-0.76-0.045-1.712-0.199-2.362c-0.654-2.724-2.748-4.543-6.331-4.543
		c-2.215,0-4.408,1.239-5.354,2.799H-106.584L-106.584,308.086z"/>
</g>
<g id="g21262_00000159433537404714487280000006438330179965248412_" transform="translate(17.716518,17.791116)">
	<path id="path20911_00000138555250591364401460000009811473890781393852_" style="fill:#595A5A;" d="M-248.04,427.353
		c-2.063,0.361-2.786,0.801-2.786,1.639c0,0.633,0.478,1.071,1.187,1.071c0.593,0,1.109-0.285,1.367-0.763
		c0.155-0.295,0.232-0.708,0.232-1.341V427.353z M-251.536,426.153c0.13-1.149,0.929-1.768,2.283-1.768
		c0.993,0,1.729,0.375,1.962,1.007c0.115,0.308,0.142,0.606,0.142,1.367v2.296c0,0.993,0.025,1.186,0.167,1.612h-0.864
		c-0.09-0.285-0.103-0.426-0.142-0.826c-0.361,0.658-0.954,0.981-1.792,0.981c-1.201,0-1.975-0.696-1.975-1.767
		c0-0.851,0.491-1.484,1.42-1.832c0.593-0.218,1.161-0.35,2.295-0.543v-0.257c0-0.916-0.348-1.264-1.251-1.264
		c-0.788,0-1.226,0.308-1.354,0.993H-251.536"/>
	<path id="path20913_00000119811359926439748840000007458190999830072213_" style="fill:#595A5A;" d="M-245.275,430.667h0.959
		v-8.643h-0.959V430.667z"/>
	<path id="path20917_00000046310407183705002680000007205710066829435550_" style="fill:#595A5A;" d="M-242.235,424.555l1.316,4.85
		l1.431-4.85h0.774l1.432,4.85l1.316-4.85h0.929l-1.768,6.192h-0.889l-1.406-4.799l-1.419,4.799h-0.878l-1.767-6.192H-242.235"/>
	<path id="path20921_00000176725631553127987570000000527134020785048481_" style="fill:#595A5A;" d="M-230.665,427.353
		c-2.063,0.361-2.786,0.801-2.786,1.639c0,0.633,0.478,1.071,1.187,1.071c0.593,0,1.109-0.285,1.367-0.763
		c0.155-0.295,0.232-0.708,0.232-1.341V427.353z M-234.161,426.153c0.13-1.149,0.929-1.768,2.283-1.768
		c0.994,0,1.729,0.375,1.962,1.007c0.115,0.308,0.142,0.606,0.142,1.367v2.296c0,0.993,0.025,1.186,0.167,1.612h-0.863
		c-0.091-0.285-0.103-0.426-0.143-0.826c-0.361,0.658-0.954,0.981-1.792,0.981c-1.201,0-1.973-0.696-1.973-1.767
		c0-0.851,0.49-1.484,1.419-1.832c0.593-0.218,1.161-0.35,2.295-0.543v-0.257c0-0.916-0.348-1.264-1.251-1.264
		c-0.786,0-1.226,0.308-1.354,0.993H-234.161"/>
	<path id="path20925_00000181063991255901738020000006877773823158893990_" style="fill:#595A5A;" d="M-227.851,424.555l1.664,5.094
		l1.715-5.094h0.941l-2.012,5.687c-0.568,1.627-0.683,1.858-1.071,2.285c-0.451,0.475-1.044,0.721-1.78,0.721
		c-0.052,0-0.155,0-0.283-0.013v-0.801c1.161,0.015,1.496-0.27,1.987-1.701l-2.128-6.179H-227.851"/>
	<path id="path20929_00000046298464128757585650000004222299713659819413_" style="fill:#595A5A;" d="M-219.377,426.23
		c-0.09-0.748-0.49-1.096-1.251-1.096c-0.696,0-1.174,0.375-1.174,0.916c0,0.503,0.258,0.696,1.419,1.032
		c1.006,0.296,1.381,0.478,1.639,0.773c0.232,0.271,0.348,0.633,0.348,1.059c0,1.174-0.851,1.909-2.218,1.909
		c-1.484,0-2.31-0.735-2.31-2.05h0.878c0.077,0.863,0.541,1.289,1.419,1.289c0.799,0,1.302-0.426,1.302-1.071
		c0-0.336-0.128-0.555-0.413-0.721c-0.206-0.131-0.283-0.156-1.341-0.491c-1.187-0.361-1.639-0.813-1.639-1.664
		c0-1.032,0.851-1.73,2.103-1.73c1.302,0,2.05,0.658,2.115,1.845H-219.377"/>
	<path id="path20931_00000098193822119306954710000017184465643669275316_" style="fill:#595A5A;" d="M-213.681,424.56h0.959v6.106
		h-0.959V424.56z M-212.545,422.613c0,0.383-0.265,0.649-0.649,0.649c-0.383,0-0.664-0.266-0.664-0.649s0.28-0.664,0.678-0.664
		C-212.811,421.95-212.545,422.23-212.545,422.613"/>
	<path id="path20935_00000123426586973861113580000012237185665461981591_" style="fill:#595A5A;" d="M-210.116,424.555
		c0.09,0.257,0.13,0.501,0.13,0.889c0.413-0.709,1.031-1.059,1.844-1.059c0.839,0,1.484,0.375,1.755,0.994
		c0.168,0.401,0.193,0.568,0.193,1.78v3.509h-0.903v-3.457c0-0.929-0.027-1.148-0.168-1.444c-0.193-0.375-0.555-0.581-1.058-0.581
		c-0.555,0-1.058,0.283-1.342,0.761c-0.18,0.322-0.27,0.723-0.27,1.302v3.419h-0.903v-4.037c0-1.457,0-1.509-0.143-2.077H-210.116"
		/>
	<path id="path20939_00000181067679858894207040000011811859657876429209_" style="fill:#595A5A;" d="M-201.151,426.23
		c-0.09-0.748-0.49-1.096-1.251-1.096c-0.696,0-1.174,0.375-1.174,0.916c0,0.503,0.258,0.696,1.419,1.032
		c1.006,0.296,1.381,0.478,1.639,0.773c0.232,0.271,0.348,0.633,0.348,1.059c0,1.174-0.851,1.909-2.218,1.909
		c-1.484,0-2.31-0.735-2.31-2.05h0.878c0.077,0.863,0.541,1.289,1.419,1.289c0.799,0,1.302-0.426,1.302-1.071
		c0-0.336-0.128-0.555-0.413-0.721c-0.206-0.131-0.283-0.156-1.341-0.491c-1.187-0.361-1.639-0.813-1.639-1.664
		c0-1.032,0.851-1.73,2.103-1.73c1.302,0,2.05,0.658,2.115,1.845H-201.151"/>
	<path id="path20943_00000102520291682715238890000008780315109085751191_" style="fill:#595A5A;" d="M-197.784,427.612
		c0,1.444,0.67,2.425,1.65,2.425c0.981,0,1.56-0.904,1.56-2.386c0-1.51-0.605-2.476-1.56-2.476
		C-197.126,425.174-197.784,426.14-197.784,427.612z M-198.674,426.373c0-1.058-0.027-1.381-0.117-1.819h0.889
		c0.077,0.27,0.09,0.398,0.103,0.903c0.44-0.748,0.954-1.072,1.729-1.072c1.457,0,2.425,1.304,2.425,3.239
		c0,1.922-0.941,3.199-2.36,3.199c-0.774,0-1.316-0.31-1.768-1.007v3.394h-0.901V426.373"/>
	<path id="path20945_00000169523345103615093500000007194458824953312407_" style="fill:#595A5A;" d="M-192.117,424.56h0.944v6.106
		h-0.944V424.56z M-190.982,422.613c0,0.383-0.28,0.649-0.664,0.649c-0.369,0-0.664-0.266-0.664-0.649s0.295-0.664,0.678-0.664
		C-191.262,421.95-190.982,422.23-190.982,422.613"/>
	<path id="path20949_00000165210261797550155580000005041143468469670042_" style="fill:#595A5A;" d="M-188.496,424.555
		c0.077,0.308,0.117,0.631,0.117,0.941c0,0.077,0,0.205-0.015,0.375c0.426-1.019,0.916-1.485,1.574-1.485
		c0.233,0,0.478,0.065,0.736,0.195v0.903c-0.413-0.193-0.581-0.245-0.813-0.245c-0.476,0-0.903,0.348-1.174,0.941
		c-0.193,0.426-0.271,0.943-0.271,1.755v2.735h-0.916v-4.012c0-1.392-0.012-1.509-0.102-2.102H-188.496"/>
	<path id="path20951_00000103970942622166638730000017444236624596289203_" style="fill:#595A5A;" d="M-185.008,424.56h0.959v6.106
		h-0.959V424.56z M-183.872,422.613c0,0.383-0.265,0.649-0.649,0.649c-0.383,0-0.664-0.266-0.664-0.649s0.28-0.664,0.678-0.664
		C-184.138,421.95-183.872,422.23-183.872,422.613"/>
	<path id="path20955_00000067937425818710093620000008718114053424649607_" style="fill:#595A5A;" d="M-181.443,424.555
		c0.091,0.257,0.13,0.501,0.13,0.889c0.412-0.709,1.032-1.059,1.844-1.059c0.839,0,1.484,0.375,1.755,0.994
		c0.168,0.401,0.193,0.568,0.193,1.78v3.509h-0.903v-3.457c0-0.929-0.025-1.148-0.168-1.444c-0.193-0.375-0.555-0.581-1.058-0.581
		c-0.555,0-1.058,0.283-1.342,0.761c-0.18,0.322-0.27,0.723-0.27,1.302v3.419h-0.904v-4.037c0-1.457,0-1.509-0.142-2.077H-181.443"
		/>
	<path id="path20959_00000157267582854686276420000002483229670706969229_" style="fill:#595A5A;" d="M-174.85,426.54
		c0,0.761,0.528,1.264,1.314,1.264c0.801,0,1.316-0.503,1.316-1.264c0-0.773-0.528-1.341-1.264-1.341
		C-174.297,425.199-174.85,425.742-174.85,426.54z M-175.393,431.481c0,0.645,0.761,1.071,1.934,1.071
		c1.162,0,1.885-0.413,1.885-1.071c0-0.684-0.684-1.059-1.948-1.059C-174.71,430.422-175.393,430.81-175.393,431.481z
		 M-170.647,425.237l-1.251-0.025c0.335,0.308,0.53,0.838,0.53,1.406c0,0.593-0.22,1.109-0.619,1.392
		c-0.271,0.208-0.696,0.361-1.381,0.503c-0.593,0.13-0.735,0.168-0.929,0.26c-0.232,0.115-0.361,0.257-0.361,0.411
		c0,0.258,0.156,0.31,1.227,0.413c1.211,0.117,1.559,0.193,1.959,0.413c0.491,0.283,0.774,0.786,0.774,1.394
		c0,1.173-1.058,1.895-2.773,1.895c-1.664,0-2.748-0.696-2.748-1.767c0-0.736,0.388-1.187,1.291-1.509
		c-0.478-0.181-0.658-0.388-0.658-0.711c0-0.411,0.296-0.683,1.096-0.979c-0.838-0.336-1.224-0.904-1.224-1.767
		c0-1.264,0.889-2.09,2.243-2.09c0.335,0,0.593,0.04,0.956,0.143l1.869-0.065V425.237"/>
	<path id="path20963_00000139251488157317094370000015486322105076785047_" style="fill:#595A5A;" d="M-165.447,424.555
		c0.077,0.218,0.117,0.515,0.117,0.838c0.386-0.683,0.941-1.007,1.779-1.007c0.851,0,1.381,0.336,1.69,1.072
		c0.413-0.723,1.019-1.072,1.884-1.072c0.721,0,1.289,0.285,1.574,0.789c0.206,0.36,0.232,0.593,0.232,1.752v3.742h-0.903v-3.742
		c0-0.799-0.025-1.004-0.181-1.264c-0.193-0.295-0.528-0.463-1.006-0.463c-0.541,0-0.979,0.245-1.224,0.684
		c-0.168,0.27-0.233,0.618-0.233,1.173v3.612h-0.903v-3.599c0-0.942-0.013-1.096-0.143-1.327c-0.18-0.35-0.553-0.556-1.031-0.556
		c-0.541,0-1.019,0.258-1.251,0.698c-0.168,0.308-0.232,0.67-0.232,1.224v3.561h-0.904v-4.218c0-1.264-0.012-1.381-0.153-1.895
		H-165.447"/>
	<path id="path20967_00000125591228687088460350000002505770642267830950_" style="fill:#595A5A;" d="M-155.761,427.572
		c0,1.496,0.684,2.476,1.742,2.476c1.044,0,1.742-0.981,1.742-2.45c0-1.459-0.698-2.438-1.742-2.438
		C-155.052,425.161-155.761,426.14-155.761,427.572z M-151.35,427.612c0,1.882-1.096,3.211-2.67,3.211
		c-1.587,0-2.67-1.316-2.67-3.263c0-1.845,1.109-3.176,2.67-3.176C-152.446,424.385-151.35,425.701-151.35,427.612"/>
	<path id="path20971_00000029034572356735572920000006923104413487065013_" style="fill:#595A5A;" d="M-149.053,424.555
		c0.077,0.308,0.117,0.631,0.117,0.941c0,0.077,0,0.205-0.013,0.375c0.426-1.019,0.916-1.485,1.574-1.485
		c0.232,0,0.476,0.065,0.736,0.195v0.903c-0.414-0.193-0.581-0.245-0.814-0.245c-0.476,0-0.903,0.348-1.174,0.941
		c-0.193,0.426-0.27,0.943-0.27,1.755v2.735h-0.916v-4.012c0-1.392-0.013-1.509-0.103-2.102H-149.053"/>
	<path id="path20975_00000126303048354997088800000011288308025682442941_" style="fill:#595A5A;" d="M-141.792,427.056
		c-0.102-1.237-0.658-1.909-1.574-1.909c-0.889,0-1.456,0.658-1.637,1.909H-141.792z M-145.028,427.766
		c0.038,1.484,0.656,2.283,1.767,2.283c0.67,0,1.069-0.258,1.417-0.929l0.841,0.103c-0.376,1.059-1.149,1.6-2.271,1.6
		c-1.639,0-2.683-1.226-2.683-3.148c0-1.987,1.031-3.291,2.631-3.291c1.509,0,2.476,1.226,2.476,3.122c0,0.04,0,0.143-0.013,0.258
		H-145.028"/>
	<path id="path20979_00000057852925077882796170000010929491974116439743_" style="fill:#595A5A;" d="M-132.246,430.062
		c0,0.4-0.336,0.735-0.748,0.735c-0.4,0-0.736-0.335-0.736-0.735c0-0.413,0.336-0.749,0.749-0.749
		C-132.583,429.313-132.246,429.649-132.246,430.062z M-135.058,430.062c0,0.4-0.335,0.735-0.749,0.735
		c-0.4,0-0.735-0.335-0.735-0.735c0-0.413,0.335-0.749,0.748-0.749C-135.392,429.313-135.058,429.649-135.058,430.062z
		 M-137.882,430.062c0,0.4-0.336,0.735-0.749,0.735c-0.4,0-0.735-0.335-0.735-0.735c0-0.426,0.335-0.749,0.748-0.749
		C-138.218,429.313-137.882,429.649-137.882,430.062"/>
	<path id="path20983_00000140711736654378217140000009655261366137775777_" style="fill:#595A5A;" d="M-271.138,402.091
		c-0.277-2.314-1.515-3.389-3.867-3.389c-2.155,0-3.631,1.155-3.631,2.829c0,1.556,0.799,2.155,4.389,3.193
		c3.109,0.916,4.267,1.475,5.065,2.392c0.718,0.838,1.077,1.954,1.077,3.271c0,3.63-2.633,5.903-6.86,5.903
		c-4.589,0-7.14-2.273-7.14-6.342h2.711c0.24,2.673,1.676,3.988,4.389,3.988c2.472,0,4.028-1.316,4.028-3.31
		c0-1.037-0.4-1.714-1.277-2.232c-0.639-0.401-0.876-0.481-4.148-1.519c-3.671-1.117-5.066-2.51-5.066-5.143
		c0-3.192,2.633-5.347,6.503-5.347c4.028,0,6.341,2.035,6.54,5.705H-271.138"/>
	<path id="path20987_00000063606781513905422700000005007481435933653680_" style="fill:#595A5A;" d="M-262.462,396.905
		l5.148,15.755l5.304-15.755h2.912l-6.221,17.589c-1.757,5.027-2.115,5.746-3.311,7.061c-1.398,1.478-3.232,2.235-5.504,2.235
		c-0.161,0-0.478,0-0.879-0.041v-2.472c3.59,0.04,4.627-0.838,6.145-5.266l-6.583-19.105H-262.462"/>
	<path id="path20991_00000175324314468080735770000013007076381009941925_" style="fill:#595A5A;" d="M-243.096,396.905
		c0.239,0.678,0.358,1.597,0.358,2.593c1.196-2.112,2.912-3.112,5.505-3.112c2.633,0,4.268,1.04,5.226,3.311
		c1.277-2.233,3.15-3.311,5.823-3.311c2.235,0,3.988,0.879,4.866,2.434c0.639,1.117,0.718,1.835,0.718,5.425v11.567h-2.792v-11.567
		c0-2.472-0.08-3.111-0.558-3.909c-0.599-0.917-1.637-1.435-3.114-1.435c-1.674,0-3.028,0.757-3.788,2.115
		c-0.519,0.835-0.718,1.912-0.718,3.628v11.167h-2.792v-11.127c0-2.912-0.04-3.391-0.438-4.109c-0.559-1.077-1.715-1.715-3.19-1.715
		c-1.676,0-3.15,0.798-3.87,2.156c-0.519,0.956-0.718,2.071-0.718,3.786v11.009h-2.792v-13.043c0-3.909-0.038-4.266-0.478-5.863
		H-243.096"/>
	<path id="path20995_00000064351722883620927270000014401795583312191935_" style="fill:#595A5A;" d="M-213.416,396.905
		c0.237,0.957,0.357,1.954,0.357,2.913c0,0.239,0,0.637-0.041,1.156c1.319-3.152,2.835-4.589,4.869-4.589
		c0.717,0,1.475,0.199,2.273,0.599v2.792c-1.276-0.597-1.795-0.757-2.512-0.757c-1.478,0-2.794,1.077-3.63,2.91
		c-0.599,1.317-0.839,2.912-0.839,5.425v8.456h-2.83v-12.406c0-4.305-0.041-4.665-0.32-6.5H-213.416"/>
	<path id="path20999_00000178204058896688480870000006442319619185366671_" style="fill:#595A5A;" d="M-199.317,390.582
		c0,1.155-0.836,1.994-2.034,1.994c-1.158,0-2.034-0.839-2.034-1.994c0-1.196,0.876-2.075,2.072-2.075
		C-200.153,388.507-199.317,389.386-199.317,390.582"/>
	<path id="path21001_00000174590885176614076480000010083873372300054419_" style="fill:#595A5A;" d="M-202.826,415.814h2.95
		v-18.909h-2.95V415.814z"/>
	<path id="path21005_00000079468274821989154940000008070061397663140229_" style="fill:#595A5A;" d="M-184.924,402.091
		c-0.28-2.314-1.518-3.389-3.87-3.389c-2.155,0-3.63,1.155-3.63,2.829c0,1.556,0.796,2.155,4.388,3.193
		c3.112,0.916,4.267,1.475,5.065,2.392c0.718,0.838,1.078,1.954,1.078,3.271c0,3.63-2.634,5.903-6.861,5.903
		c-4.586,0-7.139-2.273-7.139-6.342h2.709c0.242,2.673,1.677,3.988,4.389,3.988c2.473,0,4.028-1.316,4.028-3.31
		c0-1.037-0.398-1.714-1.279-2.232c-0.634-0.401-0.873-0.481-4.146-1.519c-3.668-1.117-5.065-2.51-5.065-5.143
		c0-3.192,2.631-5.347,6.502-5.347c4.028,0,6.339,2.035,6.54,5.705H-184.924"/>
	<path id="path21009_00000160192560310377931600000000562469804201302715_" style="fill:#595A5A;" d="M-165.621,404.644
		c-0.32-3.83-2.035-5.904-4.866-5.904c-2.752,0-4.506,2.034-5.065,5.904H-165.621z M-175.633,406.837
		c0.119,4.587,2.035,7.059,5.466,7.059c2.072,0,3.31-0.798,4.388-2.872l2.591,0.317c-1.158,3.273-3.55,4.948-7.022,4.948
		c-5.065,0-8.295-3.792-8.295-9.732c0-6.142,3.19-10.173,8.136-10.173c4.67,0,7.659,3.789,7.659,9.655c0,0.118,0,0.437-0.04,0.796
		H-175.633"/>
	<path id="path21013_00000087374974414426132700000000554851901744179337_" style="fill:#595A5A;" d="M-138.949,385.746
		c-0.51,0.86-1.808,1.729-3.173,2.111c-1.04,0.296-2.128,0.296-2.914-0.267c0.786-0.336,1.795-1.068,3.226-1.532
		C-140.991,385.819-140.084,385.691-138.949,385.746z M-139.696,378.489c-0.677-0.053-1.209-0.431-1.243-0.833
		c-0.04-0.473,0.481-0.932,1.207-1.025c-0.252,0.127-0.441,0.49-0.441,0.92C-140.174,378.005-139.971,378.38-139.696,378.489z
		 M-139.369,376.616c0.671,0.038,1.199,0.429,1.24,0.888c0.038,0.45-0.499,0.928-1.24,0.985c0.276-0.109,0.478-0.487,0.478-0.938
		S-139.093,376.726-139.369,376.616z M-109.221,386.867c-4.18,1.476-6.63,2.395-9.979,5.255c-0.369,0.326-0.886,1.667-0.758,3.451
		c0,0,0.143,1.332,0.168,1.767l-0.025-0.007c0.215,3.096-1.603,6.751-6.633,10.987c-0.735,0.894-1.863,5.978-2.591,6.71
		c-0.044,0.043-0.086,0.083-0.125,0.117c-0.183,0.131-0.302,0.176-0.546,0.099c-0.022-0.013-0.044-0.027-0.071-0.043
		c-0.314-0.221-0.029-2.667-0.153-3.42c0,0-0.608,0.22-1.053,0.119c-0.354-0.077-0.245-0.64-0.258-0.972c0,0-4.33,3.709-5.279,4.112
		c-0.137,0.049-0.215,0.013-0.242-0.034c-0.047-0.05-0.111-0.13-0.096-0.313c0.027-0.378,1.913-3.313,2.372-4.081
		c0.454-0.771,2.016-3.03,2.881-5.072c0.404-0.969,0.816-1.653,1.069-2.089c-8.996,7.463-6.356-4.838-10.136-6.727
		c-3.207-1.605-9.41,4.18-12.735,7.419c-2.431-3.791-3.847-8.294-3.847-13.121c0-13.454,10.944-24.399,24.394-24.399
		c6.46,0,12.336,2.53,16.702,6.642c0.469,0.451,1.857,1.791,2.603,2.913c0.792,1.196,1.114,2.782,0.153,4.128
		c-1.115,1.568-3.099,1.655-4.717,1.386c-0.715-0.178-1.32-0.453-1.398-0.649c-0.271-0.681,0.966-0.445,0.92-0.646
		c-0.136-0.578-0.92-0.714-1.566-0.578c-0.442,0.093-0.984,0.209-1.462,0.236c-0.614,0.034-2.077-0.013-2.18-0.577
		c-0.164-0.923,1.205-0.412,1.15-0.78c-0.059-0.409-0.471-0.724-1.184-0.748c-0.985-0.034-1.432,0.23-2.423,0.265
		c-0.944,0.031-1.9-0.361-1.801-0.854c0.097-0.69,1.221-0.214,1.184-0.543c-0.052-0.392-0.543-0.739-1.283-0.739
		c-1.584,0-2.105,0.246-3.233-0.273c-0.274-0.158-0.491-0.282-0.627-0.358c0,0,1.447-2.512-0.403-4.794
		c-0.134-0.17-0.322-0.4-0.611-0.639c-0.176-0.124-0.316-0.168-0.249,0.087c0.049,0.249,0.049,0.338,0.049,0.524l0.004-0.001
		c-0.032,2.403-2.161,4.499-5.274,3.83c-2.845-0.581-4.586,0.712-5.078,2.686c-1.941,0.003-3.575-1.547-6.093-1.37
		c-0.574,0.845-0.51,2.128-0.437,2.276c-2.462,0.746-3.593,4.572,0.822,4.907c-0.031,0.824,0.428,2.013,1.417,2.266
		c0.568,0.183,0.45-0.078,0.268-0.301c-0.649-0.684-0.233-2.525,1.519-2.257c1.432,0.218,1.469,1.007,3.007,1.242
		c0.512,0.078,0.981,0.053,1.33-0.074v0.001c0,0,0.003-0.001,0.003-0.003c0.012-0.004,0.03-0.003,0.044-0.01v-0.006
		c0.78-0.27,1.335-0.712,2.114-0.594c0.904,0.137,1.006,0.836,0.894,1.503c-1.221-0.186-2.257-0.198-3.143-0.091
		c-2.664,0.276-4.174,1.509-6.565,1.142c-1.327-0.202-1.968-0.932-2.125-1.299c-0.105-0.357-0.354-0.152-0.372-0.059
		c-0.276,0.49-0.478,1.658,0.074,2.441c0.493,0.706,1.453,0.999,2.061,1.106c0.761,0.136,2.648-0.268,2.838-0.28
		c-0.006,0.047-0.218,1.003,1.007,1.599c-1.161,1.091-0.302,2.26,1.451,2.516c0.96,0.14,2.121-0.736,2.945-1.422
		c2.317-1.937,3.707-2.594,5.043-2.117c1.36,0.491,3.13,1.701,6.844,6.226c0,0,0.858,1.159,1.227,1.232
		c0.285,0.058,0.503-0.044,0.642-0.198c0.006-0.004,0.01-0.01,0.015-0.015c0.081-0.096,0.134-0.207,0.156-0.314l0.004,0.001
		c0.001-0.004,0.003-0.009,0.004-0.013c0.435-2.105,1.62-3.339,2.789-3.853c0.378-0.19,0.754-0.311,1.1-0.372
		c1.485-0.261,2.698,0.195,3.134,0.016c0.35-0.145,5.047-3.494,10.258-4.432c0.049-0.007,0.131-0.015,0.192,0.018
		c0.03,0.03,0.112,0.137,0.012,0.248C-109.134,386.822-109.169,386.848-109.221,386.867z M-132.864,365.875
		c-13.863,0-25.145,11.282-25.145,25.146c0,13.866,11.282,25.143,25.145,25.143c13.866,0,25.148-11.277,25.148-25.143
		C-107.717,377.157-118.998,365.875-132.864,365.875z M-122.615,392.328c-0.484,0.28-0.679,0.854-0.429,1.28
		c0.246,0.419,0.841,0.535,1.323,0.251c0.485-0.283,0.677-0.86,0.428-1.28C-121.538,392.154-122.134,392.041-122.615,392.328"/>
</g>
<g>
	<path style="fill:#595A5A;" d="M-123.042,517.542c6.63-0.586,13.368,0.032,19.772,1.852c0.803,0.228,1.617,0.418,2.401,0.706
		c-0.009,0.854-0.359,1.646-0.611,2.447c-0.653,2.025-1.277,4.06-1.917,6.089c-0.848-0.531-1.579-1.224-2.399-1.794
		c-3.333-2.317-7.231-4.064-11.348-4.138c-3.128-0.14-6.222,0.841-8.898,2.412c-3.862,2.281-6.873,5.736-9.359,9.418
		c-2.354,3.612-4.267,7.509-5.698,11.574c-1.076,3.238-2.056,6.516-2.714,9.868c-0.419,1.961-0.788,3.938-0.932,5.943
		c-0.243,2.494-0.252,5.028,0.228,7.495c0.378,1.824,1.105,3.604,2.276,5.068c1.256,1.555,3.118,2.532,5.058,2.938
		c1.45,0.283,2.944,0.264,4.407,0.101c0.349-0.034,0.689-0.129,1.023-0.241c0.621-1.425,0.919-2.968,1.439-4.434
		c1.894-6.017,3.754-12.045,5.677-18.052c0.372-1.175,0.438-2.522-0.195-3.621c-0.581-1.105-1.716-1.712-2.746-2.327
		c8.361,0.055,16.723-0.008,25.084,0.03c-0.788,0.408-1.606,0.755-2.352,1.238c-1.349,0.86-2.392,2.177-2.959,3.671
		c-0.307,0.803-0.537,1.632-0.79,2.454c-1.885,5.954-3.733,11.918-5.622,17.87c-0.355,1.05-0.592,2.141-1.012,3.168
		c-0.167,0.463-0.649,0.664-1.055,0.871c-4.903,2.221-10.133,3.764-15.492,4.339c-3.678,0.313-7.429,0.285-11.041-0.549
		c-2.898-0.638-5.751-1.61-8.315-3.118c-2.927-1.79-5.17-4.572-6.546-7.693c-1.712-3.9-2.363-8.201-2.272-12.442
		c-0.015-3.025,0.435-6.03,1.031-8.989c1.442-6.288,4.05-12.398,8.15-17.424c4.73-5.688,10.955-10.194,17.974-12.597
		C-129.641,518.587-126.367,517.842-123.042,517.542z"/>
	<g>
		<path style="fill:#595A5A;" d="M-231.227,518.054c1.143-0.053,2.285-0.019,3.43-0.023c7.972-0.002,15.943,0.002,23.915-0.002
			c2.293,0.008,4.61,0.083,6.85,0.63c2.733,0.636,5.415,1.746,7.545,3.612c2.141,1.824,3.53,4.476,3.866,7.264
			c0.26,2.27,0.057,4.586-0.541,6.791c-1.334,5.406-4.174,10.542-8.503,14.114c-3.916,3.331-8.792,5.324-13.759,6.48
			c-4.364,0.903-8.843,1.275-13.296,1.027c-0.801-0.044-1.61-0.161-2.41-0.042c-0.412,0.985-0.664,2.025-0.993,3.041
			c-1.583,5.052-3.162,10.105-4.772,15.15c-0.194,0.64-0.41,1.285-0.45,1.959c-0.051,0.89,0.254,1.79,0.814,2.483
			c0.454,0.562,1.108,0.9,1.714,1.274c-2.207-0.083-4.417-0.028-6.624-0.044c-5.565,0.021-11.128-0.044-16.691,0.036
			c1.944-1.042,3.707-2.636,4.476-4.749c5.637-17.991,11.251-35.992,16.881-53.987c0.262-0.898,0.429-1.877,0.133-2.788
			C-229.923,519.385-230.651,518.755-231.227,518.054z M-213.125,523.076c-0.461,0.765-0.63,1.655-0.905,2.494
			c-2.543,8.139-5.113,16.27-7.664,24.407c-0.306,0.945-0.695,1.879-0.765,2.879c2.841,0.45,5.859,0.203,8.473-1.061
			c2.562-1.181,4.711-3.137,6.324-5.434c1.839-2.54,3.027-5.482,3.917-8.471c0.689-2.116,1.146-4.314,1.281-6.537
			c0.063-1.217,0.009-2.454-0.302-3.637c-0.429-1.541-1.42-2.974-2.855-3.732c-1.374-0.753-2.97-0.941-4.515-0.947
			C-211.132,523.038-212.133,522.97-213.125,523.076z"/>
	</g>
	<g>
		<path style="fill:#595A5A;" d="M-176.499,533.489c2.528-1.021,5.371-1.327,8.038-0.704c1.86,0.452,3.64,1.382,4.927,2.82
			c1.473,1.608,2.128,3.917,1.714,6.06c-0.366,2.175-1.627,4.085-3.139,5.643c-2.984,3.006-6.869,4.849-10.671,6.592
			c-0.484,0.205-0.96,0.433-1.406,0.712c-0.116,0.814,0.137,1.617,0.317,2.403c0.771,3.079,2.099,5.996,3.785,8.68
			c0.497,0.776,0.957,1.583,1.553,2.293c0.402-0.425,0.727-0.919,0.976-1.448c0.564-1.217,0.987-2.521,1.063-3.866
			c0.032-0.607-0.008-1.243-0.29-1.792c-0.279-0.541-0.689-0.998-1.036-1.494c1.581-0.072,3.166-0.006,4.749-0.027
			c1.067,0.006,2.141-0.072,3.202,0.078c-0.213,3.494-1.382,6.962-3.506,9.763c-0.683,0.989-1.575,1.809-2.285,2.777
			c0.678,0.932,1.606,1.64,2.477,2.382c3.87,3.115,8.224,5.63,12.865,7.402c-4.95,0.019-9.902-0.017-14.854,0.019
			c-0.655,0.027-1.304-0.161-1.824-0.56c-1.387-1.002-2.689-2.118-3.925-3.303c-0.325-0.313-0.685-0.583-1.065-0.822
			c-0.539,0.266-1.029,0.609-1.528,0.938c-1.558,1.038-3.242,1.879-4.958,2.625c-2.796,1.236-5.819,2.061-8.894,2.01
			c-2.644,0.029-5.316-0.501-7.679-1.71c-2.196-1.181-3.988-3.09-5.079-5.328c-0.953-1.955-1.243-4.176-1.11-6.33
			c0.114-1.731,0.446-3.473,1.211-5.041c1.236-2.536,3.24-4.643,5.559-6.222c2.428-1.67,5.149-2.86,7.919-3.84
			c0.983-0.376,2.016-0.621,2.961-1.089c0.11-0.604,0.089-1.219,0.08-1.828c-0.07-2.986,0.437-5.975,1.401-8.797
			c0.763-2.137,1.909-4.16,3.483-5.808C-180.096,535.239-178.331,534.231-176.499,533.489z M-173.219,536.594
			c-1.61,1.004-2.691,2.648-3.439,4.356c-1.226,2.845-1.623,6.036-1.234,9.103c0.499-0.213,0.993-0.444,1.429-0.773
			c2.073-1.572,3.971-3.394,5.487-5.516c1.014-1.431,1.902-3.043,2.073-4.817c0.074-0.911-0.093-2.002-0.913-2.545
			C-170.858,535.765-172.221,535.971-173.219,536.594z M-187.891,559.494c-2.298,1.496-4.472,3.361-5.73,5.844
			c-0.943,1.752-1.078,3.849-0.651,5.768c0.342,1.444,1.162,2.805,2.384,3.671c1.367,0.962,3.043,1.441,4.709,1.444
			c2.156,0.036,4.253-0.6,6.227-1.416c0.922-0.391,1.877-0.748,2.695-1.344c-0.416-0.812-1.004-1.517-1.486-2.287
			c-2.014-3.16-3.646-6.56-4.878-10.097c-0.317-0.9-0.507-1.835-0.803-2.739C-186.352,558.444-187.122,559.015-187.891,559.494z"/>
	</g>
</g>
<g>
	<g>
		<g>
			<path style="fill-rule:evenodd;clip-rule:evenodd;fill:#595A5A;" d="M96.121,59.691c0,0.496,0.256,0.553,0.533,0.793
				c0.393,0.34,2.116,1.799,2.116,2.06v16.296c0,1.043-2.1,1.941-2.464,2.331c-0.329,0.354-0.091,0.928,0.325,0.928h8.556
				c0.237,0,0.509-0.273,0.509-0.51c0-0.585-1.601-0.979-2.366-2.115c-0.425-0.632-0.18-3.278-0.18-4.302c0-2.987,0-5.975,0-8.963
				c0.962,0.509,18.681,15.889,19.047,15.889c4.829,0,4.186,0.344,4.176-1.222V63.765c0-1.595-0.231-1.932,0.549-2.507
				c0.332-0.244,1.794-1.024,1.794-1.363c0-0.493-0.322-0.816-0.815-0.816h-7.537c-0.556,0-1.317,0.631-0.398,1.315
				c2.675,1.989,2.129,0.896,2.129,5.916c0,3.09,0,6.18,0,9.269c-1.033-0.692-2.627-2.248-3.667-3.056l-8.681-7.31
				c-0.839-0.748-1.631-1.362-2.492-2.091l-2.489-2.094c-0.431-0.349-2.09-1.95-2.634-1.95h-5.195
				C96.564,59.08,96.121,59.361,96.121,59.691L96.121,59.691z"/>
			<path style="fill-rule:evenodd;clip-rule:evenodd;fill:#595A5A;" d="M136.762,62.644v16.094c0,1.167-2.146,1.841-2.456,2.444
				c-0.2,0.391,0.068,0.916,0.623,0.916h7.028V71.914h11.509c0.994,0,1.387,0.345,1.82,0.93c0.238,0.321,0.957,1.515,1.337,1.515
				c0.343,0,0.713-0.179,0.713-0.508v-7.538c0-0.404-0.396-0.509-0.713-0.509c-0.722,0-1.412,2.342-2.648,2.342h-12.018V62.95
				h18.435c1.772,0,3.137,2.037,3.972,2.037c0.753,0,0.742-0.512,0.608-1.112l-1.219-4.796c-1.489,0-28.365-0.079-28.893,0.035
				c-1.407,0.302-0.203,1.278,0.395,1.676c0.273,0.182,0.378,0.282,0.653,0.468C136.364,61.568,136.762,61.925,136.762,62.644
				L136.762,62.644z"/>
			<path style="fill-rule:evenodd;clip-rule:evenodd;fill:#595A5A;" d="M144.807,78.433v3.667h18.945l0.654-2.91
				c0.117-0.537,0.246-0.974,0.366-1.469c0.269-1.107,0.394-1.214,0.203-2.037l-0.611-0.103c-0.359,0-2.551,2.055-3.217,2.384
				c-0.837,0.414-4.195,0.163-5.441,0.163l-9.778-0.001C145.442,78.121,144.807,77.977,144.807,78.433L144.807,78.433z"/>
		</g>
		<g>
			<g>
				<path style="fill-rule:evenodd;clip-rule:evenodd;fill:#595A5A;" d="M157.64,21.711c0.296,0.216,1.343,1.913,1.63,2.342
					l4.889,7.334h-12.63l5.356-8.394C157.116,22.641,157.538,22.093,157.64,21.711L157.64,21.711z M151.937,18.758
					c0,0.54,1.309,1.303,1.731,1.528l-3.402,5.154c-0.592,0.887-1.117,1.727-1.69,2.586l-6.786,10.225
					c-0.158,0.194-0.032,0.046-0.148,0.158c-0.941,0.916-2.335,1.441-2.335,2.248c0,0.238,0.17,0.408,0.408,0.408h8.556
					c0.231,0,0.863-0.417-0.202-1.224c-1.642-1.245-1.316-0.909-0.098-2.948l1.115-1.736h17.621c0.185,0.69,2.139,2.924,2.139,3.565
					c0,0.582-1.522,1.036-1.731,1.935c0.094,0.124,0.066-0.115,0.102,0.305c1.054,0.245,7.944,0.103,9.574,0.103
					c0.289,0,0.473-0.317,0.486-0.524c0.043-0.694-2.046-1.418-2.824-2.74l-4.445-6.759c-1.589-2.384-3.736-5.749-5.338-8.005
					c-0.615-0.866-1.24-1.763-1.833-2.648c0.288-0.393,1.63-1.062,1.63-1.528c0-0.476-0.238-0.714-0.713-0.714H152.65
					C152.238,18.146,151.937,18.368,151.937,18.758L151.937,18.758z"/>
				<path style="fill-rule:evenodd;clip-rule:evenodd;fill:#595A5A;" d="M96.833,18.452c0,0.76,0.051,0.698,1.043,1.504
					c0.407,0.332,0.781,0.618,1.172,0.966c1.456,1.298,5.684,4.583,7.17,5.766c1.239,0.987,8.525,6.959,9.561,7.654
					c1.939-1.299,7.648-5.95,10.01-7.712l9.33-7.273c0.5-0.384,0.522-0.267,0.522-0.904c0-0.238-0.17-0.408-0.408-0.408h-6.315
					c-0.179,0-0.654,0.44-0.844,0.582c-0.323,0.241-0.541,0.418-0.855,0.672l-9.88,7.843c-0.564,0.459-1.077,0.901-1.662,1.293
					l-9.283-7.829c-0.496-0.401-2.878-2.56-3.143-2.56h-6.009C97.003,18.044,96.833,18.214,96.833,18.452L96.833,18.452z"/>
				<path style="fill-rule:evenodd;clip-rule:evenodd;fill:#595A5A;" d="M129.019,27.619l0.001,9.371
					c0.005,0.796,0.018,1.11-0.344,1.59c-0.561,0.745-1.897,1.206-1.897,2.076c0,0.238,0.169,0.408,0.407,0.408h8.76
					c0.423,0,0.407-0.378,0.407-0.611c0-0.613-2.021-1.448-2.218-2.467c-0.111-0.575-0.022-13.01-0.022-14.238
					c-0.32,0.086-0.416,0.249-0.67,0.451C132.884,24.646,129.39,27.52,129.019,27.619L129.019,27.619z"/>
			</g>
			<path style="fill-rule:evenodd;clip-rule:evenodd;fill:#595A5A;" d="M96.121,40.453c0,0.334-0.004,0.611,0.611,0.611h7.537
				c0.27,0,0.881-0.464,0.209-1.025c-2.264-1.894-1.941-0.899-1.941-5.087c0-2.649,0-5.297,0-7.945
				c-0.388-0.103-1.745-1.325-2.069-1.598c-0.377-0.319-1.73-1.459-2.108-1.559l-0.008,14.047
				C98.202,39.03,96.121,39.871,96.121,40.453L96.121,40.453z"/>
		</g>
	</g>
	<g>
		<path style="fill-rule:evenodd;clip-rule:evenodd;fill:#595A5A;" d="M26.178,49.874l28.487-28.552l28.617,28.552L54.795,78.426
			L26.178,49.874L26.178,49.874z M22.724,49.874l32.006,32.072l32.137-32.072L54.795,17.869L22.724,49.874L22.724,49.874z"/>
		<path style="fill-rule:evenodd;clip-rule:evenodd;fill:#595A5A;" d="M47.332,67.052c0-2.805,0.497-6.145,0.517-9
			c0.005-0.708,0.122-0.766,0.138-1.426c0.018-0.693,0.019-1.078,0.091-1.603l0.947-12.221c0.051,0.61,2.506,8.056,2.794,9.072
			c0.437,1.539,2.743,8.207,2.813,9.051c0.401-0.294,0.561-1.369,0.832-2.167L60.223,43.7c0.132-0.419,0.169-0.815,0.408-1.158
			l0.39,7.17c0.029,0.567,0.103,0.476,0.132,1.042c0.144,2.798,0.296,5.536,0.513,8.22l0.39,7.178
			c-0.008,1.455,0.083,0.972,2.453-1.351c0.624-0.609,0.739-0.452,0.596-1.43l-1.606-26.827c-0.144-2.709,0.305-1.715-2.314-4.336
			c-0.375-0.375-0.662-0.864-1.207-1.011c-0.627,2.697-1.86,6.674-2.607,9.518l-2.291,8.27c-0.152,0.553-0.089,0.855-0.447,1.117
			c-0.013-0.576-0.424-1.802-0.595-2.403l-3.894-14.097c-0.171-0.602-0.583-1.828-0.596-2.404c-0.557,0.15-1.061,0.867-1.467,1.271
			c-2.909,2.911-1.754,1.088-2.295,5.919c-0.048,0.427-0.004,0.86-0.015,1.288c-0.018,0.645-0.121,0.651-0.138,1.296l-0.406,7.938
			c-0.255,2.28-0.26,4.291-0.371,6.408c-0.056,1.057-0.273,2.627-0.26,3.912c0.009,0.94-0.451,4.554-0.155,5.107
			C44.441,64.337,46.796,66.908,47.332,67.052L47.332,67.052z"/>
		<path style="fill-rule:evenodd;clip-rule:evenodd;fill:#595A5A;" d="M39.379,53.102c-0.018-0.027-0.04-0.102-0.047-0.083
			l-3.082-8.522c-0.58,0.307-2.243,1.932-2.607,2.477c0.094,0.405,0.226,0.581,0.392,0.912l4.932,10.842
			c0.225,0.479,2.386,2.713,2.889,2.847c0-1.673,0.274-4.439,0.26-5.998l0.255-6.001c0.009-0.704,0.121-0.768,0.141-1.425
			c0.015-0.51-0.033-1.063-0.005-1.569c0.032-0.591,0.135-0.713,0.135-1.428c0.001-1.305,0.181-7.007,0.387-7.435
			c-0.564,0.15-0.882,0.686-1.271,1.075c-0.423,0.423-0.75,0.75-1.173,1.172c-1.591,1.592-1.207,0.875-1.207,3.618
			C39.379,46.758,39.379,49.93,39.379,53.102L39.379,53.102z"/>
		<path style="fill-rule:evenodd;clip-rule:evenodd;fill:#595A5A;" d="M67.54,61.576c0.512-0.136,2.607-2.292,2.607-2.607
			c0-2.458-0.131-4.458-0.131-6.909l1.205,1.011c0.549,0.484,0.631,0.645,1.272,1.075c0.38-0.716,0.664-1.499,1.042-2.216
			c-0.658-0.441-1.976-1.913-2.64-2.575c-1.215-1.212-0.88-0.861-0.88-4.334l4.694,4.302c0.209-0.395,0.355-0.703,0.539-1.156
			c0.164-0.401,0.399-0.742,0.504-1.191l-9.224-9.289c-0.056,1.86,0.161,5.346,0.224,7.468c0.02,0.656,0.132,0.722,0.141,1.425
			c0.044,3.756,0.395,8.091,0.512,12.003L67.54,61.576L67.54,61.576z"/>
	</g>
</g>
<g>
	<path style="fill:#595A5A;" d="M45.339,161.094c-0.057-1.042,0.096-2.094,0.449-3.089c0.354-0.994,0.899-1.903,1.597-2.687
		c0.708-0.784,1.559-1.415,2.505-1.874c0.956-0.449,1.979-0.708,3.031-0.765c3.92,0,7.544,3.232,7.544,8.348
		c0.048,1.052-0.105,2.094-0.459,3.089c-0.344,0.985-0.889,1.903-1.587,2.677c-0.708,0.784-1.549,1.425-2.496,1.874
		c-0.947,0.459-1.979,0.717-3.022,0.775C48.963,169.442,45.339,166.191,45.339,161.094L45.339,161.094z M58.19,161.075
		c0-6.254-2.352-8.08-5.364-8.08c-2.983,0-5.221,1.817-5.221,8.051s2.362,8.08,5.364,8.08
		C55.953,169.126,58.19,167.29,58.19,161.075z"/>
	<path style="fill:#595A5A;" d="M65.649,168.849c2.343-0.067,2.228-1.176,2.228-1.578v-12.431c0-0.354,0.115-1.52-2.228-1.587
		v-0.182h6.378c4.265,0,6.062,1.74,6.062,3.777c0,1.836-1.492,3.328-4.427,3.7v0.067c3.251,0.296,5.106,1.606,5.106,3.92
		c0,2.295-1.855,4.513-6.598,4.513h-6.521V168.849z M72.256,160.406c2.591,0,3.691-1.081,3.691-3.481
		c0-2.257-0.899-3.519-3.853-3.519h-2.276v6.999H72.256z M72.39,168.705c3.05,0,4.198-1.214,4.198-4.121
		c0-2.295-1.176-3.834-4.169-3.834h-2.601v7.956H72.39z"/>
	<path style="fill:#595A5A;" d="M84.744,168.849c2.343-0.067,2.228-1.052,2.228-1.587v-12.421c0-0.564,0.105-1.52-2.228-1.587
		v-0.182h12.44l0.01,3.184l-0.21,0.019c-0.124-0.44-0.325-0.861-0.593-1.233c-0.277-0.373-0.602-0.698-0.985-0.956
		c-0.382-0.258-0.803-0.449-1.243-0.564c-0.449-0.115-0.908-0.153-1.367-0.115h-3.873v7.162h2.171
		c0.335,0.048,0.669,0.029,0.994-0.057c0.325-0.076,0.631-0.229,0.899-0.43c0.268-0.21,0.488-0.459,0.66-0.755
		c0.163-0.287,0.268-0.612,0.316-0.937h0.201v4.733h-0.201c-0.038-0.335-0.143-0.66-0.316-0.947
		c-0.163-0.296-0.382-0.555-0.65-0.765c-0.268-0.201-0.574-0.354-0.899-0.44c-0.325-0.086-0.669-0.105-1.004-0.057h-2.171v7.793
		h3.547c0.478,0.038,0.956,0,1.425-0.115c0.459-0.105,0.899-0.296,1.3-0.555c0.411-0.249,0.765-0.564,1.071-0.937
		c0.306-0.363,0.545-0.784,0.717-1.224l0.21,0.019l-0.01,3.165h-12.44L84.744,168.849z"/>
	<path style="fill:#595A5A;" d="M141.494,168.849c2.343-0.067,2.238-1.052,2.238-1.587v-12.421c0-0.564,0.105-1.52-2.238-1.587
		v-0.182h12.45v3.184l-0.21,0.019c-0.124-0.44-0.325-0.861-0.602-1.233c-0.268-0.373-0.593-0.698-0.975-0.956
		c-0.382-0.258-0.803-0.449-1.243-0.564c-0.449-0.115-0.908-0.153-1.367-0.115h-3.873v7.162h2.18
		c0.335,0.048,0.669,0.029,0.994-0.048c0.325-0.086,0.631-0.239,0.899-0.44c0.268-0.201,0.488-0.459,0.66-0.755
		c0.163-0.287,0.268-0.612,0.316-0.937h0.201v4.733h-0.201c-0.038-0.335-0.143-0.66-0.316-0.947
		c-0.163-0.296-0.382-0.555-0.65-0.765c-0.268-0.201-0.574-0.354-0.899-0.44c-0.325-0.086-0.669-0.105-1.004-0.057h-2.18v7.793
		h3.557c0.478,0.038,0.956,0,1.415-0.115c0.469-0.105,0.908-0.296,1.31-0.555c0.402-0.249,0.765-0.564,1.071-0.937
		c0.296-0.363,0.545-0.784,0.717-1.224l0.21,0.019v3.165h-12.459L141.494,168.849z"/>
	<path style="fill:#595A5A;" d="M108.104,167.29c0,0.612-0.182,1.492,2.104,1.559v0.21h-6.282v-0.21
		c2.343-0.067,2.228-1.004,2.228-1.578v-12.44c0-0.612,0.105-1.511-2.228-1.578v-0.191h6.196c4.217,0,6.588,1.52,6.588,3.901
		c0,2.065-1.425,3.538-4.829,4.073v0.057c3.328,0.344,4.035,1.606,4.379,4.083l0.143,0.985c0.363,2.161,0.755,2.61,2.936,2.61v0.182
		c-0.198,0.032-0.395,0.061-0.593,0.086c-0.191,0.025-0.386,0.048-0.583,0.067c-0.198,0.019-0.395,0.032-0.593,0.038
		c-0.198,0.013-0.395,0.019-0.593,0.019c-2.018,0-2.429-0.985-2.687-3.05l-0.249-2.075c-0.277-2.285-0.956-2.821-3.691-2.821h-2.247
		V167.29z M110.284,160.893c3.442,0,4.198-1.329,4.198-3.892c0-2.419-1.109-3.586-4.475-3.586h-1.903v7.477H110.284z"/>
	<path style="fill:#595A5A;" d="M30.566,167.29c0,0.612-0.182,1.492,2.113,1.559v0.21h-6.292v-0.21
		c2.343-0.067,2.228-1.004,2.228-1.578v-12.44c0-0.612,0.115-1.511-2.228-1.578v-0.191h6.196c4.217,0,6.579,1.52,6.579,3.901
		c0,2.065-1.415,3.538-4.819,4.073v0.057c3.328,0.344,4.035,1.606,4.379,4.083l0.143,0.985c0.363,2.161,0.755,2.61,2.936,2.61v0.182
		c-0.198,0.032-0.395,0.061-0.593,0.086c-0.191,0.032-0.386,0.054-0.583,0.067c-0.198,0.019-0.395,0.032-0.593,0.038
		c-0.198,0.013-0.395,0.019-0.593,0.019c-2.018,0-2.438-0.985-2.687-3.05l-0.258-2.075c-0.277-2.285-0.966-2.821-3.691-2.821h-2.237
		V167.29z M32.746,160.893c3.433,0,4.198-1.329,4.198-3.892c0-2.419-1.1-3.586-4.475-3.586h-1.903v7.477H32.746z"/>
	<path style="fill:#595A5A;" d="M126.644,168.849c2.381-0.067,2.41-1.138,2.41-1.587v-13.855h-1.836
		c-1.645,0-2.61-0.478-4.026,2.869l-0.21-0.019l0.134-3.184h13.827l0.134,3.184l-0.201,0.019c-1.406-3.261-2.362-2.869-4.035-2.869
		h-1.836v13.855c0,0.449,0.019,1.52,2.41,1.587v0.21h-6.77L126.644,168.849z"/>
	<path style="fill:#595A5A;" d="M163.181,168.849c2.39-0.067,2.41-1.138,2.41-1.587v-13.855h-1.836c-1.645,0-2.61-0.478-4.026,2.869
		l-0.21-0.019l0.134-3.184h13.827l0.134,3.184l-0.201,0.019c-1.406-3.261-2.362-2.869-4.035-2.869h-1.836v13.855
		c0,0.449,0.029,1.52,2.41,1.587v0.21h-6.77L163.181,168.849z"/>
	<path style="fill:#595A5A;" d="M26.636,177.254l1.348,0.794l51.118-0.516l0.516-0.306l-0.516-0.258l-51.118-0.507L26.636,177.254z"
		/>
	<path style="fill:#595A5A;" d="M173.374,177.254l-1.358,0.794l-51.109-0.516l-0.516-0.306l0.516-0.258l51.109-0.507
		L173.374,177.254z"/>
	<path style="fill:#595A5A;" d="M85.155,177.349c-0.01-0.258,0.048-0.516,0.143-0.755c0.096-0.239,0.239-0.459,0.421-0.65
		c0.182-0.182,0.402-0.325,0.641-0.43c0.239-0.096,0.497-0.143,0.755-0.143c0.089-0.006,0.175-0.003,0.258,0.01
		c0.083,0.006,0.166,0.019,0.249,0.038c0.083,0.019,0.166,0.041,0.249,0.067c0.076,0.032,0.153,0.067,0.229,0.105l0.239-0.258h0.057
		v1.253H88.33c-0.296-0.717-0.717-1.119-1.262-1.119c-0.602,0-1.195,0.507-1.195,1.874c0,1.367,0.622,1.874,1.243,1.874
		c0.064,0,0.127-0.003,0.191-0.01c0.064-0.006,0.127-0.019,0.191-0.038c0.064-0.019,0.124-0.045,0.182-0.076
		c0.057-0.025,0.112-0.057,0.163-0.096v-1.033c0-0.22-0.124-0.363-0.593-0.382v-0.076h1.645v0.076
		c-0.344,0.019-0.421,0.105-0.421,0.382v0.994c-0.108,0.057-0.217,0.112-0.325,0.163c-0.108,0.045-0.22,0.08-0.335,0.105
		c-0.115,0.032-0.229,0.057-0.344,0.076c-0.121,0.013-0.239,0.019-0.354,0.019c-0.268,0.01-0.526-0.038-0.765-0.134
		c-0.239-0.096-0.459-0.239-0.65-0.421c-0.182-0.191-0.325-0.411-0.421-0.65C85.193,177.875,85.145,177.608,85.155,177.349
		L85.155,177.349z"/>
	<path style="fill:#595A5A;" d="M91.695,178.812c0,0.22,0.115,0.325,0.564,0.344v0.067h-1.779v-0.067
		c0.459-0.019,0.574-0.134,0.574-0.344v-2.936c0-0.22-0.115-0.335-0.574-0.354v-0.057h1.692c1.109,0,1.53,0.402,1.53,0.908
		c0,0.469-0.306,0.822-1.147,0.947v0.019c0.803,0.029,0.994,0.392,1.071,0.928l0.038,0.316c0.076,0.478,0.153,0.545,0.622,0.555
		v0.057c-0.045,0.013-0.089,0.022-0.134,0.029s-0.092,0.013-0.143,0.019c-0.045,0.006-0.089,0.01-0.134,0.01
		c-0.045,0.006-0.092,0.006-0.143,0c-0.583,0-0.688-0.191-0.746-0.679l-0.057-0.497c-0.057-0.555-0.201-0.688-0.822-0.688h-0.421
		L91.695,178.812z M92.154,177.283c0.717,0,0.87-0.306,0.87-0.88c0-0.516-0.21-0.832-0.937-0.832h-0.392v1.712H92.154z"/>
	<path style="fill:#595A5A;" d="M95.798,177.349c-0.019-0.249,0.019-0.497,0.105-0.736c0.086-0.239,0.22-0.459,0.382-0.641
		c0.172-0.191,0.382-0.335,0.612-0.44c0.229-0.105,0.478-0.163,0.727-0.163c0.249,0,0.497,0.048,0.727,0.153
		c0.229,0.096,0.44,0.249,0.612,0.43c0.172,0.182,0.306,0.402,0.382,0.641c0.086,0.239,0.124,0.488,0.105,0.736
		c0.01,0.249-0.029,0.507-0.105,0.736c-0.086,0.239-0.22,0.459-0.392,0.641c-0.172,0.191-0.373,0.335-0.602,0.44
		c-0.229,0.105-0.478,0.163-0.727,0.172c-0.249,0-0.497-0.057-0.727-0.153c-0.229-0.105-0.44-0.249-0.612-0.44
		c-0.172-0.182-0.306-0.402-0.382-0.631C95.817,177.856,95.778,177.598,95.798,177.349L95.798,177.349z M98.743,177.349
		c0-1.415-0.469-1.874-1.147-1.874c-0.669,0-1.081,0.469-1.081,1.874c0,1.396,0.459,1.874,1.128,1.874
		C98.322,179.224,98.743,178.755,98.743,177.349z"/>
	<path style="fill:#595A5A;" d="M101.688,178.134v-2.257c0-0.21-0.124-0.335-0.593-0.344v-0.067h1.769v0.067
		c-0.459,0.01-0.535,0.124-0.535,0.344v2.19c-0.019,0.153-0.01,0.296,0.038,0.44c0.048,0.143,0.134,0.268,0.239,0.373
		c0.105,0.105,0.239,0.182,0.373,0.229c0.143,0.038,0.296,0.048,0.44,0.029c0.064,0.006,0.127,0.003,0.191-0.01
		c0.064-0.006,0.124-0.022,0.182-0.048c0.057-0.019,0.112-0.045,0.163-0.077c0.057-0.032,0.108-0.07,0.153-0.115
		c0.057-0.057,0.105-0.121,0.143-0.191c0.045-0.064,0.08-0.134,0.105-0.21c0.025-0.077,0.045-0.153,0.057-0.229
		c0.006-0.083,0.006-0.163,0-0.239v-1.664c0-0.535-0.172-0.755-0.727-0.832v-0.067h1.492v0.076
		c-0.507,0.076-0.631,0.296-0.631,0.822v1.692c0,0.755-0.43,1.272-1.386,1.272C102.223,179.319,101.688,178.908,101.688,178.134
		L101.688,178.134z"/>
	<path style="fill:#595A5A;" d="M106.746,179.157c0.469-0.01,0.602-0.134,0.602-0.354v-2.926c0-0.22-0.134-0.344-0.602-0.354v-0.067
		h1.606c1.195,0,1.568,0.449,1.568,1.042c0,0.545-0.392,1.071-1.597,1.071h-0.354v1.233c0,0.229,0.124,0.344,0.631,0.354v0.067
		h-1.855L106.746,179.157z M108.333,177.464c0.736,0,0.899-0.354,0.899-0.975c0-0.535-0.182-0.918-0.88-0.918h-0.382v1.893H108.333z
		"/>
	<path style="fill:#595A5A;" d="M111.603,179.157c0.469-0.019,0.602-0.143,0.602-0.354v-2.926c0-0.22-0.134-0.344-0.602-0.354
		v-0.067h3.146l0.01,1.214l-0.067,0.019c-0.325-0.775-0.574-1.128-1.214-1.128h-0.65v1.664h0.287c0.449,0,0.679-0.172,0.841-0.746
		h0.057v1.587h-0.057c-0.163-0.574-0.392-0.746-0.841-0.746h-0.287v1.798h0.631c0.765,0,1.052-0.354,1.377-1.186l0.067,0.01
		l-0.019,1.281h-3.28V179.157z"/>
</g>
<g>
	<path style="fill:#595A5A;" d="M42.081,292.477h10.303v9.208H31.641v-36.733h10.44V292.477z"/>
	<path style="fill:#595A5A;" d="M65.699,272.563v15.864c0,3.606,0.852,6.158,4.847,6.158c3.995,0,4.847-2.552,4.847-6.158v-15.864
		h9.694v17.805c0,9.375-6.339,12.259-14.541,12.259c-8.203,0-14.541-2.885-14.541-12.259v-17.805H65.699z"/>
	<path style="fill:#595A5A;" d="M112.08,282.492c-1.438-1.109-3.143-1.997-5.007-1.997c-3.729,0-6.658,2.996-6.658,6.934
		c0,4.105,2.823,6.99,6.818,6.99c1.704,0,3.569-0.721,4.847-1.941v8.543c-2.131,1.109-4.474,1.609-6.818,1.609
		c-8.096,0-14.861-6.268-14.861-14.866c0-9.153,6.711-15.477,15.287-15.477c2.237,0,4.474,0.555,6.392,1.664V282.492z"/>
	<path style="fill:#595A5A;" d="M129.14,301.685h-9.694v-20.137h-3.143v-8.321h3.143v-8.543h9.694v8.543h5.486v8.321h-5.486V301.685
		z"/>
	<path style="fill:#595A5A;" d="M168.359,301.464h-9.694v-3.162h-0.107c-1.704,2.829-5.06,4.105-8.256,4.105
		c-8.096,0-13.796-7.045-13.796-15.199s5.593-15.144,13.689-15.144c3.143,0,6.445,1.22,8.469,3.716v-2.774h9.694V301.464z
		 M146.521,287.263c0,3.606,2.29,6.379,6.232,6.379c3.942,0,6.232-2.774,6.232-6.379c0-3.495-2.291-6.435-6.232-6.435
		C148.811,280.828,146.521,283.768,146.521,287.263z"/>
	<rect x="31.641" y="306.271" style="fill:#595A5A;" width="136.718" height="9.044"/>
</g>
<g>
	<path style="fill:#595A5A;" d="M26.015,393.817c0,0,1.905,1.364,6.35-0.545s9.651,0.682,11.302,3.273
		c0,0-11.302,23.726-10.413,28.226c0,0,9.016-14.999,12.191-21.272c0,0,0.635-4.5,0-8.045c0,0,11.175-6.272,9.524,1.5
		c0,0-5.207,9.818-6.858,17.999c0,0,6.731-7.363,9.27-1.773c0,0,2.286-0.136-2.159,12.272c0,0-0.476,1.227,2.747-2.045
		c3.222-3.273,3.857-4.227,4.619-3.273c0,0-5.334,8.318-6.223,13.363c-0.889,5.045-11.683,6.818-9.651-4.909
		c2.032-11.727,2.413-7.909,2.667-10.909c0.254-3-0.635-0.818-0.635-0.818s-3.683,3.818-5.334,19.636c0,0-1.27,1.227-4.953,0.136
		c0,0,2.032-13.499,3.429-18.545c1.397-5.045,3.174-6.434,2.413-8.727c0,0-8.381,9.818-10.413,26.317c0,0-5.969,2.591-6.477-1.909
		c0,0-1.397,0.409,2.794-9c0,0,4.826-14.863,5.461-16.636c0.635-1.773-1.774,1.153-6.219-1.165S26.269,396.271,26.015,393.817z"/>
	<g>
		<g>
			<path style="fill:#595A5A;" d="M67.337,424.294h8.719c0.441,0,0.661,0.208,0.661,0.623c0,0.416-0.221,0.624-0.661,0.624h-3.691
				v9.22c0,0.195-0.071,0.352-0.212,0.47c-0.142,0.118-0.323,0.177-0.543,0.177c-0.22,0-0.399-0.059-0.535-0.177
				c-0.136-0.117-0.205-0.274-0.205-0.47v-9.22h-3.533c-0.451,0-0.677-0.208-0.677-0.624
				C66.661,424.501,66.886,424.294,67.337,424.294z"/>
			<path style="fill:#595A5A;" d="M71.611,435.783c-0.312,0-0.575-0.09-0.781-0.268c-0.219-0.189-0.335-0.45-0.335-0.754v-8.844
				h-3.157c-0.659,0-1.053-0.374-1.053-1c0-0.626,0.394-0.999,1.053-0.999h8.719c0.65,0,1.037,0.374,1.037,0.999
				c0,0.626-0.388,1-1.037,1h-3.315v8.844c0,0.307-0.12,0.569-0.348,0.759C72.184,435.694,71.92,435.783,71.611,435.783z
				 M67.337,424.67c-0.301,0-0.301,0.093-0.301,0.247c0,0.155,0,0.248,0.301,0.248h3.909v9.596c0,0.106,0.036,0.152,0.074,0.185
				c0.135,0.116,0.449,0.115,0.592-0.004c0.046-0.039,0.077-0.084,0.077-0.181v-9.596h4.067c0.273,0,0.285-0.08,0.285-0.248
				c0-0.167-0.012-0.247-0.285-0.247H67.337z"/>
		</g>
		<g>
			<path style="fill:#595A5A;" d="M78.134,434.483c0-0.315,0.123-0.59,0.37-0.823c0.246-0.233,0.535-0.349,0.865-0.349
				s0.618,0.116,0.862,0.349c0.244,0.233,0.366,0.507,0.366,0.823c0,0.316-0.122,0.59-0.366,0.823
				c-0.244,0.233-0.531,0.35-0.862,0.35s-0.619-0.117-0.865-0.35C78.258,435.073,78.134,434.798,78.134,434.483z"/>
			<path style="fill:#595A5A;" d="M79.37,436.031c-0.428,0-0.806-0.152-1.124-0.452c-0.324-0.305-0.488-0.674-0.488-1.096
				c0-0.422,0.164-0.79,0.488-1.096c0.635-0.601,1.615-0.6,2.245,0.001c0.32,0.306,0.482,0.674,0.482,1.095
				c0,0.421-0.162,0.79-0.482,1.095C80.176,435.878,79.799,436.031,79.37,436.031z M79.37,433.686c-0.233,0-0.432,0.081-0.607,0.246
				c-0.172,0.163-0.252,0.337-0.252,0.55c0,0.213,0.08,0.387,0.252,0.549c0.351,0.332,0.863,0.332,1.209,0.001
				c0.17-0.162,0.25-0.337,0.25-0.551c0-0.213-0.079-0.388-0.25-0.551C79.799,433.767,79.602,433.686,79.37,433.686z"/>
		</g>
		<g>
			<path style="fill:#595A5A;" d="M87.822,430.177v4.583c0,0.2-0.067,0.358-0.201,0.474c-0.134,0.115-0.314,0.173-0.539,0.173
				s-0.405-0.057-0.539-0.173c-0.134-0.115-0.2-0.273-0.2-0.474v-9.926c0-0.2,0.067-0.358,0.2-0.473
				c0.134-0.115,0.314-0.173,0.539-0.173s0.405,0.058,0.539,0.173c0.134,0.115,0.201,0.273,0.201,0.473v4.17h6.091v-4.17
				c0-0.2,0.067-0.358,0.2-0.473c0.134-0.115,0.314-0.173,0.539-0.173c0.226,0,0.405,0.058,0.539,0.173
				c0.134,0.115,0.2,0.273,0.2,0.473v9.926c0,0.2-0.067,0.358-0.2,0.474c-0.134,0.115-0.314,0.173-0.539,0.173
				c-0.225,0-0.405-0.057-0.539-0.173c-0.134-0.115-0.2-0.273-0.2-0.474v-4.583H87.822z"/>
			<path style="fill:#595A5A;" d="M94.652,435.783c-0.317,0-0.581-0.089-0.784-0.264c-0.217-0.187-0.331-0.449-0.331-0.759v-4.208
				h-5.339v4.208c0,0.31-0.115,0.572-0.332,0.759c-0.405,0.35-1.163,0.35-1.569,0c-0.216-0.187-0.331-0.449-0.331-0.758v-9.926
				c0-0.309,0.115-0.571,0.331-0.758c0.407-0.351,1.162-0.351,1.569,0c0.217,0.186,0.331,0.448,0.331,0.758v3.794h5.339v-3.794
				c0-0.309,0.115-0.571,0.331-0.758c0.408-0.351,1.162-0.351,1.569,0c0.217,0.187,0.331,0.449,0.331,0.758v9.926
				c0,0.31-0.115,0.572-0.331,0.758C95.234,435.694,94.97,435.783,94.652,435.783z M87.446,429.801h6.843v4.96
				c0,0.113,0.035,0.159,0.07,0.189c0.127,0.109,0.46,0.109,0.587,0c0.035-0.03,0.07-0.076,0.07-0.189v-9.926
				c0-0.113-0.035-0.159-0.07-0.189c-0.127-0.109-0.46-0.11-0.587,0c-0.035,0.03-0.07,0.075-0.07,0.188v4.546h-6.843v-4.546
				c0-0.113-0.035-0.159-0.07-0.188c-0.126-0.109-0.462-0.108-0.587,0c-0.035,0.03-0.07,0.076-0.07,0.189v9.926
				c0,0.113,0.035,0.159,0.07,0.189c0.125,0.108,0.462,0.108,0.587,0c0.035-0.03,0.07-0.076,0.07-0.189V429.801z"/>
		</g>
		<g>
			<path style="fill:#595A5A;" d="M106.859,434.437c0.063,0.155,0.094,0.301,0.094,0.436c0,0.135-0.072,0.258-0.216,0.368
				c-0.144,0.11-0.324,0.165-0.539,0.165c-0.216,0-0.383-0.05-0.504-0.15c-0.121-0.1-0.228-0.271-0.323-0.511l-1.046-2.645h-4.612
				l-1.015,2.63c-0.105,0.281-0.215,0.464-0.33,0.549c-0.115,0.085-0.275,0.128-0.48,0.128c-0.205,0-0.383-0.054-0.535-0.162
				c-0.152-0.108-0.228-0.228-0.228-0.361c0-0.133,0.031-0.277,0.094-0.432l4.076-9.866c0.058-0.13,0.155-0.239,0.291-0.327
				c0.136-0.088,0.291-0.132,0.464-0.132c0.388,0,0.643,0.143,0.763,0.428L106.859,434.437z M102.758,428.051
				c-0.315-0.807-0.551-1.536-0.708-2.187h-0.047c-0.178,0.646-0.425,1.375-0.74,2.187l-1.125,2.893h3.77L102.758,428.051z"/>
			<path style="fill:#595A5A;" d="M106.198,435.783c-0.305,0-0.555-0.08-0.744-0.237c-0.172-0.142-0.313-0.359-0.432-0.663
				l-0.952-2.406h-4.098l-0.922,2.389c-0.133,0.355-0.279,0.584-0.458,0.716c-0.359,0.265-1.022,0.278-1.456-0.03
				c-0.319-0.226-0.386-0.488-0.386-0.667c0-0.181,0.041-0.375,0.122-0.574l4.078-9.868c0.091-0.207,0.237-0.373,0.436-0.5
				c0.196-0.126,0.421-0.191,0.667-0.191c0.724,0,1.006,0.412,1.11,0.658l4.047,9.884c0.081,0.202,0.122,0.395,0.122,0.578
				c0,0.177-0.063,0.437-0.364,0.667C106.754,435.701,106.496,435.783,106.198,435.783z M99.455,431.725h5.125l1.14,2.882
				c0.093,0.236,0.173,0.327,0.213,0.36c0.063,0.053,0.178,0.064,0.264,0.064c0.131,0,0.233-0.029,0.311-0.088
				c0.059-0.045,0.069-0.071,0.069-0.072c0-0.084-0.023-0.183-0.067-0.293l-4.045-9.879c-0.026-0.061-0.082-0.195-0.415-0.195
				c-0.1,0-0.186,0.023-0.261,0.072c-0.075,0.047-0.124,0.101-0.151,0.163l-4.073,9.857c-0.043,0.105-0.065,0.202-0.066,0.285h0
				c0.003,0,0.021,0.023,0.069,0.057c0.088,0.062,0.192,0.093,0.318,0.093c0.159,0,0.229-0.034,0.256-0.054
				c0.004-0.003,0.085-0.065,0.202-0.378L99.455,431.725z M104.462,431.319h-4.874l1.325-3.405c0.308-0.793,0.553-1.517,0.728-2.151
				l0.076-0.276h0.63l0.069,0.288c0.152,0.631,0.386,1.35,0.693,2.138L104.462,431.319z M100.687,430.567h2.666l-0.945-2.378
				c-0.148-0.381-0.28-0.746-0.395-1.095c-0.119,0.348-0.253,0.713-0.4,1.093L100.687,430.567z"/>
		</g>
		<g>
			<path style="fill:#595A5A;" d="M111.053,429.989c-0.987-0.34-1.693-0.751-2.121-1.232c-0.428-0.481-0.641-1.029-0.641-1.645
				c0-0.907,0.332-1.642,0.995-2.206c0.663-0.563,1.512-0.845,2.546-0.845c1.033,0,1.901,0.218,2.601,0.654
				c0.701,0.436,1.05,0.824,1.05,1.165c0,0.18-0.077,0.34-0.232,0.481c-0.155,0.14-0.319,0.21-0.492,0.21
				c-0.173,0-0.299-0.028-0.378-0.083c-0.079-0.055-0.184-0.165-0.315-0.33c-0.53-0.606-1.272-0.909-2.227-0.909
				c-0.572,0-1.053,0.164-1.444,0.492c-0.391,0.328-0.586,0.719-0.586,1.172c0,0.453,0.156,0.819,0.469,1.097
				c0.312,0.278,0.951,0.595,1.916,0.951l0.551,0.195c1.138,0.421,1.941,0.899,2.408,1.435c0.467,0.536,0.701,1.135,0.701,1.796
				c0,0.927-0.343,1.682-1.027,2.266c-0.685,0.583-1.57,0.875-2.656,0.875s-2.03-0.229-2.833-0.688
				c-0.803-0.458-1.204-0.88-1.204-1.266c0-0.165,0.08-0.324,0.24-0.477c0.16-0.153,0.344-0.229,0.551-0.229
				c0.207,0,0.4,0.108,0.579,0.323c0.294,0.351,0.669,0.623,1.125,0.815c0.456,0.193,0.976,0.289,1.558,0.289
				c0.582,0,1.081-0.167,1.495-0.5c0.415-0.333,0.622-0.748,0.622-1.244c0-0.496-0.194-0.925-0.582-1.289
				c-0.388-0.363-1.117-0.733-2.188-1.108L111.053,429.989z"/>
			<path style="fill:#595A5A;" d="M112.17,435.903c-1.146,0-2.162-0.248-3.02-0.737c-0.951-0.543-1.393-1.049-1.393-1.592
				c0-0.271,0.12-0.523,0.356-0.749c0.478-0.456,1.187-0.466,1.679,0.126c0.253,0.302,0.584,0.541,0.982,0.709
				c0.408,0.172,0.883,0.26,1.412,0.26c0.499,0,0.911-0.136,1.26-0.417c0.323-0.26,0.481-0.571,0.481-0.951
				c0-0.391-0.152-0.723-0.463-1.014c-0.348-0.326-1.039-0.672-2.055-1.028l-0.478-0.165c-1.058-0.365-1.804-0.803-2.279-1.338
				c-0.489-0.549-0.737-1.187-0.737-1.895c0-1.018,0.38-1.857,1.128-2.492c0.731-0.62,1.669-0.934,2.789-0.934
				c1.1,0,2.042,0.239,2.799,0.711c0.838,0.521,1.228,0.992,1.228,1.484c0,0.286-0.123,0.548-0.355,0.759
				c-0.44,0.399-1.041,0.366-1.338,0.158c-0.111-0.077-0.236-0.206-0.394-0.405c-0.448-0.511-1.084-0.767-1.932-0.767
				c-0.485,0-0.878,0.132-1.203,0.404c-0.304,0.256-0.452,0.545-0.452,0.884c0,0.344,0.112,0.611,0.343,0.816
				c0.189,0.169,0.655,0.458,1.796,0.879l0.547,0.194c1.214,0.449,2.052,0.953,2.566,1.543c0.526,0.604,0.793,1.291,0.793,2.043
				c0,1.037-0.39,1.895-1.159,2.552C114.319,435.579,113.343,435.903,112.17,435.903z M108.924,433.243
				c-0.111,0-0.2,0.039-0.291,0.125c-0.056,0.054-0.124,0.133-0.124,0.205c0,0.084,0.073,0.402,1.015,0.94
				c0.742,0.423,1.632,0.638,2.647,0.638c0.989,0,1.801-0.264,2.412-0.785c0.602-0.514,0.895-1.161,0.895-1.979
				c0-0.572-0.199-1.079-0.608-1.549c-0.423-0.486-1.182-0.933-2.255-1.33l-0.546-0.194c-1.024-0.377-1.689-0.712-2.04-1.024
				c-0.394-0.351-0.594-0.814-0.594-1.378c0-0.567,0.242-1.058,0.72-1.46c0.459-0.385,1.026-0.58,1.686-0.58
				c1.064,0,1.908,0.349,2.51,1.038c0.163,0.205,0.232,0.259,0.246,0.269v0c0.003,0,0.05,0.016,0.163,0.016
				c0.028,0,0.114,0,0.239-0.113c0.096-0.087,0.108-0.154,0.108-0.202c0-0.05-0.042-0.328-0.873-0.846
				c-0.637-0.396-1.445-0.597-2.402-0.597c-0.937,0-1.712,0.254-2.303,0.756c-0.581,0.493-0.863,1.121-0.863,1.919
				c0,0.526,0.179,0.982,0.546,1.395c0.382,0.43,1.043,0.81,1.963,1.127l0.48,0.166c1.132,0.397,1.891,0.786,2.322,1.189
				c0.465,0.435,0.701,0.962,0.701,1.563c0,0.613-0.256,1.13-0.762,1.537c-0.481,0.387-1.064,0.583-1.731,0.583
				c-0.63,0-1.204-0.107-1.704-0.319c-0.509-0.215-0.936-0.525-1.267-0.92C109.11,433.306,109.013,433.243,108.924,433.243z"/>
		</g>
		<g>
			<path style="fill:#595A5A;" d="M119.592,424.294h5.257c0.451,0,0.677,0.205,0.677,0.616c0,0.411-0.225,0.616-0.677,0.616h-4.903
				c-0.094,0-0.177,0.034-0.248,0.101c-0.071,0.068-0.106,0.147-0.106,0.237v3.186h4.596c0.462,0,0.692,0.196,0.692,0.586
				s-0.231,0.586-0.692,0.586h-4.596v3.494c0,0.09,0.035,0.169,0.106,0.236c0.071,0.068,0.153,0.102,0.248,0.102h5.107
				c0.462,0,0.693,0.2,0.693,0.601c0,0.431-0.231,0.646-0.693,0.646h-5.461c-0.451,0-0.808-0.116-1.07-0.35
				c-0.263-0.233-0.394-0.555-0.394-0.966v-8.356c0-0.411,0.133-0.736,0.398-0.977C118.79,424.414,119.146,424.294,119.592,424.294z
				"/>
			<path style="fill:#595A5A;" d="M125.053,435.678h-5.461c-0.544,0-0.988-0.149-1.32-0.445c-0.344-0.305-0.52-0.725-0.52-1.247
				v-8.356c0-0.519,0.175-0.941,0.521-1.255c0.334-0.304,0.778-0.458,1.319-0.458h5.257c0.659,0,1.053,0.371,1.053,0.992
				c0,0.621-0.394,0.992-1.053,0.992h-4.903l0.019,2.772h4.223c0.669,0,1.068,0.36,1.068,0.962s-0.399,0.962-1.068,0.962h-4.22
				v3.118l5.085-0.038c0.669,0,1.068,0.365,1.068,0.977C126.122,435.295,125.722,435.678,125.053,435.678z M119.592,424.67
				c-0.352,0-0.619,0.086-0.813,0.263c-0.185,0.167-0.275,0.396-0.275,0.698v8.356c0,0.301,0.087,0.525,0.267,0.684
				c0.193,0.171,0.462,0.255,0.821,0.255h5.461c0.303,0,0.317-0.093,0.317-0.27c0-0.131,0-0.225-0.317-0.225h-5.107
				c-0.192,0-0.367-0.071-0.508-0.206c-0.145-0.138-0.222-0.314-0.222-0.508v-3.87h4.972c0.317,0,0.317-0.088,0.317-0.21
				c0-0.122,0-0.21-0.317-0.21h-4.972v-3.562c0-0.194,0.077-0.37,0.223-0.509c0.141-0.134,0.317-0.205,0.507-0.205h4.903
				c0.301,0,0.301-0.095,0.301-0.24c0-0.15,0-0.24-0.301-0.24H119.592z"/>
		</g>
		<g>
			<path style="fill:#595A5A;" d="M136,433.791c-0.404,0.581-0.907,1.016-1.507,1.304c-0.601,0.288-1.252,0.432-1.956,0.432
				c-1.61,0-2.91-0.534-3.899-1.601c-0.989-1.067-1.484-2.437-1.484-4.11c0-1.673,0.521-3.051,1.562-4.133
				c1.041-1.082,2.336-1.623,3.884-1.623c1.27,0,2.318,0.313,3.144,0.939c0.827,0.626,1.24,1.145,1.24,1.555
				c0,0.185-0.08,0.347-0.24,0.485c-0.16,0.138-0.335,0.207-0.523,0.207c-0.189,0-0.33-0.033-0.425-0.098
				c-0.095-0.065-0.192-0.18-0.291-0.346c-0.304-0.466-0.714-0.834-1.228-1.105c-0.514-0.27-1.057-0.406-1.629-0.406
				c-1.122,0-2.05,0.415-2.782,1.244c-0.732,0.829-1.098,1.914-1.098,3.254c0,1.34,0.358,2.426,1.074,3.257
				c0.716,0.832,1.625,1.248,2.727,1.248c0.777,0,1.51-0.297,2.2-0.891c0.69-0.593,1.1-1.394,1.232-2.401h-2.463
				c-0.163,0-0.29-0.054-0.382-0.162c-0.092-0.108-0.138-0.236-0.138-0.387c0-0.15,0.046-0.278,0.138-0.383
				c0.092-0.105,0.219-0.158,0.382-0.158h2.865c0.32,0,0.548,0.059,0.685,0.177c0.136,0.117,0.205,0.324,0.205,0.62v4.17
				c0,0.165-0.061,0.294-0.181,0.387c-0.121,0.093-0.258,0.139-0.413,0.139c-0.155,0-0.29-0.045-0.405-0.135
				c-0.116-0.09-0.181-0.22-0.197-0.391L136,433.791z"/>
			<path style="fill:#595A5A;" d="M132.537,435.903c-1.712,0-3.117-0.579-4.175-1.721c-1.051-1.134-1.584-2.603-1.584-4.366
				c0-1.766,0.561-3.244,1.667-4.394c1.11-1.153,2.508-1.738,4.155-1.738c1.348,0,2.482,0.342,3.371,1.016
				c0.947,0.718,1.389,1.308,1.389,1.855c0,0.295-0.128,0.561-0.371,0.77c-0.449,0.386-1.079,0.36-1.407,0.134
				c-0.14-0.096-0.271-0.247-0.4-0.461c-0.26-0.398-0.626-0.727-1.081-0.966c-0.458-0.241-0.947-0.362-1.454-0.362
				c-1.019,0-1.837,0.365-2.5,1.117c-0.666,0.755-1.004,1.765-1.004,3.005c0,1.241,0.331,2.255,0.983,3.012
				c0.647,0.752,1.446,1.117,2.442,1.117c0.69,0,1.329-0.261,1.954-0.8c0.523-0.45,0.862-1.022,1.028-1.74h-2.015
				c-0.346,0-0.554-0.16-0.668-0.294c-0.149-0.174-0.227-0.392-0.227-0.63c0-0.24,0.08-0.458,0.231-0.63
				c0.113-0.13,0.322-0.286,0.665-0.286h2.865c0.417,0,0.722,0.088,0.93,0.268c0.222,0.192,0.335,0.496,0.335,0.904v4.17
				c0,0.283-0.113,0.52-0.328,0.685c-0.378,0.29-0.915,0.287-1.279,0.002c-0.197-0.154-0.315-0.379-0.34-0.652l-0.017-0.202
				c-0.312,0.295-0.663,0.536-1.047,0.72C134.006,435.745,133.294,435.903,132.537,435.903z M132.6,424.436
				c-1.454,0-2.636,0.493-3.613,1.508c-0.981,1.019-1.457,2.285-1.457,3.872c0,1.568,0.466,2.864,1.384,3.855
				c0.923,0.996,2.108,1.48,3.623,1.48c0.643,0,1.247-0.133,1.793-0.395c0.538-0.258,0.996-0.655,1.361-1.18l0.594-0.853
				l0.184,2.126c0.008,0.091,0.039,0.115,0.054,0.127c0.099,0.076,0.249,0.079,0.358-0.006c0.017-0.013,0.034-0.026,0.034-0.089
				v-4.17c0-0.2-0.04-0.306-0.074-0.335c-0.017-0.014-0.115-0.085-0.439-0.085h-2.865c-0.073,0-0.09,0.019-0.098,0.029
				c-0.022,0.026-0.045,0.062-0.045,0.136c0,0.077,0.024,0.115,0.048,0.143c0.01,0.011,0.025,0.03,0.095,0.03h2.892l-0.055,0.425
				c-0.143,1.097-0.6,1.984-1.359,2.637c-0.757,0.651-1.58,0.982-2.445,0.982c-1.211,0-2.224-0.464-3.012-1.378
				c-0.773-0.897-1.165-2.076-1.165-3.503c0-1.428,0.401-2.606,1.192-3.503c0.803-0.909,1.834-1.371,3.064-1.371
				c0.63,0,1.237,0.151,1.804,0.449c0.569,0.3,1.029,0.714,1.367,1.232c0.107,0.177,0.172,0.229,0.189,0.241
				c0.001,0,0.05,0.032,0.212,0.032c0.098,0,0.186-0.037,0.278-0.115c0.097-0.083,0.11-0.148,0.11-0.2
				c0-0.129-0.106-0.51-1.091-1.256C134.761,424.727,133.78,424.436,132.6,424.436z"/>
		</g>
		<g>
			<path style="fill:#595A5A;" d="M148.3,434.437c0.063,0.155,0.094,0.301,0.094,0.436c0,0.135-0.072,0.258-0.216,0.368
				c-0.144,0.11-0.324,0.165-0.539,0.165c-0.216,0-0.383-0.05-0.504-0.15c-0.121-0.1-0.228-0.271-0.323-0.511l-1.046-2.645h-4.612
				l-1.015,2.63c-0.105,0.281-0.215,0.464-0.33,0.549c-0.115,0.085-0.275,0.128-0.48,0.128c-0.205,0-0.383-0.054-0.535-0.162
				c-0.152-0.108-0.228-0.228-0.228-0.361c0-0.133,0.031-0.277,0.094-0.432l4.076-9.866c0.058-0.13,0.155-0.239,0.291-0.327
				c0.136-0.088,0.291-0.132,0.464-0.132c0.388,0,0.643,0.143,0.763,0.428L148.3,434.437z M144.2,428.051
				c-0.315-0.807-0.551-1.536-0.708-2.187h-0.047c-0.178,0.646-0.425,1.375-0.74,2.187l-1.125,2.893h3.77L144.2,428.051z"/>
			<path style="fill:#595A5A;" d="M147.639,435.783c-0.305,0-0.555-0.08-0.744-0.237c-0.172-0.142-0.313-0.359-0.432-0.663
				l-0.952-2.406h-4.098l-0.922,2.389c-0.133,0.355-0.279,0.584-0.458,0.716c-0.359,0.265-1.022,0.278-1.456-0.03
				c-0.319-0.226-0.386-0.488-0.386-0.667c0-0.181,0.041-0.375,0.122-0.574l4.078-9.868c0.091-0.207,0.237-0.373,0.436-0.5
				c0.196-0.126,0.421-0.191,0.667-0.191c0.724,0,1.006,0.412,1.11,0.658l4.047,9.884c0.081,0.202,0.122,0.395,0.122,0.578
				c0,0.177-0.063,0.437-0.364,0.667C148.196,435.701,147.938,435.783,147.639,435.783z M140.896,431.725h5.125l1.14,2.882
				c0.093,0.236,0.173,0.327,0.213,0.36c0.063,0.053,0.178,0.064,0.264,0.064c0.131,0,0.233-0.029,0.311-0.088
				c0.059-0.045,0.069-0.071,0.069-0.072c0-0.084-0.023-0.183-0.067-0.293l-4.045-9.879c-0.026-0.061-0.082-0.195-0.415-0.195
				c-0.1,0-0.186,0.023-0.261,0.072c-0.075,0.047-0.124,0.101-0.151,0.163l-4.073,9.857c-0.043,0.105-0.065,0.202-0.066,0.285h0
				c0.003,0,0.021,0.023,0.069,0.057c0.088,0.062,0.192,0.093,0.318,0.093c0.159,0,0.229-0.034,0.256-0.054
				c0.004-0.003,0.085-0.065,0.202-0.378L140.896,431.725z M145.903,431.319h-4.874l1.325-3.405
				c0.308-0.793,0.553-1.517,0.728-2.151l0.076-0.276h0.63l0.069,0.288c0.152,0.631,0.386,1.35,0.693,2.138L145.903,431.319z
				 M142.129,430.567h2.666l-0.945-2.378c-0.148-0.381-0.28-0.746-0.395-1.095c-0.119,0.348-0.253,0.713-0.4,1.093L142.129,430.567z
				"/>
		</g>
		<g>
			<path style="fill:#595A5A;" d="M156.083,426.555c-0.137,0.666-0.347,1.443-0.63,2.329l-1.944,6.169
				c-0.1,0.296-0.336,0.444-0.708,0.444c-0.373,0-0.606-0.148-0.701-0.444l-3.14-9.911c-0.032-0.125-0.047-0.254-0.047-0.387
				c0-0.133,0.064-0.26,0.192-0.383c0.129-0.123,0.306-0.184,0.532-0.184s0.405,0.044,0.539,0.131
				c0.134,0.088,0.24,0.259,0.319,0.515l1.676,5.643c0.294,0.992,0.535,1.881,0.724,2.667h0.048c0.167-0.751,0.404-1.64,0.708-2.667
				l1.692-5.688c0.095-0.311,0.341-0.466,0.74-0.466c0.398,0,0.645,0.155,0.74,0.466l1.81,5.688c0.294,0.927,0.54,1.821,0.74,2.682
				h0.047c0.215-0.972,0.441-1.866,0.677-2.682l1.629-5.598c0.084-0.29,0.184-0.478,0.299-0.564s0.277-0.128,0.484-0.128
				c0.208,0,0.385,0.064,0.532,0.192c0.147,0.128,0.22,0.26,0.22,0.398c0,0.138-0.029,0.289-0.087,0.455l-3.14,9.821
				c-0.052,0.16-0.132,0.274-0.24,0.342c-0.107,0.068-0.264,0.101-0.468,0.101c-0.373,0-0.604-0.148-0.693-0.444l-1.92-6.169
				c-0.105-0.34-0.299-1.117-0.582-2.329H156.083z"/>
			<path style="fill:#595A5A;" d="M159.326,435.873c-0.73,0-0.973-0.446-1.052-0.712l-1.92-6.165
				c-0.058-0.19-0.142-0.505-0.253-0.952c-0.086,0.304-0.182,0.622-0.289,0.955l-1.943,6.168c-0.091,0.268-0.346,0.706-1.067,0.706
				c-0.725,0-0.974-0.442-1.059-0.705l-3.14-9.912c-0.045-0.175-0.065-0.336-0.065-0.5s0.054-0.411,0.308-0.655
				c0.384-0.368,1.128-0.363,1.536-0.095c0.212,0.139,0.366,0.374,0.473,0.719l1.677,5.646c0.137,0.464,0.265,0.91,0.381,1.335
				c0.112-0.416,0.238-0.861,0.378-1.334l1.692-5.689c0.084-0.276,0.338-0.735,1.101-0.735c0.762,0,1.016,0.459,1.099,0.732
				l1.809,5.684c0.14,0.443,0.271,0.883,0.391,1.316c0.115-0.457,0.233-0.894,0.352-1.307l1.629-5.598
				c0.109-0.38,0.248-0.622,0.437-0.761c0.369-0.272,1.06-0.288,1.486,0.083c0.232,0.202,0.35,0.431,0.35,0.682
				c0,0.18-0.035,0.369-0.107,0.578l-3.137,9.812c-0.081,0.247-0.214,0.43-0.398,0.546
				C159.824,435.821,159.605,435.873,159.326,435.873z M155.777,426.179h0.605l0.115,0.29c0.281,1.202,0.475,1.977,0.575,2.304
				l1.92,6.168c0.023,0.077,0.054,0.179,0.333,0.179c0.189,0,0.256-0.036,0.267-0.043c0.03-0.019,0.059-0.069,0.083-0.14
				l3.139-9.819c0.047-0.135,0.069-0.246,0.069-0.34c0-0.007-0.015-0.049-0.091-0.115c-0.157-0.137-0.453-0.113-0.546-0.045l0,0
				c0,0-0.075,0.066-0.161,0.365l-1.629,5.599c-0.232,0.801-0.458,1.696-0.671,2.658l-0.065,0.295h-0.601l-0.115-0.291
				c-0.198-0.853-0.444-1.746-0.731-2.654l-1.81-5.688c-0.024-0.079-0.062-0.204-0.381-0.204c-0.32,0-0.357,0.12-0.381,0.2
				l-1.691,5.686c-0.302,1.021-0.538,1.91-0.701,2.642l-0.065,0.294h-0.598l-0.117-0.288c-0.189-0.786-0.43-1.677-0.719-2.648
				l-1.676-5.643c-0.073-0.238-0.15-0.298-0.164-0.308c-0.07-0.046-0.185-0.07-0.333-0.07c-0.188,0-0.252,0.06-0.272,0.08
				c-0.056,0.054-0.076,0.094-0.076,0.111c0,0.102,0.012,0.202,0.036,0.295l3.134,9.889c0.023,0.071,0.058,0.181,0.342,0.181
				c0.288,0,0.326-0.113,0.352-0.188l1.941-6.162c0.279-0.872,0.487-1.642,0.621-2.292L155.777,426.179z"/>
		</g>
		<g>
			<path style="fill:#595A5A;" d="M173.514,434.437c0.063,0.155,0.095,0.301,0.095,0.436c0,0.135-0.072,0.258-0.217,0.368
				c-0.144,0.11-0.324,0.165-0.539,0.165s-0.383-0.05-0.504-0.15c-0.12-0.1-0.228-0.271-0.322-0.511l-1.046-2.645h-4.612
				l-1.015,2.63c-0.105,0.281-0.215,0.464-0.33,0.549c-0.116,0.085-0.276,0.128-0.48,0.128c-0.205,0-0.383-0.054-0.535-0.162
				c-0.152-0.108-0.228-0.228-0.228-0.361c0-0.133,0.032-0.277,0.095-0.432l4.076-9.866c0.058-0.13,0.155-0.239,0.292-0.327
				c0.136-0.088,0.291-0.132,0.464-0.132c0.388,0,0.643,0.143,0.763,0.428L173.514,434.437z M169.414,428.051
				c-0.314-0.807-0.551-1.536-0.708-2.187h-0.048c-0.178,0.646-0.424,1.375-0.74,2.187l-1.125,2.893h3.769L169.414,428.051z"/>
			<path style="fill:#595A5A;" d="M172.853,435.783c-0.304,0-0.554-0.08-0.743-0.236c-0.172-0.143-0.314-0.36-0.433-0.663
				l-0.952-2.406h-4.098l-0.922,2.389c-0.133,0.355-0.279,0.584-0.459,0.716c-0.362,0.266-1.024,0.276-1.456-0.03
				c-0.32-0.226-0.387-0.488-0.387-0.667c0-0.181,0.041-0.374,0.123-0.574l4.077-9.868c0.093-0.208,0.238-0.373,0.436-0.5
				c0.196-0.126,0.421-0.191,0.667-0.191c0.724,0,1.006,0.412,1.11,0.658l4.046,9.884c0.082,0.201,0.123,0.395,0.123,0.578
				c0,0.178-0.063,0.438-0.365,0.668C173.411,435.701,173.152,435.783,172.853,435.783z M166.111,431.725h5.125l1.14,2.882
				c0.093,0.237,0.174,0.328,0.214,0.361c0.062,0.052,0.178,0.063,0.263,0.063c0.131,0,0.234-0.029,0.311-0.088
				c0.059-0.046,0.069-0.072,0.07-0.072c-0.001-0.084-0.023-0.182-0.068-0.292l-4.045-9.88c-0.026-0.061-0.082-0.195-0.415-0.195
				c-0.101,0-0.186,0.023-0.26,0.072c-0.075,0.048-0.124,0.101-0.152,0.164l-4.073,9.857c-0.043,0.106-0.065,0.202-0.066,0.285l0,0
				c0.004,0,0.021,0.023,0.07,0.057c0.17,0.122,0.476,0.112,0.576,0.038c0.003-0.003,0.084-0.065,0.2-0.377L166.111,431.725z
				 M171.117,431.319h-4.872l1.324-3.405c0.31-0.798,0.554-1.521,0.727-2.15l0.076-0.276h0.63l0.07,0.288
				c0.151,0.628,0.385,1.348,0.693,2.138L171.117,431.319z M167.343,430.567h2.666l-0.945-2.378
				c-0.148-0.381-0.281-0.747-0.395-1.095c-0.118,0.347-0.252,0.712-0.4,1.093L167.343,430.567z"/>
		</g>
	</g>
</g>
<g>
	<path style="fill:#595A5A;" d="M119.014,516.06c1.8-0.946,3.842-1.365,5.863-1.402c2.912-0.077,5.967,0.651,8.233,2.558
		c1.88,1.565,3.088,3.876,3.399,6.292c-2.455,0.006-4.911-0.01-7.366,0.007c-0.279-0.834-0.702-1.653-1.414-2.199
		c-1.032-0.821-2.469-1.005-3.725-0.696c-1.172,0.279-2.086,1.214-2.577,2.283c-0.716,1.515-0.863,3.228-0.832,4.882
		c0.013,1.521,0.28,3.116,1.174,4.382c0.691,0.966,1.824,1.552,2.996,1.668c1.039,0.158,2.128-0.043,3.035-0.576
		c0.809-0.456,1.549-1.172,1.773-2.101c-1.13-0.017-2.259-0.02-3.388,0c-0.088-0.303-0.049-0.62-0.054-0.931
		c-0.002-1.273,0.004-2.545-0.003-3.818c-0.009-0.147,0.024-0.29,0.059-0.431c3.537,0.031,7.075-0.004,10.613,0.018
		c0.078,0.756,0.047,1.518,0.053,2.277c0.001,3.496-0.003,6.99,0.002,10.485c0.004,0.144-0.028,0.284-0.066,0.421
		c-1.667-0.043-3.339,0.043-5.003-0.043c-0.104-0.768-0.165-1.542-0.301-2.306c-1.03,1.202-2.439,2.054-3.96,2.47
		c-1.847,0.501-3.81,0.522-5.684,0.169c-2.781-0.484-5.386-2.059-6.974-4.413c-1.19-1.739-1.816-3.814-2.008-5.9
		c-0.119-1.402-0.13-2.827,0.117-4.216c0.038-0.184,0.01-0.369-0.013-0.553c0.026,0.013,0.077,0.038,0.103,0.051
		c0.344-2.033,1.203-3.981,2.49-5.593C116.511,517.705,117.68,516.729,119.014,516.06z"/>
	<path style="fill:#595A5A;" d="M143.92,516.345c2.224-1.39,4.932-1.72,7.505-1.688c2.237,0.052,4.544,0.518,6.408,1.815
		c1.434,0.985,2.491,2.483,2.993,4.144c0.17,0.504,0.251,1.03,0.359,1.549c-2.206,0.049-4.414-0.013-6.62,0.024
		c-0.281,0.018-0.563,0.033-0.841-0.018c-0.003-0.049-0.009-0.146-0.012-0.195c-0.172-0.679-0.662-1.284-1.332-1.516
		c-0.895-0.362-1.883-0.335-2.825-0.238c-0.454,0.106-0.957,0.244-1.232,0.653c-0.354,0.503-0.182,1.227,0.265,1.615
		c0.643,0.548,1.466,0.804,2.259,1.047c2.163,0.603,4.401,0.982,6.474,1.873c1.516,0.633,2.987,1.606,3.782,3.087
		c0.56,0.997,0.759,2.165,0.695,3.3c0.009,1.844-0.705,3.709-2.039,5.001c-1.298,1.307-3.054,2.052-4.827,2.46
		c-2.225,0.486-4.545,0.602-6.796,0.234c-2.228-0.384-4.411-1.365-5.973-3.03c-1.209-1.269-1.968-2.965-2.052-4.72
		c2.507-0.011,5.014-0.011,7.521,0c0.102,0.76,0.561,1.474,1.232,1.856c1.132,0.722,2.567,0.748,3.839,0.444
		c0.552-0.146,1.141-0.392,1.444-0.906c0.31-0.466,0.226-1.141-0.164-1.537c-0.542-0.592-1.349-0.805-2.082-1.056
		c-2.304-0.665-4.714-1.012-6.917-2.001c-1.259-0.567-2.455-1.368-3.258-2.514c-0.653-0.911-1.002-2.024-1.056-3.139
		c-0.183-1.856,0.354-3.819,1.624-5.211c0.426-0.446,0.879-0.879,1.407-1.205c0.005-0.053,0.016-0.159,0.021-0.213
		C143.787,516.287,143.853,516.316,143.92,516.345z"/>
	<path style="fill:#595A5A;" d="M38.19,515.295c2.516-0.005,5.033-0.006,7.549-0.001c0.337,2.048,0.752,4.083,1.106,6.128
		c0.544,2.87,1.016,5.754,1.602,8.615c0.447-2.051,0.793-4.122,1.216-6.177c0.551-2.857,1.095-5.716,1.662-8.57
		c2.152,0.012,4.305-0.014,6.456,0.013c0.942,4.907,1.897,9.81,2.844,14.716c0.382-1.72,0.636-3.466,0.98-5.195
		c0.56-3.175,1.179-6.342,1.719-9.521c2.522-0.022,5.045-0.006,7.567-0.007c-1.333,5.519-2.742,11.021-4.101,16.535
		c-0.22,0.934-0.491,1.856-0.677,2.797l-0.027-0.057c-0.214,1.058-0.52,2.095-0.759,3.147c-0.141,0.453-0.202,0.928-0.364,1.375
		c-2.541-0.011-5.083-0.002-7.624-0.005c-0.271-1.034-0.426-2.1-0.654-3.145c-0.726-3.57-1.409-7.15-2.157-10.715
		c-0.556,2.678-1.059,5.365-1.597,8.047c-0.364,1.937-0.79,3.863-1.12,5.806c-2.565,0.016-5.13,0.006-7.695,0.004
		c-0.676-2.72-1.357-5.439-2.032-8.159C40.788,525.713,39.482,520.506,38.19,515.295z"/>
	<path style="fill:#595A5A;" d="M101.783,515.293c2.483,0,4.966-0.011,7.449,0.006c-0.018,7.591-0.002,15.182-0.008,22.773
		c-0.008,0.343,0.036,0.692-0.052,1.028c-2.415-0.03-4.831-0.007-7.246-0.011c-2.141-3.219-4.246-6.462-6.374-9.69
		c-0.692-1.077-1.426-2.127-2.087-3.222c-0.031,1.129,0.114,2.249,0.134,3.376c0.162,1.985,0.082,3.978,0.101,5.968
		c-0.008,1.188,0.015,2.378-0.012,3.566c-2.488-0.006-4.975,0.006-7.463-0.007c-0.001-7.93-0.006-15.859,0.003-23.789
		c2.44,0.006,4.879-0.002,7.32,0.004c2.811,4.308,5.627,8.613,8.452,12.912c0.032-0.958-0.116-1.909-0.111-2.868
		c-0.181-2.349-0.089-4.709-0.112-7.062C101.78,517.283,101.776,516.288,101.783,515.293z"/>
	<path style="fill:#595A5A;" d="M73.605,515.294c2.604-0.004,5.208,0.002,7.812-0.003c0.005,7.93,0.01,15.859-0.002,23.788
		c-2.603,0.016-5.205,0.002-7.809,0.007C73.596,531.156,73.6,523.225,73.605,515.294z"/>
	<path style="fill:#595A5A;" d="M93.946,567.488c1.365-1.422,3.325-2.231,5.294-2.203c0.009,0.632,0.008,1.264,0,1.896
		c-0.459,0.019-0.917,0.05-1.365,0.156c-0.081,4.173-0.075,8.347-0.105,12.521c-0.567-0.127-1.128-0.305-1.633-0.595
		c-0.012-3.705,0.016-7.411-0.022-11.115c-1.449,0.993-2.315,2.723-2.329,4.471c-0.635-0.001-1.269,0.002-1.903-0.001
		C91.853,570.724,92.61,568.831,93.946,567.488z"/>
	<path style="fill:#595A5A;" d="M100.112,571.576c0.007-2.081-0.027-4.164,0.018-6.245c1.9,0.268,3.697,1.277,4.85,2.82
		c0.456,0.641,0.903,1.33,1.074,2.106c-0.707-0.1-1.426-0.092-2.132-0.204c-0.471-0.864-1.163-1.623-2.02-2.113
		c-0.009,1.523,0.021,3.044,0.028,4.566c0.905,0.009,1.811-0.007,2.716,0.009c0.031,0.625-0.075,1.253-0.298,1.838
		c-0.785-0.019-1.568-0.061-2.352-0.073c-0.131,0.362-0.022,0.747-0.024,1.12c0.001,1.291,0.01,2.582,0.024,3.873
		c-0.596,0.253-1.222,0.432-1.866,0.496C100.103,577.037,100.123,574.306,100.112,571.576z"/>
	<g>
		<path style="fill:#595A5A;" d="M42.681,543.422c15.48,0.001,30.961,0,46.441,0c1.438,0.012,2.921-0.108,4.302,0.384
			c1.144,0.367,2.156,1.159,2.732,2.22c0.453,0.831,0.683,1.782,0.665,2.729c-0.002,1.499,0.001,2.999-0.002,4.499
			c0.003,0.683,0.225,1.387,0.704,1.887c0.401,0.411,0.936,0.707,1.509,0.78c0.668,0.043,1.31-0.31,1.766-0.777
			c0.489-0.496,0.702-1.203,0.707-1.887c0.005-1.567,0-3.133,0.002-4.7c0.024-1.41,0.588-2.84,1.667-3.775
			c1.163-1.02,2.759-1.355,4.268-1.362c16.068,0.003,32.135-0.004,48.203,0.003c-0.544,1.576-1.669,2.891-2.948,3.93
			c-2.175,1.738-4.864,2.702-7.575,3.213c-0.904,2.313-2.762,4.329-5.163,5.094c-0.756,0.248-1.552,0.381-2.347,0.395
			c-0.118,0.014-0.262-0.028-0.34,0.084c-1.856,2.043-4.38,3.465-7.083,4.015c-1.846,0.391-3.758,0.304-5.606-0.029
			c1.482,1.137,2.362,2.962,2.487,4.81c-1.435,0.015-2.868,0.097-4.303,0.135c-0.017,1.021-0.085,2.042-0.086,3.064
			c-0.856-0.011-1.712-0.062-2.567-0.066c0.006,0.966-0.005,1.933,0.006,2.899c-0.773,0.079-1.552,0.05-2.326,0.105
			c-0.118,0.061-0.082,0.199-0.096,0.306c-0.022,0.779-0.121,1.553-0.141,2.332c-0.847,0.091-1.7,0.148-2.551,0.188
			c-0.068,0.861,0.003,1.728-0.042,2.592c-1.004,0.03-2.007,0.118-3.01,0.164c-0.967,3.068-3.2,5.725-6.067,7.188
			c-1.437,0.745-3.021,1.185-4.623,1.382c-2.059,0.24-4.169,0.141-6.181-0.376c-1.807-0.465-3.511-1.334-4.936-2.54
			c-1.738-1.495-3.083-3.463-3.776-5.653c-1.003-0.053-2.006-0.124-3.008-0.175c-0.003-0.858,0.002-1.716-0.004-2.573
			c-0.844-0.033-1.681-0.145-2.526-0.155c-0.053-0.167-0.079-0.34-0.085-0.512c-0.024-0.724-0.116-1.444-0.135-2.169
			c-0.8-0.046-1.605-0.023-2.402-0.107c0.017-0.968,0.007-1.936,0.004-2.903c-0.853,0.029-1.707,0.054-2.559,0.072
			c-0.014-1.022-0.065-2.042-0.09-3.063c-1.037-0.016-2.069-0.089-3.106-0.106c-0.404-0.023-0.813,0.011-1.211-0.076
			c0.174-1.829,1.016-3.645,2.507-4.764c-1.171,0.197-2.361,0.35-3.55,0.276c-3.484-0.122-6.894-1.727-9.207-4.334
			c-1.684,0.005-3.385-0.481-4.748-1.487c-1.374-1.006-2.422-2.431-3.046-4.01c-3.061-0.574-6.127-1.743-8.395-3.944
			C43.901,545.714,43.092,544.654,42.681,543.422z M45.614,545.076c0.075,0.186,0.186,0.359,0.341,0.49
			c1.156,0.997,2.596,1.579,4.03,2.056c3.374,1.049,6.916,1.355,10.422,1.558c2.253,0.034,4.508,0.044,6.761,0.002
			c0.622,0.01,1.239-0.095,1.861-0.081c0.613,0.015,1.216-0.121,1.829-0.109c0.421,0.003,0.866-0.183,1.266,0.021
			c-0.094,0.371-0.297,0.724-0.602,0.96c-0.695,0.478-1.494,0.796-2.323,0.947c-1.269,0.35-2.584,0.464-3.889,0.579
			c-0.845,0.092-1.701-0.006-2.54,0.133c-1.277-0.014-2.558,0.059-3.83-0.071c-0.687-0.017-1.374-0.017-2.059-0.039
			c-0.468-0.063-0.941-0.074-1.413-0.056c0.142,0.369,0.352,0.72,0.67,0.964c1.123,0.832,2.524,1.136,3.882,1.325
			c0.805,0.187,1.638,0.092,2.451,0.22c0.879,0.019,1.76,0.013,2.639,0.003c0.583-0.113,1.177-0.067,1.765-0.108
			c0.617-0.085,1.244-0.045,1.858-0.168c1.181-0.01,2.336-0.349,3.517-0.31c-0.208,0.786-0.726,1.47-1.43,1.874
			c-0.967,0.555-2.066,0.852-3.169,0.978c-1.383,0.261-2.8,0.151-4.2,0.198c1.041,1.005,2.413,1.6,3.806,1.928
			c1.386,0.272,2.821,0.43,4.227,0.229c1.066-0.005,2.097-0.31,3.133-0.519c1.867-0.538,3.725-1.165,5.45-2.067
			c0.006,0.862,0.214,1.786,0.866,2.395c0.754,0.776,1.862,0.97,2.875,1.175c-0.368,0.614-0.347,1.507,0.208,2.008
			c0.562,0.599,1.381,0.83,2.161,0.986c0.121,0.03,0.266,0.036,0.344,0.153c-0.027,0.27-0.103,0.538-0.077,0.812
			c0.088,0.33,0.107,0.688,0.306,0.979c0.357,0.644,1.124,0.889,1.813,0.959c-0.578,0.654-1.492,1.102-2.377,0.924
			c-0.491-0.101-0.809-0.514-1.132-0.859c-0.238-0.471-0.472-0.949-0.616-1.459c-0.43-0.138-0.886-0.211-1.292-0.414
			c-0.291-0.169-0.572-0.358-0.829-0.574c-0.476-0.476-0.762-1.15-0.707-1.828c-0.557-0.211-1.154-0.336-1.656-0.674
			c-0.506-0.255-0.874-0.705-1.103-1.215c-2.037-0.024-3.951,1.213-4.976,2.938c-0.227,0.415-0.522,0.811-0.618,1.283
			c0.452,0.104,0.91,0,1.368,0.018c0.798,0.01,1.606-0.017,2.398,0.064c-0.007,0.982-0.005,1.963,0,2.946
			c0.908,0.017,1.816-0.012,2.725,0.016c0.036,0.971-0.003,1.942,0.02,2.913c0.815,0.004,1.63-0.01,2.445,0.008
			c0.008,0.539-0.023,1.078-0.014,1.618c-0.001,0.277,0.03,0.568-0.092,0.828c0.905,0.158,1.826,0.033,2.738,0.106
			c-0.005,0.952-0.003,1.904,0,2.856c0.908-0.016,1.809-0.167,2.721-0.118c0.098,0.598,0.413,1.126,0.604,1.694
			c0.414,0.831,0.839,1.668,1.43,2.39c1.659,2.39,4.286,4.087,7.158,4.582c0.833,0.201,1.694,0.165,2.543,0.173
			c2.056,0.059,4.127-0.469,5.908-1.497c0.843-0.539,1.713-1.098,2.342-1.887c0.452-0.331,0.767-0.806,1.114-1.237
			c0.908-1.28,1.695-2.681,2.095-4.206c0.91-0.074,1.811,0.094,2.718,0.11c0.005-0.953,0.008-1.906-0.004-2.858
			c0.798-0.055,1.598-0.011,2.397-0.022c0.116-0.005,0.228-0.03,0.336-0.077c0-0.407-0.093-0.811-0.036-1.216
			c0.05-0.418-0.113-0.837,0-1.251c0.794,0.015,1.588,0.001,2.384,0.004c0.024-0.971-0.018-1.942,0.019-2.912
			c0.908-0.019,1.817,0.003,2.726-0.013c0.013-0.981,0.006-1.961,0.006-2.942c0.334-0.113,0.685-0.01,1.029-0.026
			c0.913-0.015,1.829,0.016,2.739-0.058c-0.09-0.441-0.334-0.824-0.556-1.207c-0.468-0.739-1.025-1.443-1.758-1.935
			c-0.896-0.614-1.96-1.135-3.078-0.972c-0.147-0.029-0.217,0.092-0.282,0.194c0.01-0.052,0.029-0.156,0.039-0.209
			c0.295,0,0.59-0.013,0.883-0.059c-0.311-0.048-0.624-0.039-0.936-0.022c-0.032,0.257-0.152,0.492-0.336,0.673
			c-0.592,0.612-1.416,0.966-2.244,1.101c-0.066,0.73-0.303,1.477-0.851,1.989c-0.573,0.525-1.329,0.756-2.067,0.932
			c-0.203,0.748-0.538,1.509-1.155,2.007c-0.391,0.38-0.991,0.382-1.492,0.29c-0.587-0.152-1.096-0.509-1.536-0.916
			c0.594-0.046,1.25-0.185,1.657-0.658c0.578-0.563,0.542-1.44,0.52-2.185c0.731-0.142,1.481-0.294,2.1-0.737
			c0.794-0.429,1.035-1.574,0.531-2.306c0.423-0.138,0.877-0.158,1.302-0.298c0.911-0.255,1.8-0.827,2.174-1.729
			c0.238-0.482,0.186-1.028,0.186-1.548c2.804,1.283,5.761,2.395,8.864,2.603c1.075,0.177,2.164,0.032,3.237-0.082
			c1.33-0.24,2.655-0.654,3.789-1.407c0.324-0.188,0.552-0.501,0.881-0.683c-1.84-0.026-3.709,0.051-5.501-0.432
			c-1.034-0.254-2.093-0.656-2.797-1.49c-0.258-0.359-0.538-0.77-0.463-1.234c0.7,0.158,1.423,0.168,2.128,0.299
			c0.584,0.093,1.185,0.065,1.764,0.186c2.084,0.172,4.178,0.168,6.267,0.138c1.055,0.017,2.099-0.151,3.132-0.343
			c0.596-0.152,1.191-0.316,1.76-0.553c0.681-0.327,1.392-0.796,1.621-1.559c-0.508-0.005-1.015,0.007-1.52,0.067
			c-1.405,0.039-2.811,0.057-4.216,0.049c-1.771,0.001-3.548,0.01-5.309-0.18c-1.639-0.213-3.352-0.417-4.796-1.287
			c-0.41-0.233-0.703-0.631-0.821-1.086c0.064-0.028,0.192-0.085,0.256-0.114c0.51,0.133,1.043,0.046,1.564,0.106
			c0.843,0.141,1.703,0.038,2.548,0.149c2.176,0.055,4.353,0.053,6.53,0.031c0.829,0.017,1.653-0.108,2.483-0.098
			c1.016-0.159,2.056-0.104,3.07-0.305c2.65-0.326,5.318-0.835,7.756-1.961c0.553-0.237,1.046-0.576,1.552-0.896
			c0.032-0.072,0.067-0.144,0.102-0.216c0.005,0.05,0.017,0.149,0.023,0.199c0.195-0.315,0.504-0.535,0.723-0.833
			c-15.121-0.015-30.242-0.002-45.363-0.006c-0.79-0.003-1.589,0.211-2.254,0.641c-1.044,0.698-1.639,1.913-1.827,3.129
			c-0.104,0.483-0.061,0.978-0.068,1.468c-0.004,1.374,0.006,2.748-0.007,4.123c-0.005,0.781-0.33,1.56-0.9,2.097
			c-0.638,0.61-1.523,0.886-2.381,0.992c-0.819,0.01-1.656,0.081-2.452-0.154c-1.047-0.21-1.938-0.985-2.34-1.966
			c-0.07-0.354-0.173-0.705-0.165-1.068c-0.002-1.701,0.002-3.401-0.004-5.101c-0.113-1.384-0.749-2.779-1.924-3.57
			c-0.67-0.402-1.456-0.571-2.229-0.597C75.794,545.075,60.704,545.062,45.614,545.076z"/>
	</g>
	<g>
		<path style="fill:#595A5A;" d="M96.168,563.102c0.377-0.037,0.749-0.116,1.107-0.24c1.466-0.066,2.98-0.212,4.404,0.236
			c2.855,0.744,5.313,2.892,6.394,5.642c0.368,0.837,0.573,1.739,0.677,2.645c0.054,1.165,0.067,2.355-0.264,3.486
			c-0.798,3.071-3.201,5.689-6.224,6.679c-0.701,0.237-1.43,0.379-2.162,0.471c-0.851,0.002-1.716,0.077-2.555-0.105
			c-2.23-0.356-4.294-1.565-5.748-3.284c-1.266-1.48-2.035-3.359-2.243-5.289c0.004-0.815-0.085-1.643,0.09-2.445
			c0.504-3.546,3.208-6.658,6.63-7.691c0.501-0.082,0.98-0.262,1.48-0.344C97.197,562.795,96.726,563.205,96.168,563.102z
			 M97.605,564.116c-2.281,0.415-4.366,1.816-5.589,3.789c-1.621,2.507-1.731,5.897-0.287,8.51c0.891,1.691,2.397,3.037,4.157,3.775
			c1.752,0.733,3.749,0.854,5.577,0.337c1.627-0.451,3.114-1.404,4.19-2.706c2.248-2.589,2.6-6.6,0.884-9.558
			c-0.945-1.681-2.487-3.021-4.288-3.709C100.78,563.977,99.154,563.839,97.605,564.116z"/>
	</g>
</g>
</svg>
