<?xml version="1.0" encoding="UTF-8"?>
<svg id="_图层_1" data-name="图层 1" xmlns="http://www.w3.org/2000/svg" viewBox="0 0 200 100">
  <defs>
    <style>
      .cls-1 {
        fill: #595a5a;
      }
    </style>
  </defs>
  <path class="cls-1" d="M23.47,58.6c-.75,0-1.46-.25-2.01-.72-1.61-1.38-4.35-4.75-4.55-11.86-.14-4.82,1.82-7.79,3.49-9.43,2.4-2.35,5.49-3.33,7.35-3.23.67.03,1.61.56,1.93.89,1.24,1.26,2.61,3.77,2.41,6.68-.21,2.97-1.92,5.71-5.1,8.17l-1.41-1.83c2.63-2.03,4.05-4.22,4.21-6.5.16-2.26-.99-4.1-1.72-4.87-.11-.08-.36-.2-.48-.24-1.14-.03-3.59.63-5.58,2.58-1.95,1.92-2.9,4.51-2.8,7.71.18,6.22,2.43,9.04,3.75,10.18.17.15.43.2.7.15,8.95-1.63,14.4-9.39,14.97-15.86.5-5.64-2.44-10.1-8.09-12.21l.81-2.16c6.59,2.47,10.17,7.92,9.58,14.58-.65,7.32-6.79,16.09-16.86,17.93-.2.04-.41.06-.61.06Z"/>
  <path class="cls-1" d="M47.52,75.3c-1.26,0-2.35-.21-3.24-.48-3.21-.97-5.56-3.21-6.37-4.89-.29-.6-.28-1.67-.15-2.12.51-1.7,2.04-4.11,4.69-5.33,2.7-1.25,5.93-1.07,9.61.54l-.92,2.11c-3.05-1.33-5.65-1.52-7.72-.56-2.05.95-3.12,2.85-3.43,3.85-.01.13,0,.41.02.53.51,1,2.28,2.84,4.95,3.65,2.62.79,5.35.36,8.11-1.26,5.36-3.16,6.76-6.48,7.11-8.19.05-.22-.03-.47-.21-.69-5.74-7.06-15.16-8.09-21.11-5.48-5.19,2.28-7.67,7.01-6.81,12.97l-2.28.33c-1.01-6.97,2.04-12.73,8.16-15.42,6.73-2.95,17.37-1.8,23.83,6.14.62.76.86,1.71.68,2.62-.43,2.08-2.07,6.1-8.2,9.7-2.51,1.48-4.79,1.95-6.7,1.96Z"/>
  <path class="cls-1" d="M60.1,53.22c-2.65,0-5.3-.82-7.76-2.47-6.1-4.1-10.83-13.7-7.58-23.41.31-.93.99-1.65,1.85-1.97,1.98-.75,6.26-1.52,12.59,1.73,4.29,2.2,5.94,5.35,6.58,7.6.9,3.23.27,6.41-.71,8-.35.57-1.26,1.14-1.71,1.26-1.7.48-4.56.47-7.01-1.1-2.5-1.61-4.08-4.44-4.7-8.4l2.28-.35c.51,3.29,1.74,5.58,3.66,6.82,1.9,1.22,4.07,1.11,5.1.84.12-.06.35-.21.44-.3.57-.97,1.18-3.45.43-6.13-.74-2.63-2.56-4.71-5.41-6.17-5.54-2.84-9.09-2.23-10.72-1.62-.21.08-.38.28-.47.55-2.88,8.63,1.29,17.14,6.68,20.76,4.7,3.16,10.03,2.72,14.6-1.2l1.5,1.75c-2.97,2.55-6.3,3.84-9.63,3.84Z"/>
  <g>
    <path class="cls-1" d="M94.32,48.6c.98,0,2-.1,3.06-.3,1.06-.2,2.14-.48,3.23-.85v4.01c-.65.28-1.65.55-2.99.81-1.35.25-2.74.38-4.18.38s-2.84-.19-4.15-.56c-1.31-.38-2.45-.98-3.43-1.82-.98-.84-1.75-1.92-2.33-3.25-.57-1.33-.86-2.94-.86-4.84s.27-3.5.81-4.91c.54-1.4,1.26-2.56,2.17-3.48.91-.92,1.94-1.61,3.11-2.07,1.17-.46,2.37-.69,3.62-.69s2.5.2,3.6.59c1.1.4,2.05,1.02,2.85,1.87.8.85,1.42,1.94,1.87,3.28.45,1.34.67,2.92.67,4.75-.01.71-.04,1.31-.06,1.8h-13.48c.07.95.28,1.76.64,2.43.35.67.82,1.22,1.39,1.64.57.42,1.24.72,2.01.91.76.19,1.59.29,2.48.29ZM92.3,34.97c-.64,0-1.2.12-1.7.35-.5.23-.92.55-1.28.96-.36.4-.65.87-.86,1.41-.21.54-.35,1.11-.42,1.72h8.09c0-.61-.08-1.18-.24-1.72-.16-.54-.4-1.01-.72-1.41-.32-.4-.72-.72-1.19-.96-.47-.23-1.03-.35-1.67-.35Z"/>
    <path class="cls-1" d="M124.59,31.55l-7.96,20.58h-4.99l-7.98-20.58h5.31l2.87,7.86c.82,2.21,1.57,4.42,2.25,6.63h.08c.59-1.91,1.33-4.08,2.21-6.5l2.87-7.98h5.35Z"/>
    <path class="cls-1" d="M138.55,48.6c.98,0,2-.1,3.06-.3,1.06-.2,2.14-.48,3.23-.85v4.01c-.65.28-1.65.55-2.99.81-1.35.25-2.74.38-4.18.38s-2.84-.19-4.15-.56c-1.31-.38-2.45-.98-3.43-1.82-.98-.84-1.75-1.92-2.33-3.25-.57-1.33-.86-2.94-.86-4.84s.27-3.5.81-4.91c.54-1.4,1.26-2.56,2.17-3.48.91-.92,1.94-1.61,3.11-2.07,1.17-.46,2.37-.69,3.62-.69s2.5.2,3.6.59c1.1.4,2.05,1.02,2.85,1.87.8.85,1.42,1.94,1.87,3.28.45,1.34.67,2.92.67,4.75-.01.71-.04,1.31-.06,1.8h-13.48c.07.95.28,1.76.64,2.43.35.67.82,1.22,1.39,1.64.57.42,1.24.72,2.01.91.76.19,1.59.29,2.48.29ZM136.53,34.97c-.64,0-1.2.12-1.7.35-.5.23-.92.55-1.28.96-.36.4-.65.87-.86,1.41-.21.54-.35,1.11-.42,1.72h8.09c0-.61-.08-1.18-.24-1.72-.16-.54-.4-1.01-.72-1.41-.32-.4-.72-.72-1.19-.96-.47-.23-1.03-.35-1.67-.35Z"/>
    <path class="cls-1" d="M162.87,35.54h-.42c-1.54,0-2.9.23-4.07.69s-2.07,1.16-2.71,2.11v13.78h-5.03v-20.58h4.16l.47,2.87h.08c.59-1.05,1.41-1.87,2.45-2.47,1.04-.6,2.29-.9,3.75-.9.51,0,.95.03,1.32.08v4.42Z"/>
    <path class="cls-1" d="M178.34,49.94h-.08c-.28.3-.62.6-1.02.91-.4.31-.85.61-1.36.88-.51.28-1.08.5-1.7.67-.62.17-1.3.25-2.02.25-.98,0-1.89-.15-2.74-.46s-1.58-.74-2.19-1.32c-.61-.57-1.09-1.27-1.43-2.08-.35-.81-.52-1.72-.52-2.73,0-1.1.2-2.09.61-2.97.4-.88.97-1.62,1.69-2.23.72-.61,1.59-1.07,2.59-1.39,1-.32,2.12-.48,3.33-.48.89,0,1.71.06,2.46.17.75.11,1.41.25,1.97.4v-.83c0-.48-.08-.95-.24-1.39s-.42-.84-.79-1.19c-.36-.35-.83-.62-1.41-.83-.58-.21-1.29-.31-2.12-.31-1.02,0-2.04.11-3.06.34-1.02.23-2.12.57-3.31,1.02v-3.93c1.03-.45,2.13-.8,3.29-1.04s2.38-.37,3.65-.38c1.5,0,2.81.18,3.94.55,1.13.37,2.07.87,2.82,1.52.76.64,1.32,1.41,1.7,2.28.38.88.56,1.83.56,2.87v7.75c0,1.36.01,2.53.04,3.5.03.98.06,1.85.08,2.61h-4.54l-.21-2.19ZM177.94,43.36c-.48-.11-1.03-.22-1.66-.31-.62-.09-1.25-.14-1.89-.14-1.23,0-2.21.24-2.92.73-.72.49-1.07,1.24-1.07,2.24,0,.47.08.87.24,1.22.16.35.38.63.66.86.28.23.6.4.97.51.37.11.76.17,1.17.17.51,0,.99-.07,1.44-.2.45-.13.87-.3,1.25-.51.38-.21.72-.44,1.03-.69.3-.25.56-.5.78-.74v-3.14Z"/>
  </g>
  <path class="cls-1" d="M83.85,69.17v-10.06h.92v4.05c.79-.96,1.76-1.44,2.91-1.44,1.04,0,1.92.38,2.65,1.13.72.75,1.09,1.66,1.09,2.73s-.37,1.95-1.11,2.71c-.74.76-1.62,1.13-2.65,1.13-1.15,0-2.11-.53-2.89-1.59v1.34h-.92ZM84.72,65.49c0,.85.28,1.56.83,2.15s1.23.88,2.04.88,1.48-.3,2.04-.89c.56-.59.84-1.29.84-2.08s-.27-1.5-.82-2.09c-.55-.59-1.23-.89-2.05-.89s-1.51.28-2.06.83c-.55.56-.83,1.25-.83,2.09Z"/>
  <path class="cls-1" d="M91.92,61.91h.98l2.5,5.59,2.42-5.59h1l-4.33,9.91h-.98l1.39-3.2-2.98-6.71Z"/>
  <path class="cls-1" d="M110.69,63.25l-.74.46c-.64-.85-1.51-1.27-2.63-1.27-.88,0-1.61.28-2.2.84s-.89,1.26-.89,2.08.29,1.54.88,2.13c.58.59,1.32.89,2.21.89,1.07,0,1.94-.42,2.63-1.27l.74.49c-.36.53-.85.93-1.47,1.22s-1.28.42-1.99.42c-1.12,0-2.06-.37-2.81-1.11-.75-.74-1.13-1.64-1.13-2.69s.38-1.99,1.14-2.75,1.74-1.14,2.93-1.14c.7,0,1.35.15,1.95.45s1.05.72,1.37,1.24Z"/>
  <path class="cls-1" d="M111.17,59.96c0-.21.07-.39.22-.55.15-.16.33-.23.54-.23s.4.08.55.23c.15.15.23.33.23.55s-.07.39-.23.54c-.15.15-.33.23-.55.23s-.39-.08-.54-.23c-.15-.15-.22-.33-.22-.53ZM111.47,61.99h.94v7.26h-.94v-7.26Z"/>
  <path class="cls-1" d="M118.13,69.03c-.26.14-.6.21-1.02.21-1.2,0-1.8-.67-1.8-2v-4.05h-1.17v-.93h1.17v-1.67l1.09-.35v2.02h1.72v.93h-1.72v3.85c0,.46.08.79.23.98s.41.29.77.29c.28,0,.51-.08.71-.23v.93Z"/>
  <path class="cls-1" d="M124.32,63.52c-.19-.15-.47-.22-.83-.22-.47,0-.86.22-1.17.66-.31.44-.47,1.04-.47,1.8v3.48h-1.09v-6.84h1.09v1.41h.03c.16-.48.39-.86.71-1.13s.68-.4,1.08-.4c.28,0,.5.03.65.09v1.13Z"/>
  <path class="cls-1" d="M126.67,65.42c0-1.07.37-1.98,1.1-2.73.73-.76,1.63-1.13,2.69-1.13s1.94.38,2.67,1.13c.73.76,1.1,1.67,1.1,2.73s-.36,1.95-1.09,2.7c-.72.75-1.62,1.13-2.69,1.13s-1.96-.38-2.69-1.13c-.73-.75-1.09-1.65-1.09-2.7ZM133.28,65.43c0-.8-.28-1.5-.84-2.09-.56-.59-1.22-.88-1.99-.88s-1.44.29-2,.88c-.56.59-.83,1.28-.83,2.09s.27,1.51.81,2.08,1.21.85,2.02.85,1.45-.28,2-.85c.55-.57.83-1.26.83-2.07Z"/>
  <path class="cls-1" d="M139.89,62.53l-.6.62c-.5-.48-.99-.72-1.46-.72-.31,0-.57.1-.78.29s-.31.43-.31.7c0,.3.11.55.33.76.22.2.57.43,1.05.69.62.32,1.07.64,1.36.98s.43.74.43,1.22c0,.61-.21,1.13-.64,1.54-.42.42-.94.63-1.57.63-.41,0-.8-.09-1.18-.27-.38-.18-.7-.44-.96-.77l.59-.66c.48.54.99.81,1.52.81.37,0,.69-.12.96-.37.26-.25.4-.54.4-.88s-.12-.6-.35-.81c-.23-.21-.59-.45-1.09-.7-.59-.29-1.02-.6-1.29-.92s-.4-.72-.4-1.2c0-.56.19-1.02.57-1.38.38-.36.85-.55,1.43-.55.67,0,1.34.33,2.01.98Z"/>
  <path class="cls-1" d="M142.42,61.74h.94v3.45c0,.74.03,1.26.1,1.57.07.31.2.58.4.83.2.25.45.43.74.56.29.13.62.19,1,.19s.72-.07,1.01-.2c.29-.13.54-.32.73-.56s.32-.51.38-.8c.06-.29.09-.82.09-1.59v-3.45h.96v3.61c0,1.04-.12,1.81-.36,2.31-.24.5-.59.89-1.07,1.17-.47.28-1.06.42-1.75.42s-1.24-.13-1.72-.4-.84-.67-1.09-1.19-.38-1.31-.38-2.36v-3.55Z"/>
  <path class="cls-1" d="M157.99,63.25l-.74.46c-.64-.85-1.51-1.27-2.63-1.27-.88,0-1.61.28-2.2.84s-.89,1.26-.89,2.08.29,1.54.88,2.13c.58.59,1.32.89,2.21.89,1.07,0,1.94-.42,2.63-1.27l.74.49c-.36.53-.85.93-1.47,1.22s-1.28.42-1.99.42c-1.12,0-2.06-.37-2.81-1.11s-1.13-1.64-1.13-2.69.38-1.99,1.14-2.75,1.74-1.14,2.93-1.14c.7,0,1.35.15,1.95.45s1.05.72,1.37,1.24Z"/>
  <path class="cls-1" d="M158.13,65.42c0-1.07.37-1.98,1.1-2.73.73-.76,1.63-1.13,2.69-1.13s1.94.38,2.67,1.13c.73.76,1.1,1.67,1.1,2.73s-.36,1.95-1.09,2.7c-.72.75-1.62,1.13-2.69,1.13s-1.96-.38-2.69-1.13c-.73-.75-1.09-1.65-1.09-2.7ZM164.74,65.43c0-.8-.28-1.5-.84-2.09-.56-.59-1.22-.88-1.99-.88s-1.44.29-2,.88c-.56.59-.83,1.28-.83,2.09s.27,1.51.81,2.08,1.21.85,2.02.85,1.45-.28,2-.85c.55-.57.83-1.26.83-2.07Z"/>
</svg>