<?xml version="1.0" encoding="UTF-8"?>
<svg id="_图层_1" data-name="图层 1" xmlns="http://www.w3.org/2000/svg" viewBox="0 0 200 100">
  <defs>
    <style>
      .cls-1 {
        fill: #595a5a;
      }
    </style>
  </defs>
  <path class="cls-1" d="M33.59,31.85c.84-.3,1.66.32,2.01,1.05,2.45,4.53,4.93,9.04,7.39,13.57-1.14,2.37-2.4,4.68-3.57,7.03-1.36-2.46-2.64-4.97-3.99-7.44-.51-1-2.11-1.03-2.59.01-2.74,5.2-5.44,10.43-8.15,15.64,8.25.11,16.51.01,24.76.05,1.45.01,2.77,1.19,3.01,2.61.39,1.81-1.17,3.72-3.02,3.73-10.08,0-20.17,0-30.26,0-1.64,0-3.09-1.52-3.06-3.15-.03-.98.53-1.84.98-2.67,4.91-9.37,9.84-18.72,14.74-28.1.48-.83.78-1.93,1.74-2.33Z"/>
  <path class="cls-1" d="M70.69,33.13c.31-.64.84-1.31,1.61-1.34.77.02,1.35.65,1.64,1.31,6.07,11.66,12.17,23.3,18.21,34.98-1.77.09-3.54.26-5.31.08-1.08-.12-2.05-.81-2.56-1.75-1.02-1.88-1.97-3.81-3.02-5.68-.13-.36-.53-.33-.84-.34-4.46,0-8.92.02-13.38,0,1.04-2.1,1.99-4.24,3.05-6.32,2.6-.03,5.2.02,7.79-.03-1.32-2.6-2.75-5.15-4.08-7.74-.32-.71-1.19-1.16-1.94-.85-.85.29-1.06,1.27-1.46,1.96-3.61,6.9-7.17,13.83-10.8,20.71-1.18.16-2.46.24-3.55-.33-1.46-.78-2.18-2.8-1.31-4.26,5.29-10.14,10.62-20.25,15.93-30.38Z"/>
  <path class="cls-1" d="M94.72,33.39c-.07-.88.71-1.65,1.58-1.59,3.27.01,6.55-.04,9.82.03,5.54.36,10.46,4.8,11.41,10.26.8,4.07-.63,8.5-3.65,11.34-2.52,2.55-6.19,3.85-9.76,3.55,0-2.18,0-4.37,0-6.55,3.39.42,6.94-2.16,7.04-5.68.33-3.08-2.09-6.21-5.21-6.47-1.66-.04-3.33,0-4.99,0,0,9.94,0,19.89,0,29.83-2.08-.08-4.15.2-6.24.11,0-11.61,0-23.21,0-34.82Z"/>
  <path class="cls-1" d="M120.46,31.8c2.11,0,4.23,0,6.35,0,0,7.08,0,14.16,0,21.25,0,1.27-.09,2.56.28,3.79.77,2.8,3.53,4.94,6.45,4.92,2.88.11,5.66-1.87,6.55-4.6.46-1.13.3-2.37.32-3.55,0-7.28-.02-14.55.02-21.83,2.14.02,4.29,0,6.44,0,.02,7.65,0,15.31.01,22.96-.02,4.07-1.94,8.14-5.21,10.59-2.85,2.29-6.71,3.22-10.3,2.59-5.92-.97-10.74-6.42-10.91-12.43,0-7.9,0-15.8,0-23.71Z"/>
  <path class="cls-1" d="M162.58,32.76c.32-.7,1.15-1.18,1.91-.9.73.28,1.08,1.03,1.41,1.68,5.98,11.51,12.01,23.01,17.97,34.53-1.72.07-3.45.25-5.17.09-1.13-.11-2.2-.77-2.72-1.8-1.07-1.98-2.1-3.98-3.15-5.98-4.69-.01-9.38.01-14.06-.01.97-2.12,2.07-4.19,2.99-6.33,2.62-.02,5.24.02,7.86-.02-1.38-2.66-2.8-5.3-4.22-7.94-.49-.96-2.08-1.01-2.57-.03-3.83,7.34-7.64,14.68-11.46,22.02-1.32.21-2.82.29-3.95-.55-1.22-.88-1.73-2.64-.98-3.99,5.38-10.26,10.77-20.51,16.14-30.77Z"/>
</svg>